<?xml version="1.0" encoding="UTF-8" standalone="no"?>
<!-- Created with Inkscape (http://www.inkscape.org/) -->

<svg
   xmlns:dc="http://purl.org/dc/elements/1.1/"
   xmlns:cc="http://creativecommons.org/ns#"
   xmlns:rdf="http://www.w3.org/1999/02/22-rdf-syntax-ns#"
   xmlns:svg="http://www.w3.org/2000/svg"
   xmlns="http://www.w3.org/2000/svg"
   xmlns:sodipodi="http://sodipodi.sourceforge.net/DTD/sodipodi-0.dtd"
   xmlns:inkscape="http://www.inkscape.org/namespaces/inkscape"
   width="210mm"
   height="297mm"
   viewBox="0 0 744.09448819 1052.3622047"
   id="svg2"
   version="1.1"
   inkscape:version="0.91 r13725"
   sodipodi:docname="gravure-sega-sonic-relax-geek-1.svg">
  <title
     id="title3349">Sonic Relax</title>
  <defs
     id="defs4" />
  <sodipodi:namedview
     id="base"
     pagecolor="#ffffff"
     bordercolor="#666666"
     borderopacity="1.0"
     inkscape:pageopacity="0.0"
     inkscape:pageshadow="2"
     inkscape:zoom="0.35"
     inkscape:cx="847.99996"
     inkscape:cy="288.57143"
     inkscape:document-units="px"
     inkscape:current-layer="layer1"
     showgrid="false"
     inkscape:window-width="1538"
     inkscape:window-height="877"
     inkscape:window-x="-8"
     inkscape:window-y="-8"
     inkscape:window-maximized="1" />
  <metadata
     id="metadata7">
    <rdf:RDF>
      <cc:Work
         rdf:about="">
        <dc:format>image/svg+xml</dc:format>
        <dc:type
           rdf:resource="http://purl.org/dc/dcmitype/StillImage" />
        <dc:title>Sonic Relax</dc:title>
      </cc:Work>
    </rdf:RDF>
  </metadata>
  <g
     inkscape:label="Calque 1"
     inkscape:groupmode="layer"
     id="layer1">
    <path
       style="fill:#000000"
       d="m 546.75454,1029.7236 c -9.24827,-1.1493 -22.15628,-2.735 -28.68447,-3.5238 l -11.86943,-1.4342 -39.19228,-11.0881 -39.19227,-11.0882 -35.48626,5.2937 -35.48624,5.2936 -22.97174,0.3391 -22.97172,0.339 -8.18554,-1.1428 c -7.87054,-1.0988 -9.10762,-1.1757 -32.14789,-1.9984 l -23.96236,-0.8556 -12.11509,-4.3134 c -6.6633,-2.3723 -12.1666,-4.3654 -12.22957,-4.429 -0.063,-0.064 0.0654,-1.97269 0.28526,-4.24243 l 0.39974,-4.12679 9.06195,-10.66078 c 4.98409,-5.86343 9.18138,-10.74292 9.32733,-10.84327 0.14596,-0.10035 0.0465,-3.0981 -0.22091,-6.66159 -0.78996,-10.52512 -1.09869,-8.95364 3.48613,-17.74485 8.97369,-17.20666 16.39366,-28.00403 20.64491,-30.04205 1.21089,-0.58045 1.48137,-0.58039 7.6184,0.003 l 6.36293,0.60401 3.53048,-3.47539 c 1.94178,-1.91144 6.73556,-6.61799 10.65286,-10.45903 6.9281,-6.7932 7.11469,-7.0109 6.84145,-7.98289 -0.38079,-1.3545 0.21007,-5.47656 1.07673,-7.5118 0.77592,-1.82215 2.90021,-3.97944 3.91853,-3.97944 0.59424,0 0.65847,-0.22317 0.65847,-2.28792 0,-15.79077 12.34861,-31.59184 33.54763,-42.92697 1.85872,-0.99387 3.3795,-1.85022 3.3795,-1.90301 0,-0.0528 -1.17498,-3.3882 -2.61105,-7.41202 -1.4361,-4.02387 -2.66014,-7.53733 -2.72008,-7.80776 -0.11767,-0.53072 20.60788,-23.08475 23.52031,-25.59534 10.24589,-8.83229 19.69429,-13.92355 29.73438,-16.02232 3.60119,-0.75279 9.50165,-0.99025 13.5667,-0.54596 l 2.30794,0.25225 4.11063,-7.08037 c 2.26082,-3.8942 7.66689,-13.07581 12.01347,-20.40356 7.29265,-12.29447 47.13007,-83.09786 46.89082,-83.33951 -0.0874,-0.0883 -9.24839,3.08195 -46.40842,16.0601 l -2.18675,0.76372 -1.69997,-1.73894 -1.69996,-1.73898 14.76703,-13.57276 14.76705,-13.57276 16.81503,-18.4222 16.81504,-18.4222 2.03963,-3.95419 c 4.05591,-7.86314 7.22927,-16.40767 8.70517,-23.43934 0.96519,-4.59856 1.04702,-11.75638 0.17135,-14.98857 -1.31922,-4.86934 -4.28684,-8.9405 -8.32229,-11.41694 -1.90323,-1.16798 -2.33327,-1.26254 -21.39106,-4.70235 l -19.44876,-3.51036 -22.9146,7.24118 -22.9146,7.24121 -12.03429,9.42946 -12.03428,9.42945 -5.04337,6.5506 c -2.77384,3.60286 -5.24097,6.75193 -5.48255,6.99794 -0.36627,0.37301 -0.58298,-0.17986 -1.30548,-3.33079 -0.75581,-3.2962 -1.03484,-6.34851 -2.18739,-23.9294 -1.49252,-22.7663 -1.54244,-23.31558 -2.119,-23.31558 -1.04144,0 -8.09054,3.89087 -12.56076,6.93316 -10.50547,7.14965 -28.0679,22.06165 -42.676,36.23558 l -3.46883,3.3657 -2.1431,-0.72833 -2.14309,-0.72839 -0.21634,-2.13773 c -0.11898,-1.17574 -0.31985,-5.28534 -0.44634,-9.13242 l -0.23,-6.99466 2.51394,-24.66132 2.51393,-24.66131 8.32805,-22.98689 8.32806,-22.98692 4.91291,-7.92059 c 4.21807,-6.80036 5.47349,-8.54084 8.8766,-12.3061 5.30998,-5.87508 22.63828,-23.39428 26.70474,-26.9989 6.90778,-6.12329 7.92087,-6.73886 18.46641,-11.22008 5.27919,-2.24333 11.45311,-4.9385 13.71984,-5.98924 2.26673,-1.05077 4.76732,-2.10413 5.55687,-2.34082 1.3333,-0.39969 1.38028,-0.45122 0.65942,-0.72371 -1.57659,-0.59594 -7.47362,-1.92074 -10.83244,-2.43359 -4.75655,-0.72624 -18.38022,-1.00316 -24.60788,-0.50021 -14.07636,1.13684 -31.66412,4.53341 -45.66165,8.81829 -2.06213,0.63124 -11.76119,3.25441 -21.55348,5.82925 -15.99782,4.20656 -18.69243,5.01534 -26.55957,7.97193 -4.81548,1.80975 -9.11815,3.48428 -9.56149,3.72123 -0.44333,0.23691 -15.76021,8.88287 -34.03751,19.2132 l -33.23144,18.78242 -11.60864,8.71323 c -6.38476,4.79228 -14.67825,11.23074 -18.42998,14.30773 -3.75174,3.07699 -6.94164,5.59207 -7.08869,5.58911 -0.58127,-0.0116 -4.55221,-6.06224 -4.44391,-6.77124 0.0603,-0.3947 2.1722,-12.40875 4.69312,-26.69786 l 4.5835,-25.98021 6.55598,-24.64789 6.55597,-24.64789 9.62369,-19.98477 c 16.37669,-34.00823 16.25709,-33.77624 22.58253,-43.80147 l 5.78028,-9.16122 7.74059,-8.32546 c 7.06083,-7.59438 7.66234,-8.33205 6.84963,-8.40016 -0.49002,-0.0423 -6.23219,-0.30615 -12.76039,-0.58759 l -11.86943,-0.51169 -21.92549,2.67513 c -12.05901,1.47133 -23.70589,2.8907 -25.88196,3.15415 -2.17606,0.26345 -5.14341,0.7891 -6.59412,1.1681 -2.7894,0.72874 -14.42487,3.33999 -45.169794,10.13714 -49.418281,10.92548 -76.346349,16.84548 -76.572934,16.83418 -0.136777,-0.007 -1.347766,-1.6091 -2.691087,-3.56065 l -2.442396,-3.54823 7.693111,-15.34161 7.693121,-15.34165 17.278989,-26.97945 17.278978,-26.97944 15.71625,-16.56518 15.716262,-16.56519 20.18783,-17.25204 20.18782,-17.25206 22.34431,-12.89294 22.34432,-12.89294 16.81502,-7.13679 16.81504,-7.1368 14.58379,-4.09801 c 8.02108,-2.25391 14.47509,-4.20767 14.34223,-4.34171 -0.13285,-0.13403 -13.4463,-6.56238 -29.58543,-14.28523 -29.24775,-13.99553 -29.38223,-14.05552 -41.04847,-18.31205 -10.2488,-3.739371 -15.5798,-5.395525 -42.86184,-13.315656 -17.13649,-4.974827 -32.455263,-9.434038 -34.041701,-9.909373 l -2.884436,-0.86425 -4.863664,1.165669 -4.863674,1.165668 -0.0973,-2.495109 c -0.06705,-1.719002 0.03552,-2.623597 0.329706,-2.90819 1.105252,-1.06919 30.371107,-14.781237 39.770707,-18.633926 l 10.32953,-4.233841 0.88655,1.072813 0.88655,1.072812 20.76546,-4.893055 20.76545,-4.893053 33.95977,-2.295621 c 18.67787,-1.262594 35.22784,-2.298828 36.7777,-2.302743 1.54986,-0.0039 25.58547,1.492267 53.41245,3.324851 l 50.59453,3.331968 15.16649,3.17575 c 8.34158,1.746663 25.84899,5.395447 38.90537,8.108407 l 23.73887,4.932652 0.29021,-1.031638 c 1.18233,-4.202704 5.38737,-16.411444 6.77982,-19.684094 2.04375,-4.803393 5.1841,-10.9159 7.01606,-13.656262 3.65519,-5.467742 6.72676,-8.483604 10.4539,-10.264211 1.78473,-0.85265 2.5146,-1.012132 4.61589,-1.008621 3.21293,0.0054 5.52169,0.894891 8.5637,3.299429 2.06788,1.634582 3.0204,2.880536 9.85064,12.88539 4.15879,6.091707 9.24942,13.698834 11.31252,16.904725 4.06229,6.312405 3.43795,4.986328 16.94775,35.995687 l 5.88707,13.512803 3.15703,1.298033 c 4.42496,1.819356 15.23235,7.262766 20.13693,10.142446 5.61758,3.29831 12.64652,8.02489 16.81467,11.3069 3.67804,2.89609 10.876,9.31372 11.85179,10.56691 0.32123,0.4126 1.32985,1.57449 2.24132,2.58198 l 1.6572,1.8318 4.90116,-1.29548 c 9.4537,-2.49881 20.19419,-6.63224 27.46447,-10.56956 6.50245,-3.52146 11.00901,-6.8546 16.17392,-11.96255 6.4577,-6.38646 7.32853,-7.07469 18.14406,-14.339873 7.70978,-5.178935 9.93606,-6.511366 12.35984,-7.397361 7.25244,-2.651093 12.23079,-2.738742 13.84895,-0.243841 1.20148,1.852496 1.07821,2.66195 -3.46252,22.735655 l -4.3596,19.27288 -6.43076,18.31938 -6.43079,18.31938 -5.23882,7.39384 c -2.88136,4.06661 -5.23883,7.53748 -5.23883,7.71304 0,0.17557 0.43623,1.30147 0.96943,2.50198 5.62635,12.6684 6.7857,30.99049 3.29064,52.00478 -2.11823,12.73601 -6.55496,28.27793 -12.05463,42.22763 -1.65783,4.20503 -2.6031,7.12513 -2.88423,8.90988 -0.22998,1.46016 -0.37491,2.65484 -0.32207,2.65484 0.0529,0 0.82216,-0.28911 1.70954,-0.64246 2.44642,-0.97415 8.10939,-2.57637 11.43442,-3.23515 2.03593,-0.40336 4.46794,-0.58341 7.7481,-0.57359 4.27045,0.0128 5.06794,0.10944 7.47141,0.90554 10.82914,3.58692 13.78559,14.87205 9.00794,34.38422 -1.82298,7.44517 -2.21908,8.30624 -6.74375,14.65947 -2.27184,3.18994 -4.13059,5.91663 -4.13059,6.05932 0,0.14269 0.43439,0.51864 0.96528,0.83546 5.58674,3.33396 7.3937,7.82255 5.12803,12.7385 -1.17782,2.55558 -6.39014,7.84176 -10.54435,10.69375 -3.66631,2.51706 -10.62644,6.47467 -14.275,8.11699 l -2.73525,1.23119 -8.0155,9.79014 c -11.21341,13.69613 -38.36419,43.70088 -50.15043,55.42205 l -9.37801,9.32622 5.84533,8.49927 5.84534,8.49926 4.18932,15.48247 4.18931,15.48247 0.89212,10.65854 0.89212,10.65856 -0.76551,29.47754 -0.76548,29.47754 -6.34906,23.64864 -6.34909,23.64866 -10.57982,30.47678 -10.57983,30.47678 -10.05034,42.13457 -10.05035,42.13457 -0.50233,9.29548 c -0.2763,5.11254 -0.4639,9.3239 -0.41695,9.35861 0.0469,0.0347 7.72631,0.77943 17.06524,1.65493 l 16.97989,1.5919 2.30795,1.5218 c 3.62255,2.38868 7.99723,7.03401 9.62294,10.21832 1.55443,3.04467 2.05566,4.69632 2.42592,7.9939 0.52391,4.66546 -0.77667,10.73839 -3.44679,16.09477 -2.60442,5.22463 -7.76567,12.09726 -12.7966,17.03973 -1.11536,1.09576 -1.96321,2.03368 -1.88408,2.0843 0.0791,0.0506 1.33083,0.66583 2.78155,1.36713 12.27424,5.93348 21.92614,15.19203 25.772,24.72173 2.29613,5.68964 2.99356,12.40163 1.90131,18.29837 -0.27144,1.46555 -0.57725,3.11966 -0.67959,3.67576 l -0.18599,1.01116 28.79855,12.36085 c 37.93857,16.2839 51.17372,21.40383 78.60473,30.40778 11.77573,3.86525 23.37712,7.54487 25.78081,8.17696 15.30422,4.02441 23.48984,10.40644 23.48984,18.31418 0,1.27024 0.34698,2.52225 1.34012,4.83545 0.73706,1.71679 1.27736,3.36398 1.20063,3.66039 -0.0767,0.29643 -1.80563,2.95394 -3.84197,5.90562 l -3.70247,5.36665 -23.71232,14.18496 -23.71237,14.185 -26.95097,5.4835 -26.95099,5.4835 -17.63931,1.3351 c -9.70161,0.7342 -24.59722,1.8614 -33.10137,2.5048 -8.50416,0.6434 -15.77418,1.1551 -16.15562,1.1371 -0.38144,-0.018 -8.26031,-0.973 -17.50857,-2.1223 z m 49.82475,-3.5112 30.48229,-1.6693 25.62295,-5.6733 c 14.09257,-3.1203 26.36474,-5.8357 27.27144,-6.0342 3.27247,-0.7164 21.95189,-10.6839 36.23955,-19.33769 11.0448,-6.68964 17.00613,-10.96658 20.75826,-14.89285 l 2.23841,-2.34232 -2.88734,-3.15956 -2.88733,-3.15956 -2.82704,2.7526 c -17.28045,16.82536 -51.44873,31.66968 -92.14149,40.03088 -3.24428,0.6666 -6.59358,1.4886 -7.44287,1.8268 -1.89228,0.7535 -7.12192,1.8843 -10.89188,2.3551 -4.50366,0.5625 -23.7395,0.7704 -31.98153,0.3458 -14.32734,-0.7382 -36.88427,-2.7308 -37.97484,-3.3546 -0.91325,-0.5225 -46.83425,-8.3348 -48.99172,-8.3348 -6.38177,0 -18.34032,-4.3551 -34.36544,-12.51538 -12.54309,-6.38714 -14.95901,-7.84124 -34.96884,-21.0474 -8.08055,-5.33304 -16.22264,-10.45264 -18.09353,-11.37694 -1.87092,-0.92426 -3.59627,-1.84366 -3.83416,-2.0431 -0.33571,-0.28146 -0.84622,0.20257 -2.28137,2.16305 -1.01688,1.38908 -2.57721,3.73712 -3.46746,5.21782 l -1.61862,2.69222 5.01365,1.75586 c 11.83425,4.14457 16.7182,6.72104 16.7182,8.81958 0,1.33348 -1.67525,1.98042 -6.04145,2.33312 -3.58177,0.28935 -13.33719,-0.0575 -16.58074,-0.58942 l -1.6858,-0.27648 -0.19324,3.0132 c -0.10634,1.65727 -0.15604,3.05077 -0.11058,3.09671 0.49532,0.50039 45.16475,17.17596 48.84524,18.23436 2.72007,0.7823 17.18594,4.8062 32.14637,8.9419 l 27.20079,7.5195 14.83679,1.7183 c 8.16024,0.945 19.95549,2.3633 26.21168,3.1519 6.25617,0.7885 12.68538,1.4503 14.28713,1.4706 1.60175,0.02 16.62928,-0.7143 33.39452,-1.6324 z m 35.87606,-16.4003 c 0.30224,-1.6945 1.70448,-9.3761 3.11609,-17.07028 l 2.56656,-13.98934 -4.09769,-0.0934 -4.09769,-0.0934 -25.60326,-7.28921 c -29.30935,-8.34434 -29.98473,-8.5308 -30.16844,-8.32855 -0.0749,0.0825 -3.55678,9.58925 -7.73749,21.1262 -4.9933,13.77941 -7.49535,21.10517 -7.29254,21.35207 1.78978,2.1786 27.21898,5.2794 55.69804,6.7917 3.71744,0.1974 7.42665,0.4039 8.24266,0.459 0.81603,0.055 3.13531,0.1262 5.15394,0.1582 l 3.67027,0.058 0.54955,-3.081 z m -34.73352,-11.92134 c -13.92565,-2.75013 -15.50179,-3.16569 -15.5188,-4.09148 -0.006,-0.33928 2.66558,-10.67714 2.79621,-10.81923 0.16126,-0.17543 34.6048,6.66536 34.89227,6.92992 0.39216,0.36086 -6.09798,10.96713 -6.70111,10.95113 -0.27201,-0.01 -7.23287,-1.34392 -15.46857,-2.97034 z m 41.41858,13.98664 c 39.79082,-8.286 73.43563,-22.94697 90.82857,-39.57927 3.16772,-3.02923 3.53452,-3.92428 2.87719,-7.02083 -1.49891,-7.06064 -11.97779,-11.54996 -29.51636,-12.6453 l -4.91028,-0.30666 -21.59578,-9.22241 c -11.87767,-5.07233 -21.83141,-9.29215 -22.11941,-9.37736 -0.46551,-0.13768 -0.5484,0.8471 -0.74642,8.86809 l -0.22275,9.02298 -5.60047,12.82387 c -4.52762,10.36741 -5.60043,13.11002 -5.60043,14.3175 0,0.9578 -1.71506,7.2909 -4.78074,17.65338 -2.6294,8.88791 -4.78074,16.23221 -4.78074,16.32081 0,0.3306 1.42107,0.1337 6.16762,-0.8548 z m -79.57513,-23.96524 8.29829,-22.48287 8.32219,-16.24302 8.32215,-16.24303 1.97936,-11.73566 c 1.08866,-6.45461 2.05252,-12.06114 2.14191,-12.45897 0.14391,-0.64048 -0.42391,-1.03388 -4.95994,-3.43619 l -5.12248,-2.7129 -1.83901,1.69794 c -2.24603,2.07376 -7.27267,5.12093 -14.3701,8.71124 -9.36897,4.73935 -27.71868,12.7995 -28.3054,12.43319 -0.16561,-0.10341 -0.30112,-0.0468 -0.30112,0.1259 0,0.17264 -0.33383,0.39317 -0.74183,0.49 -0.40802,0.0968 -4.52523,1.15152 -9.14936,2.34371 -30.15123,7.77351 -54.09888,10.03565 -72.37058,6.83623 -9.03001,-1.58117 -16.89993,-4.83349 -21.20604,-8.76357 -0.98835,-0.90207 -1.37345,-1.08396 -1.62103,-0.76571 -0.1786,0.22959 -2.94196,4.86966 -6.14084,10.31122 -5.63802,9.59078 -5.81612,9.94971 -5.81612,11.72093 l 0,1.82721 -1.20831,0.1033 c -1.19176,0.10199 -1.23001,0.15138 -2.78583,3.60072 -0.86762,1.92354 -1.58503,3.65505 -1.5942,3.8478 -0.01,0.19273 9.17966,5.5589 20.41959,11.92479 17.24177,9.76509 23.87734,13.2984 42.44971,22.60347 l 22.01345,11.02911 9.06693,0.4351 9.06692,0.435 17.80415,3.4874 c 9.79228,1.9181 18.1518,3.4589 18.57669,3.424 0.71032,-0.058 1.44073,-1.8739 9.07085,-22.54639 z m -240.47357,20.02614 4.78024,-0.2079 -27.8597,-3.9515 c -31.54305,-4.47395 -29.81022,-4.20366 -29.42774,-4.59006 0.16229,-0.16394 4.85418,0.13996 10.81849,0.70073 5.79256,0.54463 21.14024,1.96793 34.10595,3.16293 13.87606,1.2789 26.35452,2.6033 30.333,3.2196 6.25746,0.9692 7.15041,1.0306 12.03429,0.8278 16.66161,-0.692 39.72607,-2.6692 50.98887,-4.371 6.87119,-1.0382 16.13845,-3.23762 15.6635,-3.7174 -0.0956,-0.0965 -1.71741,-0.88585 -3.60415,-1.75409 l -3.43039,-1.57854 -1.20205,1.11283 c -1.09559,1.01433 -1.3849,1.11279 -3.26753,1.11222 -1.13603,-3.3e-4 -14.08331,-0.59335 -28.77174,-1.31783 -14.68842,-0.72445 -33.53115,-1.63643 -41.87272,-2.02659 l -15.1665,-0.70936 -27.69534,-3.78482 c -15.23245,-2.08164 -29.29031,-3.9748 -31.23969,-4.20699 -1.9494,-0.23216 -3.54435,-0.53189 -3.54435,-0.66606 0,-0.57979 2.27791,-1.94322 3.24655,-1.94322 0.57268,0 5.60318,0.5207 11.17891,1.15712 5.57571,0.63641 23.34242,2.65704 39.48155,4.49028 l 29.34388,3.33319 25.7171,0.83569 c 38.49485,1.25095 40.05935,1.29452 40.05935,1.11519 0,-0.0911 -3.23014,-1.63269 -7.17808,-3.42552 l -7.17807,-3.25975 0.44108,-4.65452 c 0.24257,-2.55998 0.39407,-4.69739 0.33667,-4.74982 -0.0575,-0.0525 -3.36852,0.036 -7.35797,0.19648 -9.84941,0.39627 -44.60447,-0.45488 -62.64423,-1.53409 -1.63205,-0.0977 -6.89911,-0.40366 -11.70458,-0.68005 -15.13917,-0.8707 -26.434,-1.90182 -27.3933,-2.50076 -0.24629,-0.15378 -0.34031,-0.3882 -0.20893,-0.52094 0.25148,-0.25404 105.12648,0.4355 108.55684,0.71375 l 1.98995,0.16142 1.12018,-3.416 c 0.61612,-1.87883 1.20431,-4.01557 1.30716,-4.74835 0.12703,-0.90528 0.40249,-1.42805 0.85941,-1.63092 0.36986,-0.16424 1.98605,-2.30055 3.59148,-4.74732 l 2.91903,-4.44865 -0.53541,-2.24738 c -1.11882,-4.69603 -5.16403,-11.2814 -10.03923,-16.34342 -2.54266,-2.64008 -5.49456,-4.25219 -9.79661,-5.35016 -9.01404,-2.30061 -26.09053,-4.08226 -39.89448,-4.16229 l -6.92384,-0.0402 -3.13222,1.29865 c -4.33375,1.79684 -16.23109,7.4834 -18.63752,8.90821 -1.57299,0.93133 -2.46201,1.21558 -4.2849,1.37003 -8.02512,0.67995 -33.64516,13.29587 -64.61465,31.81775 -1.99472,1.19299 -4.0585,2.35332 -4.58617,2.57851 -0.67284,0.28715 -3.00066,3.18257 -7.79314,9.69341 -3.75855,5.10618 -6.78911,9.33353 -6.73459,9.39415 0.3226,0.35849 20.57876,-13.56837 28.34569,-19.48872 l 9.23178,-7.03697 14.30625,-6.34727 14.30625,-6.34723 21.92926,-2.73848 c 25.10534,-3.13511 21.79278,-3.09111 34.19281,-0.45422 27.12963,5.7692 41.07427,10.54923 41.78865,14.32452 0.0866,0.45772 0.11876,0.8322 0.0715,0.8322 -0.0474,0 -1.44902,-0.53176 -3.11484,-1.1817 -14.59429,-5.69396 -37.24605,-8.5342 -64.13266,-8.04134 -5.80283,0.10637 -13.14704,0.36536 -16.32047,0.57552 l -5.76986,0.38211 -16.9799,5.62888 -16.97988,5.62891 -10.37449,8.33409 -10.37449,8.33412 -11.45647,6.74043 -11.45647,6.7404 -0.0121,1.22659 c -0.009,0.88706 0.14763,1.27453 0.5649,1.39973 0.31734,0.095 7.92121,1.4534 16.89746,3.0182 l 16.32047,2.8451 11.70458,0.679 c 6.43752,0.3735 13.63337,0.8022 15.99077,0.9529 5.09025,0.3252 23.40418,0.373 30.16765,0.079 z m 59.1828,-61.17222 c -8.34157,-1.52545 -19.53824,-3.4659 -24.88146,-4.31211 -5.34322,-0.8462 -9.7784,-1.60266 -9.85595,-1.68099 -0.0775,-0.0783 0.11111,-0.24015 0.41926,-0.35963 0.3081,-0.11944 1.36916,-1.84666 2.35789,-3.83825 0.98869,-1.99157 1.90764,-3.6211 2.04217,-3.62116 0.13449,-4e-5 6.00115,0.38151 13.03706,0.84788 12.73854,0.84442 12.8297,0.85572 21.58377,2.67689 4.83515,1.00587 8.9033,2.01077 9.04032,2.23311 0.24636,0.39962 2.57741,9.968 2.57741,10.57957 0,0.46337 0.14703,0.48612 -16.32047,-2.52531 z m 258.92347,26.47266 1.62001,-0.35096 4.70182,-12.70472 4.70177,-12.70473 -0.28843,-7.66833 -0.28843,-7.66828 -27.20078,-10.88481 c -14.96043,-5.9866 -27.28855,-10.78755 -27.39581,-10.66871 -0.1072,0.11881 -1.21039,5.28468 -2.45136,11.47966 l -2.25639,11.26362 -5.65976,13.21773 c -3.40486,7.95168 -5.5151,13.27565 -5.29671,13.36311 1.16835,0.46788 56.27002,13.63555 57.13876,13.65444 0.58041,0.0127 1.78431,-0.13496 2.67531,-0.32802 z M 250.32323,961.94735 c 0.11935,-1.19923 0.30293,-2.73528 0.40795,-3.41343 0.14421,-0.931 3.24468,-5.54065 12.65782,-18.819 l 12.46685,-17.58597 -4.48959,-0.0931 c -3.32521,-0.0689 -4.58874,0.0173 -4.87192,0.33308 -0.21029,0.23439 -5.21589,8.24462 -11.12356,17.80054 l -10.74121,17.37439 0.62978,5.10847 c 0.34638,2.80967 0.63748,5.33331 0.64687,5.6081 0.01,0.27479 0.95826,-0.54265 2.10857,-1.81655 2.01496,-2.23146 2.0994,-2.39594 2.30844,-4.49657 z m 49.21734,-21.96117 13.9136,-7.03214 2.44353,0 2.44354,0 8.17119,-6.39041 8.17119,-6.39036 13.05823,0.41179 c 7.46607,0.23545 16.23514,0.31445 20.47662,0.18445 6.09166,-0.18666 8.08262,-0.12793 11.13244,0.32846 15.90916,2.38072 26.00942,11.31178 29.55469,26.13345 l 0.74609,3.11922 0.66723,-1.12074 c 0.36697,-0.6164 4.04768,-6.51664 8.17936,-13.11161 4.13171,-6.59497 7.8456,-12.52356 8.25312,-13.17463 l 0.74091,-1.18377 -3.58816,-7.95886 -3.58813,-7.95891 -0.39364,-6.14398 -0.3936,-6.14402 -2.65812,-1.73941 c -9.57004,-6.2623 -20.43733,-10.14727 -32.60326,-11.65539 -5.62852,-0.69771 -16.12213,-0.69124 -22.31336,0.0137 -12.93277,1.47267 -26.81684,5.34792 -39.39993,10.99709 -2.17606,0.97692 -4.99505,2.02682 -6.26441,2.33312 -15.41969,3.72057 -33.34471,21.62556 -51.49912,51.44171 -3.80767,6.25361 -9.66144,16.85763 -9.66144,17.5016 0,0.11201 6.86201,-3.31351 15.24893,-7.61227 8.38691,-4.29876 21.51003,-10.9804 29.1625,-14.84805 z m 202.26007,-12.70632 29.12798,-6.0073 6.92384,-2.5312 c 15.10518,-5.52219 27.3999,-10.92212 32.0422,-14.07321 3.49232,-2.37049 5.90416,-6.60007 6.26875,-10.99326 0.49623,-5.97978 -2.62164,-16.00887 -7.68346,-24.71487 -1.42667,-2.45384 -1.06336,-2.13867 -12.57942,-10.91156 l -7.99871,-6.09342 -1.83301,1.69241 c -4.13675,3.81943 -10.67702,6.45282 -19.59122,7.88822 -3.84943,0.61986 -16.15562,1.05201 -16.15562,0.5673 0,-0.18402 1.66914,-0.67005 3.7092,-1.08011 10.51708,-2.11398 20.86129,-6.22463 28.46745,-11.31258 9.9819,-6.67718 15.96472,-15.02535 18.16036,-25.34019 1.21253,-5.69633 0.63014,-15.34341 -1.3271,-21.98326 -0.53755,-1.82354 -1.14358,-2.17021 -5.27164,-3.01556 -5.83679,-1.19529 -8.40719,-1.38322 -21.18176,-1.54886 l -12.88698,-0.1671 -0.46614,1.11671 c -0.59333,1.42139 -0.5235,4.77486 0.16074,7.71775 0.49989,2.1501 2.94783,9.11216 3.345,9.51342 0.10193,0.10297 0.32331,-0.0333 0.49203,-0.30283 0.24417,-0.39008 0.30774,-0.34254 0.31176,0.23322 l 0.005,0.72318 3.58487,-0.95014 c 7.98878,-2.11739 16.40395,-5.10961 19.65564,-6.98907 1.03627,-0.59899 1.89226,-1.39558 2.22434,-2.07006 l 0.53979,-1.0964 0.0211,0.93922 c 0.0505,2.24971 -3.6116,5.92675 -8.05671,8.08957 -7.3207,3.56195 -17.10672,5.13235 -31.91706,5.12193 -13.37501,-0.01 -19.71649,-0.63152 -32.68164,-3.20619 l -9.20797,-1.82854 -9.5853,-6.35349 c -5.27188,-3.49441 -9.64708,-6.40735 -9.72264,-6.47321 -0.67973,-0.59234 1.23402,-0.0353 7.59092,2.20955 9.98876,3.52738 9.0639,3.384 9.30356,1.44241 0.1091,-0.88366 0.29809,-3.42623 0.42001,-5.65013 0.25922,-4.72894 0.79222,-4.18405 -4.81312,-4.92029 -11.08736,-1.45623 -18.40352,-0.80749 -24.64994,2.18573 -4.65783,2.232 -7.65295,6.00583 -8.32193,10.48555 -0.16056,1.07518 -0.53656,3.07899 -0.83557,4.45294 -0.8183,3.76024 -0.51849,10.50176 0.64434,14.48897 4.32176,14.8186 17.70844,25.99396 40.082,33.46097 4.1634,1.38947 12.43287,3.64695 15.91328,4.34412 1.0427,0.20884 1.89581,0.51322 1.89581,0.67639 0,0.6186 -2.82133,1.06522 -5.44015,0.86118 -6.46868,-0.50395 -17.98734,-4.63234 -33.07919,-11.85591 -3.07076,-1.46978 -5.72977,-2.67233 -5.90887,-2.67233 -0.45536,0 -6.85282,6.7415 -8.69228,9.15969 -11.69104,15.36936 -13.65958,31.11044 -5.91339,47.28467 3.21612,6.71529 9.69634,15.4149 14.52393,19.49815 l 1.58978,1.34465 14.45381,2.28706 c 7.94962,1.2579 14.62519,2.30424 14.83458,2.32522 0.20943,0.021 13.48835,-2.66513 29.50874,-5.96911 z m -188.5922,-36.90965 c 3.42561,-2.29103 8.54057,-6.19355 10.27636,-7.84049 0.81275,-0.77115 1.71098,-1.02649 7.08871,-2.01504 25.87368,-4.75617 50.22277,-7.30604 59.73529,-6.2555 1.54138,0.17024 2.83024,0.29072 2.86413,0.26773 0.0339,-0.023 -3.11164,-1.72245 -6.99004,-3.77656 l -7.0516,-3.73475 -9.63316,-1.50499 c -5.29823,-0.82774 -9.69799,-1.5705 -9.77726,-1.65058 -0.0792,-0.0801 0.13872,-1.09159 0.48441,-2.24782 l 0.62852,-2.10223 2.45592,0.0864 c 6.9672,0.24531 18.2143,3.16372 26.78345,6.94977 9.03256,3.99079 16.08624,8.82811 23.31921,15.99198 l 3.79571,3.75951 1.64036,-8.15212 1.64032,-8.1521 8.15579,-10.70841 8.15578,-10.70841 -0.92133,-0.69529 c -5.05529,-3.81523 -10.27511,-10.0321 -13.09473,-15.596 -2.13576,-4.21448 -2.83903,-6.94843 -3.02505,-11.76013 -0.20811,-5.38323 0.44253,-8.39837 2.85736,-13.24115 l 1.62718,-3.26318 -2.46697,-2.97037 c -6.2391,-7.51227 -13.81476,-12.81494 -21.29255,-14.90385 -3.28199,-0.91683 -11.45522,-0.81591 -14.93619,0.1844 -5.75061,1.65254 -12.64725,5.77976 -17.6393,10.55608 -1.1787,1.12778 -4.36861,3.93944 -7.08869,6.24815 -2.72008,2.30874 -5.39673,4.62111 -5.94817,5.13865 -0.5514,0.51754 -1.98737,1.73225 -3.19106,2.69938 -3.27076,2.62796 -6.69403,6.49675 -7.85295,8.87491 -0.56057,1.15035 -1.18256,3.05466 -1.38213,4.2318 -0.32127,1.89466 -0.28108,2.4124 0.35018,4.51197 0.85552,2.84539 2.8991,5.74549 5.44913,7.73293 l 1.77768,1.38552 15.12499,-2.52345 c 8.31875,-1.38787 15.39225,-2.63016 15.71885,-2.76063 0.43089,-0.17214 -2.48856,-1.78457 -10.64157,-5.87735 -9.27317,-4.65512 -11.13317,-5.70149 -10.64989,-5.9913 0.35222,-0.21124 2.95022,-0.35118 6.52024,-0.35118 6.99858,0 9.63508,0.4914 13.72097,2.55736 3.14204,1.58876 5.67873,4.028 6.97929,6.71129 0.94874,1.95737 2.02365,6.03936 1.76772,6.71305 -0.10235,0.2695 -1.61961,0.47574 -4.61799,0.62776 -13.45912,0.68235 -27.95166,3.31863 -38.87523,7.07165 -22.78872,7.8295 -36.04781,23.33874 -35.11124,41.06987 l 0.16889,3.19726 -1.93707,0.89749 c -1.89848,0.87963 -1.93707,0.92439 -1.93707,2.24829 l 0,1.3508 1.78193,0 c 1.65062,0 2.03327,-0.16811 5.19287,-2.2812 z m 197.96493,-73.62788 c 3.82697,-0.79792 5.14705,-1.45582 4.93264,-2.45839 -0.54003,-2.52474 -0.87092,-6.90528 -1.17544,-15.56098 l -0.34566,-9.82585 3.92644,-25.81366 3.92645,-25.81368 7.81051,-26.97944 c 4.29578,-14.8387 11.66291,-39.7321 16.37138,-55.31866 l 8.56086,-28.33924 4.9432,-12.12993 4.94322,-12.12995 2.63079,-21.43781 c 1.44695,-11.79081 2.6308,-21.47884 2.6308,-21.52897 0,-0.0502 -1.07567,-0.73644 -2.39038,-1.52516 -10.90936,-6.54482 -22.57873,-15.61857 -31.8656,-24.77769 -20.06327,-19.7873 -33.09028,-42.27117 -39.56812,-68.29224 -2.27636,-9.144 -3.65693,-19.42711 -3.65693,-27.23829 l 0,-4.44125 -14.75438,-1.76989 c -8.11489,-0.97342 -15.27365,-1.84822 -15.90832,-1.94398 l -1.15398,-0.1741 0.70062,0.7967 c 0.98059,1.11501 1.3219,1.85574 2.63762,5.72484 3.24613,9.54539 3.76479,12.20992 3.10393,15.94571 -0.5817,3.28833 -1.90155,5.10888 -4.78856,6.6052 l -2.24926,1.16578 -5.47204,-0.0253 c -5.1879,-0.024 -5.70316,-0.0873 -9.92307,-1.2183 -6.92233,-1.85518 -14.36074,-5.04989 -16.71234,-7.17767 -0.56868,-0.51454 -3.88529,-6.07739 -7.68856,-12.89573 -3.67866,-6.59498 -6.73817,-12.05062 -6.79891,-12.12364 -0.0607,-0.0731 -4.46623,0.81295 -9.79004,1.96884 l -9.67961,2.1016 -6.5644,5.7326 -6.56435,5.73259 -6.80588,13.44913 -6.80586,13.44912 -2.50237,19.31861 -2.50238,19.31862 -0.33125,12.49048 c -0.1822,6.86977 -0.40301,14.58889 -0.49071,17.1536 -0.0877,2.56471 -0.006,5.93714 0.18088,7.4943 0.18718,1.55714 0.91507,12.55163 1.61751,24.43218 0.70243,11.88051 1.33076,21.6551 1.39624,21.72126 0.0654,0.0662 9.45931,-6.78491 20.87514,-15.22461 11.41585,-8.43967 21.06389,-15.55378 21.44009,-15.80913 0.74523,-0.50584 38.52636,-9.45736 39.91601,-9.45736 0.68819,0 26.54549,5.61587 28.53471,6.19735 0.36403,0.10637 -0.64646,-2.02972 -2.92931,-6.19239 -1.91681,-3.49516 -3.39733,-6.44349 -3.29008,-6.55183 0.10721,-0.10834 0.38688,-0.11505 0.62137,-0.015 0.2345,0.10024 5.94537,4.8776 12.69087,10.61641 11.27415,9.5917 12.91526,10.86123 20.32314,15.7213 4.43225,2.90785 8.24398,5.40272 8.47055,5.54417 0.32352,0.20199 0.28543,0.72915 -0.17758,2.4571 -0.3242,1.20995 -0.61598,2.19992 -0.64839,2.19992 -0.0323,0 -3.38579,-1.84912 -7.4519,-4.1092 -5.45859,-3.03402 -7.42331,-3.97963 -7.50903,-3.61405 -0.0638,0.2723 0.14098,4.85687 0.45523,10.18788 0.31424,5.33104 0.49303,11.4258 0.39733,13.54391 l -0.17406,3.8511 -6.19951,11.80364 -6.1995,11.80361 -11.45061,13.65627 -11.45064,13.65626 -16.67488,14.45958 c -9.17117,7.95277 -16.61301,14.52207 -16.53741,14.59844 0.21876,0.221 10.38599,-2.71579 16.51592,-4.7706 25.49782,-8.54715 48.21377,-21.14795 62.47104,-34.6534 4.81075,-4.55709 8.61069,-8.76329 11.68183,-12.93091 4.62731,-6.27932 6.55754,-9.80896 11.57666,-21.16924 1.41642,-3.20589 2.69927,-5.97129 2.85084,-6.14531 0.39703,-0.45596 0.35454,0.32591 -0.38098,7.00852 -0.36109,3.2807 -0.65783,6.15511 -0.65941,6.38757 -0.003,0.31675 8.53333,-5.88878 13.76235,-10.00558 1.33873,-1.054 -0.38299,1.26264 -6.88468,9.26357 l -7.29679,8.97943 -10.15631,20.69657 -10.15635,20.69654 -8.07478,24.76882 c -4.44111,13.62282 -11.33369,34.96103 -15.31677,47.41821 l -7.24201,22.64942 -4.6787,25.9802 c -2.5733,14.28912 -4.70369,26.18842 -4.73423,26.44286 -0.13765,1.14772 15.18138,5.29233 24.10383,6.52133 4.94051,0.68055 12.17989,0.62416 15.76231,-0.12278 z m -80.30311,-22.0996 c 1.32396,-1.51134 2.67226,-2.93836 2.9962,-3.17111 1.07,-0.76879 8.02773,-1.49596 12.2456,-1.27979 3.2243,0.16524 4.42739,0.0796 7.16963,-0.51029 1.81236,-0.38983 3.50715,-0.87573 3.76624,-1.0797 0.25908,-0.20398 3.84065,-9.43898 7.95905,-20.5222 4.11836,-11.08323 8.78093,-23.37386 10.36126,-27.31253 18.73916,-46.70425 32.96299,-81.0365 41.08129,-99.1584 3.16653,-7.06844 5.71463,-12.89487 5.66241,-12.94762 -0.0522,-0.0528 -1.00359,1.1303 -2.1142,2.62906 -8.7157,11.76167 -24.66713,25.01164 -39.52265,32.82925 l -2.64613,1.39251 -6.75033,13.06298 c -3.71274,7.18462 -12.65243,24.13108 -19.86601,37.65875 l -13.11566,24.59575 -14.04151,21.6311 c -7.72281,11.8971 -14.06122,21.86587 -14.08532,22.15278 -0.0287,0.34314 1.10161,1.11805 3.30276,2.26408 7.5818,3.94753 11.22209,6.35839 13.9546,9.24179 0.63933,0.67463 1.17887,1.23669 1.19898,1.24905 0.0201,0.0123 1.11985,-1.21411 2.44379,-2.72546 z m -124.63662,-213.255 c 5.70322,-5.01578 7.51358,-6.32411 27.86021,-20.13416 11.96834,-8.12342 21.79685,-14.79689 21.84118,-14.82997 0.0443,-0.033 0.6015,-13.38837 1.23824,-29.67839 0.75977,-19.43816 1.3329,-30.76303 1.66752,-32.949 1.19591,-7.81325 3.63933,-16.73042 6.60996,-24.12285 6.32034,-15.72805 15.91347,-27.27446 27.60052,-33.22016 4.63224,-2.35665 13.45163,-4.77633 17.40894,-4.77633 l 1.2419,0 -1.01942,-2.33156 -1.01939,-2.33155 -7.46821,0 c -4.10752,0 -7.60917,0.13579 -7.78144,0.30177 -0.17227,0.16593 -2.01945,1.00033 -4.10485,1.85415 -6.62743,2.71347 -15.64622,8.65234 -27.92689,18.38982 -9.21313,7.3052 -20.38613,16.87851 -26.65575,22.8394 l -2.65388,2.52321 -11.77549,24.25986 -11.7755,24.25985 -5.10574,37.37379 c -2.80816,20.5556 -5.10574,37.61394 -5.10574,37.90745 0,0.7473 0.0609,0.70037 6.92383,-5.33533 z m 264.23023,-25.22998 c 0.10333,-1.14496 0.63583,-11.63464 1.18341,-23.31041 l 0.99561,-21.22869 -2.66973,-10.74695 c -1.46838,-5.91083 -2.88493,-12.39572 -3.14794,-14.41086 -2.33105,-17.86146 -10.8149,-31.48278 -25.24295,-40.52905 -10.70293,-6.71066 -24.34161,-10.78975 -39.83267,-11.91326 -2.44807,-0.17756 -5.30415,-0.42471 -6.34685,-0.54922 l -1.89581,-0.22639 0.003,4.29264 c 0.009,10.54545 2.49957,24.78738 6.40155,36.60134 10.14664,30.72093 29.57665,56.15443 58.52409,76.6069 3.11664,2.20203 11.27817,7.4564 11.61892,7.48025 0.12156,0.009 0.30553,-0.92134 0.40884,-2.0663 z m -405.83917,-68.17726 11.21002,-9.36724 21.30555,-14.11996 21.30555,-14.11998 20.89689,-8.98483 20.89688,-8.98482 24.56313,-7.56637 c 22.1753,-6.83083 25.50356,-7.76671 34.2371,-9.62737 l 9.67397,-2.06096 -1.98591,-1.23832 c -2.40772,-1.50132 -4.58437,-3.25485 -9.77877,-7.8779 -8.42133,-7.49499 -11.82229,-10.10907 -15.33135,-11.78408 -2.38792,-1.13984 -2.64348,-1.15666 -10.89681,-0.71713 -5.50553,0.29321 -8.57041,-0.15472 -12.83673,-1.87617 -12.74562,-5.14275 -21.85947,-21.03897 -25.2057,-43.96338 -0.28421,-1.94704 -0.51674,-4.1006 -0.51674,-4.78568 0,-0.92336 -0.26985,-1.55608 -1.04313,-2.4458 -2.49987,-2.87634 -6.44586,-12.89988 -9.98648,-25.36758 l -1.7499,-6.16197 -1.77048,-0.11009 c -0.97377,-0.0606 -3.14168,-0.009 -4.81759,0.11416 l -3.0471,0.22423 -7.83321,8.41375 c -7.43099,7.98172 -8.08932,8.79684 -12.82079,15.87367 -3.41874,5.11341 -7.96863,12.75082 -14.46474,24.28044 l -9.47715,16.82052 -6.04797,14.05122 -6.04798,14.0512 -5.80719,21.9214 c -4.85417,18.3238 -6.36947,24.64097 -9.23328,38.49298 -3.21101,15.53139 -3.48878,17.18887 -4.42523,26.40532 -1.16475,11.46366 -1.1188,10.66347 -0.58701,10.22095 0.22667,-0.18863 5.45664,-4.55823 11.62215,-9.71021 z m 287.34584,-32.35235 c 2.99638,-0.83716 7.41998,-3.14494 10.4453,-5.44929 l 2.24178,-1.70753 -0.0944,-3.48811 c -0.16393,-6.05678 -0.58974,-8.04667 -2.57952,-12.05471 -0.98042,-1.97494 -1.84788,-3.5908 -1.92763,-3.5908 -0.0798,0 -0.39483,0.89932 -0.7001,1.99848 -0.30531,1.09916 -0.68391,1.99848 -0.84134,1.99848 -0.15744,0 -0.28626,-0.12935 -0.28626,-0.28742 0,-0.15811 -2.86986,-6.3409 -6.37745,-13.73953 -5.77684,-12.18525 -6.9116,-14.31477 -12.04941,-22.61182 -3.11959,-5.03782 -12.30462,-18.88917 -20.41121,-30.78078 l -14.73923,-21.62112 -7.11625,-7.68988 c -5.06605,-5.47443 -14.25272,-14.49216 -31.88698,-31.30053 -24.04635,-22.92017 -25.01935,-23.80197 -33.27278,-30.1539 -4.67617,-3.59881 -9.46052,-7.32679 -10.63195,-8.28442 -10.53415,-8.6116 -25.95185,-16.63885 -39.08345,-20.34885 -11.26755,-3.18337 -22.80044,-4.19625 -29.01417,-2.54818 -8.38662,2.2244 -12.15484,8.27488 -11.03812,17.72345 0.95334,8.06631 4.65279,17.7665 10.9165,28.62376 1.75929,3.04946 2.27979,3.65336 5.48374,6.36243 11.73606,9.9233 22.9355,16.31331 32.97202,18.8127 3.13092,0.7797 10.63431,1.06901 11.2431,0.43353 0.20998,-0.21921 -4.01203,-3.00603 -12.34752,-8.15029 -15.08819,-9.31172 -16.1558,-10.32413 -6.11273,-5.79667 32.1532,14.49477 67.27162,40.32136 90.09235,66.25524 1.92727,2.1902 10.68098,12.10541 19.45268,22.03378 l 15.94857,18.05162 5.4638,9.76052 c 3.78074,6.75386 5.74613,10.63267 6.38024,12.59171 0.50406,1.55715 1.79038,4.68617 2.85852,6.95338 4.69104,9.95701 10.28135,15.86231 17.10478,18.06856 2.5758,0.83287 6.79499,0.8057 9.90716,-0.0638 z m 113.48478,-23.70907 c 24.70732,-25.45734 43.47312,-45.4693 47.83917,-51.01594 l 1.02628,-1.30377 -3.28527,0.20871 c -1.80688,0.11477 -6.4181,0.38813 -10.24712,0.60743 l -6.96184,0.39877 -1.36357,3.55818 c -6.82806,17.81757 -27.2173,33.42974 -57.7269,44.20186 -5.3204,1.87847 -14.99527,4.75281 -16.05729,4.77047 -0.53007,0.009 -0.54129,0.0499 -0.0867,0.31855 0.28711,0.16961 1.02895,0.39767 1.64853,0.50679 1.60406,0.28249 12.00155,3.86398 18.60099,6.40728 5.26779,2.03009 11.1512,4.7265 11.85295,5.43233 0.17227,0.17327 0.41813,0.31503 0.54639,0.31503 0.12822,0 6.52472,-6.48256 14.2144,-14.40569 z m -52.59833,-2.75983 c 22.51901,-3.8948 44.46534,-12.79466 57.4894,-23.31362 1.76564,-1.42597 14.65027,-15.45512 16.00431,-17.42589 0.20802,-0.30273 1.20782,-1.85192 2.22177,-3.44257 l 1.84359,-2.89213 -2.29701,-1.72026 c -2.13346,-1.59778 -2.88965,-1.90961 -10.62073,-4.37993 -4.57807,-1.46278 -8.4545,-2.78681 -8.61431,-2.94226 -0.16389,-0.15944 0.56159,-1.0796 1.66455,-2.11122 1.85045,-1.73068 1.98757,-1.96823 2.56097,-4.43618 0.33323,-1.43422 0.67372,-2.78975 0.75671,-3.01238 0.11131,-0.29867 -0.78629,-0.42964 -3.4244,-0.49961 l -3.5752,-0.0949 4.36861,-1.78478 c 2.40273,-0.98161 4.3686,-1.90284 4.3686,-2.04723 0,-0.4858 -2.25957,-2.27204 -4.68311,-3.70205 -1.32304,-0.78071 -4.92783,-2.64646 -8.01058,-4.14614 l -5.60501,-2.72673 -5.44016,-0.89078 c -14.47494,-2.37016 -29.46231,-7.23336 -42.29607,-13.72445 -9.37409,-4.74128 -16.02357,-9.1857 -26.94401,-18.00901 -4.26238,-3.44386 -11.97751,-9.62077 -17.14473,-13.72646 -8.68589,-6.90152 -9.73621,-7.63345 -13.91699,-9.69829 -7.89399,-3.89879 -14.16633,-5.65663 -20.15252,-5.64784 -5.97049,0.009 -10.14289,1.56556 -14.09914,5.26059 -5.79508,5.4125 -9.17919,13.9507 -10.68555,26.95997 -0.5094,4.39931 -0.66756,16.52811 -0.27649,21.20194 l 0.21476,2.56679 10.58421,13.46154 c 7.88233,10.02516 11.345,14.71815 13.56456,18.38422 1.63916,2.70748 7.05414,11.65433 12.0332,19.88189 8.77269,14.4963 9.11407,15.00358 11.03108,16.39272 2.73274,1.98025 21.50376,15.34896 21.8906,15.59052 0.17274,0.1079 4.44264,0.57043 9.48869,1.02798 5.04603,0.45752 11.40013,1.1887 14.12021,1.62486 6.42391,1.03005 7.73785,1.03215 13.58019,0.0217 z m -25.94418,-56.80113 c -18.42779,-7.71672 -30.78163,-19.36506 -36.89057,-34.78384 -2.69116,-6.79243 -4.14259,-14.85891 -3.94051,-21.89998 l 0.11232,-3.9137 -3.46192,-0.0332 c -1.90405,-0.0183 -3.83284,-0.13999 -4.28618,-0.27052 -0.71751,-0.2066 -0.48259,-0.36956 1.81339,-1.25802 3.78589,-1.46499 5.88345,-1.90872 9.09024,-1.923 2.50709,-0.0112 3.04226,0.10013 4.74487,0.98666 1.48394,0.77267 2.24092,1.46474 3.33851,3.05221 1.11411,1.61143 1.31404,2.09382 0.92951,2.24289 -0.26944,0.1044 -0.74369,0.0442 -1.05385,-0.13391 -0.31018,-0.1781 -1.80912,-0.63397 -3.33098,-1.01304 -2.02474,-0.50432 -2.86499,-0.59018 -3.13222,-0.32008 -0.24081,0.24343 -0.35677,2.31992 -0.34046,6.0979 0.0221,5.15774 0.11429,6.05922 0.92302,9.04398 4.1735,15.4023 15.74724,28.93099 34.84229,40.72754 l 2.16002,1.33439 1.79647,-0.93942 c 0.98809,-0.51668 1.90564,-0.94648 2.03903,-0.95511 0.30382,-0.0196 2.32891,3.99259 2.1211,4.20253 -0.19334,0.19532 -3.57178,1.10912 -4.01216,1.08521 -0.18134,-0.01 -1.7392,-0.6081 -3.46192,-1.32949 z m -118.03493,37.18137 c 8.1182,-1.02422 15.01002,-2.66267 20.60665,-4.89897 2.66077,-1.06319 6.4302,-2.9205 7.04214,-3.46985 0.0651,-0.0584 -1.8637,-2.72689 -4.28618,-5.92999 l -4.40449,-5.82379 -14.06887,-0.10758 -14.06887,-0.10768 -1.77098,-1.96907 -1.77103,-1.96903 -7.79775,1.90775 -7.79779,1.90777 -1.12779,-1.27103 c -2.8427,-3.20369 -4.84452,-5.61688 -4.84452,-5.84008 0,-0.13416 0.40802,-0.17187 0.9067,-0.0838 1.14712,0.20265 13.04095,1.4886 13.76794,1.4886 0.48177,0 0.52985,-0.51585 0.43436,-4.66358 -0.0591,-2.56498 -0.0375,-4.66339 0.0479,-4.66312 0.0855,2.7e-4 2.38514,2.33319 5.11045,5.18429 l 4.95516,5.18385 12.41566,-0.27093 12.41563,-0.27089 -12.53963,-12.15741 c -6.89677,-6.68658 -13.99728,-13.5501 -15.77889,-15.25231 l -3.23931,-3.09491 -1.58232,0.80881 c -3.90389,1.99541 -19.44157,6.2217 -30.92621,8.41197 -3.73166,0.71168 -12.43231,0.96622 -16.81503,0.49192 -10.06222,-1.08891 -19.37708,-4.00412 -29.59628,-9.26254 -4.59672,-2.3653 -10.99397,-6.3488 -14.33704,-8.92754 -0.82759,-0.63837 -1.56426,-1.10053 -1.63705,-1.02698 -0.12118,0.12244 8.03118,30.53103 8.22767,30.68958 0.0473,0.0381 3.81462,2.8452 8.37199,6.23802 l 8.2861,6.1688 3.08876,-0.31886 c 2.07883,-0.21457 4.44503,-0.19957 7.23673,0.0458 11.38515,1.00094 20.84744,5.33161 29.07755,13.30819 2.48555,2.40897 6.73976,7.37046 7.67217,8.94769 0.0914,0.15455 5.42868,0.74603 9.54741,1.05806 5.93627,0.44969 24.25401,0.16018 29.17903,-0.46118 z m 236.23471,-33.2096 c 8.16785,-0.96027 17.33365,-3.61151 27.41312,-7.92933 3.96742,-1.69957 4.03373,-1.7462 7.27224,-5.11257 3.85093,-4.00298 6.51309,-7.70253 7.18327,-9.98245 0.61224,-2.08266 0.0969,-3.57578 -1.53603,-4.45075 -1.42512,-0.76358 -6.72516,-0.99991 -10.7036,-0.47724 -3.71815,0.48846 -11.94265,2.39605 -17.265,4.00442 -2.26673,0.68497 -12.44238,3.3157 -22.6125,5.84604 l -18.49119,4.6006 -1.37362,2.56924 c -0.75553,1.41309 -1.37366,2.884 -1.37366,3.26871 0,0.94099 3.86743,3.67067 7.16617,5.05802 7.00393,2.94555 14.55048,3.75397 24.3208,2.60531 z M 587.803,358.05194 c 2.62941,-0.55008 5.19881,-1.09414 5.70975,-1.20901 1.24712,-0.2804 1.64514,-0.97902 3.51461,-6.16931 3.26746,-9.07139 14.59947,-46.42811 14.57221,-48.03824 -0.009,-0.53062 0.3389,-2.32925 0.77312,-3.99695 3.67013,-14.0964 4.13709,-29.10527 1.27047,-40.83672 -1.26985,-5.19672 -3.79404,-11.65778 -4.55444,-11.65778 -1.05179,0 -4.00692,4.23201 -7.21012,10.32546 -3.3397,6.35316 -9.31059,20.14621 -13.72892,31.71434 l -1.87204,4.90143 1.58385,3.25901 c 5.06077,10.41351 5.57755,24.15794 1.45268,38.63555 -1.78499,6.26492 -5.27203,14.62535 -8.21816,19.70359 -0.66327,1.14329 -1.20597,2.20032 -1.20597,2.34891 0,0.31806 2.32258,1.97786 2.80251,2.00277 0.18134,0.01 2.48104,-0.43297 5.11045,-0.98305 z m -267.88451,0.17217 c 5.26838,-0.61576 8.71044,-1.24339 13.84565,-2.52461 3.95291,-0.98625 13.4176,-4.03856 14.33099,-4.62168 1.06726,-0.68135 -4.78757,-7.96317 -8.31721,-10.34425 -2.47613,-1.67043 -2.62199,-1.66287 -8.65144,0.44709 -18.98414,6.64347 -38.62583,4.44724 -54.08577,-6.04753 -3.19183,-2.16671 -7.7342,-5.93751 -7.7342,-6.42044 0,-0.55717 0.63529,-0.30044 2.87465,1.16179 14.72863,9.61713 32.53639,13.43549 47.44307,10.17281 5.4703,-1.19732 13.48386,-4.30486 12.77875,-4.9554 -0.15806,-0.14581 -5.27949,-3.72213 -11.38096,-7.94734 l -11.09359,-7.68225 -2.09467,0.30597 c -3.82771,0.55904 -12.05392,0.38167 -16.29887,-0.35146 -9.30595,-1.60721 -18.62418,-5.98777 -27.50368,-12.92964 -3.4759,-2.71741 -10.65164,-9.93593 -13.63083,-13.7121 -1.22851,-1.55715 -3.15228,-4.21244 -4.27503,-5.90065 -1.12276,-1.6882 -2.14213,-3.07464 -2.26527,-3.08098 -0.24753,-0.0127 -0.97002,2.40693 -1.63755,5.48429 -0.57805,2.66483 -0.57281,12.02676 0.009,14.6555 0.24295,1.09916 0.79344,3.12998 1.22332,4.51292 l 0.78161,2.51445 15.20232,15.55513 c 8.36129,8.55532 15.04606,15.55511 14.85504,15.55511 -0.191,0 -1.79911,-0.84595 -3.57358,-1.87989 -12.27577,-7.15289 -20.55322,-15.32653 -25.39906,-25.08053 -0.7707,-1.55129 -1.40126,-2.66085 -1.40126,-2.46568 0,0.75717 2.80943,8.79805 4.34613,12.43905 2.93766,6.96043 3.80095,8.19219 9.14441,13.04719 5.51228,5.00838 9.61148,8.05323 14.63664,10.87192 8.342,4.67917 18.1537,7.94927 27.09866,9.03159 1.63205,0.19748 3.33828,0.41318 3.79163,0.47933 2.33563,0.34084 13.16815,0.15602 16.98191,-0.28971 z m 260.29608,-7.85439 c 2.58735,-5.12052 4.68493,-12.60616 5.77883,-20.62282 1.03937,-7.61722 0.98602,-24.35751 -0.10505,-32.94017 l -0.22845,-1.79724 -2.30795,5.77155 c -1.26938,3.17435 -2.27478,5.85668 -2.23422,5.96073 0.99488,2.55356 1.10434,3.40128 1.09854,8.50798 -0.006,5.85433 -0.56132,12.10608 -1.86241,20.9922 -1.00211,6.84433 -1.19436,7.66084 -1.80363,7.66084 -0.84711,0 -2.34569,-7.86518 -2.84059,-14.90885 -0.11889,-1.69185 -0.26187,-2.92653 -0.31777,-2.74371 -0.24674,0.80706 -3.43485,24.95549 -3.34744,25.35529 0.0536,0.24521 1.20973,1.25691 2.56914,2.24821 l 2.47165,1.8024 0.9264,-1.38008 c 0.50957,-0.75905 1.50087,-2.51691 2.20294,-3.90633 z m 25.41068,2.16682 c 8.85348,-3.7113 18.31407,-6.62868 24.2639,-7.48229 1.47744,-0.21198 4.07388,-0.33292 5.76986,-0.2688 l 3.08364,0.11657 6.58846,-10.65855 6.58846,-10.65854 0.63209,-3.49733 c 0.87681,-4.85158 0.92231,-13.91662 0.0851,-16.96044 -1.77725,-6.46165 -5.47424,-10.00002 -11.5359,-11.04086 -4.70445,-0.80781 -12.22186,0.72066 -19.96277,4.05887 -2.21457,0.95503 -4.15101,1.9739 -4.30317,2.26414 -0.25783,0.49184 -15.40814,53.59021 -15.76027,55.23605 -0.0881,0.41218 -0.0978,0.74944 -0.0214,0.74944 0.0764,0 2.13377,-0.83624 4.57191,-1.85826 z m -37.12605,-4.55353 c 0.0888,-0.41218 0.83228,-5.92049 1.65217,-12.24068 0.81988,-6.32018 1.55862,-11.88447 1.64165,-12.36511 l 0.15089,-0.87387 -3.52775,-0.16927 c -2.26298,-0.10856 -4.29612,-0.41901 -5.67086,-0.86597 -6.32034,-2.05477 -12.34599,-7.90188 -16.39683,-15.91103 -3.12295,-6.17451 -5.73204,-14.58631 -6.18582,-19.94322 -0.12417,-1.46556 -0.58332,-5.38725 -1.02038,-8.7149 -3.28496,-25.01117 -10.99749,-45.1721 -23.10546,-60.39912 -4.86624,-6.11977 -12.13436,-12.63833 -18.6357,-16.71385 -8.67689,-5.4393 -20.3031,-9.57969 -28.50489,-10.15132 l -3.01493,-0.21012 -2.59007,1.40529 c -11.07929,6.01131 -17.98728,16.99268 -19.91959,31.66543 -0.48595,3.68989 -0.48701,13.257 -0.003,17.48668 2.14801,18.7309 9.88345,40.27104 19.41322,54.05813 2.89126,4.1829 7.35549,8.3943 8.89829,8.3943 0.15994,0 0.39311,-4.23428 0.51813,-9.4095 0.34441,-14.25441 1.04748,-23.1194 2.54249,-32.05891 2.21972,-13.27309 6.03215,-21.57592 10.94059,-23.82686 1.6183,-0.74212 4.73106,-0.82991 6.50574,-0.18347 l 1.15397,0.42036 0.71883,4.46723 c 0.39538,2.45697 1.02641,7.24013 1.40233,10.62921 3.1063,28.00534 0.84409,50.05613 -6.43157,62.6916 l -1.09671,1.90455 2.70356,1.96861 c 14.26076,10.38392 30.53303,18.88827 42.10348,22.00444 4.34122,1.16917 9.51969,2.02361 12.28158,2.02648 1.04276,0 1.89581,0.15185 1.89581,0.33504 0,0.1832 0.21213,0.33308 0.47141,0.33308 0.25929,0 2.63307,0.91007 5.27511,2.02236 4.56626,1.92241 5.01959,2.04398 9.1725,2.45979 6.4363,0.64448 6.47151,0.64322 6.6608,-0.23538 z M 403.1361,315.5247 c 2.76367,-18.65329 9.92018,-29.36297 21.33553,-31.92862 3.81494,-0.85743 10.34356,-0.52068 14.96344,0.77181 3.82269,1.06946 8.51843,2.88823 11.98566,4.64231 1.24262,0.62864 2.32344,1.07818 2.40184,0.99898 0.0784,-0.0792 -0.39591,-1.32538 -1.05404,-2.76928 -6.95829,-15.2661 -12.26708,-32.97889 -14.2139,-47.42449 -0.84847,-6.29582 -0.76588,-17.2487 0.16916,-22.43482 1.19473,-6.62621 3.41257,-12.36666 6.66321,-17.24631 1.94382,-2.91796 6.55077,-7.47622 9.65433,-9.5523 l 2.58286,-1.72774 -7.85816,-0.0211 c -5.60383,-0.015 -7.62169,-0.11701 -7.0339,-0.3554 1.82341,-0.73949 7.30884,-1.9598 10.97963,-2.44257 4.4905,-0.59056 13.93534,-0.6758 18.04319,-0.16283 12.75628,1.59296 24.91447,6.78201 35.09159,14.97688 14.85963,11.96539 27.1177,31.58101 35.27809,56.45289 1.8338,5.58918 2.10102,6.73709 2.28741,9.82584 0.44118,7.31069 2.76278,20.46258 4.98684,28.25066 3.26344,11.42772 7.39476,18.2543 12.10211,19.99755 6.82565,2.52775 12.10828,0.9738 14.79835,-4.35313 0.36519,-0.72314 0.97079,-2.46429 1.34583,-3.86921 0.88028,-3.29788 0.95186,-11.73367 0.1458,-17.18246 -0.76595,-5.17738 -0.35915,-5.27927 1.43933,-0.36053 0.60284,1.64874 1.27063,3.42007 1.48397,3.93629 l 0.3879,0.93857 0.59651,-1.60473 c 2.93159,-7.88687 17.29729,-40.22855 19.18098,-43.1823 2.82601,-4.43145 5.9748,-6.88552 8.83474,-6.88552 5.15628,0 8.51395,10.06601 9.60637,28.79913 0.14041,2.40845 0.3303,3.71717 0.47998,3.30842 0.89417,-2.44191 7.16043,-32.5193 9.54923,-45.8352 1.89811,-10.58071 1.8963,-10.45053 0.35703,-25.73267 l -1.34095,-13.31358 -1.2296,-1.84154 c -0.67627,-1.01285 -2.58365,-3.22543 -4.23865,-4.91686 -3.14358,-3.21279 -5.44299,-4.63969 -8.04487,-4.99224 -2.79113,-0.3782 -6.33791,1.73405 -9.09037,5.41374 -3.21065,4.29216 -7.04915,13.86313 -8.79667,21.93364 -0.71299,3.29283 -0.8051,3.49621 -1.66195,3.66933 -1.29964,0.2626 -2.51151,-0.30867 -2.91961,-1.37627 -0.7698,-2.01366 0.3,-5.74602 3.60834,-12.58913 2.1906,-4.53107 7.38276,-13.61583 8.00316,-14.00319 0.53812,-0.33598 -5.49509,-8.79904 -10.90059,-15.29075 -17.48285,-20.99592 -44.47249,-42.21138 -74.84377,-58.83163 -2.62031,-1.43393 -4.81467,-2.55616 -4.87636,-2.49385 -0.0617,0.0623 0.85819,7.07279 2.04414,15.57886 1.18592,8.50605 2.15625,15.57789 2.15625,15.71519 0,0.1373 -0.70194,0.20395 -1.55988,0.14812 l -1.55987,-0.10155 -0.38572,-3.3308 c -3.4461,-29.75573 -18.57299,-66.896927 -39.22726,-96.314826 -6.15664,-8.768912 -12.48833,-16.099529 -13.90563,-16.099529 -1.88995,0 -6.52308,4.563994 -10.06202,9.911843 -4.63297,7.0011 -12.11163,21.450455 -17.02255,32.888884 -0.94381,2.198325 -6.64217,15.361804 -12.663,29.252161 l -10.94695,25.255207 -8.23597,10.45101 c -4.52977,5.74806 -8.39051,10.45846 -8.57943,10.46757 -0.18892,0.009 -0.97712,-0.63566 -1.75157,-1.43283 l -1.40807,-1.44941 7.6059,-11.04921 7.60594,-11.04922 10.56962,-22.558008 c 5.8133,-12.406892 10.59724,-22.696953 10.63097,-22.866784 0.0892,-0.449142 -37.97056,-10.396147 -41.48167,-10.841308 -1.63205,-0.206923 -10.83085,-1.336947 -20.4418,-2.51117 -9.61094,-1.174222 -31.05011,-3.814241 -47.64259,-5.866708 l -30.16814,-3.731757 -19.12298,-0.361001 c -17.18988,-0.324506 -19.88955,-0.302732 -26.70623,0.215389 -16.43418,1.249129 -26.25038,1.997911 -47.19349,3.599941 l -21.80609,1.668039 -21.22562,4.291434 -21.22562,4.291437 -7.7431,2.990974 c -6.67839,2.579712 -22.950377,9.964136 -22.642305,10.275348 0.05823,0.05883 13.671775,3.331413 30.252305,7.272379 l 30.14641,7.165395 22.9146,10.217376 c 31.30566,13.958854 38.12932,17.314834 67.67035,33.281344 19.46141,10.5186 29.56047,15.74684 41.87133,21.67652 8.92318,4.29797 16.39631,7.95899 16.60697,8.1356 0.42845,0.35922 1.56995,4.6206 1.30848,4.88475 -0.092,0.0929 -13.09911,-6.0076 -28.90471,-13.55672 -23.19252,-11.07728 -28.90443,-13.68368 -29.60274,-13.50801 -0.4759,0.11972 -11.69614,3.49451 -24.93386,7.49953 l -24.06857,7.28187 -10.38576,5.06012 -10.38575,5.06012 -31.78058,21.68988 -31.78058,21.68988 -14.59852,13.48973 -14.598527,13.48972 -15.783638,19.5161 -15.783639,19.5161 -12.060056,19.12113 -12.060068,19.12113 -3.638671,8.82661 c -2.00127,4.85463 -4.242353,10.22947 -4.980174,11.94403 l -1.341503,3.11746 1.557098,-0.23565 c 0.856399,-0.1296 1.631278,-0.34331 1.721946,-0.4749 0.09063,-0.1316 1.277613,-0.48138 2.637649,-0.77728 1.360047,-0.29591 21.389709,-4.5927 44.510382,-9.54839 l 42.037581,-9.01036 36.43257,-5.68505 c 35.52534,-5.54348 36.70761,-5.70513 47.47773,-6.49147 6.07485,-0.44353 12.18842,-0.81053 13.58572,-0.81555 1.3973,-0.005 7.47446,0.44052 13.5048,0.9901 6.03034,0.54958 11.25201,0.99924 11.60371,0.99924 0.61107,0 0.62959,-0.18907 0.41691,-4.25881 -0.43338,-8.29295 0.74045,-17.28201 2.63427,-20.17303 0.83538,-1.27526 0.84364,-1.34626 0.46282,-3.97733 -0.21326,-1.47337 -0.8152,-4.32483 -1.33765,-6.33655 -1.6799,-6.46852 -2.03385,-13.17686 -0.93938,-17.80402 1.5946,-6.7416 6.34234,-11.28929 13.45073,-12.88395 3.1561,-0.70802 10.36878,-0.70833 15.08657,-6.7e-4 9.43198,1.41485 22.03247,5.61008 36.9034,12.28669 l 4.97627,2.2342 17.44377,14.28719 c 9.59409,7.85796 17.52034,14.29231 17.6139,14.29855 0.0936,0.007 0.9729,-3.88566 1.95401,-8.6487 0.98111,-4.76303 1.87498,-8.66007 1.98639,-8.66007 0.11137,0 1.37385,5.23029 2.80551,11.62287 l 2.60296,11.62286 13.39406,12.94176 c 10.67279,10.31236 15.50016,15.27777 23.76014,24.43949 l 10.36604,11.49774 0.21097,-7.66733 c 0.14016,-5.09261 0.44633,-9.25547 0.91174,-12.39675 z M 540.72091,193.11766 c -0.21761,-0.21984 -0.39564,-0.52221 -0.39564,-0.67194 0,-0.40057 -3.20205,-6.10755 -4.7249,-8.42114 -11.14484,-16.93189 -30.45255,-32.96664 -54.38512,-45.16607 l -6.52186,-3.32444 -3.20449,0.5499 c -11.40738,1.95753 -21.49531,6.98357 -29.36972,14.63265 -7.92443,7.69771 -13.47692,17.56806 -16.8154,29.89182 -1.20804,4.45949 -1.81395,5.72057 -2.0902,4.35055 -0.37402,-1.85456 3.32921,-18.68633 5.53464,-25.15613 1.34172,-3.93598 4.53268,-10.81364 6.10208,-13.15222 1.90795,-2.84302 3.71754,-4.85266 5.69166,-6.32079 l 1.93301,-1.43755 -12.31783,-0.004 c -6.77482,-0.002 -12.65168,-0.095 -13.05968,-0.20539 -0.63492,-0.17188 -0.74184,-0.42485 -0.74184,-1.75477 0,-1.36661 2.34928,-6.53166 19.48776,-42.845149 21.94372,-46.494933 20.27686,-43.469572 25.64108,-46.539043 3.23491,-1.851073 2.50655,-2.300597 6.07445,3.748974 15.41786,26.141943 25.47852,54.885678 28.10418,80.295028 0.28714,2.77873 0.44342,5.25931 0.34727,5.51241 -0.12633,0.33267 -0.83389,0.46017 -2.55364,0.46017 l -2.37883,0 5.41827,3.69763 c 17.43112,11.89564 31.74951,24.64055 38.77734,34.51601 4.10297,5.76546 6.37059,11.38901 6.37059,15.79853 0,1.95733 -0.19401,2.28213 -0.92318,1.5455 z m -101.94525,-58.43144 8.73722,-0.21791 4.71359,-2.78421 c 2.59248,-1.5313 5.08233,-2.78419 5.533,-2.78419 0.45067,0 8.10035,1.13337 16.99926,2.51861 8.89892,1.38522 16.24745,2.45032 16.33004,2.36688 0.21699,-0.2192 -3.8515,-16.79928 -5.96422,-24.3058 -2.78092,-9.880462 -6.25925,-20.607572 -9.24544,-28.512804 -4.26119,-11.28042 -11.93086,-26.651404 -13.44526,-26.94604 -1.25404,-0.243973 -5.01965,4.772897 -9.32743,12.426741 -2.89291,5.140002 -10.0903,19.680301 -14.17907,28.644842 -5.48862,12.033691 -17.29643,39.355221 -17.29643,40.021411 0,0.11473 1.89169,0.11451 4.20375,-6.7e-4 2.31208,-0.11501 8.13552,-0.30717 12.94099,-0.42703 z m 49.1718,174.37466 c 6.45865,-18.46013 8.03046,-38.70076 4.40864,-56.77127 -0.80336,-4.00833 -2.82997,-11.27748 -3.26723,-11.71923 -0.4081,-0.41227 -2.53963,1.02098 -4.12565,2.77411 -3.54415,3.91753 -6.18935,11.74261 -7.75839,22.95074 -1.04402,7.45798 -1.24062,10.9784 -1.39512,24.98098 l -0.15803,14.32242 5.21843,3.88545 c 2.87013,2.137 5.33792,3.76995 5.48394,3.62879 0.14607,-0.14116 0.86307,-1.96455 1.59341,-4.05199 z m -5.7824,-7.19175 c -0.53642,-2.60963 -1.25842,-10.27988 -1.48305,-15.75565 -0.56363,-13.74032 0.96944,-22.37827 4.71501,-26.56661 1.46274,-1.63565 2.43933,-1.98879 2.66847,-0.96491 0.0885,0.39524 0.31013,1.39309 0.49265,2.21746 0.1825,0.82438 0.42477,3.37244 0.53838,5.66236 0.3513,7.08113 -0.76924,16.25571 -3.21382,26.31329 -2.15799,8.87852 -3.22525,11.4893 -3.71764,9.09406 z m 147.09497,-129.29434 3.90181,-5.60116 10.58344,-30.44483 c 10.14995,-29.1978 10.62629,-30.67677 11.62879,-36.10719 0.5749,-3.114295 1.11484,-5.904853 1.19983,-6.201254 0.12921,-0.450567 -0.35994,-0.60769 -2.98391,-0.958548 -2.01605,-0.269562 -3.28664,-0.305691 -3.55275,-0.101002 -0.22786,0.175242 -7.31338,5.320163 -15.74563,11.433144 -8.43223,6.11298 -16.12673,11.92293 -17.09887,12.91099 -5.33422,5.42156 -18.48098,11.86802 -39.84734,19.53898 l -6.66601,2.39323 4.35807,3.63395 c 2.3969,1.99868 6.7805,5.62629 9.74134,8.06137 l 5.38328,4.4274 1.23277,-0.69993 c 4.33567,-2.46172 27.45539,-20.63364 38.21852,-30.03951 1.8698,-1.63398 3.57603,-2.90132 3.79163,-2.81631 0.21563,0.085 0.8063,1.28819 1.31259,2.67374 0.91649,2.5081 0.9182,2.5284 0.39219,4.61966 -1.55018,6.16306 -6.19607,20.211 -12.48434,37.7492 -1.38116,3.85212 -2.5112,7.16355 -2.5112,7.35871 0,0.48357 4.6302,4.15373 4.97144,3.94066 0.14989,-0.0935 2.02832,-2.69066 4.17435,-5.77129 z m -17.38846,1.48667 4.78075,-1.78985 1.1479,0.92912 1.14794,0.92914 5.02843,-21.53247 c 2.76561,-11.84286 4.99386,-21.7235 4.95163,-21.95697 -0.0422,-0.23347 -7.67353,5.8122 -16.95846,13.43484 l -16.88173,13.85932 5.92199,8.96477 c 3.25707,4.93062 5.9577,8.96189 6.00139,8.95836 0.0437,-0.003 2.23076,-0.81184 4.86016,-1.79626 z"
       id="path3347"
       inkscape:connector-curvature="0" />
  </g>
</svg>
