<?xml version="1.0" encoding="UTF-8" standalone="no"?>
<svg
   version="1.2"
   width="151.45999mm"
   height="218.29958mm"
   viewBox="0 0 15145.999 21829.958"
   preserveAspectRatio="xMidYMid"
   fill-rule="evenodd"
   stroke-width="28.222"
   stroke-linejoin="round"
   xml:space="preserve"
   id="svg1786"
   sodipodi:docname="2.svg"
   inkscape:version="1.2.2 (732a01da63, 2022-12-09, custom)"
   xmlns:inkscape="http://www.inkscape.org/namespaces/inkscape"
   xmlns:sodipodi="http://sodipodi.sourceforge.net/DTD/sodipodi-0.dtd"
   xmlns="http://www.w3.org/2000/svg"
   xmlns:svg="http://www.w3.org/2000/svg"
   xmlns:ooo="http://xml.openoffice.org/svg/export"><sodipodi:namedview
   id="namedview1788"
   pagecolor="#ffffff"
   bordercolor="#000000"
   borderopacity="0.25"
   inkscape:showpageshadow="2"
   inkscape:pageopacity="0.0"
   inkscape:pagecheckerboard="0"
   inkscape:deskcolor="#d1d1d1"
   inkscape:document-units="mm"
   showgrid="false"
   inkscape:zoom="0.9128125"
   inkscape:cx="288.12051"
   inkscape:cy="410.81821"
   inkscape:window-width="1920"
   inkscape:window-height="1031"
   inkscape:window-x="0"
   inkscape:window-y="25"
   inkscape:window-maximized="1"
   inkscape:current-layer="layer3" />
 <defs
   class="ClipPathGroup"
   id="defs1728">
  <clipPath
   id="presentation_clip_path"
   clipPathUnits="userSpaceOnUse">
   <rect
   x="0"
   y="0"
   width="18000"
   height="24000"
   id="rect1722" />
  </clipPath>
  <clipPath
   id="presentation_clip_path_shrink"
   clipPathUnits="userSpaceOnUse">
   <rect
   x="18"
   y="24"
   width="17964"
   height="23952"
   id="rect1725" />
  </clipPath>
 </defs>
 <defs
   class="TextShapeIndex"
   id="defs1732">
  <g
   ooo:slide="id1"
   ooo:id-list="id3"
   id="g1730" />
 </defs>
 <defs
   class="EmbeddedBulletChars"
   id="defs1764">
  <g
   id="bullet-char-template-57356"
   transform="matrix(4.8828125e-4,0,0,-4.8828125e-4,0,0)">
   <path
   d="M 580,1141 1163,571 580,0 -4,571 Z"
   id="path1734" />
  </g>
  <g
   id="bullet-char-template-57354"
   transform="matrix(4.8828125e-4,0,0,-4.8828125e-4,0,0)">
   <path
   d="M 8,1128 H 1137 V 0 H 8 Z"
   id="path1737" />
  </g>
  <g
   id="bullet-char-template-10146"
   transform="matrix(4.8828125e-4,0,0,-4.8828125e-4,0,0)">
   <path
   d="M 174,0 602,739 174,1481 1456,739 Z M 1358,739 309,1346 659,739 Z"
   id="path1740" />
  </g>
  <g
   id="bullet-char-template-10132"
   transform="matrix(4.8828125e-4,0,0,-4.8828125e-4,0,0)">
   <path
   d="M 2015,739 1276,0 H 717 l 543,543 H 174 v 393 h 1086 l -543,545 h 557 z"
   id="path1743" />
  </g>
  <g
   id="bullet-char-template-10007"
   transform="matrix(4.8828125e-4,0,0,-4.8828125e-4,0,0)">
   <path
   d="m 0,-2 c -7,16 -16,29 -25,39 l 381,530 c -94,256 -141,385 -141,387 0,25 13,38 40,38 9,0 21,-2 34,-5 21,4 42,12 65,25 l 27,-13 111,-251 280,301 64,-25 24,25 c 21,-10 41,-24 62,-43 C 886,937 835,863 770,784 769,783 710,716 594,584 L 774,223 c 0,-27 -21,-55 -63,-84 l 16,-20 C 717,90 699,76 672,76 641,76 570,178 457,381 L 164,-76 c -22,-34 -53,-51 -92,-51 -42,0 -63,17 -64,51 -7,9 -10,24 -10,44 0,9 1,19 2,30 z"
   id="path1746" />
  </g>
  <g
   id="bullet-char-template-10004"
   transform="matrix(4.8828125e-4,0,0,-4.8828125e-4,0,0)">
   <path
   d="M 285,-33 C 182,-33 111,30 74,156 52,228 41,333 41,471 c 0,78 14,145 41,201 34,71 87,106 158,106 53,0 88,-31 106,-94 l 23,-176 c 8,-64 28,-97 59,-98 l 735,706 c 11,11 33,17 66,17 42,0 63,-15 63,-46 V 965 c 0,-36 -10,-64 -30,-84 L 442,47 C 390,-6 338,-33 285,-33 Z"
   id="path1749" />
  </g>
  <g
   id="bullet-char-template-9679"
   transform="matrix(4.8828125e-4,0,0,-4.8828125e-4,0,0)">
   <path
   d="M 813,0 C 632,0 489,54 383,161 276,268 223,411 223,592 c 0,181 53,324 160,431 106,107 249,161 430,161 179,0 323,-54 432,-161 108,-107 162,-251 162,-431 0,-180 -54,-324 -162,-431 C 1136,54 992,0 813,0 Z"
   id="path1752" />
  </g>
  <g
   id="bullet-char-template-8226"
   transform="matrix(4.8828125e-4,0,0,-4.8828125e-4,0,0)">
   <path
   d="m 346,457 c -73,0 -137,26 -191,78 -54,51 -81,114 -81,188 0,73 27,136 81,188 54,52 118,78 191,78 73,0 134,-26 185,-79 51,-51 77,-114 77,-187 0,-75 -25,-137 -76,-188 -50,-52 -112,-78 -186,-78 z"
   id="path1755" />
  </g>
  <g
   id="bullet-char-template-8211"
   transform="matrix(4.8828125e-4,0,0,-4.8828125e-4,0,0)">
   <path
   d="M -4,459 H 1135 V 606 H -4 Z"
   id="path1758" />
  </g>
  <g
   id="bullet-char-template-61548"
   transform="matrix(4.8828125e-4,0,0,-4.8828125e-4,0,0)">
   <path
   d="m 173,740 c 0,163 58,303 173,419 116,115 255,173 419,173 163,0 302,-58 418,-173 116,-116 174,-256 174,-419 0,-163 -58,-303 -174,-418 C 1067,206 928,148 765,148 601,148 462,206 346,322 231,437 173,577 173,740 Z"
   id="path1761" />
  </g>
 </defs>
 
 
<g
   inkscape:groupmode="layer"
   id="layer3"
   inkscape:label="Layer 1"
   transform="translate(-1370,-1136)"><path
     fill="#000000"
     stroke="none"
     d="m 11767,22680 c 0,-15 32,-59 71,-98 51,-52 117,-71 244,-71 167,0 176,5 219,123 72,199 318,213 536,31 127,-106 327,-114 358,-14 19,57 37,63 111,35 49,-19 157,-34 241,-34 137,0 155,-10 177,-97 35,-141 121,-220 239,-220 74,0 109,20 122,70 20,75 63,92 97,38 11,-18 133,-58 272,-89 138,-32 284,-81 325,-109 40,-28 109,-51 153,-51 44,0 81,-17 81,-36 0,-20 51,-35 114,-35 180,0 802,-339 997,-543 199,-207 229,-273 228,-493 0,-160 -18,-239 -69,-304 -56,-72 -70,-77 -70,-27 -1,38 -28,62 -73,62 -39,0 -170,42 -291,93 -514,217 -1479,484 -2212,612 -126,22 -301,56 -388,76 -950,213 -2856,174 -3916,-81 -410,-98 -1678,-586 -1816,-699 -68,-55 -2082,-1056 -2276,-1130 -645,-250 -1404,-483 -2521,-774 -233,-61 -468,-135 -523,-165 -55,-31 -106,-49 -115,-41 -8,9 -24,94 -36,189 -11,96 -49,256 -84,356 -53,155 -60,266 -44,750 18,554 20,569 98,588 44,11 89,55 101,97 23,87 229,240 405,300 66,22 198,41 293,41 113,0 204,23 267,67 142,101 568,185 802,157 173,-20 205,-13 281,58 119,111 637,222 902,192 182,-20 200,-30 238,-136 23,-63 42,-142 42,-177 0,-34 25,-117 57,-183 54,-114 66,-120 243,-120 132,0 256,32 428,110 402,181 488,224 500,250 6,13 93,51 194,84 101,33 208,81 238,107 30,27 105,66 166,87 98,34 119,67 187,298 88,295 143,334 463,334 113,0 205,24 268,68 53,38 161,78 241,91 140,22 145,19 167,-88 20,-103 31,-109 155,-99 120,10 133,21 143,122 6,61 38,135 71,164 76,68 394,120 394,64 0,-22 57,-39 126,-39 89,0 147,25 202,88 54,61 129,95 244,111 155,20 170,15 209,-71 75,-164 384,-161 384,4 0,111 142,185 354,185 172,0 205,-10 220,-70 25,-93 214,-98 279,-7 53,75 166,145 235,147 26,0 93,-27 150,-60 56,-33 102,-73 102,-88 z m 829,-1066 c 233,-28 495,-66 583,-86 87,-19 261,-53 387,-75 268,-47 378,-71 900,-197 475,-114 920,-257 1342,-429 270,-110 334,-152 406,-266 108,-172 114,-291 14,-286 -65,3 -73,-19 -76,-201 -5,-218 -29,-294 -84,-259 -19,11 -32,7 -29,-9 47,-270 -157,-484 -653,-684 -266,-107 -393,-139 -553,-139 -116,0 -208,-15 -208,-35 0,-20 -118,-35 -284,-35 -207,0 -288,-13 -302,-48 -13,-36 -98,-49 -317,-51 -323,-2 -661,-62 -772,-137 -38,-25 -140,-46 -226,-46 -170,0 -552,-160 -675,-282 -38,-39 -111,-71 -161,-71 -123,0 -685,-403 -685,-492 0,-20 -21,-37 -45,-37 -62,0 -429,-380 -495,-512 -64,-127 -181,-237 -325,-305 -61,-30 -103,-76 -101,-111 3,-33 -16,-60 -42,-60 -30,0 -45,-36 -40,-96 5,-70 -16,-107 -81,-140 -49,-25 -74,-45 -58,-46 17,0 11,-25 -14,-55 -28,-34 -54,-41 -68,-18 -12,19 -52,-43 -90,-140 -37,-96 -80,-175 -95,-175 -16,0 -28,-32 -28,-71 0,-39 -16,-70 -36,-70 -21,0 -26,-38 -14,-88 17,-68 9,-89 -36,-89 -33,0 -51,-13 -41,-29 10,-16 -11,-76 -47,-135 -36,-58 -76,-160 -90,-227 -15,-66 -44,-142 -65,-169 -22,-26 -35,-94 -29,-150 8,-73 -5,-101 -45,-101 -40,0 -51,-22 -37,-79 25,-107 -35,-462 -81,-477 -26,-9 -26,-46 0,-120 28,-80 27,-114 -4,-134 -23,-14 -39,-40 -36,-58 3,-17 3,-47 -1,-67 -5,-19 -5,-102 -2,-184 3,-83 -7,-150 -23,-150 -16,0 -47,-38 -68,-84 -40,-86 -10,-187 71,-242 28,-18 27,-26 0,-26 -24,-1 -39,-98 -39,-266 0,-145 -10,-275 -23,-288 -41,-40 -25,-145 30,-200 34,-34 40,-62 17,-76 -20,-12 -25,-40 -12,-62 34,-54 36,-484 4,-485 -62,0 -20,-147 61,-218 89,-77 118,-170 54,-170 -43,0 -40,-628 3,-655 17,-10 31,-106 31,-213 0,-136 13,-187 40,-169 28,17 34,-6 19,-78 -61,-295 -65,-341 -34,-361 19,-13 54,-174 78,-358 25,-184 51,-383 60,-441 8,-58 19,-219 24,-357 4,-138 27,-274 49,-301 23,-27 59,-287 81,-577 22,-291 80,-893 129,-1339 49,-446 80,-869 68,-942 -12,-77 -5,-140 17,-154 21,-13 27,-66 15,-123 -12,-56 -6,-130 13,-166 42,-78 151,-1188 148,-1501 -4,-377 1,-459 33,-520 41,-76 142,-1003 153,-1401 5,-170 20,-327 33,-348 49,-80 -188,-129 -961,-200 -530,-49 -1069,-74 -1623,-75 -768,-1 -860,6 -1262,93 -239,52 -588,149 -777,217 -1182,421 -1509,528 -1941,636 -451,113 -1017,200 -1624,251 -443,37 -408,-37 -422,901 -9,599 -1,825 31,863 33,40 33,63 -4,107 -59,71 -49,1635 11,1766 31,67 26,97 -25,153 -46,50 -53,83 -27,115 20,25 40,219 45,433 14,592 19,770 88,2963 29,918 53,1337 84,1460 18,70 43,282 56,471 13,189 36,352 51,361 15,9 39,178 53,376 14,197 39,385 55,415 16,31 48,199 70,374 23,175 63,373 90,441 80,206 100,599 40,799 l -52,176 138,218 c 76,119 131,217 123,217 -9,0 -3,48 14,106 17,61 17,106 -1,106 -76,0 -108,174 -123,671 -9,292 -32,561 -52,598 -20,37 -37,135 -39,219 -2,84 -15,192 -29,240 -15,49 -11,132 7,186 23,71 17,136 -24,239 -35,86 -57,246 -57,410 0,269 -56,541 -111,541 -16,0 -30,16 -30,36 0,77 382,272 688,351 1114,287 2023,564 2664,812 193,75 2208,1075 2275,1130 67,54 951,427 1270,535 508,173 892,254 1622,343 408,49 1655,42 2116,-12 z m -1346,1301 c -81,-35 -142,-39 -229,-14 -65,18 -218,23 -340,11 -242,-25 -395,-113 -395,-227 0,-95 -52,-85 -124,25 -58,89 -70,92 -321,75 -181,-11 -282,-35 -330,-78 -52,-47 -139,-63 -368,-68 -257,-6 -312,-19 -385,-87 -70,-66 -131,-80 -368,-89 -204,-7 -312,-28 -384,-75 -57,-38 -179,-70 -283,-76 -101,-5 -237,-32 -303,-59 -105,-44 -127,-79 -191,-291 -44,-149 -97,-255 -139,-277 -36,-19 -106,-61 -155,-93 -48,-32 -151,-78 -229,-103 -78,-25 -213,-87 -300,-138 -140,-81 -308,-159 -645,-297 -128,-53 -209,-2 -248,156 -66,269 -110,392 -146,401 -380,92 -374,92 -784,14 -265,-51 -436,-102 -497,-151 -75,-59 -133,-71 -289,-62 -235,13 -690,-81 -814,-169 -55,-39 -176,-69 -317,-79 -312,-21 -480,-109 -722,-380 -20,-22 -65,-60 -101,-85 -60,-40 -67,-107 -76,-705 -9,-577 -2,-682 56,-843 70,-191 88,-411 40,-469 -16,-19 -49,-94 -74,-169 -42,-123 -40,-142 27,-213 59,-63 80,-152 108,-475 19,-218 45,-413 58,-434 13,-21 3,-99 -22,-175 -40,-122 -38,-145 20,-209 48,-53 63,-121 59,-267 -3,-125 15,-226 49,-279 40,-61 48,-126 30,-245 -15,-106 -9,-178 18,-211 32,-39 32,-69 1,-127 -32,-59 -28,-145 16,-385 62,-337 57,-371 -93,-591 l -100,-149 58,-254 c 58,-255 50,-535 -19,-709 -17,-44 -50,-223 -73,-398 -23,-174 -55,-349 -70,-388 -15,-39 -47,-229 -71,-423 -24,-194 -65,-504 -91,-687 -53,-377 -163,-1679 -166,-1976 -13,-1040 -106,-3348 -137,-3410 -13,-27 -20,-66 -21,-107 v -11 c 0,-25 3,-51 9,-76 32,-147 34,-268 23,-1334 -5,-476 -3,-1236 6,-1690 19,-962 -11,-900 447,-937 596,-48 1174,-137 1629,-251 431,-108 759,-215 1941,-636 617,-220 1282,-326 2141,-330 h 84 c 335,1 699,17 1102,48 1438,109 1668,151 1625,296 -10,33 -35,259 -56,501 -66,764 -135,1391 -160,1455 -13,34 -4,165 21,291 39,197 38,236 -8,290 -65,77 -156,1011 -142,1451 6,174 -6,313 -28,340 -58,70 -227,1616 -283,2593 -16,282 -54,714 -85,962 -30,247 -63,556 -73,687 -10,130 -26,261 -35,291 -26,82 -62,645 -68,1059 -3,204 -17,388 -30,409 -13,21 -32,101 -42,176 -22,170 -65,987 -58,1107 3,49 4,251 2,449 -2,223 14,391 40,441 24,44 46,215 50,380 5,222 26,343 82,466 42,91 76,218 76,282 1,136 124,402 238,515 44,43 79,118 79,168 0,104 217,457 340,554 46,37 84,91 84,121 0,80 286,459 380,502 43,20 98,81 121,134 58,139 343,430 474,485 62,26 121,79 134,117 29,91 489,396 599,396 47,0 132,39 189,87 168,141 431,244 598,233 107,-6 179,12 255,67 88,63 187,82 574,110 295,22 510,55 582,91 80,40 160,50 275,34 113,-15 194,-6 264,31 56,28 173,52 259,52 101,0 280,50 501,138 286,115 370,168 506,316 162,178 321,527 321,705 0,46 38,128 84,183 60,71 77,108 79,263 v 66 c 0,34 -1,73 -2,117 -20,875 -9,798 -145,976 -68,90 -223,230 -344,313 -255,174 -721,413 -808,415 -32,0 -68,14 -78,31 -11,17 -115,42 -233,55 -118,13 -222,43 -231,66 -9,24 -63,46 -120,50 -57,4 -175,40 -262,79 -200,91 -251,91 -318,-4 l -53,-77 -38,103 c -21,57 -45,123 -53,147 -9,27 -80,44 -177,44 -88,0 -218,24 -287,53 -174,73 -262,67 -284,-17 -24,-91 -74,-90 -175,5 -90,84 -351,124 -557,86 -100,-19 -136,-49 -177,-146 -28,-67 -74,-122 -103,-122 -56,0 -163,92 -163,141 0,16 -53,63 -119,103 -137,85 -369,94 -539,19 z"
     id="path1773" /></g></svg>
