<?xml version="1.0" encoding="UTF-8" standalone="no"?>
<!-- Created with Inkscape (http://www.inkscape.org/) -->

<svg
   xmlns:dc="http://purl.org/dc/elements/1.1/"
   xmlns:cc="http://creativecommons.org/ns#"
   xmlns:rdf="http://www.w3.org/1999/02/22-rdf-syntax-ns#"
   xmlns:svg="http://www.w3.org/2000/svg"
   xmlns="http://www.w3.org/2000/svg"
   xmlns:sodipodi="http://sodipodi.sourceforge.net/DTD/sodipodi-0.dtd"
   xmlns:inkscape="http://www.inkscape.org/namespaces/inkscape"
   width="132.29462mm"
   height="294.50742mm"
   viewBox="0 0 132.29462 294.50742"
   version="1.1"
   id="svg8"
   inkscape:version="0.92.3 (2405546, 2018-03-11)"
   sodipodi:docname="Cat surprice.svg">
  <title
     id="title74">Cat Surprice</title>
  <defs
     id="defs2" />
  <sodipodi:namedview
     id="base"
     pagecolor="#ffffff"
     bordercolor="#666666"
     borderopacity="1.0"
     inkscape:pageopacity="0.0"
     inkscape:pageshadow="2"
     inkscape:zoom="0.43793664"
     inkscape:cx="-712.69493"
     inkscape:cy="817.13081"
     inkscape:document-units="mm"
     inkscape:current-layer="layer1"
     showgrid="false"
     fit-margin-top="0"
     fit-margin-left="0"
     fit-margin-right="0"
     fit-margin-bottom="0"
     inkscape:window-width="1920"
     inkscape:window-height="1025"
     inkscape:window-x="0"
     inkscape:window-y="27"
     inkscape:window-maximized="1" />
  <metadata
     id="metadata5">
    <rdf:RDF>
      <cc:Work
         rdf:about="">
        <dc:format>image/svg+xml</dc:format>
        <dc:type
           rdf:resource="http://purl.org/dc/dcmitype/StillImage" />
        <dc:title>Cat Surprice</dc:title>
        <dc:creator>
          <cc:Agent>
            <dc:title>Doodleguy</dc:title>
          </cc:Agent>
        </dc:creator>
        <dc:rights>
          <cc:Agent>
            <dc:title>public domain</dc:title>
          </cc:Agent>
        </dc:rights>
        <dc:source>www.fresvg.org</dc:source>
        <dc:date>2023</dc:date>
        <cc:license
           rdf:resource="http://creativecommons.org/publicdomain/zero/1.0/" />
      </cc:Work>
      <cc:License
         rdf:about="http://creativecommons.org/publicdomain/zero/1.0/">
        <cc:permits
           rdf:resource="http://creativecommons.org/ns#Reproduction" />
        <cc:permits
           rdf:resource="http://creativecommons.org/ns#Distribution" />
        <cc:permits
           rdf:resource="http://creativecommons.org/ns#DerivativeWorks" />
      </cc:License>
    </rdf:RDF>
  </metadata>
  <g
     inkscape:label="Layer 1"
     inkscape:groupmode="layer"
     id="layer1"
     transform="translate(-19.776479,-2.6593352)">
    <path
       style="fill:#000000;stroke-width:1"
       d="m 65.514009,297.07242 c 0.05054,-0.0505 0.888462,-0.19148 1.861946,-0.31313 2.281199,-0.28507 5.03166,-1.63141 7.064281,-3.45797 0.766831,-0.68909 1.834251,-1.6126 2.372058,-2.05223 0.601515,-0.49172 1.073713,-1.08996 1.227029,-1.55446 0.305111,-0.92449 0.14036,-4.33616 -0.340099,-7.04289 -0.18348,-1.03365 -0.416427,-2.63107 -0.517677,-3.54986 -0.200251,-1.8172 -0.974648,-7.72875 -1.155714,-8.82243 l -0.112349,-0.67868 h 0.914343 c 1.818674,0 3.081398,-1.88068 2.944257,-4.38511 -0.155316,-2.83608 -0.303274,-3.40952 -1.245399,-4.82668 -1.079648,-1.62402 -1.512683,-1.95065 -2.85043,-2.15005 -0.542852,-0.081 -1.028626,-0.21445 -1.079485,-0.29674 -0.268817,-0.43494 -1.419933,-9.81624 -1.615901,-13.16904 -0.25748,-4.40552 -0.207404,-6.56695 0.42385,-18.29272 0.479884,-8.91386 0.710059,-11.74971 1.169464,-14.40826 0.31797,-1.84012 0.45722,-3.28076 0.635776,-6.57766 0.144186,-2.6624 0.381382,-3.64238 0.983712,-4.06427 0.616612,-0.4319 1.03843,-0.40399 1.694467,0.11204 0.947755,0.7455 1.674825,2.21966 1.657608,3.36087 -0.0087,0.55687 -0.107827,1.12917 -0.220883,1.27177 -0.37223,0.46936 -0.449491,2.30332 -0.222023,5.27081 0.203296,2.65242 0.178034,3.2912 -0.272491,6.8909 -0.449143,3.58863 -0.495078,4.73523 -0.48098,12.00688 0.0226,11.69182 0.690602,19.0172 2.913126,31.94874 0.286219,1.66533 0.709134,4.34335 0.939821,5.95124 0.230697,1.60787 0.695352,4.47386 1.032582,6.36886 1.338399,7.52081 1.475531,8.41005 1.584988,10.27854 0.06239,1.0654 0.217392,2.54688 0.344382,3.29203 0.213588,1.25331 0.318154,1.43872 1.394964,2.47335 1.414628,1.35925 1.868371,1.60515 3.511402,1.90308 0.703102,0.12753 1.732738,0.36117 2.2881,0.51925 1.179399,0.33571 2.341862,0.50715 4.303885,0.63471 0.778135,0.0505 1.499889,0.14457 1.60389,0.20884 0.104022,0.0642 0.23961,0.0351 0.301361,-0.0648 0.06174,-0.0999 0.875428,-0.24529 1.80817,-0.32307 1.88867,-0.15752 4.04857,-0.99258 5.05078,-1.95276 0.74213,-0.71101 0.75726,-1.69114 0.0448,-2.90681 -0.6143,-1.04824 -1.18242,-1.38767 -2.91528,-1.74177 -0.68909,-0.14083 -1.43113,-0.35017 -1.64897,-0.46522 -0.21784,-0.11507 -1.139643,-0.24709 -2.048457,-0.29343 -1.95924,-0.0999 -3.931882,-0.88673 -4.795127,-1.91262 -1.13092,-1.34404 -3.677913,-9.00755 -4.872561,-14.66086 -1.461553,-6.91628 -2.553091,-16.561 -2.717756,-24.01377 -0.05967,-2.69892 -0.265751,-8.32332 -0.458024,-12.49864 -0.467894,-10.16029 -0.151283,-14.90769 1.478216,-22.1647 0.16762,-0.74651 0.358382,-2.72989 0.423925,-4.40754 0.171013,-4.37791 0.39359,-5.58514 1.592162,-8.63573 1.035256,-2.63489 1.763446,-4.01698 3.359629,-6.37656 1.109702,-1.64043 3.529228,-5.94619 4.995791,-8.89045 2.074339,-4.16442 3.075242,-9.11583 2.864652,-14.17117 -0.23314,-5.5969 -2.066691,-9.31614 -7.457103,-15.12627 -2.007316,-2.16362 -2.625744,-3.05561 -3.75974,-5.42286 -0.605895,-1.26483 -0.644569,-1.5092 -0.842864,-5.3248 -0.114305,-2.19951 -0.367132,-5.22068 -0.561851,-6.71371 -0.429361,-3.29242 -0.490525,-10.11277 -0.118893,-13.25976 0.142404,-1.20591 0.361155,-3.08069 0.486091,-4.1662 0.322338,-2.80037 1.236551,-6.21367 2.379709,-8.88477 1.077605,-2.51791 2.67968,-5.56942 3.112682,-5.92878 0.151415,-0.12565 1.769902,-0.31948 3.59663,-0.43071 3.760719,-0.229 4.732809,-0.46685 6.317929,-1.54584 0.6145,-0.41827 1.20992,-0.7605 1.32317,-0.7605 0.32876,0 2.06657,-1.25909 3.13661,-2.272542 l 0.98308,-0.931114 1.58053,0.975386 c 0.86928,0.53646 1.62232,0.975375 1.67338,0.975375 0.25744,0 6.55057,3.873845 7.58073,4.666425 0.65438,0.5035 2.64628,1.88842 4.42644,3.07763 4.3443,2.90215 6.7302,4.80769 11.02219,8.80301 1.9851,1.8479 3.97861,3.64367 4.43006,3.99064 0.45145,0.34698 1.5407,1.45718 2.42056,2.4671 0.87986,1.00995 1.68352,1.78451 1.78588,1.72125 0.10239,-0.0632 0.02,-0.32485 -0.18299,-0.58127 -1.13147,-1.42923 -3.00656,-3.41047 -3.91333,-4.13488 -0.57113,-0.45629 -2.63841,-2.31898 -4.59392,-4.13933 -4.6751,-4.35192 -8.11268,-7.02548 -13.02257,-10.12815 -0.54523,-0.34454 -1.57431,-1.07803 -2.28687,-1.62995 -1.14279,-0.88518 -7.37785,-4.738913 -7.66723,-4.738913 -0.2272,0 -2.81768,-1.744043 -2.81768,-1.897 0,-0.0875 0.21745,-0.424731 0.48323,-0.749374 0.92163,-1.125834 1.34356,-2.538625 1.50151,-5.027595 0.082,-1.292041 0.20927,-2.34933 0.28285,-2.349537 0.0736,-2.06e-4 1.21442,0.325242 2.53517,0.723212 3.81708,1.150158 9.17209,2.646352 10.64959,2.975507 1.31997,0.294066 2.03005,0.486492 5.95123,1.612737 1.03364,0.296882 3.5753,0.91581 5.64816,1.375411 2.07284,0.459589 4.59225,1.062168 5.59864,1.339061 3.58153,0.985376 6.51802,3.216651 6.98611,5.308371 0.11939,0.53346 0.32066,1.37982 0.44729,1.88082 0.12662,0.50099 0.29784,1.70127 0.38051,2.66728 0.16327,1.90803 0.53272,2.35507 0.62599,0.75748 0.0541,-0.92713 -0.20264,-2.59827 -0.80253,-5.22312 -0.34155,-1.49447 -2.06665,-3.376427 -4.22592,-4.610163 -1.74715,-0.998256 -3.40327,-1.503019 -9.01009,-2.746179 -3.53207,-0.783135 -5.79564,-1.375704 -8.7804,-2.298579 -0.68908,-0.213067 -1.67574,-0.453307 -2.19256,-0.533883 -0.51681,-0.08054 -1.9733,-0.458547 -3.23663,-0.839973 -1.26332,-0.381426 -3.21437,-0.931375 -4.33564,-1.222105 -1.12127,-0.29073 -2.96046,-0.814973 -4.08708,-1.164986 l -2.0484,-0.636395 -0.26206,-2.542808 c -0.14414,-1.398541 -0.40264,-2.814659 -0.57446,-3.146921 -0.17182,-0.332262 -0.28198,-0.630808 -0.2448,-0.663439 0.0372,-0.03261 1.05426,0.01641 2.26016,0.108947 8.84037,0.678547 12.90618,0.82907 21.29917,0.78857 10.1295,-0.04891 10.63962,0.01141 13.17896,1.559672 2.96542,1.807978 4.05369,2.394068 4.2388,2.282828 0.24161,-0.145206 -0.53906,-0.781026 -1.75463,-1.429073 -0.51791,-0.27611 -1.55245,-0.89106 -2.29896,-1.366563 -2.63542,-1.678662 -3.03223,-1.728869 -13.25977,-1.677651 -8.62332,0.04315 -17.30875,-0.318165 -23.597,-0.981734 -0.17352,-0.01826 -0.39313,-2.841343 -0.351,-4.511646 0.005,-0.229708 0.0744,-2.484907 0.15248,-5.011563 0.10673,-3.452716 0.0584,-5.617077 -0.19475,-8.712465 -0.3824,-4.677419 -0.44168,-11.738363 -0.12059,-14.367107 0.24392,-1.997012 0.43643,-2.710767 1.19948,-4.446973 0.44094,-1.003299 0.60701,-1.1968 0.95012,-1.107082 1.93517,0.506058 8.80015,-8.204179 12.14347,-15.407559 2.51522,-5.419217 2.94936,-7.505523 3.11075,-14.949144 0.0635,-2.9306825 0.12152,-3.3575547 0.61351,-4.5157464 0.90412,-2.1284365 1.35975,-2.7418641 2.53669,-3.4152377 0.60858,-0.3481977 1.19691,-0.749961 1.3074,-0.8927879 0.76014,-0.9827668 0.161,-1.6173574 -1.01683,-1.0769738 -0.38567,0.1769467 -0.84217,0.4087524 -1.01444,0.5151117 -0.17227,0.1063051 -0.66821,0.3855458 -1.10209,0.6204168 -1.60851,0.8707117 -9.2434,9.0311543 -11.39189,12.1760633 -1.03825,1.519792 -2.19781,3.677392 -3.60205,6.70241 -1.139,2.453624 -2.0709,4.55319 -2.0709,4.665724 0,0.3846 -0.53217,0.646025 -2.19745,1.079462 -1.59296,0.414623 -1.72634,0.497232 -3.0568,1.893055 -2.00767,2.106328 -2.44996,2.017654 -5.34872,-1.072365 -1.46568,-1.562367 -3.047814,-2.381873 -5.385523,-2.789538 -1.47189,-0.256676 -2.104752,-0.277198 -3.012736,-0.09772 -1.854587,0.3666 -3.905013,1.223801 -5.534848,2.313894 -1.684923,1.126941 -1.964643,1.197094 -2.484178,0.623014 -0.196143,-0.216686 -0.938953,-0.658547 -1.650674,-0.981875 -1.075093,-0.488383 -1.586336,-0.589535 -3.021376,-0.597797 l -1.727315,-0.0098 -0.546036,-0.939669 c -0.300317,-0.516818 -0.932527,-1.349976 -1.4049,-1.851468 -0.919592,-0.976233 -4.499407,-4.076709 -6.002155,-5.198455 -0.501808,-0.374578 -1.476172,-1.105658 -2.165264,-1.624629 -0.68909,-0.518959 -2.521449,-1.766945 -4.071893,-2.773299 -5.216476,-3.385846 -6.382092,-3.868762 -7.188151,-2.978061 -0.337687,0.373133 -0.338883,0.435219 -0.01772,0.925364 0.314589,0.480133 3.276204,2.443102 5.002302,3.315553 1.723966,0.871374 2.452112,3.21316 2.013174,6.474658 -0.596905,4.435396 -0.133663,10.059016 1.075138,13.051708 1.34729,3.335541 4.729148,7.583632 6.837932,8.589366 1.065126,0.507993 1.180029,0.634037 1.524258,1.67201 0.737146,2.222764 0.872115,3.958904 0.609526,7.84058 -0.186697,2.75957 -0.39623,4.20609 -0.883299,6.097558 -0.910429,3.535597 -2.413601,7.95071 -3.139811,9.222261 -0.791994,1.386726 -1.072909,1.396585 -4.316168,0.151501 -2.503221,-0.960973 -3.37252,-1.446281 -5.31002,-2.964377 -2.006111,-1.571846 -7.120314,-5.488054 -9.571351,-7.329272 -1.320758,-0.992147 -3.951828,-2.989626 -5.846817,-4.438852 -4.323255,-3.30627 -7.040336,-5.183389 -8.730434,-6.031536 -1.140397,-0.572286 -1.498508,-0.652895 -2.664276,-0.599698 -0.740754,0.03381 -1.347551,0.155435 -1.348454,0.270283 -7.93e-4,0.114849 0.6812,0.257719 1.515803,0.317502 2.300437,0.164784 4.186101,1.285008 11.227361,6.669888 1.894989,1.449226 4.526059,3.446716 5.846817,4.438863 2.403318,1.805369 7.473446,5.686958 9.57347,7.329272 1.967729,1.538846 2.754788,1.985327 5.071193,2.8768 1.24816,0.480362 2.269209,0.930778 2.269003,1.000951 -1.96e-4,0.07011 -0.407253,0.384634 -0.904549,0.698787 -0.497308,0.314154 -1.075496,0.760505 -1.284888,0.991876 -0.52346,0.578438 -1.186464,0.528329 -3.134975,-0.236903 -0.918788,-0.36084 -4.207634,-1.520065 -7.308533,-2.576071 -6.38168,-2.173273 -7.092346,-2.447916 -9.648906,-3.728827 -4.746158,-2.37797 -10.526714,-4.571189 -10.815694,-4.103611 -0.177545,0.287285 0.38922,0.570602 2.040316,1.01992 1.713086,0.466187 5.563816,2.101545 8.997521,3.821121 2.358383,1.181071 5.437881,2.343557 10.366421,3.913229 1.895011,0.603536 4.056241,1.356117 4.802757,1.672413 0.746515,0.316284 1.803641,0.738276 2.349177,0.937733 0.545525,0.199458 0.991865,0.436459 0.991865,0.526666 0,0.09022 -0.455101,0.763701 -1.011344,1.496639 -1.509563,1.98911 -2.74731,5.482088 -2.74731,7.753025 v 1.201355 l -1.51391,-0.0011 c -3.521772,-0.0043 -6.479279,-0.599362 -12.059094,-2.427656 -2.619994,-0.858462 -9.251447,-2.627548 -11.589244,-3.091671 -1.953261,-0.387784 -5.717631,-0.532579 -5.755153,-0.221382 -0.01424,0.118077 1.094681,0.313644 2.551765,0.450025 1.417313,0.132675 3.234704,0.386328 4.038654,0.563678 2.697702,0.595144 7.912765,2.012087 10.440758,2.836799 5.919764,1.931142 8.794259,2.51833 12.3284,2.51833 h 1.689782 l 0.485198,1.200682 c 1.321193,3.269486 3.097987,5.40039 8.154918,9.780123 3.577957,3.098823 5.208075,4.085182 8.455181,5.116102 l 1.252888,0.39777 0.880701,1.82799 c 1.097843,2.27875 2.147894,6.61031 2.145437,8.85022 -0.0011,1.75173 -0.459372,5.43143 -0.944169,7.59485 -0.180153,0.80394 -0.424394,2.07249 -0.542753,2.81901 -0.11836,0.74651 -0.391752,2.01506 -0.607536,2.819 -0.215785,0.80395 -0.587961,2.30742 -0.827071,3.34105 -0.239099,1.03363 -0.664873,2.72504 -0.946147,3.75867 -0.452969,1.66453 -0.927581,3.64323 -2.10361,8.77025 -0.379882,1.65612 -0.955386,2.53741 -2.229285,3.41377 -1.555379,1.07001 -2.674668,1.33472 -6.310407,1.49243 -2.885408,0.12516 -3.568858,0.22422 -5.011563,0.72638 -3.130801,1.08974 -5.471087,2.54463 -9.056216,5.62997 -3.148845,2.70989 -4.990824,5.18185 -7.121174,9.55672 -1.365997,2.80522 -2.142708,3.74176 -3.847772,4.63956 -2.135697,1.12458 -3.90823,0.58045 -4.680147,-1.43669 -0.746734,-1.95134 -0.533971,-4.59417 0.7992,-9.92711 0.644439,-2.57787 0.93894,-4.75279 1.159311,-8.56144 0.115837,-2.00214 0.06674,-2.74949 -0.29586,-4.49526 -0.537982,-2.59079 -0.830016,-3.41495 -1.773804,-5.00582 -2.195644,-3.7011 -4.51955,-5.9335 -8.003733,-7.68857 -1.954762,-0.98466 -5.291227,-1.29775 -6.881411,-0.64574 -1.013984,0.41575 -2.485927,1.81422 -3.041192,2.88934 -0.572297,1.10815 -0.4506,2.82105 0.253697,3.57074 0.579514,0.61687 1.299866,0.82538 3.914252,1.13304 5.496261,0.6468 8.890466,4.45148 9.69571,10.86824 0.246012,1.96046 -0.01664,5.987 -0.599482,9.18836 -0.714135,3.92283 -0.703776,6.04656 0.05087,10.4333 0.54121,3.14597 1.782369,4.90988 3.880002,5.51417 1.498943,0.43182 4.418483,0.44583 5.60587,0.0269 0.488275,-0.17228 0.912538,-0.31323 0.942809,-0.31323 0.03022,0 0.04881,1.19808 0.04109,2.66239 -0.01555,2.96817 0.279078,4.34802 1.323312,6.1983 0.756505,1.34045 2.353677,6.59755 3.556912,11.70761 0.42259,1.79471 0.446971,2.52949 0.541591,16.31771 0.115555,16.83939 0.02902,18.78329 -1.513575,34.00677 -0.673112,6.64281 -0.938788,8.66774 -1.54465,11.77309 -1.049712,5.3804 -1.120517,5.56155 -2.599298,6.65072 -0.698646,0.5146 -1.62652,1.11752 -2.061925,1.33987 -2.668353,1.36261 -4.551626,5.52889 -3.611707,7.99 0.191165,0.50058 0.320459,1.03287 0.287317,1.18291 -0.03315,0.15001 0.127686,0.31151 0.357382,0.35891 0.229698,0.0474 0.55858,0.2012 0.730853,0.3418 0.473949,0.38683 1.915468,0.74532 2.996909,0.74532 0.943614,0 3.130856,-0.94006 4.52044,-1.94283 0.287122,-0.20721 1.091995,-0.73887 1.788597,-1.18147 1.508053,-0.95821 3.572098,-3.22309 4.360494,-4.78482 0.546841,-1.08322 0.562525,-1.20783 0.446905,-3.54987 -0.126175,-2.55552 0.347079,-20.93557 0.71307,-27.69386 0.215294,-3.97562 0.469621,-6.47642 1.25292,-12.32012 0.230925,-1.72271 0.509296,-5.38743 0.618623,-8.14378 0.305556,-7.70364 0.496003,-9.32095 1.812033,-15.38806 0.110761,-0.51061 0.229893,-0.57282 1.298942,-0.67817 0.647352,-0.0638 1.866424,-0.21767 2.70905,-0.34196 0.842624,-0.12428 1.573781,-0.18421 1.624802,-0.1332 0.406014,0.406 0.0098,8.11336 -0.758569,14.76645 -0.112773,0.97621 -0.391503,3.37237 -0.619374,5.32478 -0.71733,6.14603 -0.899744,10.51491 -0.77895,18.65638 0.06239,4.20992 0.215643,8.26514 0.340415,9.01166 0.124773,0.74652 0.416382,2.71981 0.648004,4.38512 0.231632,1.6653 0.51571,3.54464 0.631286,4.1763 0.450351,2.46125 1.205855,8.20753 1.111452,8.45356 -0.08729,0.22731 0.2851,1.02208 1.625673,3.47016 0.189871,0.34672 0.690157,0.93014 1.111746,1.29646 0.70383,0.61154 0.782462,0.79416 0.961212,2.23215 0.107066,0.86138 0.335241,2.36485 0.507068,3.34105 0.722548,4.1052 0.772287,4.86419 0.418775,6.39133 -0.507416,2.19199 -1.160648,3.81769 -1.784826,4.44186 -0.310045,0.31004 -1.116594,0.86266 -1.792315,1.228 -2.668081,1.4426 -4.248612,3.1656 -4.781855,5.21284 -0.3561,1.36716 -0.399665,3.17128 -0.102392,4.24125 0.256774,0.92428 1.570922,2.22996 2.517711,2.50149 0.723907,0.20761 2.556168,0.28411 2.726451,0.11382 z m -2.789169,-0.70945 c -0.530144,-0.0491 -0.490383,-2.08848 0.07326,-3.75746 0.341231,-1.01042 0.578472,-1.37126 1.068073,-1.62445 0.444676,-0.22994 0.564231,-0.39065 0.407328,-0.54756 -0.271675,-0.27168 -1.129583,0.23997 -1.595998,0.95178 -0.454504,0.69367 -0.939625,2.41482 -0.942256,3.34296 -0.0032,1.02952 -0.421144,0.93075 -0.804602,-0.19 -0.186045,-0.54369 -0.246426,-1.39984 -0.179523,-2.5453 0.172707,-2.95707 1.454203,-4.80752 4.414385,-6.37427 2.393851,-1.26696 3.021278,-2.17116 4.195448,-6.04591 0.391057,-1.29047 0.315284,-2.48781 -0.419589,-6.63093 -0.32973,-1.85898 -0.504754,-3.06536 -1.045213,-7.20414 -0.498612,-3.81841 -1.160703,-8.51178 -1.26667,-8.97903 -0.344938,-1.52101 -1.160898,-9.52674 -1.362106,-13.36421 -0.346057,-6.5998 -0.151643,-16.68454 0.396512,-20.56828 0.409101,-2.89845 1.617837,-9.29212 1.817914,-9.61585 0.05261,-0.0851 0.193404,-2.20692 0.312882,-4.71515 0.119479,-2.50821 0.307948,-4.65109 0.418818,-4.76196 0.291393,-0.29139 0.243023,-2.34671 -0.08391,-3.5635 -0.154273,-0.57424 -0.726123,-1.8428 -1.27078,-2.81901 -0.906167,-1.62416 -1.011288,-1.96117 -1.237572,-3.9675 -0.1435,-1.27233 -0.332143,-2.14872 -0.44947,-2.08814 -0.269197,0.139 -0.168675,3.22431 0.135034,4.14459 0.206653,0.62617 0.189294,0.76491 -0.124468,0.99433 -0.511221,0.37382 -3.673544,1.06186 -5.512359,1.19936 l -1.540933,0.11522 0.159848,-0.98198 c 0.232339,-1.42719 0.234588,-2.11225 0.0076,-2.17747 -0.218621,-0.0626 -0.363045,0.48907 -0.832146,3.17922 -0.170229,0.97621 -0.541938,2.87174 -0.826015,4.21228 -0.643146,3.03498 -0.922343,5.977 -1.177735,12.41017 -0.109903,2.76826 -0.389514,6.43296 -0.621352,8.14379 -0.438818,3.23812 -0.675581,5.22781 -1.041267,8.75036 -0.28198,2.71612 -0.861331,20.22621 -0.925756,27.97952 -0.0487,5.86455 -0.06555,6.08526 -0.53234,6.99478 -0.720765,1.40424 -2.397655,3.22179 -3.694793,4.00463 -0.632657,0.38182 -1.399889,0.88549 -1.704957,1.11929 -0.742026,0.56864 -3.49564,1.97631 -3.86599,1.97631 -0.412796,0 -0.641188,-2.02463 -0.350274,-3.10504 0.124925,-0.46392 0.462003,-1.12259 0.749059,-1.46375 0.314425,-0.37368 0.436774,-0.67292 0.307731,-0.75266 -0.323351,-0.19983 -0.570569,0.0268 -1.203595,1.10373 -0.506394,0.86146 -0.573134,1.17843 -0.547319,2.5994 0.03348,1.8417 0.01414,1.85682 -1.649792,1.28987 -1.4134,-0.48159 -1.523335,-0.68717 -1.227137,-2.29474 0.313654,-1.70226 0.596546,-2.3244 1.11906,-2.46102 0.434405,-0.1136 0.330405,-0.55381 -0.130826,-0.55381 -0.439884,0 -0.990017,0.75404 -1.405519,1.92643 l -0.390351,1.1014 0.06858,-1.25289 c 0.08891,-1.62462 1.073333,-3.75051 2.164492,-4.67452 1.036419,-0.87765 3.598401,-2.52961 3.923132,-2.52961 0.426524,0 0.926244,-0.70997 1.259931,-1.7901 0.56708,-1.83552 1.780815,-8.26699 2.085719,-11.05204 1.995273,-18.22515 2.231622,-22.39334 2.154893,-38.00438 -0.03445,-7.00576 0.0054,-12.84418 0.08924,-12.9743 0.274654,-0.42798 -0.254622,-3.54606 -1.311768,-7.7279 -1.302248,-5.15139 -2.10698,-7.6744 -3.01216,-9.44368 -1.018549,-1.99092 -1.219768,-2.95156 -1.208627,-5.77034 0.02739,-6.9237 2.445319,-14.05608 6.459049,-19.05253 1.931218,-2.40406 6.448441,-6.06416 9.149632,-7.4135 2.60758,-1.30259 4.183459,-1.67573 7.726154,-1.8294 3.783838,-0.16413 4.773278,-0.41814 6.567506,-1.68603 0.62607,-0.4424 1.162964,-0.7797 1.193105,-0.74956 0.06565,0.0656 -0.584036,2.32049 -1.333888,4.6291 -0.541112,1.66597 -1.548824,3.23664 -2.076545,3.23664 -0.394502,0 -1.154637,0.80863 -0.998158,1.06183 0.08413,0.13613 0.246306,0.11483 0.455655,-0.0598 0.178762,-0.14913 0.537318,-0.36512 0.796787,-0.47997 1.425205,-0.63083 2.643407,-3.52981 4.168036,-9.91872 0.424807,-1.78016 1.239105,-5.11598 1.809543,-7.41295 1.96949,-7.93053 3.41539,-14.35851 3.629707,-16.13648 0.07305,-0.60598 0.265642,-1.59263 0.428003,-2.19256 0.16237,-0.59993 0.352001,-2.26536 0.421426,-3.70097 0.117761,-2.43522 0.08217,-2.79915 -0.531493,-5.4292 -0.4166,-1.78554 -0.942179,-3.39314 -1.433639,-4.38512 -0.426762,-0.86135 -0.812037,-1.65092 -0.856157,-1.75459 -0.04543,-0.10651 0.272426,-0.12933 0.730852,-0.0525 1.498346,0.25129 6.004862,0.7353 9.215892,0.98982 1.751435,0.13883 3.184433,0.2754 3.184433,0.30348 0,0.028 -0.432405,0.81998 -0.960887,1.75975 -2.335568,4.15314 -3.973599,8.99733 -4.454157,13.17237 -0.124936,1.0855 -0.343676,2.96029 -0.486089,4.16619 -0.380894,3.22548 -0.31997,10.20372 0.116685,13.36418 0.198349,1.4356 0.448231,4.3016 0.555264,6.36887 0.197458,3.81314 0.778016,8.09955 1.361714,10.05381 0.539514,1.80633 1.381042,3.47895 1.626739,3.23324 0.151218,-0.15121 0.05305,-0.58776 -0.321133,-1.42765 -0.57233,-1.28476 -1.196801,-3.48439 -1.196801,-4.21559 0,-0.65048 0.328035,-0.53368 0.64408,0.22934 0.229969,0.55519 2.23908,2.95375 4.519908,5.39604 1.067299,1.14286 3.075149,4.14377 3.835827,5.733 2.616519,5.46643 2.074439,14.57613 -1.266485,21.28334 -1.466552,2.94426 -3.886078,7.25002 -4.995791,8.89045 -1.59639,2.3599 -2.324351,3.74169 -3.357836,6.3738 -1.222453,3.11334 -1.399214,4.07661 -1.665944,9.07854 -0.126783,2.37758 -0.341785,4.23792 -0.615406,5.32478 -1.202605,4.77712 -1.709793,12.20474 -1.2904,18.89778 0.133132,2.12471 0.328492,7.29769 0.434134,11.49554 0.394176,15.66334 2.457558,28.75377 5.988775,37.9937 1.480367,3.87358 1.901468,4.43028 4.108154,5.43084 1.038159,0.47071 1.75513,0.63765 3.014519,0.70187 0.908801,0.0463 1.830629,0.17838 2.048459,0.29343 0.21783,0.11505 0.95987,0.32419 1.64896,0.46475 1.59138,0.32463 1.91301,0.50045 2.41176,1.31842 0.56514,0.92686 0.53845,2.11586 -0.0569,2.53283 -0.57208,0.40069 -1.20644,0.42238 -1.20644,0.0413 0,-0.35189 -1.56207,-2.14923 -2.13384,-2.45523 -0.32513,-0.174 -0.49469,-0.15112 -0.7466,0.10072 -0.34915,0.34917 -0.24489,0.44166 0.66532,0.5901 0.21728,0.0354 0.67528,0.4109 1.01779,0.83437 0.47109,0.58247 0.5904,0.89884 0.48993,1.29909 -0.18016,0.71784 -0.61993,0.91026 -2.46184,1.07718 l -1.57092,0.14235 -0.123077,-0.60022 c -0.154359,-0.7528 -1.369116,-2.41964 -1.640955,-2.25161 -0.120414,0.0744 -0.06935,0.30734 0.126044,0.57503 0.614949,0.8424 1.008496,1.76851 0.886538,2.08631 -0.09968,0.25973 -0.416394,0.29704 -1.752358,0.20645 -0.896864,-0.0608 -2.288449,-0.24727 -3.092388,-0.41435 -5.368837,-1.11578 -5.168509,-1.04399 -6.491681,-2.32653 -1.043592,-1.01153 -1.338898,-2.20342 -1.338898,-5.40407 0,-1.18832 -0.08934,-2.32372 -0.198567,-2.52316 -0.213523,-0.38993 -2.071795,-10.92261 -2.624418,-14.87525 -0.184664,-1.32076 -0.524525,-3.482 -0.755254,-4.80276 -1.0188,-5.83188 -1.948371,-12.54757 -2.355634,-17.01844 -0.916255,-10.05893 -0.968462,-20.7849 -0.133641,-27.45921 0.435262,-3.47987 0.461208,-4.15309 0.261653,-6.78651 -0.21436,-2.82839 -0.163936,-3.61924 0.363012,-5.69431 0.365753,-1.44022 -0.03217,-2.56194 -1.430073,-4.03096 -1.361986,-1.43131 -1.772891,-1.51735 -2.826799,-0.59201 -0.956158,0.83952 -1.10054,1.44791 -1.358323,5.72335 -0.117719,1.95244 -0.345199,4.25462 -0.505514,5.11598 -0.160317,0.86136 -0.393329,2.59975 -0.517797,3.86308 -0.249013,2.52727 -1.069376,17.2386 -1.228486,22.03002 -0.124066,3.73658 0.229643,10.02975 0.774625,13.7818 0.225196,1.55046 0.600764,4.41646 0.834592,6.36887 0.233805,1.95242 0.52848,4.25461 0.654808,5.11599 0.126327,0.86134 0.305664,2.27085 0.398534,3.13222 0.09283,0.86135 0.462765,3.72734 0.821994,6.36886 0.359231,2.64151 0.737157,5.55448 0.839843,6.47327 0.102718,0.9188 0.33623,2.51623 0.518948,3.54987 0.487167,2.75578 0.64283,5.92091 0.336807,6.84817 -0.363122,1.1003 -3.883882,4.15688 -6.12583,5.31824 -1.915142,0.99208 -2.586853,1.20128 -4.485658,1.39711 l -1.305083,0.13461 v -0.9209 c 0,-0.63297 0.159979,-1.15664 0.511699,-1.67495 0.576829,-0.84998 0.399719,-1.20821 -0.246447,-0.49848 -0.669048,0.73489 -0.891701,1.3082 -0.891701,2.29609 v 0.92048 l -0.887463,-0.0376 c -0.488111,-0.0207 -1.051908,-0.0529 -1.252899,-0.0715 z m 13.196753,-27.82646 c -0.128881,-0.2408 -0.316023,-1.25094 -0.415894,-2.24477 -0.09989,-0.99378 -0.273621,-2.37072 -0.386111,-3.05983 -0.1125,-0.68908 -0.269284,-1.98866 -0.348415,-2.8879 l -0.143859,-1.63503 1.017974,0.14548 c 1.209691,0.1729 1.874402,0.72619 2.704287,2.25094 0.521177,0.95759 0.59695,1.33977 0.669678,3.37808 0.08848,2.47985 -0.202523,3.91033 -0.819657,4.02917 -0.302958,0.0584 -0.330252,-0.13847 -0.233751,-1.6852 0.09934,-1.59292 0.0563,-1.87235 -0.476427,-3.09102 -0.679548,-1.55452 -0.816636,-1.74806 -1.109822,-1.56686 -0.135664,0.0838 0.01239,0.61529 0.399274,1.43308 0.63833,1.34928 0.731602,2.1802 0.479927,4.27541 -0.116566,0.97046 -0.187393,1.09627 -0.617275,1.09627 -0.279361,0 -0.585124,-0.18594 -0.719929,-0.43782 z m -9.648971,-2.74661 c -1.177441,-1.83596 -1.378279,-2.45382 -1.7139,-5.27257 -0.177774,-1.49304 -0.509264,-3.79522 -0.736646,-5.11598 -0.227372,-1.32076 -0.602254,-3.7639 -0.833071,-5.4292 -0.230806,-1.66529 -0.521427,-3.63861 -0.645808,-4.38513 -0.124381,-0.74651 -0.277784,-4.71043 -0.340904,-8.80868 -0.122903,-7.97983 0.08837,-13.10412 0.777645,-18.85932 1.040997,-8.6923 1.749577,-17.25952 1.575304,-19.04645 -0.124696,-1.27868 -0.117654,-1.30173 0.494578,-1.61832 0.937767,-0.48495 1.112377,-0.40816 1.769163,0.7781 1.016191,1.83542 1.513966,4.5285 0.942625,5.09983 -0.136804,0.1368 -0.266947,1.62618 -0.327523,3.74824 -0.123609,4.33076 -0.291111,5.7951 -1.119322,9.78571 -1.212171,5.84072 -1.495031,8.59265 -1.609716,15.66114 -0.122566,7.5543 0.163185,13.9236 0.889983,19.83744 0.282296,2.29697 0.555623,4.36424 0.607384,4.59395 0.143795,0.63798 0.89719,6.08927 1.053366,7.62174 0.07608,0.74652 0.18987,1.61571 0.252871,1.93154 0.180924,0.9071 -0.262948,0.68342 -1.036029,-0.52204 z m -28.91915,-93.41688 c -2.398091,-0.69713 -3.220856,-2.62798 -3.771337,-8.8504 -0.198187,-2.24024 -0.121599,-3.34912 0.447143,-6.47328 0.595514,-3.27127 0.857375,-7.24482 0.605808,-9.19275 -0.505079,-3.91096 -2.023262,-6.95067 -4.503863,-9.01768 -1.921512,-1.60115 -3.500522,-2.23713 -6.3878,-2.57278 -2.169893,-0.25226 -2.462862,-0.33629 -2.885495,-0.82763 -0.91157,-1.05976 -0.474242,-3.2087 0.922951,-4.53515 1.607564,-1.52616 5.580924,-1.61382 8.381517,-0.18491 3.213422,1.63955 5.254238,3.60726 7.276152,7.01549 0.947017,1.59634 1.230986,2.40091 1.762989,4.99499 0.361818,1.76426 0.408851,2.51008 0.290752,4.61052 -0.191773,3.41086 -0.624438,6.62516 -1.1413,8.47891 -0.62296,2.23425 -1.258225,6.00927 -1.258225,7.47697 0,0.87959 0.167077,1.68435 0.546449,2.63198 0.455198,1.1371 0.693601,1.45125 1.427845,1.88154 1.58051,0.92624 3.698175,0.49201 5.384261,-1.10406 0.314632,-0.29783 0.628742,-0.48484 0.698026,-0.41556 0.06924,0.0693 -0.06239,0.90812 -0.292774,1.86412 -0.230295,0.95598 -0.480764,2.12914 -0.556612,2.60702 -0.234197,1.47564 -1.115745,1.90846 -3.938426,1.93366 -1.130561,0.0101 -2.297545,-0.11444 -3.008061,-0.321 z M 87.510793,102.33291 C 76.679239,101.32974 74.766075,100.49608 66.968605,93.38179 64.857908,91.456018 63.237322,89.221299 62.249512,86.874371 61.8119,85.834659 61.757563,85.538679 61.978565,85.398558 c 0.322805,-0.204664 1.630498,-0.278294 5.022529,-0.282805 1.485346,-0.0011 2.452624,-0.08543 2.458015,-0.212078 0.01924,-0.453112 -5.263911,-0.583231 -7.360718,-0.181305 -0.573394,0.109924 -0.574242,0.108261 -0.574242,-1.107866 0,-2.306329 1.219986,-5.719316 2.808244,-7.856242 0.85193,-1.146236 1.135181,-1.394019 1.472466,-1.288117 0.229708,0.07217 0.887462,0.257654 1.461715,0.412307 0.574243,0.154642 1.701836,0.557982 2.505787,0.896288 1.439878,0.605928 2.084403,0.665797 1.533944,0.14249 -0.383666,-0.364741 -2.767495,-1.332106 -4.022698,-1.632423 -0.564873,-0.135153 -1.065213,-0.360219 -1.111854,-0.500144 -0.110817,-0.332491 2.37422,-1.935946 3.000344,-1.935946 0.265904,0 0.979582,0.223251 1.585943,0.496111 0.606352,0.27285 1.478335,0.610482 1.93773,0.750288 0.459393,0.139805 1.567867,0.530187 2.463275,0.867526 1.459575,0.549885 2.359003,0.633091 1.887838,0.174632 -0.21248,-0.20674 -2.612636,-1.125703 -4.421102,-1.692728 -1.435358,-0.450046 -2.679343,-1.113528 -2.400939,-1.280539 0.09566,-0.05739 0.878712,-0.300992 1.740076,-0.54133 1.225225,-0.341861 2.623928,-0.483612 6.425951,-0.651232 2.672907,-0.117838 5.233542,-0.15449 5.690273,-0.08142 0.773722,0.123718 0.875733,0.224795 1.493683,1.48003 0.46872,0.952115 1.065115,1.709957 2.033403,2.583875 1.924468,1.736901 2.837017,2.126241 5.0294,2.145806 2.16023,0.01924 3.017486,-0.36086 4.478646,-1.986012 l 0.986169,-1.096876 0.869657,0.44046 c 0.478319,0.242239 1.162,0.491274 1.51934,0.553416 0.35731,0.06207 1.15602,0.338969 1.77492,0.615199 0.61888,0.27623 1.68608,0.721526 2.37152,0.989539 1.65663,0.647764 3.78511,2.158805 4.36334,3.097605 0.43293,0.702906 1.02727,2.33396 0.89769,2.463536 -0.20072,0.200719 -9.31649,-0.394111 -10.466415,-0.68296 -0.745843,-0.187361 -1.514901,-0.279697 -1.709022,-0.205208 -1.577715,0.605438 5.062247,1.459617 12.266317,1.577966 0.18354,0.0032 0.48622,0.357861 0.67263,0.788548 0.4434,1.024485 0.89647,5.0194 0.60258,5.313292 -0.23995,0.239948 -5.85254,-1.337257 -6.68342,-1.878119 -0.32722,-0.213012 -0.54864,-0.244741 -0.69394,-0.09946 -0.3672,0.367197 0.99434,0.995419 4.25376,1.962707 l 3.07928,0.913821 -0.003,0.835255 c -0.0109,3.016658 -0.57622,5.349108 -1.61697,6.668692 -0.41954,0.531959 -0.53147,0.572971 -0.99149,0.363382 -0.28519,-0.129958 -0.91808,-0.601655 -1.40638,-1.048235 -1.01362,-0.926961 -2.16049,-1.57128 -2.46351,-1.383996 -0.31902,0.197152 -0.0528,0.466752 0.90565,0.917461 0.48336,0.227273 1.33419,0.830255 1.89075,1.339987 0.99561,0.911831 1.00642,0.935168 0.67042,1.447954 -0.35024,0.534546 -2.44027,2.03112 -2.83655,2.03112 -0.1215,0 -0.74796,0.38934 -1.39213,0.86521 -1.53527,1.13416 -2.55548,1.42453 -5.701874,1.62284 -4.354385,0.27446 -5.988981,0.2444 -10.764846,-0.19793 z m -0.43322,-1.25061 c 0.640058,-0.40591 0.971212,-0.75355 0.928342,-0.97457 -0.102501,-0.528728 -0.60171,-0.582218 -0.733417,-0.0786 -0.247088,0.94486 -2.277763,1.39555 -3.292433,0.73071 -0.274491,-0.17985 -0.597623,-0.60975 -0.718102,-0.955334 -0.120468,-0.345566 -0.315436,-0.568753 -0.433252,-0.495937 -0.446166,0.275752 -0.183523,0.936741 0.658633,1.657601 1.149301,0.98375 2.170057,1.01677 3.590229,0.11611 z m -1.137192,-1.380907 c 0.26923,-0.342262 0.432786,-0.856917 0.432786,-1.361768 0,-0.672754 -0.09348,-0.854179 -0.546569,-1.060615 -0.481318,-0.219306 -0.592699,-0.192056 -0.933005,0.228196 -0.81719,1.009191 -0.678809,2.744384 0.218871,2.744384 0.217316,0 0.589883,-0.24759 0.827917,-0.550197 z m -1.028919,-0.480274 c 0,-0.589253 0.373133,-1.475313 0.621275,-1.475313 0.233262,0 0.290654,1.018963 0.08729,1.549042 -0.179012,0.466502 -0.708515,0.411393 -0.708515,-0.07369 z m 22.660808,-6.700496 c 0.36155,-0.399503 0.36359,-0.447601 0.0331,-0.778114 -0.33051,-0.330534 -0.37851,-0.326089 -0.77647,0.07185 -0.41399,0.414002 -0.41478,0.432665 -0.0331,0.778124 0.36902,0.333947 0.41289,0.329882 0.77647,-0.07196 z m -3.12845,-3.140574 c 0.0754,-0.122088 -0.0271,-0.403654 -0.22818,-0.62571 -0.282,-0.311599 -0.43084,-0.349415 -0.65218,-0.165718 -0.24094,0.199969 -0.2307,0.299991 0.0641,0.625699 0.39896,0.440851 0.6187,0.48546 0.81629,0.165729 z m 2.48303,-4.974757 c 0.18982,-0.307122 -0.48807,-0.752973 -0.74865,-0.492395 -0.12295,0.122946 -0.16041,0.325687 -0.0833,0.450546 0.16913,0.273676 0.67295,0.299013 0.83188,0.04185 z m -6.56526,-0.960669 c 0.30644,-0.369242 0.13682,-0.942322 -0.2789,-0.942322 -0.161816,0 -0.411182,0.140947 -0.554162,0.313221 -0.207393,0.249892 -0.207393,0.376544 0,0.626438 0.326829,0.393806 0.507952,0.394382 0.833062,0.0022 z M 69.043074,82.604814 c 0.197143,-0.237534 0.209751,-0.39234 0.04543,-0.556722 -0.316774,-0.316773 -0.92755,-0.03935 -0.84544,0.384068 0.09381,0.483514 0.473982,0.565558 0.80007,0.172654 z m 1.127898,-4.665692 c 0.06055,-0.09793 -0.02217,-0.356339 -0.18373,-0.574242 -0.273425,-0.368753 -0.318055,-0.372263 -0.644471,-0.05087 -0.192871,0.189958 -0.287034,0.448372 -0.209251,0.574243 0.167349,0.270773 0.879941,0.305664 1.037452,0.05087 z m 4.060491,-2.604298 c 0.189719,-0.228599 0.174339,-0.352599 -0.0688,-0.554351 -0.408677,-0.339187 -0.995343,-0.107283 -0.905733,0.358046 0.08945,0.464655 0.656916,0.57896 0.974483,0.196305 z m 33.392327,1.350551 c -0.51658,-0.276468 -0.52238,-0.309816 -0.50761,-2.921581 0.0101,-1.794739 -0.1025,-3.177618 -0.35136,-4.31245 -0.47978,-2.188024 -1.51092,-6.312549 -2.00795,-8.031874 -0.21703,-0.750646 -0.7867,-3.056225 -1.26595,-5.123487 -1.03613,-4.469419 -1.1766,-4.982312 -2.65881,-9.709917 -1.13229,-3.611467 -1.767064,-5.174041 -3.600553,-8.863259 -0.877157,-1.764946 -1.00405,-1.916947 -1.907479,-2.284829 -0.599481,-0.24411 -1.173681,-0.342437 -1.508737,-0.258339 -1.053147,0.264317 -2.197404,1.779956 -3.716185,4.922324 -0.801983,1.659346 -2.285013,4.52533 -3.295596,6.368864 -2.565646,4.680321 -3.96385,7.522902 -5.19227,10.556008 -1.519629,3.752131 -4.475494,10.027723 -5.580968,11.84894 -0.376546,0.620352 -0.500187,0.67745 -1.469519,0.678656 -0.582113,6.2e-4 -1.554542,0.148654 -2.160959,0.328742 -0.606417,0.180087 -1.153996,0.276011 -1.216845,0.213164 -0.06282,-0.06283 0.125426,-0.656537 0.418373,-1.319312 0.681656,-1.542141 1.884914,-5.300695 2.687081,-8.393475 0.908995,-3.504705 1.257627,-9.148836 0.730765,-11.830363 -0.578753,-2.945539 -0.886625,-3.471185 -2.471666,-4.22008 -1.627738,-0.76907 -2.953442,-2.150796 -4.662768,-4.859822 -2.268068,-3.594501 -3.020801,-6.421908 -3.017779,-11.335362 0.0022,-3.593303 0.164523,-5.147987 0.537472,-5.147987 0.372751,0 0.922418,0.827212 0.922418,1.388182 0,0.252991 0.362491,1.665087 0.805537,3.137965 0.443046,1.472889 0.926266,3.24178 1.073832,3.930871 0.896071,4.184699 2.903757,9.604253 3.381075,9.126935 0.148903,-0.148893 0.01555,-0.640471 -0.428828,-1.581042 -0.645374,-1.365943 -1.822827,-5.189183 -2.323906,-7.545893 -0.146522,-0.689091 -0.582753,-2.293285 -0.969419,-3.56489 -0.770526,-2.533995 -0.782917,-2.595157 -0.526024,-2.595157 0.222881,0 2.283872,3.975458 3.13942,6.055644 0.992256,2.412558 1.643032,4.793811 2.012697,7.364675 0.458579,3.189269 0.471101,3.23829 0.948278,3.715468 0.519416,0.519416 0.99794,0.318415 0.514274,-0.216035 -0.209936,-0.231979 -0.488872,-1.375486 -0.746243,-3.059289 -0.226034,-1.478868 -0.648015,-3.497348 -0.937723,-4.485516 -1.351932,-4.61119 -4.348982,-10.260442 -6.325929,-11.92392 -0.493906,-0.4156 -0.604623,-0.729254 -0.816548,-2.313176 -0.288698,-2.157644 -1.033061,-3.41789 -2.436309,-4.124742 -1.694618,-0.853646 -4.612527,-2.841594 -4.679223,-3.187943 -0.185599,-0.963767 1.906588,-0.08033 5.600447,2.364732 0.976212,0.646188 2.222697,1.449899 2.769962,1.786021 0.547275,0.336121 1.552194,1.033985 2.233165,1.550803 0.680983,0.516818 1.677423,1.268561 2.214307,1.670521 1.421628,1.064364 5.117465,4.233156 5.753132,4.932681 1.385247,1.524433 2.933191,4.992302 2.607385,5.841339 -0.05544,0.144468 0.03347,0.374079 0.197545,0.510264 0.468709,0.388992 0.60196,-0.265502 0.329882,-1.620292 -0.312861,-1.557846 -0.335394,-1.482509 0.489797,-1.637314 1.232474,-0.231219 3.905067,0.598482 4.982247,1.546716 0.210458,0.185272 0.511057,0.644156 0.667982,1.019745 0.283447,0.678373 0.589644,0.860842 0.819766,0.488502 0.06609,-0.106956 0.02456,-0.253403 -0.09207,-0.325545 -1.160757,-0.717385 3.179704,-3.381824 6.58531,-4.042458 2.76293,-0.53596 6.635184,0.736102 8.332867,2.737407 1.17129,1.380758 2.80408,2.660244 3.39484,2.660244 0.40164,0 0.50076,0.0862 0.4201,0.365426 -0.60926,2.109035 -0.6481,2.354189 -0.4106,2.591689 0.18739,0.187393 0.2648,0.175415 0.32946,-0.05098 0.0465,-0.162761 0.24638,-0.859734 0.44423,-1.548824 0.74867,-2.607527 2.02143,-4.077644 3.96874,-4.584126 0.68593,-0.178414 1.42282,-0.380143 1.63755,-0.448296 0.3471,-0.110164 0.38248,-0.02315 0.31897,0.783733 -0.0896,1.139811 0.28435,1.312552 0.52937,0.24447 0.635,-2.767996 4.35362,-10.737358 6.44415,-13.810366 0.84707,-1.24516 2.5773,-3.335824 3.91967,-4.736202 1.32178,-1.37888 2.98006,-3.1648146 3.68508,-3.9687541 1.2469,-1.4218345 2.11976,-2.1652847 3.62162,-3.084714 0.79701,-0.487916 2.13025,-1.0146909 2.25427,-0.8906793 0.0428,0.042718 -0.46615,0.4378505 -1.13085,0.8780487 -1.42707,0.9451035 -2.13266,1.9076745 -2.95928,4.0370133 -0.57364,1.4776718 -0.6102,1.7580214 -0.64751,4.9645314 -0.0388,3.327868 -0.0513,3.41514 -0.60523,4.203601 -0.74027,1.053725 -3.76453,4.765985 -5.30983,6.517811 -0.67055,0.760157 -1.95852,2.639494 -2.86219,4.176308 -0.90366,1.536813 -2.06363,3.451977 -2.57765,4.255917 -1.09467,1.711988 -3.4934,6.210493 -3.4934,6.551397 0,0.691363 0.53905,-0.04718 1.86196,-2.551004 0.80962,-1.532346 1.87299,-3.405586 2.36304,-4.162743 0.49003,-0.757167 1.62162,-2.628634 2.5146,-4.158818 1.45472,-2.492721 3.53858,-5.203302 3.79958,-4.942301 0.35614,0.356133 -3.61136,9.774765 -4.38958,10.420627 -0.16651,0.138197 -0.30276,0.344817 -0.30276,0.459156 0,0.114337 -0.25841,0.522231 -0.57425,0.906429 -1.25357,1.524911 -1.51713,1.940142 -1.31193,2.066957 0.11521,0.0712 0.40566,-0.08663 0.64544,-0.350773 0.94078,-1.036376 1.86718,-2.307807 1.86718,-2.562592 0,-0.147348 0.14441,-0.387763 0.32092,-0.534253 0.91311,-0.757798 4.56475,-9.703123 4.44315,-10.884216 -0.0434,-0.421069 0.30789,-1.01067 1.46163,-2.453581 0.83529,-1.044626 1.60857,-1.899315 1.71841,-1.899315 0.28638,0 0.24675,0.815221 -0.11558,2.377579 -0.73905,3.186725 -2.73143,7.860656 -4.66006,10.932108 -0.59418,0.946245 -1.08032,1.773413 -1.08032,1.838164 0,0.224664 -2.37512,3.548586 -3.53363,4.945225 -0.64059,0.772265 -1.38406,1.689379 -1.65215,2.038033 -0.69271,0.900876 -2.1184,1.819283 -2.85362,1.838262 -1.13104,0.02913 -1.66785,0.347807 -1.69826,1.007973 -0.0152,0.331393 -0.26653,1.221377 -0.55835,1.977751 -0.81579,2.114393 -1.04532,4.869985 -0.91776,11.017772 0.0611,2.945964 0.2239,6.671833 0.36172,8.279713 0.16627,1.939859 0.19982,4.398733 0.0998,7.308533 -0.083,2.411819 -0.13459,5.042899 -0.11476,5.846827 l 0.0361,1.461706 -1.02958,-1.150313 c -0.56627,-0.632666 -1.26472,-1.276148 -1.55212,-1.429964 z m -2.81854,-1.622606 c -0.7775,-0.301731 -1.89155,-0.774972 -2.47568,-1.051648 -0.58411,-0.276665 -1.42767,-0.562351 -1.87453,-0.634873 -0.44689,-0.07251 -1.120068,-0.313306 -1.495962,-0.535101 -0.653362,-0.385492 -0.683613,-0.459764 -0.687428,-1.687706 -0.0043,-1.228486 -0.05619,-1.356769 -1.200703,-2.943192 -0.756319,-1.048332 -1.593628,-1.924663 -2.27536,-2.381427 l -1.078692,-0.722711 0.389557,-0.541981 c 0.481405,-0.669776 1.036963,-3.566217 1.036963,-5.406282 0,-1.551238 -0.624765,-3.159149 -1.295693,-3.334596 -0.303795,-0.07945 -0.369024,-0.231078 -0.279936,-0.650689 0.591547,-2.786169 0.983495,-5.827502 1.152462,-8.942565 0.186285,-3.434411 0.396971,-4.765288 1.274139,-8.048743 0.115055,-0.430687 0.286708,-0.783059 0.381436,-0.783059 0.09479,0 0.430351,0.587286 0.745809,1.305095 0.315438,0.717798 0.88156,1.962859 1.25803,2.766799 1.129202,2.411341 3.154838,9.071141 4.382398,14.40826 0.42266,1.837565 1.04136,4.33221 1.37492,5.543653 1.25893,4.572276 2.10411,8.314016 2.39225,10.5909 0.12678,1.00182 -0.0396,3.598489 -0.23056,3.598489 -0.044,0 -0.71593,-0.246872 -1.49342,-0.548623 z M 89.829796,74.942289 C 88.373853,74.20797 86.937974,72.823951 86.285263,71.52578 85.705576,70.37286 85.686217,70.249 85.895099,69.029569 c 0.269718,-1.574552 1.035886,-2.834213 2.18711,-3.595814 0.75294,-0.498101 1.071703,-0.574406 2.347895,-0.562036 1.526095,0.01478 2.583559,0.409774 4.509897,1.684575 0.767417,0.50785 1.665118,1.833446 1.665118,2.458808 0,0.188197 0.234915,0.431481 0.522036,0.540645 0.466774,0.177468 0.522035,0.316371 0.522035,1.312213 0,0.656016 -0.126001,1.280334 -0.306577,1.519086 -0.168621,0.222936 -0.309579,0.557101 -0.313231,0.742602 -0.01609,0.815723 -1.371791,1.918044 -2.825647,2.297471 -0.994408,0.259523 -3.434336,-0.01087 -4.373939,-0.48483 z M 76.558847,69.108233 c 0,-0.137751 0.142425,-0.407818 0.31648,-0.600166 0.432187,-0.477558 4.064927,-8.248876 5.41576,-11.585646 1.255964,-3.102431 2.522407,-5.678077 5.139009,-10.451594 1.01054,-1.843534 2.494852,-4.7173 3.298488,-6.386158 1.891522,-3.928002 2.737853,-4.746072 4.296818,-4.153351 0.710363,0.270078 0.697581,0.786026 -0.09934,4.01222 -0.502361,2.033588 -0.679297,3.355867 -0.846863,6.329309 -0.116523,2.067273 -0.418274,4.933258 -0.670592,6.368864 l -0.458741,2.61019 -0.684776,-0.06641 c -0.546797,-0.05305 -0.823168,0.07315 -1.371747,0.626449 -0.56333,0.568177 -0.811646,1.143942 -1.379562,3.198683 -0.380905,1.378182 -0.738897,3.18704 -0.795538,4.019697 -0.05663,0.832646 -0.174425,1.513912 -0.261751,1.513912 -0.08729,0 -0.641504,0.434013 -1.231519,0.964494 -1.041724,0.936592 -1.895837,2.362743 -1.895837,3.165541 0,0.21686 -0.03957,0.433448 -0.08793,0.481296 -0.04837,0.04782 -2.021642,0.113142 -4.385113,0.145089 -3.234225,0.0437 -4.297221,-0.0043 -4.297221,-0.192372 z m 16.016204,-4.486201 c -0.367557,-0.18687 -0.69233,-0.359708 -0.721722,-0.384067 -0.02935,-0.02435 0.171284,-1.069539 0.44596,-2.322612 0.274664,-1.253083 0.617395,-3.006572 0.761624,-3.896654 0.290893,-1.795185 0.564058,-2.012979 1.104148,-0.880374 0.588666,1.23443 0.309632,5.145943 -0.517123,7.249238 -0.26573,0.676026 -0.22286,0.666657 -1.072887,0.234469 z m -3.228193,-1.800576 c 0.143631,-1.744336 1.38678,-6.187601 1.864989,-6.665822 0.454721,-0.454709 0.571558,-0.461764 1.09454,-0.06598 0.372763,0.282078 0.382567,0.404427 0.145815,1.8205 -0.461165,2.758517 -1.114419,5.690284 -1.326974,5.955416 -0.115089,0.143566 -0.586483,0.261013 -1.047539,0.261013 h -0.838288 z"
       id="path21-3"
       inkscape:connector-curvature="0" />
  </g>
  <g
     inkscape:groupmode="layer"
     id="layer3"
     inkscape:label="b"
     transform="translate(-19.776479,-2.6593352)" />
</svg>
