<?xml version="1.0" encoding="UTF-8" standalone="no"?>
<svg
   version="1.2"
   width="88.600388mm"
   height="130.38904mm"
   viewBox="0 0 8860.0387 13038.904"
   preserveAspectRatio="xMidYMid"
   fill-rule="evenodd"
   stroke-width="28.222"
   stroke-linejoin="round"
   xml:space="preserve"
   id="svg139"
   sodipodi:docname="Deer3a2.SVG"
   inkscape:version="1.2.2 (732a01da63, 2022-12-09, custom)"
   xmlns:inkscape="http://www.inkscape.org/namespaces/inkscape"
   xmlns:sodipodi="http://sodipodi.sourceforge.net/DTD/sodipodi-0.dtd"
   xmlns="http://www.w3.org/2000/svg"
   xmlns:svg="http://www.w3.org/2000/svg"
   xmlns:ooo="http://xml.openoffice.org/svg/export"><sodipodi:namedview
   id="namedview141"
   pagecolor="#ffffff"
   bordercolor="#000000"
   borderopacity="0.25"
   inkscape:showpageshadow="2"
   inkscape:pageopacity="0.0"
   inkscape:pagecheckerboard="0"
   inkscape:deskcolor="#d1d1d1"
   inkscape:document-units="mm"
   showgrid="false"
   inkscape:zoom="0.97531385"
   inkscape:cx="63.056625"
   inkscape:cy="240.94808"
   inkscape:window-width="1920"
   inkscape:window-height="1031"
   inkscape:window-x="0"
   inkscape:window-y="25"
   inkscape:window-maximized="1"
   inkscape:current-layer="svg139" />
 <defs
   class="ClipPathGroup"
   id="defs81">
  <clipPath
   id="presentation_clip_path"
   clipPathUnits="userSpaceOnUse">
   <rect
   x="0"
   y="0"
   width="3384"
   height="4209"
   id="rect75" />
  </clipPath>
  <clipPath
   id="presentation_clip_path_shrink"
   clipPathUnits="userSpaceOnUse">
   <rect
   x="3"
   y="4"
   width="3378"
   height="4201"
   id="rect78" />
  </clipPath>
 </defs>
 <defs
   class="TextShapeIndex"
   id="defs85">
  <g
   ooo:slide="id1"
   ooo:id-list="id3"
   id="g83" />
 </defs>
 <defs
   class="EmbeddedBulletChars"
   id="defs117">
  <g
   id="bullet-char-template-57356"
   transform="matrix(4.8828125e-4,0,0,-4.8828125e-4,0,0)">
   <path
   d="M 580,1141 1163,571 580,0 -4,571 Z"
   id="path87" />
  </g>
  <g
   id="bullet-char-template-57354"
   transform="matrix(4.8828125e-4,0,0,-4.8828125e-4,0,0)">
   <path
   d="M 8,1128 H 1137 V 0 H 8 Z"
   id="path90" />
  </g>
  <g
   id="bullet-char-template-10146"
   transform="matrix(4.8828125e-4,0,0,-4.8828125e-4,0,0)">
   <path
   d="M 174,0 602,739 174,1481 1456,739 Z M 1358,739 309,1346 659,739 Z"
   id="path93" />
  </g>
  <g
   id="bullet-char-template-10132"
   transform="matrix(4.8828125e-4,0,0,-4.8828125e-4,0,0)">
   <path
   d="M 2015,739 1276,0 H 717 l 543,543 H 174 v 393 h 1086 l -543,545 h 557 z"
   id="path96" />
  </g>
  <g
   id="bullet-char-template-10007"
   transform="matrix(4.8828125e-4,0,0,-4.8828125e-4,0,0)">
   <path
   d="m 0,-2 c -7,16 -16,29 -25,39 l 381,530 c -94,256 -141,385 -141,387 0,25 13,38 40,38 9,0 21,-2 34,-5 21,4 42,12 65,25 l 27,-13 111,-251 280,301 64,-25 24,25 c 21,-10 41,-24 62,-43 C 886,937 835,863 770,784 769,783 710,716 594,584 L 774,223 c 0,-27 -21,-55 -63,-84 l 16,-20 C 717,90 699,76 672,76 641,76 570,178 457,381 L 164,-76 c -22,-34 -53,-51 -92,-51 -42,0 -63,17 -64,51 -7,9 -10,24 -10,44 0,9 1,19 2,30 z"
   id="path99" />
  </g>
  <g
   id="bullet-char-template-10004"
   transform="matrix(4.8828125e-4,0,0,-4.8828125e-4,0,0)">
   <path
   d="M 285,-33 C 182,-33 111,30 74,156 52,228 41,333 41,471 c 0,78 14,145 41,201 34,71 87,106 158,106 53,0 88,-31 106,-94 l 23,-176 c 8,-64 28,-97 59,-98 l 735,706 c 11,11 33,17 66,17 42,0 63,-15 63,-46 V 965 c 0,-36 -10,-64 -30,-84 L 442,47 C 390,-6 338,-33 285,-33 Z"
   id="path102" />
  </g>
  <g
   id="bullet-char-template-9679"
   transform="matrix(4.8828125e-4,0,0,-4.8828125e-4,0,0)">
   <path
   d="M 813,0 C 632,0 489,54 383,161 276,268 223,411 223,592 c 0,181 53,324 160,431 106,107 249,161 430,161 179,0 323,-54 432,-161 108,-107 162,-251 162,-431 0,-180 -54,-324 -162,-431 C 1136,54 992,0 813,0 Z"
   id="path105" />
  </g>
  <g
   id="bullet-char-template-8226"
   transform="matrix(4.8828125e-4,0,0,-4.8828125e-4,0,0)">
   <path
   d="m 346,457 c -73,0 -137,26 -191,78 -54,51 -81,114 -81,188 0,73 27,136 81,188 54,52 118,78 191,78 73,0 134,-26 185,-79 51,-51 77,-114 77,-187 0,-75 -25,-137 -76,-188 -50,-52 -112,-78 -186,-78 z"
   id="path108" />
  </g>
  <g
   id="bullet-char-template-8211"
   transform="matrix(4.8828125e-4,0,0,-4.8828125e-4,0,0)">
   <path
   d="M -4,459 H 1135 V 606 H -4 Z"
   id="path111" />
  </g>
  <g
   id="bullet-char-template-61548"
   transform="matrix(4.8828125e-4,0,0,-4.8828125e-4,0,0)">
   <path
   d="m 173,740 c 0,163 58,303 173,419 116,115 255,173 419,173 163,0 302,-58 418,-173 116,-116 174,-256 174,-419 0,-163 -58,-303 -174,-418 C 1067,206 928,148 765,148 601,148 462,206 346,322 231,437 173,577 173,740 Z"
   id="path114" />
  </g>
 </defs>
 
 
<g
   inkscape:groupmode="layer"
   id="layer7"
   inkscape:label="Layer 1"><path
     fill="#000000"
     stroke="none"
     d="m 1319,113 c 21,17 43,31 64,50 43,39 52,82 63,138 25,-20 47,-41 74,-59 0,26 -50,120 -67,122 -10,3 11,63 120,105 108,42 108,16 120,16 11,-1 52,-63 62,-103 11,-40 -18,-49 -27,-74 22,20 43,19 66,60 23,41 -25,108 -38,135 -14,27 -4,68 21,109 24,41 52,134 22,190 -30,56 -67,68 -101,102 -20,-6 -45,-5 -70,1 l 7,-9 37,-35 c 28,-41 82,-100 84,-123 3,-24 -8,-78 -39,-118 -31,-41 -147,-117 -233,-149 -85,-33 -101,-101 -151,-152 -77,-20 -121,-50 -129,-126 0,9 82,116 147,63 65,-54 -21,-95 -32,-143 z m 297,796 c -25,9 -49,24 -66,46 0,-7 -1,-17 -6,-29 -11,-33 -31,-42 -56,-66 -25,-24 -95,-77 -137,-79 -42,-2 -152,-17 -227,-22 -75,-5 -170,-71 -225,-117 -55,-46 -79,-124 -106,-126 -26,-3 -59,-17 -98,-39 -38,-21 -67,-72 -59,-61 13,18 107,33 133,46 -13,-14 -1,-3 -37,-42 -37,-39 -34,-97 -51,-145 4,5 -15,-44 13,15 28,58 66,122 113,118 37,-4 49,-81 49,-115 0,-19 -4,-19 7,0 82,133 -14,145 34,240 29,56 63,71 74,79 24,-89 51,-178 119,-193 -58,96 -97,197 26,266 57,32 155,30 163,30 8,0 34,-35 32,-53 -1,-19 -15,-70 -22,-105 9,7 -2,-2 27,21 30,23 44,104 66,156 77,11 181,103 210,137 42,-31 34,-114 52,-170 7,17 -8,-55 22,51 21,78 -25,134 -50,157 z m 396,288 c 0,2 0,4 2,6 2,2 2,4 4,6 2,2 4,3 6,4 2,1 4,1 6,1 2,0 3,-1 4,-3 1,-1 2,-2 2,-4 0,-2 -1,-4 -2,-7 -1,-2 -2,-3 -4,-5 -2,-1 -4,-3 -6,-4 -2,-1 -4,-2 -6,-1 -2,0 -3,1 -4,2 -2,1 -2,3 -2,5 z m -252,-156 c 0,-2 1,-4 2,-6 1,-2 3,-3 5,-4 2,-1 5,-1 7,-1 3,0 5,0 7,1 2,1 4,2 5,4 2,2 2,4 2,6 0,2 0,3 -2,5 -2,2 -3,3 -5,4 -2,1 -4,2 -7,2 -2,0 -5,-1 -7,-2 -2,-1 -4,-2 -5,-4 -1,-2 -2,-3 -2,-5 z m 65,28 c -48,-59 -40,-50 -112,-48 45,72 47,59 112,48 z m 37,-40 c 14,37 90,81 140,122 40,33 59,65 47,84 -19,29 -87,7 -110,-4 -38,-18 27,29 44,33 3,0 7,1 11,1 -28,22 -61,7 -94,-9 l -157,2 c -1,-1 -1,-1 -2,-1 -38,1 -98,-61 -128,-100 -7,-8 -12,-15 -15,-20 v -1 1 -1 h -1 l 1,-1 c 0,-4 -1,-8 -4,-9 -1,-1 -3,-1 -4,-1 -6,1 -5,9 2,20 4,5 9,13 16,22 30,38 86,96 127,103 49,171 124,343 121,515 -1,81 -38,168 -80,248 l -83,-36 c 0,-11 0,-13 -1,-34 -2,-55 -6,-151 -44,-203 -2,-3 -25,-31 -33,-28 11,3 61,81 68,214 v 16 c 1,26 2,44 8,48 l 98,42 c 47,27 92,53 147,77 32,14 77,6 109,37 29,29 18,59 17,96 -23,63 -6,135 26,197 6,12 14,39 21,49 18,28 26,36 22,70 -5,39 -17,47 -38,100 -1,15 -1,29 -1,44 h -2 c -14,-2 -21,8 -42,-7 -23,-16 -37,-39 -55,-58 l -2,-2 c 6,-8 14,-16 24,-27 11,-17 12,-34 8,-51 -15,-1 -30,2 -45,1 -10,-4 -11,-22 13,-58 20,-30 6,-119 -7,-149 -28,-62 -62,-106 -68,-173 -97,6 -184,-16 -264,-27 -1,0 -79,-25 -114,-35 h -1 c -16,-5 -31,-20 -43,-39 1,-6 -3,-7 -5,-7 -13,-21 -24,-44 -33,-64 -13,-29 -22,-50 -32,-48 h -1 c -1,1 -2,2 -4,2 l -2,2 c -1,0 -2,1 -3,2 -8,8 -17,23 -25,53 -17,66 -37,97 -46,109 -5,-20 -19,-65 -36,-70 -11,-3 -21,4 -32,14 -9,7 -19,15 -31,18 -2,1 -164,18 -125,19 43,-2 99,3 128,-6 13,-4 24,-12 33,-19 10,-8 19,-15 27,-13 15,5 20,46 30,69 0,1 1,1 1,2 1,3 4,4 6,2 18,-39 30,-30 53,-118 7,-27 15,-42 22,-48 2,-1 3,-2 4,-3 1,-1 2,-1 4,-1 v -1 c 4,0 12,17 23,41 10,22 22,48 36,71 -3,0 -10,1 -13,4 l -26,26 c -220,84 -394,82 -640,33 0,-1 -2,-3 -3,-3 -19,-4 -43,-28 -51,-38 l 7,-7 c 7,-7 42,-62 29,-48 -12,12 -23,25 -35,37 -68,72 -145,154 -248,189 -6,2 -11,4 -17,6 h -1 c -241,83 -303,313 -313,557 30,48 86,106 117,142 -14,13 -29,28 -42,38 -11,8 -42,26 -49,31 -27,-99 -66,-116 -96,-161 -56,7 -40,-42 -29,-67 56,-124 54,-222 58,-383 -40,-38 -22,-59 4,-72 22,-12 55,-8 66,-23 103,-131 100,-268 91,-377 l 1,-1 c 7,-17 13,-35 20,-53 24,-66 50,-138 102,-202 2,-2 2,-6 0,-9 -2,-3 -4,-4 -6,-2 -53,65 -80,138 -104,205 -7,18 -13,36 -20,53 v 5 c -13,22 -29,33 -47,29 -8,-7 -20,-13 -20,-22 4,-240 258,-321 403,-327 120,-5 317,79 494,68 110,-71 209,-125 295,-127 11,-27 25,-52 47,-78 6,-120 -30,-265 12,-400 12,-32 31,-48 42,-80 -47,-9 -94,-28 -108,-71 50,-8 102,-7 136,0 32,-57 111,-79 159,-66 60,-25 83,-98 143,-87 -1,14 0,26 -3,37 -12,35 -42,55 -85,76 l 15,12 c 39,25 67,15 91,82 z m -249,707 c 0,-2 1,-3 2,-4 -1,0 -2,1 -2,4 z M 500,2311 c 95,-39 180,-109 246,-178 4,5 25,28 45,38 -45,59 -198,198 -172,258 46,109 110,230 135,363 -9,57 -55,107 -100,157 h -1 c -14,-9 -36,-27 -51,-57 -3,-6 -5,-12 -8,-19 -2,-7 -4,-14 -5,-22 -1,-1 -1,-2 -2,-3 l 69,-44 c 3,-10 7,-33 2,-43 -37,-3 -56,-4 -66,-21 -13,-26 0,-37 24,-73 -22,-133 -89,-194 -144,-263 2,-6 -9,-17 -8,-23 5,-26 24,-48 36,-70 z m 950,-165 1,-1 c 9,-9 9,-8 27,-27 5,-4 8,-8 11,-12 13,21 30,37 48,43 h 1 c 26,8 76,23 100,31 -26,152 -66,334 -70,512 -2,62 5,123 12,180 4,44 6,90 36,126 12,11 22,21 31,31 v 1 c -18,14 -29,33 -54,42 -27,9 -39,16 -58,24 -3,1 -5,4 -4,7 -4,-1 -8,-3 -12,-5 -1,-35 0,-86 -1,-122 -97,-21 -27,-193 -20,-205 z m 133,-957 c -1,-3 -4,-4 -6,-2 -1,2 -2,6 0,9 l 41,81 -49,5 c -3,0 -4,3 -4,7 1,2 2,3 2,5 2,2 31,38 43,71 5,17 -7,35 -16,49 -8,11 -14,19 -9,29 5,11 17,40 26,60 2,4 4,5 6,4 2,-2 3,-6 1,-9 -9,-21 -21,-51 -27,-62 0,-1 4,-5 9,-12 11,-16 26,-37 17,-64 -9,-25 -26,-52 -37,-66 l 47,-4 c 1,0 1,-1 2,-1 2,-2 2,-7 0,-10 z M 505,1749 c 0,-4 -2,-7 -5,-7 -21,0 -57,41 -89,87 -10,15 -19,30 -28,45 -8,14 -16,29 -22,41 -14,32 -16,54 1,54 11,0 21,1 28,3 l 1,1 c -7,11 -24,44 -35,71 -3,10 -6,19 -8,26 -2,10 -1,18 5,21 1,1 2,1 3,1 h 1 c 3,0 5,0 7,1 6,0 11,0 15,1 5,1 9,3 8,8 -2,10 -5,22 -11,37 -2,5 -35,88 -24,70 16,-26 26,-46 32,-62 6,-16 9,-28 11,-39 4,-18 -4,-25 -16,-27 -5,-1 -10,-2 -16,-2 h -7 -1 c -1,-1 1,-1 2,-4 1,-6 3,-14 7,-23 11,-29 31,-66 35,-71 1,-2 2,-3 3,-4 v -1 c 1,-5 -1,-3 -5,-7 -9,-7 -26,-13 -37,-13 -4,0 0,-13 9,-32 5,-12 12,-26 21,-40 11,-20 104,-161 115,-135 z M 870,275 c -1,-2 -2,-5 -4,-7 l -10,-15 c -11,-11 -15,-6 -17,6 -1,11 2,20 3,28 v 1 c 4,23 -10,104 -35,106 -43,4 -83,-76 -99,-110 -4,-8 -8,-16 -12,-25 -5,-8 -12,-17 -24,-12 -14,7 -8,23 -4,33 6,45 23,119 54,152 l 1,1 c -32,-8 -67,-17 -74,-24 -4,-7 -13,-11 -21,-6 -17,11 2,32 8,41 11,13 23,26 36,37 5,4 11,8 17,11 30,17 69,36 104,40 7,1 28,35 32,41 19,30 38,59 66,82 58,50 155,115 233,121 76,5 152,18 227,22 36,1 102,50 128,74 21,20 42,32 52,60 2,6 4,13 5,19 -1,1 -1,2 -2,3 -41,-7 -91,-4 -130,3 l -18,2 6,17 c 14,45 58,66 101,76 -11,22 -27,41 -35,66 -44,137 -7,261 -13,397 -18,22 -31,45 -43,69 -98,7 -209,75 -289,128 -46,2 -93,-2 -138,-9 -64,-9 -127,-24 -190,-38 -51,-11 -110,-24 -162,-22 -196,8 -415,120 -418,341 0,17 13,24 24,34 l 3,3 4,1 c 18,4 33,-2 45,-13 7,126 -6,234 -90,341 -5,17 -153,34 -74,110 -3,132 0,247 -56,371 -19,41 -20,91 35,88 6,8 12,16 19,23 40,47 56,72 72,134 l 1,6 5,3 c 62,37 107,56 178,39 l 18,-5 -8,-17 c -23,-45 -44,-75 -77,-114 -38,-44 -84,-89 -115,-138 9,-224 64,-446 286,-533 -10,17 -22,33 -26,55 -3,13 5,18 8,26 l -1,5 4,5 c 70,88 119,135 139,250 -18,27 -38,50 -20,84 12,24 41,26 66,28 0,6 -1,14 -2,19 -24,15 -47,31 -70,46 l -4,2 -2,4 c -29,65 -8,172 48,217 l 18,15 6,-23 c 7,-31 15,-62 23,-93 43,-47 97,-103 106,-168 v -2 -3 c -24,-131 -84,-245 -136,-366 -20,-47 129,-191 170,-242 231,45 411,53 633,-28 16,205 32,409 48,614 -13,24 -26,75 -29,98 -7,49 -1,104 49,122 0,37 0,74 1,111 v 10 l 8,4 c 15,7 31,13 47,19 24,8 164,51 175,10 3,-8 2,-8 -1,-15 -26,-53 -62,-98 -106,-138 -28,-34 -29,-76 -33,-118 -7,-59 -13,-118 -12,-178 4,-171 41,-338 70,-506 85,12 163,30 251,27 9,62 41,107 67,164 11,26 25,111 9,134 -13,19 -41,67 -7,81 h 2 l 3,1 c 11,0 22,-1 32,-1 1,9 -1,18 -7,26 -34,37 -45,53 -33,105 v 3 l 2,2 c 19,31 32,64 51,94 l 1,2 2,1 c 24,23 67,25 79,-10 l 1,-2 v -2 c 3,-43 0,-86 3,-130 13,-34 33,-63 37,-101 5,-39 -4,-49 -24,-80 -8,-12 -13,-34 -20,-48 -29,-55 -47,-124 -25,-185 l 1,-2 v -2 c 1,-42 12,-74 -22,-108 -38,-36 -75,-23 -114,-40 -52,-22 -101,-50 -150,-79 39,-76 79,-166 80,-251 2,-174 -72,-346 -120,-512 48,0 96,0 145,-1 43,20 84,34 118,-4 18,5 36,-7 47,-24 23,-36 -24,-83 -49,-103 -29,-24 -125,-86 -136,-116 -11,-30 -24,-54 -53,-68 -13,-7 -26,-11 -39,-19 31,-17 59,-38 71,-74 4,-13 2,-26 3,-40 l 1,-13 -13,-3 c -10,-2 -19,-2 -28,0 25,-58 4,-147 -26,-197 -15,-24 -34,-67 -21,-95 21,-42 66,-101 39,-149 -16,-27 -46,-53 -74,-66 l -86,-37 70,62 c 15,14 28,38 23,59 -6,20 -35,80 -52,92 -8,1 -12,7 -21,8 -24,2 -68,-15 -90,-23 -32,-12 -65,-30 -90,-54 -5,-5 -17,-19 -21,-29 29,-23 68,-105 69,-130 l 1,-28 -24,15 c -19,12 -39,28 -57,43 -11,-46 -24,-85 -63,-121 -12,-10 -54,-46 -67,-52 -95,-48 -93,-52 -17,24 27,27 75,86 33,121 -9,7 -20,11 -32,11 -30,-1 -80,-40 -91,-66 -9,-32 -39,-29 -30,4 v 2 c 10,83 59,116 134,136 33,58 94,130 156,153 60,23 189,95 226,144 19,25 40,75 37,107 -2,13 -36,58 -60,89 5,-24 5,-50 -3,-77 -5,-18 -10,-36 -16,-53 -4,-11 -9,-26 -24,-22 -14,4 -13,18 -11,29 -3,33 -14,114 -37,147 -47,-49 -134,-113 -198,-127 -12,-44 -41,-134 -68,-155 -8,-6 -16,-13 -24,-19 -1,-1 -2,-2 -4,-2 -6,-5 -16,-5 -22,3 -2,4 -3,9 -1,13 7,29 19,73 22,101 0,8 -14,31 -21,38 -47,-1 -112,-5 -153,-28 -112,-64 -74,-155 -20,-246 l 18,-30 -34,8 c -75,17 -106,113 -125,183 -22,-17 -35,-29 -51,-62 -13,-25 -16,-44 -10,-72 6,-25 13,-43 12,-69 -3,-40 -23,-78 -44,-111 z"
     id="path126"
     transform="matrix(4.221076,0,0,4.221076,-202.61165,-278.59101)" /></g></svg>
