<?xml version="1.0" encoding="utf-8"?>
<!-- Created by UniConvertor 2.0rc5 (https://sk1project.net/) -->
<svg xmlns="http://www.w3.org/2000/svg" height="5001.0pt" viewBox="0 0 5001.0 5001.0" width="5001.0pt" version="1.1" xmlns:xlink="http://www.w3.org/1999/xlink" id="74517a78-1bc8-11ee-bc78-0242ac150005">

<g>
	<g>
		<path style="fill:#000000;" d="M 2494.4,881.8 C 2483.3,887.9 2475.4,896.7 2469.4,909.5 2466.0,917.0 2462.0,930.9 2462.0,935.7 2462.0,937.4 2461.8,938.9 2461.5,939.2 2461.2,939.4 2457.9,938.1 2454.1,936.2 2441.0,929.7 2428.5,930.9 2416.6,940.0 2410.9,944.3 2408.3,948.0 2411.1,948.0 2413.3,948.0 2425.5,955.7 2430.8,960.5 2437.9,966.9 2444.8,977.6 2448.3,987.9 2450.9,995.2 2451.3,998.0 2451.4,1006.5 2451.4,1018.1 2450.2,1022.9 2445.7,1029.7 2435.5,1044.9 2415.8,1040.9 2394.6,1019.2 L 2389.7,1014.2 2391.8,1011.3 C 2395.5,1006.1 2397.3,998.6 2396.8,990.7 2396.0,980.2 2392.9,973.1 2385.9,965.6 2378.4,957.5 2372.2,954.6 2363.0,954.6 2340.6,954.8 2328.7,979.5 2339.7,1002.9 2343.3,1010.5 2351.3,1018.3 2357.8,1020.6 L 2363.0,1022.5 2363.0,1036.5 C 2363.0,1057.7 2360.4,1069.1 2354.9,1072.0 2347.9,1075.8 2325.9,1061.5 2307.6,1041.4 L 2302.2,1035.4 2304.7,1028.0 C 2308.0,1018.1 2307.5,1010.6 2303.0,1001.4 2297.4,989.9 2285.4,983.1 2273.2,984.3 2267.8,984.9 2256.4,989.7 2256.6,991.3 2256.7,991.8 2280.0,1043.0 2308.5,1105.2 L 2360.4,1218.3 2372.4,1217.6 C 2444.7,1213.8 2553.0,1213.8 2628.5,1217.6 L 2640.5,1218.2 2691.9,1105.9 C 2720.2,1044.1 2743.5,992.8 2743.8,991.8 2744.1,990.4 2742.9,989.4 2738.4,987.3 2729.9,983.4 2719.8,983.4 2711.8,987.3 2696.9,994.6 2690.6,1011.2 2696.1,1028.7 L 2698.4,1036.2 2686.5,1047.9 C 2668.5,1065.3 2652.6,1075.0 2646.5,1072.2 2640.3,1069.4 2638.0,1060.2 2638.0,1038.5 L 2638.0,1022.4 2641.8,1021.1 C 2655.1,1016.3 2665.0,1000.7 2665.0,984.5 2665.0,969.4 2656.3,958.0 2642.4,954.9 2628.2,951.7 2612.6,962.3 2605.9,979.8 2601.8,990.6 2603.5,1005.4 2609.7,1012.2 2611.3,1013.9 2611.1,1014.3 2606.9,1018.6 2595.2,1030.7 2581.7,1038.2 2571.7,1038.3 2558.0,1038.4 2550.0,1028.6 2549.2,1010.5 2548.1,985.6 2562.0,962.4 2585.3,949.9 L 2591.2,946.8 2587.3,942.8 C 2582.0,937.4 2572.2,932.7 2565.0,932.2 2558.4,931.7 2549.7,933.9 2543.3,937.7 L 2539.0,940.2 2539.0,937.3 C 2539.0,931.5 2534.8,917.2 2530.5,908.3 2525.3,897.6 2517.2,888.3 2508.9,883.3 2501.1,878.8 2500.2,878.7 2494.4,881.8 Z" />
		<path style="fill:#000000;" d="M 2159.0,1278.9 C 2153.5,1280.6 2148.0,1284.2 2146.5,1287.0 2142.0,1295.8 2146.7,1306.7 2161.4,1321.5 2173.3,1333.5 2180.7,1339.1 2203.2,1353.3 2231.7,1371.2 2259.4,1391.2 2326.6,1442.1 2363.2,1469.8 2378.5,1480.8 2417.2,1507.5 2430.7,1516.8 2441.6,1524.7 2441.4,1524.9 2441.2,1525.1 2437.8,1526.4 2433.8,1527.7 2380.3,1545.7 2343.9,1590.9 2330.6,1656.0 2325.7,1680.2 2324.8,1689.7 2324.3,1725.2 L 2323.8,1759.0 2315.6,1765.7 C 2311.2,1769.3 2300.7,1779.1 2292.5,1787.4 2275.2,1804.8 2265.3,1816.5 2248.5,1839.8 2248.1,1840.3 2223.1,1828.5 2201.0,1817.5 2082.2,1758.1 1968.4,1678.4 1903.9,1609.5 1869.7,1573.1 1843.9,1535.7 1827.0,1498.0 1824.1,1491.7 1817.7,1475.9 1812.8,1463.0 1791.8,1408.1 1780.8,1385.8 1768.5,1373.5 1762.1,1367.0 1757.2,1364.7 1748.7,1364.2 1732.7,1363.2 1725.0,1371.9 1725.0,1390.7 1725.0,1418.4 1743.1,1457.3 1776.9,1502.5 1821.0,1561.4 1886.2,1636.4 1936.6,1686.1 1984.1,1732.8 2014.1,1756.8 2066.4,1789.6 L 2074.2,1794.5 2042.4,1795.1 C 1975.6,1796.5 1907.1,1804.2 1818.0,1820.5 1540.4,1871.3 1166.7,2000.0 875.0,2145.1 733.6,2215.4 638.5,2274.2 571.9,2332.7 495.4,2399.7 453.8,2457.8 440.8,2516.0 438.8,2525.1 438.5,2529.2 438.5,2546.5 438.5,2562.1 438.9,2568.4 440.3,2575.0 446.4,2603.3 459.4,2629.5 480.6,2656.0 490.2,2668.0 513.3,2690.8 528.1,2703.1 575.9,2742.5 692.9,2817.2 791.5,2871.2 903.6,2932.6 1007.0,2977.5 1092.2,3001.6 1142.3,3015.8 1211.9,3028.7 1270.0,3034.6 1291.2,3036.7 1347.7,3037.6 1367.8,3036.1 1459.2,3029.2 1536.3,2998.7 1608.8,2940.7 1647.5,2909.8 1672.7,2883.7 1808.5,2733.5 1937.8,2590.6 1977.7,2547.4 2034.6,2488.5 2056.7,2465.7 2091.4,2431.6 2097.1,2427.2 2098.2,2426.4 2096.8,2431.7 2092.9,2443.3 2083.7,2470.9 2078.2,2496.1 2073.5,2532.0 2071.7,2546.4 2069.9,2554.9 2065.5,2570.5 2053.3,2614.0 2030.4,2708.8 2017.0,2771.5 2010.0,2804.3 2007.0,2822.7 2001.0,2870.0 1998.2,2892.3 1995.0,2916.6 1993.9,2924.0 1985.8,2978.0 1972.6,3012.0 1951.5,3033.3 1940.9,3044.0 1927.9,3054.5 1891.5,3081.8 1835.4,3123.8 1822.1,3136.2 1813.7,3153.8 1811.2,3159.2 1810.8,3161.0 1811.2,3166.5 1811.9,3177.7 1817.6,3182.5 1829.0,3181.6 1855.6,3179.5 1905.1,3146.0 1954.1,3097.1 1995.0,3056.2 2017.0,3025.0 2040.3,2974.7 2056.1,2940.8 2068.7,2908.3 2084.1,2862.0 2089.5,2845.8 2094.1,2833.2 2094.4,2834.0 2094.7,2834.8 2095.9,2839.3 2097.0,2844.0 2098.2,2848.7 2101.5,2860.8 2104.5,2871.0 2124.8,2940.5 2149.7,2994.6 2194.8,3067.0 2250.5,3156.5 2332.6,3260.3 2395.9,3321.3 2414.8,3339.5 2438.8,3351.6 2466.3,3356.7 2473.5,3358.1 2481.0,3358.5 2500.5,3358.5 2522.5,3358.5 2526.9,3358.2 2536.8,3356.2 2556.2,3352.3 2571.5,3346.0 2588.0,3335.2 2602.5,3325.7 2640.7,3286.2 2676.6,3243.5 2742.2,3165.5 2800.2,3082.0 2840.6,3007.5 2867.9,2957.1 2888.7,2902.9 2904.8,2840.0 2905.9,2835.8 2907.0,2833.2 2907.3,2834.0 2907.7,2834.8 2911.4,2846.1 2915.6,2859.0 2939.9,2933.9 2968.7,2998.6 2993.8,3035.0 3034.9,3094.7 3114.6,3164.1 3159.0,3179.0 3176.9,3185.0 3187.5,3181.3 3189.6,3168.2 3191.7,3154.9 3178.8,3136.7 3151.0,3113.9 3145.2,3109.1 3125.2,3093.8 3106.5,3079.8 3058.2,3043.5 3046.6,3033.2 3035.7,3016.5 3023.8,2998.2 3014.7,2970.7 3008.5,2934.5 3007.1,2926.2 3003.5,2899.9 3000.5,2876.0 2997.5,2852.1 2993.6,2824.3 2992.0,2814.3 2984.5,2769.7 2956.0,2647.0 2936.1,2574.0 2931.0,2555.3 2928.7,2544.9 2927.6,2535.0 2923.6,2501.6 2915.5,2464.6 2906.6,2439.6 2904.1,2432.5 2902.2,2426.5 2902.5,2426.2 2903.2,2425.5 2965.7,2487.9 2992.4,2516.0 3038.6,2564.5 3074.8,2603.8 3160.5,2698.5 3331.2,2887.2 3355.7,2912.8 3396.6,2944.6 3463.3,2996.4 3531.1,3024.4 3615.0,3034.6 3633.1,3036.8 3686.2,3037.6 3709.7,3036.1 3784.5,3031.2 3876.0,3013.3 3947.5,2989.5 4075.7,2946.8 4244.4,2859.6 4400.1,2755.4 4474.0,2706.1 4508.8,2675.2 4534.3,2636.5 4566.1,2588.2 4571.3,2537.4 4549.9,2484.1 4532.5,2440.4 4496.3,2393.8 4441.0,2343.6 4370.3,2279.5 4276.2,2220.0 4129.0,2146.7 3846.6,2005.9 3485.7,1879.8 3209.5,1825.6 3110.3,1806.2 3032.3,1796.7 2959.1,1795.2 L 2926.6,1794.5 2945.6,1782.3 C 2978.6,1761.1 2998.0,1746.5 3026.0,1721.9 3080.4,1674.1 3148.6,1599.1 3215.0,1514.0 3242.6,1478.6 3261.5,1446.7 3269.9,1421.3 3279.6,1392.0 3277.1,1371.3 3263.3,1365.4 3258.5,1363.3 3247.4,1363.7 3242.3,1366.0 3226.2,1373.2 3213.5,1396.0 3187.5,1464.0 3168.3,1514.2 3150.1,1546.3 3119.3,1583.9 3067.4,1647.4 2976.0,1718.9 2866.5,1781.8 2835.7,1799.4 2791.0,1822.6 2764.0,1834.8 2752.9,1839.8 2752.4,1839.9 2751.0,1838.1 2750.2,1837.1 2746.6,1832.2 2743.0,1827.4 2728.5,1807.5 2704.7,1782.1 2686.1,1766.6 L 2676.7,1758.8 2676.9,1735.6 C 2677.4,1681.8 2669.9,1640.4 2653.4,1606.0 2635.2,1568.1 2604.2,1539.9 2567.5,1528.0 2563.7,1526.8 2560.2,1525.4 2559.7,1525.1 2559.3,1524.7 2563.8,1521.1 2569.7,1517.0 2609.0,1490.1 2640.1,1467.7 2671.3,1444.2 2714.0,1411.7 2735.3,1396.0 2756.6,1380.8 2771.5,1370.2 2778.5,1365.6 2808.5,1346.1 2838.4,1326.8 2857.2,1305.4 2855.7,1292.4 2854.7,1283.3 2844.4,1277.3 2831.6,1278.4 2816.5,1279.6 2801.2,1290.1 2779.7,1313.9 2743.6,1353.9 2721.6,1373.7 2670.5,1411.9 2625.3,1445.8 2567.3,1486.7 2533.6,1508.4 L 2518.8,1518.0 2500.4,1518.0 2482.0,1518.0 2467.8,1508.9 C 2433.7,1486.9 2369.9,1442.0 2323.9,1407.4 2288.0,1380.4 2265.4,1360.6 2240.0,1333.9 2211.2,1303.7 2196.8,1289.7 2190.5,1286.0 2179.3,1279.4 2166.8,1276.6 2159.0,1278.9 Z M 2112.3,1840.6 C 2114.5,1841.1 2108.6,1842.6 2089.3,1846.5 2008.7,1862.9 1916.1,1891.8 1802.9,1936.0 1730.7,1964.3 1669.9,1990.2 1520.6,2056.7 1347.8,2133.6 1299.6,2152.5 1238.8,2167.4 1148.2,2189.6 1021.9,2203.1 873.0,2206.5 L 846.5,2207.1 851.0,2204.4 C 856.8,2201.0 903.6,2178.0 934.0,2163.8 999.4,2133.2 1073.3,2101.3 1151.5,2070.0 1481.7,1937.7 1792.0,1853.6 1996.0,1841.0 2005.6,1840.4 2015.5,1839.8 2018.0,1839.6 2025.6,1839.0 2109.3,1839.8 2112.3,1840.6 Z M 2989.6,1840.0 C 3129.4,1848.0 3295.6,1882.5 3503.5,1946.6 3705.9,2009.1 3958.5,2108.7 4121.0,2190.2 L 4154.5,2207.0 4128.5,2206.5 C 3992.9,2203.6 3868.8,2191.3 3781.0,2171.9 3708.6,2155.9 3667.6,2140.1 3465.0,2050.0 3342.0,1995.3 3285.3,1970.9 3225.0,1946.8 3099.0,1896.3 2996.6,1863.7 2909.5,1846.1 2878.3,1839.8 2879.2,1839.6 2939.1,1839.2 2957.1,1839.1 2979.8,1839.5 2989.6,1840.0 Z M 2199.2,1866.5 C 2218.4,1876.9 2220.1,1878.0 2217.9,1878.9 2216.6,1879.5 2183.8,1892.5 2145.0,1907.9 2049.9,1945.6 2015.8,1958.6 1974.5,1973.1 1948.6,1982.1 1794.8,2032.8 1795.6,2032.0 1796.1,2031.6 1815.4,2018.5 1838.5,2003.0 1902.4,1959.9 1962.0,1918.9 2000.0,1891.9 2004.1,1889.0 2060.0,1874.7 2093.0,1868.0 2118.3,1862.9 2148.9,1858.2 2172.0,1855.7 2173.9,1855.5 2176.1,1855.2 2176.8,1855.2 2177.5,1855.1 2187.6,1860.2 2199.2,1866.5 Z M 2848.0,1858.1 C 2887.4,1863.1 2929.1,1871.7 2977.5,1884.7 L 2998.5,1890.3 3020.0,1905.5 C 3056.0,1930.9 3103.6,1963.5 3193.2,2023.9 3200.2,2028.6 3205.8,2032.5 3205.7,2032.6 3205.6,2032.7 3164.6,2019.1 3114.5,2002.5 3022.9,1972.1 2998.2,1963.5 2950.5,1945.2 2915.2,1931.6 2782.7,1879.0 2781.8,1878.2 2781.4,1877.8 2790.2,1872.5 2801.3,1866.3 2824.5,1853.5 2819.3,1854.5 2848.0,1858.1 Z M 2211.5,1911.0 C 2205.7,1925.7 2199.1,1951.6 2196.5,1969.5 2195.6,1975.5 2194.8,1980.5 2194.7,1980.6 2194.6,1980.6 2188.7,1984.8 2181.5,1989.7 2043.8,2085.3 1839.4,2181.2 1633.5,2246.9 1576.1,2265.3 1535.2,2276.9 1464.0,2295.0 1415.2,2307.4 1399.0,2311.9 1364.5,2322.6 1324.1,2335.2 1264.2,2355.8 1217.2,2373.3 1207.7,2376.9 1200.0,2379.7 1200.2,2379.5 1200.4,2379.3 1210.4,2373.2 1222.5,2365.9 1283.0,2329.5 1334.4,2296.7 1442.5,2225.3 1532.9,2165.7 1544.3,2158.8 1586.4,2138.4 1655.0,2105.3 1718.8,2081.3 1886.5,2025.5 2013.3,1983.3 2029.4,1977.5 2152.0,1928.6 2185.8,1915.2 2213.6,1904.3 2213.7,1904.4 2213.9,1904.5 2212.9,1907.5 2211.5,1911.0 Z M 2837.0,1924.1 C 2963.5,1974.5 2986.6,1983.0 3101.5,2021.2 3279.3,2080.4 3337.7,2102.2 3406.5,2134.8 3453.7,2157.1 3464.8,2163.8 3566.0,2230.5 3638.3,2278.1 3667.2,2296.9 3704.2,2320.3 3730.6,2337.0 3783.8,2369.6 3793.3,2375.0 3799.6,2378.5 3800.4,2379.9 3794.9,2377.6 3785.7,2373.8 3718.4,2349.8 3692.2,2340.9 3629.7,2319.8 3598.3,2310.6 3533.0,2294.0 3481.4,2280.9 3451.5,2272.7 3412.0,2260.9 3236.4,2208.3 3062.9,2134.9 2919.5,2052.8 2884.7,2032.8 2848.6,2010.2 2822.0,1991.6 2814.1,1986.0 2807.2,1981.2 2806.7,1980.9 2806.2,1980.5 2804.9,1974.7 2803.9,1967.9 2801.0,1948.8 2794.3,1923.7 2787.3,1905.2 2786.9,1904.2 2787.3,1904.2 2789.1,1904.9 2790.4,1905.5 2812.0,1914.1 2837.0,1924.1 Z M 1927.4,1915.8 C 1912.7,1926.4 1799.1,2003.3 1743.0,2040.6 1710.2,2062.5 1707.9,2063.8 1695.5,2068.5 1652.6,2084.4 1606.9,2104.0 1570.5,2122.0 1529.0,2142.4 1517.7,2149.3 1430.0,2207.2 1403.9,2224.5 1382.4,2238.3 1382.2,2237.9 1381.1,2235.4 1407.0,2132.8 1409.4,2130.3 1410.0,2129.7 1422.9,2123.8 1438.0,2117.2 1453.1,2110.6 1504.1,2088.1 1551.3,2067.1 1724.1,1990.3 1813.6,1953.4 1899.5,1923.6 1910.0,1919.9 1920.8,1916.1 1923.5,1915.1 1930.7,1912.4 1931.8,1912.6 1927.4,1915.8 Z M 3095.8,1921.6 C 3185.2,1952.7 3277.4,1990.6 3447.8,2066.4 3492.7,2086.4 3543.2,2108.7 3560.0,2116.0 3576.8,2123.3 3590.8,2129.6 3591.3,2129.9 3593.3,2131.8 3620.0,2237.4 3618.8,2238.6 3618.6,2238.7 3599.2,2226.0 3575.5,2210.4 3489.6,2153.6 3474.5,2144.3 3438.5,2126.0 3404.2,2108.6 3363.1,2090.7 3314.6,2072.1 L 3290.7,2062.9 3240.6,2029.3 C 3154.8,1971.7 3072.7,1916.0 3070.5,1913.8 3069.2,1912.4 3070.6,1912.9 3095.8,1921.6 Z M 2195.9,2068.2 C 2198.5,2096.0 2204.4,2130.0 2210.0,2149.5 2211.9,2156.1 2211.9,2156.5 2210.2,2158.1 2209.3,2159.0 2199.1,2168.4 2187.5,2179.2 2018.8,2335.6 1921.1,2417.4 1845.2,2465.4 1772.7,2511.4 1671.8,2555.0 1562.5,2587.8 1524.0,2599.4 1465.2,2615.5 1464.4,2614.7 1464.2,2614.5 1467.0,2612.2 1470.7,2609.4 1527.9,2567.5 1685.3,2406.0 1876.8,2192.9 L 1897.1,2170.3 1925.3,2157.4 C 2021.0,2113.8 2113.5,2062.9 2181.5,2016.6 L 2192.5,2009.1 2193.6,2032.5 C 2194.3,2045.3 2195.3,2061.4 2195.9,2068.2 Z M 2818.8,2016.4 C 2885.1,2062.1 2986.3,2117.5 3084.0,2161.4 L 3103.5,2170.2 3117.5,2185.8 C 3139.5,2210.4 3209.0,2286.7 3236.5,2316.5 3312.3,2398.6 3354.5,2442.6 3415.4,2503.6 3474.9,2563.0 3501.7,2587.9 3527.9,2607.8 3533.0,2611.8 3536.9,2615.0 3536.4,2615.0 3535.3,2615.0 3497.7,2605.0 3477.5,2599.4 3370.1,2569.3 3276.0,2532.7 3199.5,2491.3 3112.1,2443.9 3015.3,2366.2 2831.6,2196.1 2814.0,2179.8 2797.2,2164.2 2794.3,2161.5 L 2788.9,2156.5 2792.4,2142.5 C 2801.0,2108.7 2805.6,2073.2 2806.7,2032.2 2807.0,2019.5 2807.5,2009.0 2807.7,2009.0 2808.0,2009.0 2813.0,2012.3 2818.8,2016.4 Z M 1382.7,2142.2 C 1380.0,2149.6 1364.1,2215.1 1359.0,2240.0 1357.3,2248.5 1355.3,2256.0 1354.7,2256.6 1354.0,2257.3 1340.8,2265.9 1325.2,2275.9 1161.1,2381.1 1036.6,2449.2 908.2,2503.9 886.6,2513.1 849.1,2528.2 785.0,2553.5 715.3,2581.0 677.6,2597.6 628.0,2622.6 601.9,2635.7 570.6,2652.5 554.0,2662.3 L 549.5,2664.9 537.4,2654.1 C 509.2,2628.7 491.3,2602.5 484.3,2576.3 482.0,2567.7 481.7,2564.5 481.6,2550.5 481.5,2532.5 482.9,2524.4 488.7,2507.5 510.5,2444.5 581.3,2371.4 693.0,2296.5 725.6,2274.6 757.9,2254.9 792.3,2235.6 L 804.2,2229.0 834.8,2229.0 C 949.8,2229.0 1086.4,2218.4 1178.0,2202.4 1247.9,2190.2 1296.2,2176.1 1364.5,2148.1 1383.0,2140.5 1383.4,2140.4 1382.7,2142.2 Z M 3626.7,2144.4 C 3668.9,2162.4 3724.5,2181.2 3761.5,2190.0 3862.4,2213.8 4019.4,2228.9 4165.4,2229.0 L 4196.3,2229.0 4204.9,2233.7 C 4232.1,2248.5 4273.9,2273.9 4304.5,2294.3 4430.6,2378.5 4502.5,2456.9 4517.1,2526.3 4519.9,2539.4 4520.1,2559.7 4517.6,2571.5 4513.0,2592.9 4499.9,2616.3 4481.2,2636.4 4472.2,2646.0 4452.8,2664.0 4451.3,2664.0 4450.6,2664.0 4438.7,2657.7 4424.8,2649.9 4394.5,2633.1 4337.9,2604.8 4307.7,2591.5 4277.6,2578.2 4253.1,2568.2 4190.5,2543.6 4128.1,2519.0 4099.6,2507.2 4064.0,2491.5 3960.2,2445.5 3854.4,2388.1 3728.0,2309.2 3694.9,2288.5 3648.0,2258.3 3646.1,2256.5 3645.3,2255.8 3643.0,2246.7 3640.9,2236.3 3637.9,2221.9 3622.8,2159.4 3618.4,2143.2 3618.0,2142.0 3618.0,2141.0 3618.3,2141.0 3618.6,2141.0 3622.4,2142.5 3626.7,2144.4 Z M 2228.1,2197.5 C 2231.9,2205.2 2237.2,2214.4 2239.9,2218.0 L 2244.9,2224.5 2238.7,2229.9 C 2227.3,2239.8 2191.6,2276.3 2181.9,2288.0 2169.3,2303.1 2158.1,2318.1 2147.8,2333.5 2141.9,2342.3 2138.6,2346.3 2136.5,2347.1 2130.3,2349.7 2116.6,2358.1 2106.2,2365.7 2080.7,2384.2 2050.5,2411.3 2008.5,2453.5 1960.4,2501.7 1918.0,2547.4 1807.5,2670.0 1651.6,2843.1 1619.6,2876.6 1580.3,2907.8 1530.0,2947.6 1475.0,2973.8 1416.5,2985.8 1388.4,2991.6 1362.1,2994.0 1326.7,2994.0 1284.1,2994.0 1244.6,2989.9 1194.1,2980.4 1176.0,2977.0 1136.9,2968.5 1134.0,2967.4 1133.1,2967.0 1135.3,2965.8 1139.5,2964.3 1174.9,2951.6 1189.0,2946.3 1211.0,2937.5 1282.4,2908.8 1339.4,2879.6 1382.0,2849.7 1403.4,2834.7 1417.4,2822.6 1448.5,2792.0 1513.9,2727.7 1567.9,2679.5 1630.9,2629.1 1693.6,2579.0 1741.7,2546.2 1781.4,2526.3 1833.4,2500.3 1871.6,2476.5 1921.5,2439.1 1985.4,2391.2 2077.1,2311.5 2206.5,2191.2 2218.6,2180.0 2219.6,2179.3 2220.4,2181.3 2220.9,2182.5 2224.3,2189.8 2228.1,2197.5 Z M 2846.0,2239.0 C 2948.6,2333.2 3023.8,2397.7 3081.0,2440.5 3128.3,2475.9 3166.8,2499.9 3214.5,2523.7 3249.3,2541.1 3281.5,2561.9 3329.5,2597.8 3400.2,2650.8 3476.1,2717.0 3556.0,2795.5 3571.7,2810.9 3590.2,2828.1 3597.3,2833.8 3650.8,2876.7 3738.7,2920.8 3848.0,2959.6 3859.3,2963.6 3867.8,2967.1 3867.0,2967.4 3860.0,2969.8 3808.9,2980.2 3782.7,2984.5 3720.2,2994.9 3661.9,2996.9 3611.5,2990.5 3539.5,2981.3 3472.1,2951.0 3411.7,2900.7 3375.7,2870.7 3337.9,2830.9 3194.5,2671.5 3077.2,2541.2 3036.4,2497.4 2982.4,2444.0 2929.6,2391.8 2896.4,2364.0 2869.9,2350.1 L 2861.0,2345.4 2852.0,2332.1 C 2840.7,2315.6 2828.0,2298.8 2815.4,2283.9 2804.5,2271.2 2769.3,2235.7 2761.3,2229.5 2758.4,2227.3 2756.1,2225.2 2756.0,2224.8 2756.0,2224.4 2758.2,2221.2 2761.0,2217.6 2765.6,2211.4 2777.3,2189.5 2779.8,2182.2 L 2781.0,2178.8 2801.2,2197.7 C 2812.4,2208.1 2832.5,2226.7 2846.0,2239.0 Z M 1818.4,2224.7 C 1653.4,2406.0 1532.1,2530.7 1472.5,2580.4 1445.6,2602.8 1420.4,2616.1 1393.0,2622.2 1383.7,2624.2 1379.9,2624.5 1360.5,2624.5 1343.2,2624.5 1336.7,2624.1 1330.0,2622.7 1292.1,2614.7 1263.4,2601.7 1200.5,2564.2 1176.1,2549.6 1158.8,2540.6 1138.8,2532.2 1092.7,2512.7 1038.6,2499.9 991.5,2497.4 L 978.8,2496.7 985.1,2493.8 C 1097.8,2442.0 1203.3,2399.2 1293.0,2368.9 1349.5,2349.8 1391.9,2337.2 1487.0,2311.5 1615.0,2276.9 1669.0,2260.1 1753.5,2228.5 1782.2,2217.7 1829.4,2199.2 1843.0,2193.2 1845.5,2192.1 1847.7,2191.4 1847.9,2191.6 1848.1,2191.8 1834.8,2206.7 1818.4,2224.7 Z M 3187.0,2205.2 C 3267.9,2237.7 3339.1,2262.3 3419.2,2285.4 3447.0,2293.4 3465.2,2298.4 3539.5,2318.5 3616.8,2339.4 3671.9,2356.1 3730.5,2376.7 3810.2,2404.7 3897.4,2440.1 3992.0,2483.1 L 4021.5,2496.5 4010.0,2497.2 C 3962.6,2500.3 3913.1,2511.5 3869.2,2529.1 3849.2,2537.1 3824.4,2549.7 3800.5,2564.0 3735.4,2602.9 3704.1,2616.8 3667.5,2623.0 3656.2,2624.9 3652.0,2625.1 3635.5,2624.7 3623.3,2624.4 3613.8,2623.6 3609.0,2622.5 3582.8,2616.7 3556.1,2603.3 3532.1,2583.7 3476.2,2538.2 3343.3,2401.9 3188.1,2231.0 3171.4,2212.6 3156.3,2196.0 3154.6,2194.2 L 3151.5,2190.8 3155.5,2192.5 C 3157.7,2193.4 3171.9,2199.1 3187.0,2205.2 Z M 2561.5,2232.9 C 2684.7,2247.9 2769.9,2297.7 2820.9,2384.4 2831.3,2402.0 2850.0,2442.3 2848.5,2443.8 2846.5,2445.9 2794.1,2455.7 2757.0,2461.0 2600.0,2483.5 2430.2,2484.7 2269.3,2464.5 2217.2,2457.9 2152.0,2446.0 2152.0,2443.0 2152.0,2440.9 2164.7,2412.4 2171.0,2400.3 2194.1,2356.2 2221.9,2323.5 2259.0,2297.0 2307.7,2262.2 2371.6,2239.9 2443.7,2232.5 2466.7,2230.2 2466.3,2230.2 2506.5,2230.5 2537.4,2230.8 2547.7,2231.2 2561.5,2232.9 Z M 1007.2,2520.6 C 1041.6,2524.0 1075.5,2532.0 1110.0,2545.1 1140.4,2556.5 1164.3,2568.3 1199.8,2589.3 1255.7,2622.5 1287.5,2636.4 1325.3,2644.1 1330.9,2645.2 1335.6,2646.2 1335.7,2646.4 1335.8,2646.5 1303.0,2654.6 1262.7,2664.4 1157.9,2689.8 969.1,2736.9 917.5,2750.5 851.1,2768.0 800.2,2782.4 766.8,2793.2 L 751.0,2798.2 737.8,2790.4 C 679.5,2756.2 590.2,2697.9 571.3,2681.6 L 568.8,2679.4 590.6,2667.8 C 666.2,2627.7 751.9,2589.5 883.1,2537.5 926.4,2520.3 926.3,2520.3 953.0,2519.1 972.4,2518.3 988.4,2518.7 1007.2,2520.6 Z M 4065.7,2520.5 L 4078.9,2522.0 4126.7,2541.1 C 4225.4,2580.5 4283.5,2605.6 4348.7,2636.8 4372.3,2648.1 4414.7,2669.8 4427.8,2677.3 L 4432.1,2679.7 4421.3,2687.7 C 4384.2,2714.9 4331.0,2749.7 4273.6,2784.0 L 4249.8,2798.3 4230.6,2792.2 C 4159.4,2769.5 4025.0,2734.3 3791.5,2677.5 3687.4,2652.1 3663.3,2646.2 3664.4,2646.1 3670.3,2645.6 3693.5,2639.9 3704.5,2636.3 3734.5,2626.5 3758.0,2614.8 3812.5,2582.5 3828.6,2573.0 3865.4,2554.8 3881.5,2548.5 3944.4,2523.7 4006.9,2514.2 4065.7,2520.5 Z M 1658.5,2579.8 C 1657.9,2580.3 1649.6,2586.7 1640.0,2594.0 1579.5,2640.2 1537.7,2676.7 1458.4,2752.5 1407.5,2801.2 1381.2,2823.2 1346.0,2846.5 1291.7,2882.5 1223.3,2913.3 1124.7,2946.1 1108.3,2951.5 1094.1,2956.0 1093.0,2956.0 1088.7,2956.0 1045.2,2941.0 1014.0,2928.7 951.8,2904.3 874.4,2867.1 798.8,2825.3 787.3,2819.0 778.0,2813.5 778.0,2813.1 778.0,2812.2 780.8,2811.3 819.2,2800.0 895.0,2777.5 977.5,2756.5 1195.0,2704.0 1444.2,2643.9 1548.8,2616.1 1629.0,2588.9 1658.6,2578.9 1660.0,2578.4 1658.5,2579.8 Z M 3370.5,2588.6 C 3451.9,2616.1 3562.7,2645.4 3814.0,2706.0 3932.1,2734.5 4049.3,2763.6 4099.0,2776.9 4153.9,2791.6 4223.0,2811.7 4223.0,2813.0 4223.0,2813.3 4214.3,2818.4 4203.8,2824.3 4128.1,2866.2 4053.6,2902.1 3989.1,2927.7 3954.7,2941.3 3912.3,2956.0 3907.4,2956.0 3906.4,2956.0 3891.6,2951.3 3874.6,2945.6 3753.9,2905.2 3679.2,2868.7 3618.2,2820.3 3595.0,2801.9 3579.0,2787.6 3536.0,2746.6 3494.3,2706.8 3487.9,2700.8 3466.3,2681.4 3432.4,2651.1 3393.9,2619.3 3359.5,2593.1 3351.3,2586.8 3343.8,2581.0 3343.0,2580.2 3341.7,2578.9 3341.7,2578.8 3343.5,2579.5 3344.6,2579.9 3356.8,2584.0 3370.5,2588.6 Z M 2882.0,2693.8 C 2879.9,2723.3 2874.9,2758.3 2869.0,2784.8 2868.0,2789.5 2866.8,2793.6 2866.3,2794.0 2864.6,2795.7 2819.9,2805.4 2784.5,2811.9 2686.4,2829.9 2596.3,2839.5 2515.5,2840.7 2440.7,2841.7 2364.2,2835.6 2269.5,2820.9 2212.0,2812.0 2137.8,2797.0 2134.3,2793.6 2132.7,2792.1 2126.7,2761.9 2123.6,2740.0 2119.4,2710.4 2116.8,2676.0 2118.8,2676.0 2119.2,2676.0 2124.3,2677.8 2130.2,2679.9 2195.2,2703.6 2282.4,2718.5 2400.0,2726.1 2426.2,2727.8 2540.5,2728.4 2574.2,2727.1 2689.4,2722.5 2784.7,2708.1 2857.0,2684.4 2867.7,2680.8 2877.9,2677.4 2879.5,2676.6 2881.2,2675.9 2882.7,2675.7 2882.9,2676.2 2883.1,2676.8 2882.7,2684.7 2882.0,2693.8 Z M 2227.8,3002.4 C 2273.4,3013.9 2336.6,3022.3 2406.5,3026.0 2454.9,3028.6 2564.0,3028.1 2612.5,3025.0 2669.6,3021.3 2725.0,3013.7 2766.6,3003.9 2775.8,3001.8 2783.8,3000.0 2784.3,3000.0 2786.0,3000.0 2756.4,3055.8 2735.6,3091.7 L 2725.5,3109.3 2715.5,3113.2 C 2699.8,3119.3 2671.0,3128.4 2653.5,3132.8 2612.1,3143.4 2577.7,3148.2 2532.9,3149.9 2448.2,3153.1 2382.3,3145.2 2316.5,3124.0 2299.9,3118.7 2278.9,3111.1 2276.4,3109.5 2273.3,3107.5 2247.9,3062.6 2224.7,3017.9 2219.9,3008.7 2216.0,3000.9 2216.0,3000.6 2216.0,2999.6 2217.6,2999.9 2227.8,3002.4 Z M 2412.1,3281.5 C 2468.9,3293.5 2546.6,3292.2 2602.0,3278.4 2604.3,3277.8 2604.1,3278.1 2600.5,3282.0 2589.4,3293.6 2569.8,3307.8 2554.3,3315.2 2518.1,3332.6 2470.6,3330.3 2435.3,3309.4 2419.2,3299.9 2389.6,3275.0 2398.5,3278.3 2399.3,3278.7 2405.4,3280.1 2412.1,3281.5 Z" />
		<path style="fill:#000000;" d="M 1528.8,3272.5 C 1453.8,3281.9 1386.4,3322.2 1338.0,3386.5 1306.7,3428.1 1287.0,3475.4 1279.8,3526.0 1277.7,3541.4 1278.2,3575.8 1280.9,3590.5 1290.7,3645.3 1318.0,3687.7 1362.9,3717.9 L 1371.8,3723.9 1372.5,3734.7 C 1375.4,3780.3 1386.8,3819.1 1405.6,3847.6 1412.8,3858.5 1429.0,3875.0 1438.7,3881.4 1452.6,3890.5 1468.9,3896.1 1487.0,3898.0 1499.6,3899.3 1533.2,3899.3 1546.1,3897.9 1558.5,3896.7 1573.2,3893.6 1581.8,3890.5 1586.7,3888.7 1588.0,3888.5 1588.0,3889.7 1588.0,3896.9 1591.3,3959.9 1592.6,3975.4 1594.4,3999.5 1595.9,4007.5 1601.1,4022.8 1608.8,4045.1 1620.2,4063.9 1636.4,4080.7 1660.2,4105.5 1685.3,4117.9 1717.7,4121.0 1744.9,4123.5 1772.0,4115.5 1799.8,4096.8 1825.0,4079.8 1857.4,4047.0 1876.7,4018.8 1879.3,4015.0 1881.1,4011.8 1880.9,4011.6 1880.6,4011.3 1872.4,4007.9 1862.5,4004.1 L 1844.5,3997.0 1842.5,3999.7 C 1826.2,4021.3 1801.7,4047.1 1785.0,4060.3 1765.9,4075.4 1744.9,4087.0 1729.5,4091.0 1720.3,4093.4 1705.3,4093.8 1697.5,4092.0 1684.5,4088.8 1671.8,4079.9 1662.1,4066.9 1654.8,4057.3 1645.3,4038.4 1641.0,4025.0 1631.4,3995.6 1626.0,3945.8 1626.0,3888.0 L 1626.0,3865.3 1637.3,3855.2 C 1652.7,3841.4 1702.0,3791.5 1711.2,3780.4 1740.5,3744.9 1764.3,3697.2 1780.5,3641.4 1795.1,3591.2 1803.3,3534.8 1800.9,3501.1 1797.5,3453.7 1776.3,3398.6 1746.6,3359.6 1710.0,3311.4 1661.9,3283.2 1600.0,3273.4 1585.6,3271.2 1543.4,3270.6 1528.8,3272.5 Z M 1611.9,3310.6 C 1660.4,3317.7 1704.3,3343.1 1727.8,3377.7 1733.6,3386.3 1739.7,3399.0 1742.0,3407.2 1745.0,3418.2 1748.7,3441.4 1750.6,3461.0 1752.6,3482.1 1752.0,3528.2 1749.6,3547.5 1738.6,3633.8 1704.4,3711.5 1647.3,3780.2 1640.5,3788.4 1623.0,3807.4 1623.0,3806.6 1623.0,3806.4 1622.1,3801.1 1621.0,3794.7 1617.6,3775.2 1612.7,3760.6 1608.4,3756.9 1606.1,3755.1 1568.0,3738.6 1567.4,3739.3 1567.2,3739.5 1567.8,3740.8 1568.9,3742.1 1576.0,3751.2 1581.1,3765.5 1583.0,3781.5 1583.8,3789.1 1586.0,3828.5 1586.0,3837.2 1586.0,3839.4 1584.6,3840.8 1578.3,3845.3 1550.7,3864.6 1516.3,3878.9 1497.0,3879.2 1492.7,3879.3 1490.1,3878.6 1485.0,3876.0 1452.8,3859.9 1426.1,3821.1 1417.1,3777.0 1414.8,3766.1 1413.0,3752.4 1413.0,3746.4 L 1413.0,3742.2 1417.7,3743.6 C 1431.8,3747.8 1444.3,3749.4 1463.5,3749.4 1484.5,3749.4 1492.2,3748.3 1515.0,3742.4 1563.3,3729.8 1622.5,3697.0 1675.8,3653.2 1681.5,3648.6 1685.9,3644.6 1685.7,3644.4 1685.5,3644.2 1675.7,3640.7 1663.8,3636.6 L 1642.3,3629.2 1634.4,3636.1 C 1599.3,3667.1 1545.2,3698.2 1501.5,3712.4 1476.2,3720.7 1451.6,3724.3 1434.3,3722.2 1425.2,3721.1 1415.6,3718.7 1413.7,3717.0 1412.6,3716.0 1414.6,3697.6 1417.6,3681.0 1429.4,3616.2 1463.8,3541.4 1507.9,3485.0 1512.9,3478.7 1517.0,3473.2 1517.0,3472.9 1517.0,3472.1 1490.4,3451.0 1489.3,3451.0 1487.6,3451.0 1474.7,3463.5 1466.9,3472.8 1436.0,3509.8 1403.2,3575.2 1385.6,3635.1 1380.9,3651.1 1375.7,3674.0 1374.5,3684.2 1374.1,3687.4 1373.4,3690.0 1372.9,3690.0 1371.4,3690.0 1354.9,3670.5 1348.8,3661.6 1329.0,3632.0 1320.1,3599.8 1321.3,3562.0 1322.2,3535.9 1327.0,3512.8 1336.7,3488.0 1377.4,3384.7 1481.5,3309.6 1584.9,3309.1 1595.0,3309.0 1605.3,3309.6 1611.9,3310.6 Z" />
		<path style="fill:#000000;" d="M 3132.5,3322.6 C 3103.7,3325.8 3058.7,3337.4 3026.5,3350.1 3012.2,3355.7 2980.3,3371.8 2967.2,3380.0 2907.6,3417.4 2863.0,3473.7 2863.0,3511.6 L 2863.0,3518.8 2879.3,3532.4 C 2888.2,3539.9 2896.2,3546.0 2897.1,3546.0 2897.9,3546.0 2901.1,3544.8 2904.1,3543.2 2911.3,3539.6 2911.6,3537.4 2905.7,3531.6 2901.2,3527.3 2897.0,3518.5 2897.0,3513.4 2897.0,3510.1 2904.7,3495.1 2910.9,3486.3 2930.5,3458.6 2970.8,3428.1 3020.3,3403.7 3077.1,3375.6 3120.1,3363.8 3160.5,3365.3 3189.2,3366.3 3203.0,3372.6 3205.9,3386.0 3208.3,3397.1 3206.7,3411.9 3201.5,3427.6 3197.7,3439.2 3185.3,3463.5 3175.5,3478.9 3159.3,3504.3 3130.4,3540.5 3111.6,3558.9 L 3104.1,3566.4 3076.3,3566.5 C 3059.4,3566.6 3045.4,3567.1 3040.7,3567.9 3036.3,3568.6 3032.6,3568.9 3032.3,3568.6 3032.0,3568.3 3038.2,3544.9 3046.0,3516.5 3053.9,3488.2 3060.1,3464.9 3059.9,3464.7 3059.7,3464.5 3052.8,3458.4 3044.7,3451.1 3036.3,3443.6 3029.5,3438.1 3029.0,3438.6 3028.0,3439.6 3012.7,3486.9 2995.3,3542.5 2989.0,3562.8 2983.3,3580.0 2982.6,3580.6 2982.0,3581.2 2978.6,3582.7 2975.0,3584.0 2935.0,3598.0 2895.5,3623.1 2887.9,3639.5 2885.3,3645.1 2885.5,3648.5 2889.1,3658.7 2898.2,3684.8 2911.9,3695.1 2937.8,3695.2 2947.7,3695.2 2949.0,3695.4 2948.6,3696.9 2948.3,3697.8 2944.4,3711.5 2940.0,3727.5 2925.8,3778.1 2912.7,3831.7 2907.6,3859.7 L 2907.1,3863.0 2927.1,3863.0 C 2938.1,3863.0 2947.0,3863.3 2946.8,3863.7 2937.4,3883.2 2934.5,3895.0 2934.7,3913.5 2934.8,3929.6 2937.6,3941.4 2944.8,3956.3 2953.9,3975.2 2966.7,3990.4 2985.0,4004.2 3015.4,4027.0 3058.5,4039.5 3100.3,4037.6 3124.7,4036.5 3142.6,4031.8 3165.5,4020.6 3189.5,4008.8 3210.8,3993.3 3232.1,3972.1 3273.1,3931.1 3298.2,3882.8 3306.1,3829.5 3308.6,3812.6 3308.7,3785.3 3306.4,3768.5 3305.5,3761.9 3304.7,3755.2 3304.6,3753.7 L 3304.5,3750.8 3331.0,3742.0 C 3345.6,3737.2 3358.4,3732.8 3359.4,3732.4 3361.1,3731.7 3361.2,3732.0 3360.6,3735.3 3360.2,3737.3 3359.9,3746.7 3359.9,3756.3 3359.9,3783.0 3363.8,3804.0 3370.8,3815.0 3373.7,3819.6 3384.1,3828.6 3394.8,3835.9 3411.2,3847.0 3429.0,3852.4 3441.6,3850.1 3461.0,3846.6 3504.8,3813.4 3527.0,3785.4 3533.5,3777.2 3532.9,3777.0 3534.6,3788.0 3535.6,3794.7 3539.8,3805.8 3543.6,3811.8 3550.5,3822.5 3562.1,3831.5 3577.6,3838.4 3616.8,3855.6 3640.4,3851.9 3679.8,3822.3 3695.2,3810.7 3712.1,3794.4 3710.0,3793.0 3709.2,3792.5 3700.9,3787.2 3691.5,3781.2 L 3674.5,3770.2 3670.5,3773.2 C 3641.1,3795.0 3608.7,3814.0 3594.8,3817.7 3587.2,3819.7 3582.3,3818.8 3577.2,3814.5 3568.2,3807.0 3565.9,3785.6 3571.1,3757.0 3573.0,3746.4 3577.9,3727.8 3580.5,3721.6 L 3581.9,3718.2 3589.7,3721.5 C 3612.0,3731.1 3636.5,3733.0 3656.9,3726.8 3677.4,3720.6 3701.9,3703.0 3712.9,3686.5 3721.1,3674.1 3724.1,3662.0 3721.6,3650.1 3719.6,3640.7 3715.5,3633.3 3707.0,3623.6 3680.3,3593.4 3659.5,3587.9 3628.2,3602.7 3615.2,3608.8 3603.2,3617.7 3590.5,3630.4 3577.1,3643.8 3568.5,3655.4 3559.5,3672.3 3546.4,3696.5 3499.6,3757.4 3475.0,3782.1 3461.1,3796.1 3450.2,3804.3 3436.6,3811.0 3424.7,3816.9 3417.1,3819.0 3407.8,3819.0 3401.9,3819.0 3400.9,3818.7 3399.6,3816.7 3397.2,3813.2 3395.7,3792.7 3396.5,3776.0 3397.2,3760.6 3399.4,3737.3 3400.2,3736.5 3400.4,3736.3 3405.1,3735.6 3410.6,3734.9 3438.4,3731.9 3463.8,3723.3 3480.5,3711.5 3490.1,3704.7 3500.2,3693.3 3504.6,3684.4 3508.0,3677.6 3508.5,3675.5 3508.9,3668.4 3509.3,3657.8 3507.1,3651.0 3498.8,3636.9 3487.9,3618.4 3476.0,3608.7 3460.9,3605.9 3452.8,3604.4 3442.2,3606.3 3432.2,3611.0 3408.2,3622.2 3383.1,3652.9 3371.5,3685.5 L 3368.2,3694.5 3363.4,3696.3 C 3356.4,3699.0 3331.3,3706.2 3311.2,3711.4 3295.6,3715.4 3293.8,3715.7 3293.3,3714.2 3270.4,3647.6 3225.8,3600.7 3166.5,3580.8 3161.0,3579.0 3156.3,3577.4 3156.1,3577.3 3155.9,3577.2 3160.1,3572.5 3165.5,3566.8 3208.8,3521.3 3237.0,3463.7 3237.3,3420.5 3237.4,3409.5 3237.1,3407.7 3234.2,3399.2 3217.3,3349.6 3188.4,3324.3 3146.5,3322.6 3141.0,3322.4 3134.7,3322.4 3132.5,3322.6 Z M 3052.0,3608.1 C 3040.4,3616.0 3014.4,3629.9 3015.2,3627.8 3015.5,3627.1 3016.6,3623.2 3017.6,3619.3 L 3019.4,3612.1 3024.7,3611.0 C 3030.1,3609.8 3048.0,3607.3 3051.5,3607.1 3053.2,3607.0 3053.3,3607.2 3052.0,3608.1 Z M 3144.6,3611.1 C 3184.8,3618.0 3212.3,3630.4 3233.3,3650.9 3243.4,3660.7 3251.0,3671.5 3257.4,3685.1 3261.6,3693.9 3266.9,3709.9 3268.4,3718.0 L 3269.0,3721.5 3228.7,3729.8 C 3133.0,3749.6 3088.9,3762.1 3045.9,3781.6 3008.3,3798.6 2975.9,3822.5 2958.6,3846.2 2955.9,3849.9 2953.5,3852.8 2953.4,3852.7 2953.2,3852.5 2963.8,3813.8 2976.8,3766.6 L 3000.6,3680.8 3013.0,3675.1 C 3041.7,3662.0 3075.9,3641.2 3107.5,3617.6 L 3120.5,3607.8 3126.8,3608.5 C 3130.3,3608.8 3138.3,3610.0 3144.6,3611.1 Z M 2965.8,3638.9 C 2962.0,3651.7 2963.7,3650.4 2945.5,3654.5 2934.1,3657.1 2929.0,3657.6 2929.0,3656.2 2929.0,3654.4 2936.4,3646.9 2942.9,3642.1 2949.3,3637.3 2968.1,3626.7 2968.8,3627.4 2968.9,3627.6 2967.6,3632.8 2965.8,3638.9 Z M 3686.2,3635.7 C 3689.1,3638.6 3689.5,3639.7 3689.8,3645.8 3690.2,3651.7 3689.8,3653.4 3687.5,3658.0 3683.8,3665.2 3677.1,3672.1 3667.5,3678.5 3649.0,3690.9 3639.8,3693.3 3613.8,3692.8 3604.1,3692.6 3595.8,3692.2 3595.5,3691.8 3595.1,3691.4 3596.7,3688.3 3599.0,3684.8 3614.8,3661.4 3638.3,3642.1 3660.1,3634.5 3666.1,3632.5 3669.0,3632.0 3675.2,3632.2 3682.5,3632.5 3683.2,3632.7 3686.2,3635.7 Z M 3473.4,3641.3 C 3475.0,3643.5 3475.5,3645.6 3475.5,3650.8 3475.5,3670.7 3454.7,3688.1 3419.7,3697.5 3408.9,3700.4 3408.0,3700.5 3408.0,3698.5 3408.0,3695.6 3415.7,3679.2 3420.5,3671.9 3426.0,3663.5 3438.1,3651.0 3445.5,3646.0 3457.7,3637.7 3469.2,3635.7 3473.4,3641.3 Z M 3272.0,3766.9 C 3272.0,3788.8 3263.4,3823.6 3251.2,3850.9 3230.1,3898.0 3194.6,3942.6 3159.1,3966.3 3126.4,3988.3 3087.1,3998.6 3044.0,3996.5 3012.5,3995.1 2995.5,3989.5 2982.2,3976.4 2963.8,3958.1 2963.2,3930.5 2980.5,3896.0 2996.5,3864.1 3021.8,3840.4 3059.5,3822.0 3092.9,3805.7 3120.3,3797.2 3205.5,3776.6 3229.7,3770.8 3254.2,3764.7 3260.0,3763.1 3265.8,3761.6 3270.8,3760.2 3271.3,3760.1 3271.7,3760.1 3272.0,3763.1 3272.0,3766.9 Z" />
		<path style="fill:#000000;" d="M 2379.0,3566.6 C 2371.1,3568.7 2358.5,3575.0 2351.4,3580.4 2342.6,3587.0 2329.1,3601.5 2322.6,3611.3 2311.5,3628.0 2302.2,3651.1 2297.3,3673.9 2295.1,3684.4 2294.4,3686.2 2289.8,3693.0 2222.2,3791.5 2169.7,3837.3 2140.4,3823.4 2129.1,3818.0 2121.5,3803.2 2117.9,3779.5 2116.7,3771.7 2116.0,3736.6 2117.0,3735.7 2117.3,3735.5 2121.8,3735.9 2127.0,3736.7 2139.3,3738.6 2167.3,3737.9 2178.0,3735.5 2197.0,3731.3 2214.8,3721.6 2230.0,3707.3 2253.2,3685.5 2260.9,3665.2 2256.6,3637.2 2254.5,3623.6 2252.5,3619.3 2243.9,3610.4 2233.0,3599.3 2218.1,3589.7 2204.0,3584.8 2199.2,3583.2 2197.6,3583.1 2190.5,3584.1 2151.9,3589.4 2112.7,3619.7 2092.5,3659.9 2088.1,3668.8 2082.7,3684.8 2081.0,3694.5 2078.7,3707.3 2059.8,3743.9 2040.5,3773.0 2018.0,3806.8 1993.6,3832.0 1977.9,3837.5 1971.3,3839.9 1969.5,3839.5 1967.6,3835.5 1960.9,3821.4 1960.4,3788.5 1966.5,3758.4 1971.2,3735.0 1993.1,3673.8 2018.3,3613.2 L 2023.8,3600.0 2015.7,3593.2 C 2011.2,3589.5 2002.7,3582.5 1996.8,3577.7 L 1986.0,3568.9 1960.2,3607.7 C 1931.9,3650.4 1920.3,3668.7 1905.0,3695.0 1883.6,3731.5 1864.2,3760.9 1860.5,3762.4 1858.0,3763.3 1857.7,3760.8 1858.3,3747.2 1859.4,3721.2 1867.6,3687.8 1889.3,3620.8 1892.5,3610.9 1893.4,3606.8 1892.6,3606.1 1887.3,3601.8 1860.6,3585.0 1860.0,3585.7 1858.7,3587.1 1847.3,3616.9 1841.6,3633.9 1831.3,3664.0 1824.1,3691.6 1818.9,3720.6 1817.2,3729.7 1816.7,3736.5 1816.6,3749.5 1816.6,3765.4 1816.8,3767.0 1819.3,3774.7 1825.0,3791.6 1835.6,3800.7 1854.2,3804.6 1863.5,3806.6 1868.7,3806.6 1873.3,3804.6 1886.5,3799.1 1905.1,3778.7 1918.1,3755.2 1920.9,3750.1 1923.4,3746.1 1923.7,3746.3 1923.9,3746.6 1923.6,3753.7 1922.9,3762.1 1921.5,3780.0 1922.3,3808.1 1924.4,3818.7 1926.7,3829.9 1929.5,3835.4 1936.1,3841.3 1950.5,3854.3 1980.5,3866.9 1994.9,3865.8 1999.0,3865.5 2003.3,3864.0 2011.1,3860.3 2025.0,3853.7 2032.5,3848.5 2043.4,3838.0 2054.4,3827.4 2063.9,3814.9 2075.5,3795.6 2082.4,3784.2 2084.6,3781.2 2085.1,3782.6 2085.5,3783.7 2087.5,3789.7 2089.5,3796.0 2091.5,3802.3 2094.3,3809.7 2095.8,3812.3 2102.3,3824.3 2128.1,3842.5 2151.1,3851.2 2158.7,3854.1 2160.6,3854.4 2170.5,3854.4 2184.5,3854.5 2194.4,3851.9 2209.7,3844.5 2234.5,3832.4 2254.0,3813.4 2283.6,3772.6 L 2291.5,3761.6 2292.7,3773.1 C 2296.2,3804.7 2300.4,3814.5 2317.1,3830.4 2330.8,3843.4 2349.5,3855.0 2366.0,3860.6 2382.1,3866.1 2406.0,3859.2 2430.0,3842.3 2441.0,3834.5 2471.1,3805.0 2483.4,3789.8 2487.8,3784.4 2491.5,3780.2 2491.8,3780.4 2492.0,3780.7 2491.2,3789.7 2489.9,3800.4 2488.7,3811.2 2487.9,3820.2 2488.1,3820.3 2489.3,3821.3 2522.9,3836.0 2523.9,3836.0 2524.5,3836.0 2525.0,3835.4 2525.0,3834.6 2525.0,3831.8 2532.2,3809.4 2537.7,3795.0 2553.8,3752.8 2577.2,3712.9 2604.4,3681.1 2611.4,3672.9 2626.8,3658.4 2627.6,3659.3 2627.8,3659.4 2625.4,3666.9 2622.4,3675.9 2604.8,3728.3 2591.3,3788.6 2585.8,3839.0 2583.9,3856.8 2584.2,3893.3 2586.4,3905.5 2589.8,3924.2 2595.1,3937.4 2602.9,3946.2 2610.4,3954.6 2628.7,3965.3 2647.5,3972.0 2666.8,3979.0 2675.6,3976.3 2694.1,3958.0 2714.2,3938.0 2737.0,3904.0 2756.9,3864.1 2763.4,3851.3 2773.6,3827.2 2772.8,3826.6 2772.7,3826.4 2765.6,3820.8 2757.2,3814.1 2748.7,3807.3 2741.5,3802.2 2741.1,3802.6 2740.7,3803.1 2739.1,3806.4 2737.5,3810.0 2732.8,3821.0 2715.5,3855.2 2708.9,3866.6 2686.6,3905.4 2663.5,3932.1 2643.9,3942.1 2636.1,3946.0 2632.7,3945.9 2630.2,3941.7 2622.3,3928.9 2618.9,3893.7 2622.5,3862.6 2625.2,3839.3 2630.2,3818.5 2655.1,3727.3 2671.6,3666.6 2673.4,3659.0 2673.4,3648.5 2673.5,3641.8 2673.0,3638.6 2671.7,3636.0 2669.5,3631.6 2648.3,3607.5 2643.3,3603.7 2637.9,3599.6 2632.5,3600.2 2624.1,3606.0 2604.2,3619.4 2568.1,3655.9 2549.6,3681.2 2546.9,3684.9 2544.5,3687.8 2544.3,3687.6 2543.6,3687.0 2546.1,3659.4 2548.1,3645.8 2549.1,3638.3 2551.3,3627.2 2552.8,3621.1 L 2555.6,3610.1 2542.4,3596.9 C 2527.6,3582.1 2527.6,3582.1 2523.9,3590.8 2519.4,3601.1 2512.5,3633.1 2507.5,3666.0 2504.9,3683.3 2504.8,3683.6 2499.7,3692.5 2486.4,3715.8 2466.6,3746.0 2452.6,3764.0 2420.0,3806.1 2368.5,3837.9 2348.3,3828.3 2341.0,3824.9 2333.8,3810.9 2330.4,3793.5 2327.7,3780.1 2327.9,3751.2 2330.9,3732.0 2332.1,3724.0 2333.4,3717.2 2333.8,3716.9 2334.2,3716.6 2339.0,3716.7 2344.5,3717.2 2356.9,3718.4 2379.8,3717.5 2391.6,3715.5 2402.6,3713.5 2416.7,3708.9 2424.0,3704.8 2463.7,3682.3 2476.9,3654.7 2463.2,3622.3 2453.5,3599.1 2427.8,3575.0 2404.1,3566.9 2397.6,3564.6 2386.9,3564.5 2379.0,3566.6 Z M 2422.0,3603.1 C 2427.2,3605.9 2432.5,3612.5 2434.0,3617.8 2435.7,3624.0 2435.2,3634.3 2432.9,3640.4 2424.2,3663.9 2388.8,3683.2 2350.1,3685.6 L 2339.8,3686.3 2340.5,3682.9 C 2343.6,3668.0 2354.1,3643.5 2363.2,3630.3 2369.0,3621.9 2380.7,3610.4 2387.4,3606.5 2399.2,3599.6 2413.2,3598.2 2422.0,3603.1 Z M 2222.8,3624.4 C 2234.6,3630.6 2231.4,3646.3 2214.8,3663.5 2194.6,3684.7 2161.7,3699.5 2130.3,3701.7 2124.3,3702.1 2122.0,3702.0 2122.0,3701.1 2122.0,3698.6 2129.2,3682.4 2133.7,3674.7 2149.7,3647.3 2173.7,3628.3 2199.1,3623.0 2205.8,3621.6 2218.9,3622.4 2222.8,3624.4 Z" />
	</g>
</g>
</svg>