<?xml version="1.0" standalone="no"?>
<!DOCTYPE svg PUBLIC "-//W3C//DTD SVG 20010904//EN"
 "http://www.w3.org/TR/2001/REC-SVG-20010904/DTD/svg10.dtd">
<svg version="1.0" xmlns="http://www.w3.org/2000/svg"
 width="5001.000000pt" height="5001.000000pt" viewBox="0 0 5001.000000 5001.000000"
 preserveAspectRatio="xMidYMid meet">

<g transform="translate(0.000000,5001.000000) scale(0.100000,-0.100000)"
fill="#000000" stroke="none">
<path d="M24944 41192 c-111 -61 -190 -149 -250 -277 -34 -75 -74 -214 -74
-262 0 -17 -2 -32 -5 -35 -3 -2 -36 11 -74 30 -131 65 -256 53 -375 -38 -57
-43 -83 -80 -55 -80 22 0 144 -77 197 -125 71 -64 140 -171 175 -274 26 -73
30 -101 31 -186 0 -116 -12 -164 -57 -232 -102 -152 -299 -112 -511 105 l-49
50 21 29 c37 52 55 127 50 206 -8 105 -39 176 -109 251 -75 81 -137 110 -229
110 -224 -2 -343 -249 -233 -483 36 -76 116 -154 181 -177 l52 -19 0 -140 c0
-212 -26 -326 -81 -355 -70 -38 -290 105 -473 306 l-54 60 25 74 c33 99 28
174 -17 266 -56 115 -176 183 -298 171 -54 -6 -168 -54 -166 -70 1 -5 234
-517 519 -1139 l519 -1131 120 7 c723 38 1806 38 2561 0 l120 -6 514 1123
c283 618 516 1131 519 1141 3 14 -9 24 -54 45 -85 39 -186 39 -266 0 -149 -73
-212 -239 -157 -414 l23 -75 -119 -117 c-180 -174 -339 -271 -400 -243 -62 28
-85 120 -85 337 l0 161 38 13 c133 48 232 204 232 366 0 151 -87 265 -226 296
-142 32 -298 -74 -365 -249 -41 -108 -24 -256 38 -324 16 -17 14 -21 -28 -64
-117 -121 -252 -196 -352 -197 -137 -1 -217 97 -225 278 -11 249 128 481 361
606 l59 31 -39 40 c-53 54 -151 101 -223 106 -66 5 -153 -17 -217 -55 l-43
-25 0 29 c0 58 -42 201 -85 290 -52 107 -133 200 -216 250 -78 45 -87 46 -145
15z"/>
<path d="M21590 37221 c-55 -17 -110 -53 -125 -81 -45 -88 2 -197 149 -345
119 -120 193 -176 418 -318 285 -179 562 -379 1234 -888 366 -277 519 -387
906 -654 135 -93 244 -172 242 -174 -2 -2 -36 -15 -76 -28 -535 -180 -899
-632 -1032 -1283 -49 -242 -58 -337 -63 -692 l-5 -338 -82 -67 c-44 -36 -149
-134 -231 -217 -173 -174 -272 -291 -440 -524 -4 -5 -254 113 -475 223 -1188
594 -2326 1391 -2971 2080 -342 364 -600 738 -769 1115 -29 63 -93 221 -142
350 -210 549 -320 772 -443 895 -64 65 -113 88 -198 93 -160 10 -237 -77 -237
-265 0 -277 181 -666 519 -1118 441 -589 1093 -1339 1597 -1836 475 -467 775
-707 1298 -1035 l78 -49 -318 -6 c-668 -14 -1353 -91 -2244 -254 -2776 -508
-6513 -1795 -9430 -3246 -1414 -703 -2365 -1291 -3031 -1876 -765 -670 -1181
-1251 -1311 -1833 -20 -91 -23 -132 -23 -305 0 -156 4 -219 18 -285 61 -283
191 -545 403 -810 96 -120 327 -348 475 -471 478 -394 1648 -1141 2634 -1681
1121 -614 2155 -1063 3007 -1304 501 -142 1197 -271 1778 -330 212 -21 777
-30 978 -15 914 69 1685 374 2410 954 387 309 639 570 1997 2072 1293 1429
1692 1861 2261 2450 221 228 568 569 625 613 11 8 -3 -45 -42 -161 -92 -276
-147 -528 -194 -887 -18 -144 -36 -229 -80 -385 -122 -435 -351 -1383 -485
-2010 -70 -328 -100 -512 -160 -985 -28 -223 -60 -466 -71 -540 -81 -540 -213
-880 -424 -1093 -106 -107 -236 -212 -600 -485 -561 -420 -694 -544 -778 -720
-25 -54 -29 -72 -25 -127 7 -112 64 -160 178 -151 266 21 761 356 1251 845
409 409 629 721 862 1224 158 339 284 664 438 1127 54 162 100 288 103 280 3
-8 15 -53 26 -100 12 -47 45 -168 75 -270 203 -695 452 -1236 903 -1960 557
-895 1378 -1933 2011 -2543 189 -182 429 -303 704 -354 72 -14 147 -18 342
-18 220 0 264 3 363 23 194 39 347 102 512 210 145 95 527 490 886 917 656
780 1236 1615 1640 2360 273 504 481 1046 642 1675 11 42 22 68 25 60 4 -8 41
-121 83 -250 243 -749 531 -1396 782 -1760 411 -597 1208 -1291 1652 -1440
179 -60 285 -23 306 108 21 133 -108 315 -386 543 -58 48 -258 201 -445 341
-483 363 -599 466 -708 633 -119 183 -210 458 -272 820 -14 83 -50 346 -80
585 -30 239 -69 517 -85 617 -75 446 -360 1673 -559 2403 -51 187 -74 291 -85
390 -40 334 -121 704 -210 954 -25 71 -44 131 -41 134 7 7 632 -617 899 -898
462 -485 824 -878 1681 -1825 1707 -1887 1952 -2143 2361 -2461 667 -518 1345
-798 2184 -900 181 -22 712 -30 947 -15 748 49 1663 228 2378 466 1282 427
2969 1299 4526 2341 739 493 1087 802 1342 1189 318 483 370 991 156 1524
-174 437 -536 903 -1089 1405 -707 641 -1648 1236 -3120 1969 -2824 1408
-6433 2669 -9195 3211 -992 194 -1772 289 -2504 304 l-325 7 190 122 c330 212
524 358 804 604 544 478 1226 1228 1890 2079 276 354 465 673 549 927 97 293
72 500 -66 559 -48 21 -159 17 -210 -6 -161 -72 -288 -300 -548 -980 -192
-502 -374 -823 -682 -1199 -519 -635 -1433 -1350 -2528 -1979 -308 -176 -755
-408 -1025 -530 -111 -50 -116 -51 -130 -33 -8 10 -44 59 -80 107 -145 199
-383 453 -569 608 l-94 78 2 232 c5 538 -70 952 -235 1296 -182 379 -492 661
-859 780 -38 12 -73 26 -78 29 -4 4 41 40 100 81 393 269 704 493 1016 728
427 325 640 482 853 634 149 106 219 152 519 347 299 193 487 407 472 537 -10
91 -113 151 -241 140 -151 -12 -304 -117 -519 -355 -361 -400 -581 -598 -1092
-980 -452 -339 -1032 -748 -1369 -965 l-148 -96 -184 0 -184 0 -142 91 c-341
220 -979 669 -1439 1015 -359 270 -585 468 -839 735 -288 302 -432 442 -495
479 -112 66 -237 94 -315 71z m-467 -5617 c22 -5 -37 -20 -230 -59 -806 -164
-1732 -453 -2864 -895 -722 -283 -1330 -542 -2823 -1207 -1728 -769 -2210
-958 -2818 -1107 -906 -222 -2169 -357 -3658 -391 l-265 -6 45 27 c58 34 526
264 830 406 654 306 1393 625 2175 938 3302 1323 6405 2164 8445 2290 96 6
195 12 220 14 76 6 913 -2 943 -10z m8773 6 c1398 -80 3060 -425 5139 -1066
2024 -625 4550 -1621 6175 -2436 l335 -168 -260 5 c-1356 29 -2597 152 -3475
346 -724 160 -1134 318 -3160 1219 -1230 547 -1797 791 -2400 1032 -1260 505
-2284 831 -3155 1007 -312 63 -303 65 296 69 180 1 407 -3 505 -8z m-7904
-265 c192 -104 209 -115 187 -124 -13 -6 -341 -136 -729 -290 -951 -377 -1292
-507 -1705 -652 -259 -90 -1797 -597 -1789 -589 5 4 198 135 429 290 639 431
1235 841 1615 1111 41 29 600 172 930 239 253 51 559 98 790 123 19 2 41 5 48
5 7 1 108 -50 224 -113z m6488 84 c394 -50 811 -136 1295 -266 l210 -56 215
-152 c360 -254 836 -580 1732 -1184 70 -47 126 -86 125 -87 -1 -1 -411 135
-912 301 -916 304 -1163 390 -1640 573 -353 136 -1678 662 -1687 670 -4 4 84
57 195 119 232 128 180 118 467 82z m-6365 -529 c-58 -147 -124 -406 -150
-585 -9 -60 -17 -110 -18 -111 -1 0 -60 -42 -132 -91 -1377 -956 -3421 -1915
-5480 -2572 -574 -184 -983 -300 -1695 -481 -488 -124 -650 -169 -995 -276
-404 -126 -1003 -332 -1473 -507 -95 -36 -172 -64 -170 -62 2 2 102 63 223
136 605 364 1119 692 2200 1406 904 596 1018 665 1439 869 686 331 1324 571
3001 1129 1268 422 1429 480 2655 969 338 134 616 243 617 242 2 -1 -8 -31
-22 -66z m6255 -131 c1265 -504 1496 -589 2645 -971 1778 -592 2362 -810 3050
-1136 472 -223 583 -290 1595 -957 723 -476 1012 -664 1382 -898 264 -167 796
-493 891 -547 63 -35 71 -49 16 -26 -92 38 -765 278 -1027 367 -625 211 -939
303 -1592 469 -516 131 -815 213 -1210 331 -1756 526 -3491 1260 -4925 2081
-348 200 -709 426 -975 612 -79 56 -148 104 -153 107 -5 4 -18 62 -28 130 -29
191 -96 442 -166 627 -4 10 0 10 18 3 13 -6 229 -92 479 -192z m-9096 83
c-147 -106 -1283 -875 -1844 -1248 -328 -219 -351 -232 -475 -279 -429 -159
-886 -355 -1250 -535 -415 -204 -528 -273 -1405 -852 -261 -173 -476 -311
-478 -307 -11 25 248 1051 272 1076 6 6 135 65 286 131 151 66 661 291 1133
501 1728 768 2623 1137 3482 1435 105 37 213 75 240 85 72 27 83 25 39 -7z
m11684 -58 c894 -311 1816 -690 3520 -1448 449 -200 954 -423 1122 -496 168
-73 308 -136 313 -139 20 -19 287 -1075 275 -1087 -2 -1 -196 126 -433 282
-859 568 -1010 661 -1370 844 -343 174 -754 353 -1239 539 l-239 92 -501 336
c-858 576 -1679 1133 -1701 1155 -13 14 1 9 253 -78z m-8999 -1466 c26 -278
85 -618 141 -813 19 -66 19 -70 2 -86 -9 -9 -111 -103 -227 -211 -1687 -1564
-2664 -2382 -3423 -2862 -725 -460 -1734 -896 -2827 -1224 -385 -116 -973
-277 -981 -269 -2 2 26 25 63 53 572 419 2146 2034 4061 4165 l203 226 282
129 c957 436 1882 945 2562 1408 l110 75 11 -234 c7 -128 17 -289 23 -357z
m6229 518 c663 -457 1675 -1011 2652 -1450 l195 -88 140 -156 c220 -246 915
-1009 1190 -1307 758 -821 1180 -1261 1789 -1871 595 -594 863 -843 1125
-1042 51 -40 90 -72 85 -72 -11 0 -387 100 -589 156 -1074 301 -2015 667
-2780 1081 -874 474 -1842 1251 -3679 2952 -176 163 -344 319 -373 346 l-54
50 35 140 c86 338 132 693 143 1103 3 127 8 232 10 232 3 0 53 -33 111 -74z
m-14361 -1258 c-27 -74 -186 -729 -237 -978 -17 -85 -37 -160 -43 -166 -7 -7
-139 -93 -295 -193 -1641 -1052 -2886 -1733 -4170 -2280 -216 -92 -591 -243
-1232 -496 -697 -275 -1074 -441 -1570 -691 -261 -131 -574 -299 -740 -397
l-45 -26 -121 108 c-282 254 -461 516 -531 778 -23 86 -26 118 -27 258 -1 180
13 261 71 430 218 630 926 1361 2043 2110 326 219 649 416 993 609 l119 66
306 0 c1150 0 2516 106 3432 266 699 122 1182 263 1865 543 185 76 189 77 182
59z m22440 -22 c422 -180 978 -368 1348 -456 1009 -238 2579 -389 4039 -390
l309 0 86 -47 c272 -148 690 -402 996 -606 1261 -842 1980 -1626 2126 -2320
28 -131 30 -334 5 -452 -46 -214 -177 -448 -364 -649 -90 -96 -284 -276 -299
-276 -7 0 -126 63 -265 141 -303 168 -869 451 -1171 584 -301 133 -546 233
-1172 479 -624 246 -909 364 -1265 521 -1038 460 -2096 1034 -3360 1823 -331
207 -800 509 -819 527 -8 7 -31 98 -52 202 -30 144 -181 769 -225 931 -4 12
-4 22 -1 22 3 0 41 -15 84 -34z m-13986 -531 c38 -77 91 -169 118 -205 l50
-65 -62 -54 c-114 -99 -471 -464 -568 -581 -126 -151 -238 -301 -341 -455 -59
-88 -92 -128 -113 -136 -62 -26 -199 -110 -303 -186 -255 -185 -557 -456 -977
-878 -481 -482 -905 -939 -2010 -2165 -1559 -1731 -1879 -2066 -2272 -2378
-503 -398 -1053 -660 -1638 -780 -281 -58 -544 -82 -898 -82 -426 0 -821 41
-1326 136 -181 34 -572 119 -601 130 -9 4 13 16 55 31 354 127 495 180 715
268 714 287 1284 579 1710 878 214 150 354 271 665 577 654 643 1194 1125
1824 1629 627 501 1108 829 1505 1028 520 260 902 498 1401 872 639 479 1556
1276 2850 2479 121 112 131 119 139 99 5 -12 39 -85 77 -162z m6179 -415
c1026 -942 1778 -1587 2350 -2015 473 -354 858 -594 1335 -832 348 -174 670
-382 1150 -741 707 -530 1466 -1192 2265 -1977 157 -154 342 -326 413 -383
535 -429 1414 -870 2507 -1258 113 -40 198 -75 190 -78 -70 -24 -581 -128
-843 -171 -625 -104 -1208 -124 -1712 -60 -720 92 -1394 395 -1998 898 -360
300 -738 698 -2172 2292 -1173 1303 -1581 1741 -2121 2275 -528 522 -860 800
-1125 939 l-89 47 -90 133 c-113 165 -240 333 -366 482 -109 127 -461 482
-541 544 -29 22 -52 43 -53 47 0 4 22 36 50 72 46 62 163 281 188 354 l12 34
202 -189 c112 -104 313 -290 448 -413z m-10276 143 c-1650 -1813 -2863 -3060
-3459 -3557 -269 -224 -521 -357 -795 -418 -93 -20 -131 -23 -325 -23 -173 0
-238 4 -305 18 -379 80 -666 210 -1295 585 -244 146 -417 236 -617 320 -461
195 -1002 323 -1473 348 l-127 7 63 29 c1127 518 2182 946 3079 1249 565 191
989 317 1940 574 1280 346 1820 514 2665 830 287 108 759 293 895 353 25 11
47 18 49 16 2 -2 -131 -151 -295 -331z m13686 195 c809 -325 1521 -571 2322
-802 278 -80 460 -130 1203 -331 773 -209 1324 -376 1910 -582 797 -280 1669
-634 2615 -1064 l295 -134 -115 -7 c-474 -31 -969 -143 -1408 -319 -200 -80
-448 -206 -687 -349 -651 -389 -964 -528 -1330 -590 -113 -19 -155 -21 -320
-17 -122 3 -217 11 -265 22 -262 58 -529 192 -769 388 -559 455 -1888 1818
-3440 3527 -167 184 -318 350 -335 368 l-31 34 40 -17 c22 -9 164 -66 315
-127z m-6255 -277 c1232 -150 2084 -648 2594 -1515 104 -176 291 -579 276
-594 -20 -21 -544 -119 -915 -172 -1570 -225 -3268 -237 -4877 -35 -521 66
-1173 185 -1173 215 0 21 127 306 190 427 231 441 509 768 880 1033 487 348
1126 571 1847 645 230 23 226 23 628 20 309 -3 412 -7 550 -24z m-15543 -2877
c344 -34 683 -114 1028 -245 304 -114 543 -232 898 -442 559 -332 877 -471
1255 -548 56 -11 103 -21 104 -23 1 -1 -327 -82 -730 -180 -1048 -254 -2936
-725 -3452 -861 -664 -175 -1173 -319 -1507 -427 l-158 -50 -132 78 c-583 342
-1476 925 -1665 1088 l-25 22 218 116 c756 401 1613 783 2925 1303 433 172
432 172 699 184 194 8 354 4 542 -15z m30585 1 l132 -15 478 -191 c987 -394
1568 -645 2220 -957 236 -113 660 -330 791 -405 l43 -24 -108 -80 c-371 -272
-903 -620 -1477 -963 l-238 -143 -192 61 c-712 227 -2056 579 -4391 1147
-1041 254 -1282 313 -1271 314 59 5 291 62 401 98 300 98 535 215 1080 538
161 95 529 277 690 340 629 248 1254 343 1842 280z m-24072 -593 c-6 -5 -89
-69 -185 -142 -605 -462 -1023 -827 -1816 -1585 -509 -487 -772 -707 -1124
-940 -543 -360 -1227 -668 -2213 -996 -164 -54 -306 -99 -317 -99 -43 0 -478
150 -790 273 -622 244 -1396 616 -2152 1034 -115 63 -208 118 -208 122 0 9 28
18 412 131 758 225 1583 435 3758 960 2492 601 3538 879 4340 1151 296 100
310 105 295 91z m17120 -88 c814 -275 1922 -568 4435 -1174 1181 -285 2353
-576 2850 -709 549 -147 1240 -348 1240 -361 0 -3 -87 -54 -192 -113 -757
-419 -1502 -778 -2147 -1034 -344 -136 -768 -283 -817 -283 -10 0 -158 47
-328 104 -1207 404 -1954 769 -2564 1253 -232 184 -392 327 -822 737 -417 398
-481 458 -697 652 -339 303 -724 621 -1068 883 -82 63 -157 121 -165 129 -13
13 -13 14 5 7 11 -4 133 -45 270 -91z m-4885 -1052 c-21 -295 -71 -645 -130
-910 -10 -47 -22 -88 -27 -92 -17 -17 -464 -114 -818 -179 -981 -180 -1882
-276 -2690 -288 -748 -10 -1513 51 -2460 198 -575 89 -1317 239 -1352 273 -16
15 -76 317 -107 536 -42 296 -68 640 -48 640 4 0 55 -18 114 -39 650 -237
1522 -386 2698 -462 262 -17 1405 -23 1742 -10 1152 46 2105 190 2828 427 107
36 209 70 225 78 17 7 32 9 34 4 2 -6 -2 -85 -9 -176z m-6542 -3086 c456 -115
1088 -199 1787 -236 484 -26 1575 -21 2060 10 571 37 1125 113 1541 211 92 21
172 39 177 39 17 0 -279 -558 -487 -917 l-101 -176 -100 -39 c-157 -61 -445
-152 -620 -196 -414 -106 -758 -154 -1206 -171 -847 -32 -1506 47 -2164 259
-166 53 -376 129 -401 145 -31 20 -285 469 -517 916 -48 92 -87 170 -87 173 0
10 16 7 118 -18z m1843 -2791 c568 -120 1345 -107 1899 31 23 6 21 3 -15 -36
-111 -116 -307 -258 -462 -332 -362 -174 -837 -151 -1190 58 -161 95 -457 344
-368 311 8 -4 69 -18 136 -32z"/>
<path d="M15288 17285 c-750 -94 -1424 -497 -1908 -1140 -313 -416 -510 -889
-582 -1395 -21 -154 -16 -498 11 -645 98 -548 371 -972 820 -1274 l89 -60 7
-108 c29 -456 143 -844 331 -1129 72 -109 234 -274 331 -338 139 -91 302 -147
483 -166 126 -13 462 -13 591 1 124 12 271 43 357 74 49 18 62 20 62 8 0 -72
33 -702 46 -857 18 -241 33 -321 85 -474 77 -223 191 -411 353 -579 238 -248
489 -372 813 -403 272 -25 543 55 821 242 252 170 576 498 769 780 26 38 44
70 42 72 -3 3 -85 37 -184 75 l-180 71 -20 -27 c-163 -216 -408 -474 -575
-606 -191 -151 -401 -267 -555 -307 -92 -24 -242 -28 -320 -10 -130 32 -257
121 -354 251 -73 96 -168 285 -211 419 -96 294 -150 792 -150 1370 l0 227 113
101 c154 138 647 637 739 748 293 355 531 832 693 1390 146 502 228 1066 204
1403 -34 474 -246 1025 -543 1415 -366 482 -847 764 -1466 862 -144 22 -566
28 -712 9z m831 -381 c485 -71 924 -325 1159 -671 58 -86 119 -213 142 -295
30 -110 67 -342 86 -538 20 -211 14 -672 -10 -865 -110 -863 -452 -1640 -1023
-2327 -68 -82 -243 -272 -243 -264 0 2 -9 55 -20 119 -34 195 -83 341 -126
378 -23 18 -404 183 -410 176 -2 -2 4 -15 15 -28 71 -91 122 -234 141 -394 8
-76 30 -470 30 -557 0 -22 -14 -36 -77 -81 -276 -193 -620 -336 -813 -339 -43
-1 -69 6 -120 32 -322 161 -589 549 -679 990 -23 109 -41 246 -41 306 l0 42
47 -14 c141 -42 266 -58 458 -58 210 0 287 11 515 70 483 126 1075 454 1608
892 57 46 101 86 99 88 -2 2 -100 37 -219 78 l-215 74 -79 -69 c-351 -310
-892 -621 -1329 -763 -253 -83 -499 -119 -672 -98 -91 11 -187 35 -206 52 -11
10 9 194 39 360 118 648 462 1396 903 1960 50 63 91 118 91 121 0 8 -266 219
-277 219 -17 0 -146 -125 -224 -218 -309 -370 -637 -1024 -813 -1623 -47 -160
-99 -389 -111 -491 -4 -32 -11 -58 -16 -58 -15 0 -180 195 -241 284 -198 296
-287 618 -275 996 9 261 57 492 154 740 407 1033 1448 1784 2482 1789 101 1
204 -5 270 -15z"/>
<path d="M31325 16784 c-288 -32 -738 -148 -1060 -275 -143 -56 -462 -217
-593 -299 -596 -374 -1042 -937 -1042 -1316 l0 -72 163 -136 c89 -75 169 -136
178 -136 8 0 40 12 70 28 72 36 75 58 16 116 -45 43 -87 131 -87 182 0 33 77
183 139 271 196 277 599 582 1094 826 568 281 998 399 1402 384 287 -10 425
-73 454 -207 24 -111 8 -259 -44 -416 -38 -116 -162 -359 -260 -513 -162 -254
-451 -616 -639 -800 l-75 -75 -278 -1 c-169 -1 -309 -6 -356 -14 -44 -7 -81
-10 -84 -7 -3 3 59 237 137 521 79 283 141 516 139 518 -2 2 -71 63 -152 136
-84 75 -152 130 -157 125 -10 -10 -163 -483 -337 -1039 -63 -203 -120 -375
-127 -381 -6 -6 -40 -21 -76 -34 -400 -140 -795 -391 -871 -555 -26 -56 -24
-90 12 -192 91 -261 228 -364 487 -365 99 0 112 -2 108 -17 -3 -9 -42 -146
-86 -306 -142 -506 -273 -1042 -324 -1322 l-5 -33 200 0 c110 0 199 -3 197 -7
-94 -195 -123 -313 -121 -498 1 -161 29 -279 101 -428 91 -189 219 -341 402
-479 304 -228 735 -353 1153 -334 244 11 423 58 652 170 240 118 453 273 666
485 410 410 661 893 740 1426 25 169 26 442 3 610 -9 66 -17 133 -18 148 l-1
29 265 88 c146 48 274 92 284 96 17 7 18 4 12 -29 -4 -20 -7 -114 -7 -210 0
-267 39 -477 109 -587 29 -46 133 -136 240 -209 164 -111 342 -165 468 -142
194 35 632 367 854 647 65 82 59 84 76 -26 10 -67 52 -178 90 -238 69 -107
185 -197 340 -266 392 -172 628 -135 1022 161 154 116 323 279 302 293 -8 5
-91 58 -185 118 l-170 110 -40 -30 c-294 -218 -618 -408 -757 -445 -76 -20
-125 -11 -176 32 -90 75 -113 289 -61 575 19 106 68 292 94 354 l14 34 78 -33
c223 -96 468 -115 672 -53 205 62 450 238 560 403 82 124 112 245 87 364 -20
94 -61 168 -146 265 -267 302 -475 357 -788 209 -130 -61 -250 -150 -377 -277
-134 -134 -220 -250 -310 -419 -131 -242 -599 -851 -845 -1098 -139 -140 -248
-222 -384 -289 -119 -59 -195 -80 -288 -80 -59 0 -69 3 -82 23 -24 35 -39 240
-31 407 7 154 29 387 37 395 2 2 49 9 104 16 278 30 532 116 699 234 96 68
197 182 241 271 34 68 39 89 43 160 4 106 -18 174 -101 315 -109 185 -228 282
-379 310 -81 15 -187 -4 -287 -51 -240 -112 -491 -419 -607 -745 l-33 -90 -48
-18 c-70 -27 -321 -99 -522 -151 -156 -40 -174 -43 -179 -28 -229 666 -675
1135 -1268 1334 -55 18 -102 34 -104 35 -2 1 40 48 94 105 433 455 715 1031
718 1463 1 110 -2 128 -31 213 -169 496 -458 749 -877 766 -55 2 -118 2 -140
0z m-805 -2855 c-116 -79 -376 -218 -368 -197 3 7 14 46 24 85 l18 72 53 11
c54 12 233 37 268 39 17 1 18 -1 5 -10z m926 -30 c402 -69 677 -193 887 -398
101 -98 177 -206 241 -342 42 -88 95 -248 110 -329 l6 -35 -403 -83 c-957
-198 -1398 -323 -1828 -518 -376 -170 -700 -409 -873 -646 -27 -37 -51 -66
-52 -65 -2 2 104 389 234 861 l238 858 124 57 c287 131 629 339 945 575 l130
98 63 -7 c35 -3 115 -15 178 -26z m-1788 -278 c-38 -128 -21 -115 -203 -156
-114 -26 -165 -31 -165 -17 0 18 74 93 139 141 64 48 252 154 259 147 1 -2
-12 -54 -30 -115z m7204 32 c29 -29 33 -40 36 -101 4 -59 0 -76 -23 -122 -37
-72 -104 -141 -200 -205 -185 -124 -277 -148 -537 -143 -97 2 -180 6 -183 10
-4 4 12 35 35 70 158 234 393 427 611 503 60 20 89 25 151 23 73 -3 80 -5 110
-35z m-2128 -56 c16 -22 21 -43 21 -95 0 -199 -208 -373 -558 -467 -108 -29
-117 -30 -117 -10 0 29 77 193 125 266 55 84 176 209 250 259 122 83 237 103
279 47z m-2014 -1256 c0 -219 -86 -567 -208 -840 -211 -471 -566 -917 -921
-1154 -327 -220 -720 -323 -1151 -302 -315 14 -485 70 -618 201 -184 183 -190
459 -17 804 160 319 413 556 790 740 334 163 608 248 1460 454 242 58 487 119
545 135 58 15 108 29 113 30 4 0 7 -30 7 -68z"/>
<path d="M23790 14344 c-79 -21 -205 -84 -276 -138 -88 -66 -223 -211 -288
-309 -111 -167 -204 -398 -253 -626 -22 -105 -29 -123 -75 -191 -676 -985
-1201 -1443 -1494 -1304 -113 54 -189 202 -225 439 -12 78 -19 429 -9 438 3 2
48 -2 100 -10 123 -19 403 -12 510 12 190 42 368 139 520 282 232 218 309 421
266 701 -21 136 -41 179 -127 268 -109 111 -258 207 -399 256 -48 16 -64 17
-135 7 -386 -53 -778 -356 -980 -758 -44 -89 -98 -249 -115 -346 -23 -128
-212 -494 -405 -785 -225 -338 -469 -590 -626 -645 -66 -24 -84 -20 -103 20
-67 141 -72 470 -11 771 47 234 266 846 518 1452 l55 132 -81 68 c-45 37 -130
107 -189 155 l-108 88 -258 -388 c-283 -427 -399 -610 -552 -873 -214 -365
-408 -659 -445 -674 -25 -9 -28 16 -22 152 11 260 93 594 310 1264 32 99 41
140 33 147 -53 43 -320 211 -326 204 -13 -14 -127 -312 -184 -482 -103 -301
-175 -577 -227 -867 -17 -91 -22 -159 -23 -289 0 -159 2 -175 27 -252 57 -169
163 -260 349 -299 93 -20 145 -20 191 0 132 55 318 259 448 494 28 51 53 91
56 89 2 -3 -1 -74 -8 -158 -14 -179 -6 -460 15 -566 23 -112 51 -167 117 -226
144 -130 444 -256 588 -245 41 3 84 18 162 55 139 66 214 118 323 223 110 106
205 231 321 424 69 114 91 144 96 130 4 -11 24 -71 44 -134 20 -63 48 -137 63
-163 65 -120 323 -302 553 -389 76 -29 95 -32 194 -32 140 -1 239 25 392 99
248 121 443 311 739 719 l79 110 12 -115 c35 -316 77 -414 244 -573 137 -130
324 -246 489 -302 161 -55 400 14 640 183 110 78 411 373 534 525 44 54 81 96
84 94 2 -3 -6 -93 -19 -200 -12 -108 -20 -198 -18 -199 12 -10 348 -157 358
-157 6 0 11 6 11 14 0 28 72 252 127 396 161 422 395 821 667 1139 70 82 224
227 232 218 2 -1 -22 -76 -52 -166 -176 -524 -311 -1127 -366 -1631 -19 -178
-16 -543 6 -665 34 -187 87 -319 165 -407 75 -84 258 -191 446 -258 193 -70
281 -43 466 140 201 200 429 540 628 939 65 128 167 369 159 375 -1 2 -72 58
-156 125 -85 68 -157 119 -161 115 -4 -5 -20 -38 -36 -74 -47 -110 -220 -452
-286 -566 -223 -388 -454 -655 -650 -755 -78 -39 -112 -38 -137 4 -79 128
-113 480 -77 791 27 233 77 441 326 1353 165 607 183 683 183 788 1 67 -4 99
-17 125 -22 44 -234 285 -284 323 -54 41 -108 35 -192 -23 -199 -134 -560
-499 -745 -752 -27 -37 -51 -66 -53 -64 -7 6 18 282 38 418 10 75 32 186 47
247 l28 110 -132 132 c-148 148 -148 148 -185 61 -45 -103 -114 -423 -164
-752 -26 -173 -27 -176 -78 -265 -133 -233 -331 -535 -471 -715 -326 -421
-841 -739 -1043 -643 -73 34 -145 174 -179 348 -27 134 -25 423 5 615 12 80
25 148 29 151 4 3 52 2 107 -3 124 -12 353 -3 471 17 110 20 251 66 324 107
397 225 529 501 392 825 -97 232 -354 473 -591 554 -65 23 -172 24 -251 3z
m430 -365 c52 -28 105 -94 120 -147 17 -62 12 -165 -11 -226 -87 -235 -441
-428 -828 -452 l-103 -7 7 34 c31 149 136 394 227 526 58 84 175 199 242 238
118 69 258 83 346 34z m-1992 -213 c118 -62 86 -219 -80 -391 -202 -212 -531
-360 -845 -382 -60 -4 -83 -3 -83 6 0 25 72 187 117 264 160 274 400 464 654
517 67 14 198 6 237 -14z"/>
</g>
</svg>
