<?xml version="1.0" encoding="UTF-8"?>
<!DOCTYPE svg PUBLIC "-//W3C//DTD SVG 1.1//EN" "http://www.w3.org/Graphics/SVG/1.1/DTD/svg11.dtd">
<svg xmlns="http://www.w3.org/2000/svg" version="1.1" width="2400px" height="2400px" style="shape-rendering:geometricPrecision; text-rendering:geometricPrecision; image-rendering:optimizeQuality; fill-rule:evenodd; clip-rule:evenodd" xmlns:xlink="http://www.w3.org/1999/xlink">
<g><path style="opacity:0.886" fill="#000000" d="M 895.5,538.5 C 897.834,536.824 898.834,534.491 898.5,531.5C 901.841,532.005 905.174,532.172 908.5,532C 909.943,530.933 911.276,529.766 912.5,528.5C 913.833,529.167 915.167,529.833 916.5,530.5C 943.085,518.972 969.752,507.638 996.5,496.5C 1001.73,501.896 1007.39,506.729 1013.5,511C 1024.26,514.863 1032.1,511.696 1037,501.5C 1039.28,496.682 1038.78,492.182 1035.5,488C 1030.19,484.751 1024.52,482.251 1018.5,480.5C 1017.24,477.278 1017.74,474.278 1020,471.5C 1027.56,463.096 1029.56,453.43 1026,442.5C 1012.68,428.254 1001.02,429.254 991,445.5C 986.586,453.09 982.753,460.924 979.5,469C 965.736,471.486 952.07,474.486 938.5,478C 920.968,484.066 903.301,489.733 885.5,495C 873.966,497.72 862.299,499.053 850.5,499C 847.215,494.046 843.548,489.38 839.5,485C 833.384,480.929 826.717,479.595 819.5,481C 810.762,491.081 810.429,501.414 818.5,512C 826.45,516.824 835.117,519.49 844.5,520C 847.576,520.911 849.909,522.744 851.5,525.5C 843.035,528.617 834.369,531.117 825.5,533C 820.768,535.038 818.601,538.538 819,543.5C 823.158,554.656 830.491,562.989 841,568.5C 849.707,567.136 855.374,562.136 858,553.5C 859.541,549.398 860.707,545.231 861.5,541C 865.568,540.122 869.234,540.955 872.5,543.5C 875.167,541.833 877.833,540.167 880.5,538.5C 882.256,540.191 882.756,542.191 882,544.5C 875.928,546.553 870.928,550.22 867,555.5C 863.667,560.167 860.333,564.833 857,569.5C 852.47,575.171 846.637,577.004 839.5,575C 823.328,569 813.995,557.5 811.5,540.5C 811.722,532.106 816.055,527.272 824.5,526C 818.77,522.938 813.603,519.104 809,514.5C 805.752,508.548 804.752,502.215 806,495.5C 806.485,489.742 807.485,484.075 809,478.5C 813.236,474.307 818.402,472.307 824.5,472.5C 829.734,472.713 834.734,473.88 839.5,476C 844.543,480.712 849.877,485.045 855.5,489C 867.005,489.979 878.338,488.979 889.5,486C 900.167,482 910.833,478 921.5,474C 937.906,469.483 954.239,464.816 970.5,460C 974.942,451.618 979.775,443.452 985,435.5C 996.342,421.529 1009.51,419.695 1024.5,430C 1029.38,433.214 1033.21,437.381 1036,442.5C 1037.21,453.551 1035.71,464.217 1031.5,474.5C 1045.63,482.729 1049.47,494.396 1043,509.5C 1037.33,521.411 1028.17,525.244 1015.5,521C 1007.9,517.901 1001.23,513.401 995.5,507.5C 963.659,520.392 931.159,531.392 898,540.5C 896.624,540.316 895.791,539.649 895.5,538.5 Z"/></g>
<g><path style="opacity:0.864" fill="#000000" d="M 1860.5,511.5 C 1879.94,512.839 1886.94,523.006 1881.5,542C 1885.04,545.872 1888.2,550.038 1891,554.5C 1894.95,567.233 1891.12,576.733 1879.5,583C 1872.9,584.496 1866.23,584.829 1859.5,584C 1851.01,578.957 1842.01,577.623 1832.5,580C 1800.18,590.246 1767.51,599.246 1734.5,607C 1726.73,614.101 1718.4,620.434 1709.5,626C 1702.3,628.895 1694.97,629.228 1687.5,627C 1683.18,624.874 1681.02,621.374 1681,616.5C 1680.83,610.141 1680.33,603.807 1679.5,597.5C 1665.09,590.667 1660.59,579.667 1666,564.5C 1668.26,559.243 1672.09,555.743 1677.5,554C 1683.56,553.261 1689.56,553.594 1695.5,555C 1702.62,557.725 1709.62,560.725 1716.5,564C 1718,564.167 1719.5,564.333 1721,564.5C 1729.79,562.642 1738.62,560.976 1747.5,559.5C 1751.23,560.267 1751.23,561.434 1747.5,563C 1737.3,565.679 1727.3,568.846 1717.5,572.5C 1711.94,572.219 1707.27,570.053 1703.5,566C 1696.75,561.635 1689.41,559.969 1681.5,561C 1675.31,564.194 1672.31,569.36 1672.5,576.5C 1672.3,579.795 1673.13,582.795 1675,585.5C 1680.79,589.306 1686.62,592.972 1692.5,596.5C 1687.46,603.201 1686.3,610.534 1689,618.5C 1692.4,622.203 1696.56,623.369 1701.5,622C 1710.63,618.206 1717.96,612.206 1723.5,604C 1763,595.458 1801.67,584.125 1839.5,570C 1841.5,569.333 1843.5,569.333 1845.5,570C 1850.39,572.277 1855.39,574.277 1860.5,576C 1870.98,578.85 1878.82,575.683 1884,566.5C 1886.72,559.651 1884.88,554.484 1878.5,551C 1874.51,550.358 1870.51,549.858 1866.5,549.5C 1866.37,547.345 1866.87,545.345 1868,543.5C 1875.83,537.566 1877.49,530.232 1873,521.5C 1864.79,518.393 1856.96,519.227 1849.5,524C 1845.08,527.747 1841.42,532.08 1838.5,537C 1815.69,546.934 1792.03,554.268 1767.5,559C 1762.45,559.217 1757.45,559.717 1752.5,560.5C 1752.17,560.167 1751.83,559.833 1751.5,559.5C 1777.1,552.246 1802.43,544.079 1827.5,535C 1830.1,534.117 1832.27,532.617 1834,530.5C 1839.67,519.655 1848.5,513.322 1860.5,511.5 Z"/></g>
<g><path style="opacity:0.77" fill="#000000" d="M 895.5,538.5 C 892.751,541.874 889.085,543.541 884.5,543.5C 884.104,540.956 884.771,538.789 886.5,537C 889.312,535.451 892.312,534.618 895.5,534.5C 895.5,535.833 895.5,537.167 895.5,538.5 Z"/></g>
<g><path style="opacity:0.878" fill="#000000" d="M 341.5,562.5 C 356.931,559.008 367.764,564.341 374,578.5C 374.167,580.667 374.333,582.833 374.5,585C 373.516,591.593 372.349,598.093 371,604.5C 375.802,605.997 380.635,607.497 385.5,609C 389.314,611.481 391.481,614.981 392,619.5C 395.386,634.213 390.553,645.046 377.5,652C 370.609,654.825 363.609,655.158 356.5,653C 350.046,649.689 343.546,646.523 337,643.5C 317.106,651.029 297.606,659.529 278.5,669C 261.734,676.123 246.567,685.623 233,697.5C 229.571,706.127 225.571,714.46 221,722.5C 204.531,741.004 187.197,742.004 169,725.5C 165.156,718.637 162.489,711.304 161,703.5C 156.366,699.868 152.033,695.868 148,691.5C 138.819,674.726 141.985,660.893 157.5,650C 162.455,647.071 167.788,645.237 173.5,644.5C 184.417,646.396 195.084,649.229 205.5,653C 209.5,653.667 213.5,653.667 217.5,653C 248.085,642.374 277.418,629.04 305.5,613C 308.106,611.062 309.939,608.562 311,605.5C 313.469,597.958 315.469,590.291 317,582.5C 321.829,571.678 329.995,565.011 341.5,562.5 Z M 341.5,569.5 C 349.088,568.45 356.088,569.95 362.5,574C 365.393,577.287 367.059,581.12 367.5,585.5C 366.596,591.782 364.763,597.782 362,603.5C 361.097,604.701 359.931,605.535 358.5,606C 350.974,605.499 345.307,608.332 341.5,614.5C 342.833,614.833 344.167,615.167 345.5,615.5C 357.799,612.28 369.799,613.113 381.5,618C 386.198,627.049 385.198,635.383 378.5,643C 371.179,647.663 363.846,647.663 356.5,643C 352.833,640 349.167,637 345.5,634C 342.5,633.333 339.5,633.333 336.5,634C 314.953,644.274 293.286,654.274 271.5,664C 259.178,670.159 247.178,676.826 235.5,684C 231.631,687.534 228.131,691.367 225,695.5C 222.195,702.914 219.195,710.247 216,717.5C 206.607,727.64 195.44,730.473 182.5,726C 178.248,722.419 174.748,718.252 172,713.5C 171.333,710.833 171.333,708.167 172,705.5C 173.667,704.833 175.333,704.167 177,703.5C 177.333,701.167 177.667,698.833 178,696.5C 181.883,692.95 186.049,689.783 190.5,687C 195.022,682.232 194.022,680.232 187.5,681C 180.656,685.589 173.99,690.422 167.5,695.5C 150.559,687.844 146.559,676.01 155.5,660C 164.251,653.474 173.918,651.808 184.5,655C 191.61,657.389 198.61,660.056 205.5,663C 207.5,663.667 209.5,663.667 211.5,663C 246.023,649.905 279.69,634.905 312.5,618C 314.041,616.421 315.208,614.587 316,612.5C 317.741,601.788 320.741,591.454 325,581.5C 329.279,575.707 334.779,571.707 341.5,569.5 Z"/></g>
<g><path style="opacity:0.86" fill="#000000" d="M 1235.5,595.5 C 1241.31,595.9 1246.64,597.734 1251.5,601C 1257.86,605.183 1263.86,609.85 1269.5,615C 1271.89,616.861 1274.55,618.194 1277.5,619C 1317.35,624.457 1357.35,626.124 1397.5,624C 1398.5,623.667 1399.5,623.333 1400.5,623C 1405.8,616.698 1411.47,610.698 1417.5,605C 1435.01,596.179 1446.85,601.012 1453,619.5C 1453.73,626.815 1451.9,633.481 1447.5,639.5C 1457.28,647.61 1460.78,657.943 1458,670.5C 1454.63,682.121 1446.79,687.787 1434.5,687.5C 1423.37,686.878 1415.71,681.378 1411.5,671C 1391.82,670.752 1372.15,670.085 1352.5,669C 1348.3,668.926 1344.3,668.093 1340.5,666.5C 1343.11,665.682 1345.77,665.182 1348.5,665C 1371.84,664.167 1395.17,664.334 1418.5,665.5C 1421.77,679.802 1430.1,683.968 1443.5,678C 1455.28,668.535 1455.94,658.535 1445.5,648C 1440.71,645.825 1436.05,643.659 1431.5,641.5C 1434.11,637.391 1437.27,633.724 1441,630.5C 1447.41,618.415 1444.08,610.748 1431,607.5C 1419.52,610.145 1412.02,617.145 1408.5,628.5C 1407.33,628.833 1406.17,629.167 1405,629.5C 1388.52,630.616 1372.02,630.782 1355.5,630C 1353.11,629.713 1350.78,629.213 1348.5,628.5C 1346.55,629.851 1344.38,630.518 1342,630.5C 1318.82,627.036 1295.65,626.202 1272.5,628C 1265.86,621.024 1258.86,614.357 1251.5,608C 1238.26,600.353 1229.43,603.853 1225,618.5C 1223.04,627.857 1225.88,635.357 1233.5,641C 1237,642.918 1240.34,645.084 1243.5,647.5C 1238.58,650.914 1234.08,654.914 1230,659.5C 1229.86,672.026 1236.03,677.526 1248.5,676C 1255.45,671.385 1262.12,666.385 1268.5,661C 1291.84,661.798 1315.17,662.965 1338.5,664.5C 1338.67,665.822 1338.34,666.989 1337.5,668C 1316.49,667.986 1295.49,667.486 1274.5,666.5C 1265.56,673.589 1255.72,679.255 1245,683.5C 1232.77,681.435 1225.27,674.435 1222.5,662.5C 1223.45,656.423 1226.12,651.256 1230.5,647C 1226.33,642.833 1222.17,638.667 1218,634.5C 1216.95,625.353 1217.62,616.353 1220,607.5C 1223.3,600.948 1228.47,596.948 1235.5,595.5 Z"/></g>
<g><path style="opacity:0.844" fill="#000000" d="M 2205.5,619.5 C 2221.34,620.101 2229.34,628.435 2229.5,644.5C 2229.74,649.434 2228.74,654.101 2226.5,658.5C 2230.36,661.528 2234.36,664.361 2238.5,667C 2244.71,674.902 2246.21,683.735 2243,693.5C 2238.47,705.437 2229.8,711.103 2217,710.5C 2212.84,709.927 2208.68,709.427 2204.5,709C 2196.29,706.226 2188.62,702.393 2181.5,697.5C 2166.63,702.301 2151.63,706.634 2136.5,710.5C 2132.62,709.072 2132.62,707.572 2136.5,706C 2150.83,701.89 2164.99,697.39 2179,692.5C 2178.95,687.842 2180.79,686.676 2184.5,689C 2194.18,701.851 2206.85,706.851 2222.5,704C 2230.48,701.261 2235.64,695.761 2238,687.5C 2240.82,679.259 2238.65,672.759 2231.5,668C 2225.92,666.814 2220.25,666.148 2214.5,666C 2213.69,665.692 2213.03,665.192 2212.5,664.5C 2214.75,660.084 2217.58,656.084 2221,652.5C 2226.21,643.943 2225.38,636.11 2218.5,629C 2212,625.546 2205.66,625.879 2199.5,630C 2192.79,635.041 2187.12,641.041 2182.5,648C 2160.54,656.409 2138.2,663.742 2115.5,670C 2101.53,675.434 2087.37,680.267 2073,684.5C 2068.59,683.512 2068.43,682.012 2072.5,680C 2105.21,667.541 2138.21,655.875 2171.5,645C 2173.5,644 2175.5,643 2177.5,642C 2181.74,637.52 2185.74,632.853 2189.5,628C 2194.52,624.324 2199.86,621.491 2205.5,619.5 Z"/></g>
<g><path style="opacity:0.868" fill="#000000" d="M 554.5,648.5 C 558.308,648.163 561.974,648.663 565.5,650C 571.333,655.833 577.167,661.667 583,667.5C 587.125,672.301 590.458,677.635 593,683.5C 597.251,688.614 602.751,691.114 609.5,691C 643.692,693.203 677.859,695.703 712,698.5C 714.856,698.129 717.689,697.629 720.5,697C 727.366,691.065 735.033,686.398 743.5,683C 765.075,677.597 779.242,685.43 786,706.5C 790.504,721.65 785.67,732.483 771.5,739C 784.48,749.745 786.98,762.578 779,777.5C 769.161,786.781 757.661,789.948 744.5,787C 736.172,782.838 728.172,778.171 720.5,773C 714.678,766.692 710.678,759.359 708.5,751C 688.076,746.582 667.409,743.916 646.5,743C 642.63,742.895 638.963,742.062 635.5,740.5C 636.927,738.453 638.927,737.453 641.5,737.5C 664.451,740.011 687.451,742.344 710.5,744.5C 712.634,744.485 714.634,743.985 716.5,743C 718.385,740.778 720.551,738.944 723,737.5C 724.867,738.377 726.034,739.877 726.5,742C 723.166,746.153 720.5,750.653 718.5,755.5C 722.244,766.412 729.577,773.912 740.5,778C 753.988,783.621 765.488,780.788 775,769.5C 777.594,758.286 774.094,749.453 764.5,743C 760.952,741.059 757.286,739.393 753.5,738C 751.987,735.546 752.654,733.879 755.5,733C 761.676,731.956 767.676,730.289 773.5,728C 776.783,724.603 779.449,720.77 781.5,716.5C 775.325,690.077 760.325,683.244 736.5,696C 732.629,700.907 729.129,706.074 726,711.5C 721.624,708.485 716.791,706.652 711.5,706C 699.346,704.293 687.179,702.793 675,701.5C 673.374,702.018 671.707,702.352 670,702.5C 647.865,700.464 625.698,698.964 603.5,698C 591.027,694.86 583.193,687.027 580,674.5C 573.918,667.747 567.252,661.747 560,656.5C 554.71,659.143 551.71,663.476 551,669.5C 550.069,675.705 551.402,681.372 555,686.5C 559.699,691.534 564.699,696.2 570,700.5C 572.27,703.299 571.936,705.633 569,707.5C 562.769,704.636 556.935,701.136 551.5,697C 546.122,695.936 541.956,697.769 539,702.5C 532.567,711.708 533.234,720.375 541,728.5C 543.441,730.969 546.274,732.802 549.5,734C 556.746,734.452 563.746,733.285 570.5,730.5C 571.386,729.675 571.719,728.675 571.5,727.5C 575.137,727.487 578.137,728.82 580.5,731.5C 576.286,732.274 572.619,734.107 569.5,737C 550.54,744.694 537.374,739.194 530,720.5C 526.983,705.702 532.15,694.868 545.5,688C 543.07,678.917 542.903,669.75 545,660.5C 546.526,655.072 549.693,651.072 554.5,648.5 Z"/></g>
<g><path style="opacity:0.895" fill="#000000" d="M 1575.5,656.5 C 1599.03,655.885 1622.03,659.052 1644.5,666C 1691.19,686.367 1717.69,721.867 1724,772.5C 1725.3,787.482 1725.63,802.482 1725,817.5C 1721.25,843.932 1714.58,869.598 1705,894.5C 1698.49,908.346 1689.66,920.513 1678.5,931C 1672.5,936 1666.5,941 1660.5,946C 1666.57,948.559 1672.9,950.059 1679.5,950.5C 1720.95,946.84 1761.95,940.34 1802.5,931C 1813.69,927.049 1824.69,922.716 1835.5,918C 1842.78,907.722 1851.11,898.389 1860.5,890C 1868.83,886.542 1877.5,885.209 1886.5,886C 1899.2,892.371 1908.04,902.204 1913,915.5C 1914.02,921.171 1915.52,926.671 1917.5,932C 1934.97,937.602 1952.31,943.602 1969.5,950C 1997.56,966.042 2022.06,986.542 2043,1011.5C 2053,1026.83 2063,1042.17 2073,1057.5C 2083.48,1067.4 2094.14,1077.07 2105,1086.5C 2113.83,1096.33 2121.5,1107 2128,1118.5C 2130.91,1139.63 2127.24,1159.63 2117,1178.5C 2112.28,1184.22 2107.95,1190.22 2104,1196.5C 2102.74,1216.8 2102.07,1237.13 2102,1257.5C 2099.47,1279.04 2095.81,1300.38 2091,1321.5C 2077.76,1352.66 2062.42,1382.66 2045,1411.5C 2017.61,1447.22 1986.44,1479.39 1951.5,1508C 1938.99,1517.43 1926.65,1527.09 1914.5,1537C 1892.92,1558.6 1869.58,1577.93 1844.5,1595C 1835.17,1600 1825.83,1605 1816.5,1610C 1775.61,1627.63 1733.94,1643.3 1691.5,1657C 1665.7,1662.74 1639.7,1667.41 1613.5,1671C 1570.81,1674.89 1528.15,1678.89 1485.5,1683C 1449.17,1684.07 1412.84,1684.73 1376.5,1685C 1352.46,1685.62 1328.46,1686.96 1304.5,1689C 1252.17,1689.33 1199.83,1689.67 1147.5,1690C 1126.72,1691.8 1106.06,1694.46 1085.5,1698C 1069.47,1698.5 1053.47,1698 1037.5,1696.5C 1013.85,1696.91 990.347,1698.91 967,1702.5C 956.154,1701.5 945.321,1700.33 934.5,1699C 927.667,1698.83 920.833,1698.67 914,1698.5C 872.503,1699.54 831.003,1699.7 789.5,1699C 753.26,1698.19 717.26,1694.86 681.5,1689C 594.196,1673.45 510.196,1647.45 429.5,1611C 396.933,1594.1 367.433,1572.93 341,1547.5C 333.475,1534.45 326.475,1521.12 320,1507.5C 308.46,1494.96 297.294,1482.13 286.5,1469C 273.007,1465.61 260.341,1460.28 248.5,1453C 225.989,1438.16 204.322,1422.16 183.5,1405C 176.03,1398.53 168.864,1391.7 162,1384.5C 159.877,1347.82 160.044,1311.15 162.5,1274.5C 164.94,1276.11 166.107,1278.44 166,1281.5C 166.333,1302.17 166.667,1322.83 167,1343.5C 168.865,1351.69 168.698,1359.86 166.5,1368C 166.895,1372.87 168.395,1377.37 171,1381.5C 179.203,1391.37 188.369,1400.2 198.5,1408C 217.806,1422.66 237.806,1436.32 258.5,1449C 268.127,1453.65 278.127,1457.32 288.5,1460C 325.167,1468 361.833,1476 398.5,1484C 413.691,1487.12 429.024,1489.12 444.5,1490C 492.683,1499.3 541.016,1507.97 589.5,1516C 602.491,1517.73 615.491,1517.9 628.5,1516.5C 622.716,1492.91 630.716,1476.07 652.5,1466C 663.275,1462.52 673.941,1458.85 684.5,1455C 640.177,1446.67 595.843,1438.34 551.5,1430C 527.828,1427.39 504.161,1424.73 480.5,1422C 454.882,1417.67 429.215,1413.67 403.5,1410C 391.883,1407.6 380.549,1404.26 369.5,1400C 350.621,1390.73 331.621,1381.73 312.5,1373C 287.131,1367.74 262.131,1361.07 237.5,1353C 222.341,1346.18 209.841,1336.01 200,1322.5C 188.999,1307.17 178.999,1291.17 170,1274.5C 169,1273.5 168,1272.5 167,1271.5C 165,1272.83 163,1272.83 161,1271.5C 156.672,1243.55 152.672,1215.55 149,1187.5C 147.531,1168.52 147.197,1149.52 148,1130.5C 149.401,1111.29 155.735,1093.96 167,1078.5C 170.251,1074.58 174.084,1071.41 178.5,1069C 216.675,1053.8 256.342,1045.8 297.5,1045C 330.516,1043.98 363.516,1042.65 396.5,1041C 409.821,1039.24 423.155,1037.57 436.5,1036C 441.901,1034.3 446.234,1031.13 449.5,1026.5C 445.247,1008.65 441.747,990.649 439,972.5C 416.393,959.417 406.727,939.751 410,913.5C 413.425,893.38 425.259,884.213 445.5,886C 466.549,890.529 485.883,898.862 503.5,911C 523.493,915.832 541.826,924.166 558.5,936C 570.225,943.146 582.892,945.479 596.5,943C 626.644,937.965 656.977,934.799 687.5,933.5C 686.349,912.309 694.016,895.142 710.5,882C 724.985,872.92 739.985,864.587 755.5,857C 783.5,845.168 811.833,834.168 840.5,824C 856.297,817.608 870.63,808.942 883.5,798C 891.667,789.833 899.833,781.667 908,773.5C 932.614,742.551 960.78,715.385 992.5,692C 1015.87,679.288 1040.54,675.954 1066.5,682C 1090.02,691.331 1111.52,703.831 1131,719.5C 1142.98,734.277 1149.15,751.277 1149.5,770.5C 1146.82,788.865 1140.99,806.198 1132,822.5C 1121.33,834.169 1109.16,844.002 1095.5,852C 1067.34,870.409 1036.67,882.742 1003.5,889C 958.319,898.35 912.652,903.684 866.5,905C 841.623,907.468 817.957,914.135 795.5,925C 788.376,928.98 781.876,933.814 776,939.5C 772.918,942.979 771.585,946.979 772,951.5C 789.885,963.445 808.551,974.112 828,983.5C 834.762,982.025 840.596,978.859 845.5,974C 852.222,972.537 858.888,970.87 865.5,969C 922.044,961.828 978.71,955.828 1035.5,951C 1063.26,946.968 1089.26,937.968 1113.5,924C 1131.83,907.667 1150.17,891.333 1168.5,875C 1193.05,854.547 1220.05,837.881 1249.5,825C 1257.64,822.366 1265.97,820.699 1274.5,820C 1290.87,819.094 1307.21,819.427 1323.5,821C 1333.33,823.916 1342.66,827.916 1351.5,833C 1357.81,838.487 1364.48,843.487 1371.5,848C 1377.24,855.191 1381.07,863.358 1383,872.5C 1383.94,875.764 1384.44,879.097 1384.5,882.5C 1382.94,892.484 1381.44,902.484 1380,912.5C 1377,919.167 1374,925.833 1371,932.5C 1364.17,941.5 1357.33,950.5 1350.5,959.5C 1380.57,961.2 1410.57,960.367 1440.5,957C 1455.83,950 1471.17,943 1486.5,936C 1525.76,921.89 1565.93,918.057 1607,924.5C 1611.63,923.191 1615.8,921.024 1619.5,918C 1630.37,908.798 1640.2,898.632 1649,887.5C 1656.26,874.814 1660.93,861.147 1663,846.5C 1665.87,816.531 1666.2,786.531 1664,756.5C 1659.93,733.033 1651.93,711.033 1640,690.5C 1624.54,674.028 1605.37,665.528 1582.5,665C 1566.63,664.275 1550.96,665.775 1535.5,669.5C 1530.02,668.711 1529.35,666.545 1533.5,663C 1547.39,659.259 1561.39,657.092 1575.5,656.5 Z M 1631.5,671.5 C 1644.62,673.881 1656.62,679.381 1667.5,688C 1679.15,698.312 1689.32,709.812 1698,722.5C 1713.14,753.145 1718.48,785.478 1714,819.5C 1710.4,846.587 1703.06,872.587 1692,897.5C 1676.01,923.481 1653.84,942.315 1625.5,954C 1615.5,958 1605.5,962 1595.5,966C 1593.16,966.837 1591.16,968.171 1589.5,970C 1590.43,970.991 1591.6,971.491 1593,971.5C 1609.9,967.199 1626.4,961.699 1642.5,955C 1646.5,954.333 1650.5,954.333 1654.5,955C 1676.05,963.881 1694.22,977.381 1709,995.5C 1715.94,1006.11 1723.28,1016.44 1731,1026.5C 1740.51,1045.71 1745.84,1066.04 1747,1087.5C 1748.84,1110.78 1747.18,1133.78 1742,1156.5C 1739.75,1157.98 1737.25,1158.65 1734.5,1158.5C 1729.83,1158.04 1725.16,1157.54 1720.5,1157C 1712.26,1154.36 1704.09,1151.53 1696,1148.5C 1694.89,1148.59 1693.89,1148.92 1693,1149.5C 1692.33,1151.5 1692.33,1153.5 1693,1155.5C 1706.26,1163.22 1720.59,1166.89 1736,1166.5C 1761.77,1166.42 1785.93,1160.25 1808.5,1148C 1842.36,1127.24 1875.36,1105.24 1907.5,1082C 1920.37,1074.87 1934.03,1072.53 1948.5,1075C 1951.56,1076.06 1954.06,1077.89 1956,1080.5C 1965.04,1102.14 1962.71,1122.47 1949,1141.5C 1929.33,1163.58 1907.16,1182.75 1882.5,1199C 1848.09,1219.03 1811.42,1233.36 1772.5,1242C 1765.21,1243.24 1757.88,1244.07 1750.5,1244.5C 1730.86,1242.09 1711.2,1239.92 1691.5,1238C 1676.02,1235.8 1661.35,1231.13 1647.5,1224C 1636.68,1223.12 1635.68,1226.12 1644.5,1233C 1660.09,1240.32 1676.43,1245.32 1693.5,1248C 1693.96,1248.41 1694.29,1248.91 1694.5,1249.5C 1683.46,1266.11 1669.29,1279.45 1652,1289.5C 1646.25,1286.81 1640.42,1284.31 1634.5,1282C 1604.67,1272.39 1574.67,1263.39 1544.5,1255C 1420.88,1235.8 1300.55,1248.14 1183.5,1292C 1136.92,1313.19 1093.42,1339.02 1053,1369.5C 1033.43,1365.94 1014.1,1361.61 995,1356.5C 999.862,1346.43 1004.53,1336.09 1009,1325.5C 1012.74,1316.16 1014.4,1306.49 1014,1296.5C 1012.53,1294.68 1010.7,1294.18 1008.5,1295C 1006.24,1297.77 1004.74,1300.94 1004,1304.5C 1003.23,1313.02 1001.56,1321.36 999,1329.5C 977.993,1375.03 949.493,1415.19 913.5,1450C 895.065,1465.72 875.398,1479.72 854.5,1492C 824.336,1508.42 793.003,1522.08 760.5,1533C 732.491,1541.95 704.158,1542.95 675.5,1536C 672.592,1535.31 669.925,1534.14 667.5,1532.5C 666.479,1532 666.312,1531.33 667,1530.5C 676.105,1525.24 685.605,1520.74 695.5,1517C 698.219,1514.62 700.553,1511.95 702.5,1509C 701.902,1507.7 700.902,1506.87 699.5,1506.5C 685.313,1511.51 671.313,1517.01 657.5,1523C 648.438,1524.61 642.272,1521.11 639,1512.5C 636.7,1507.07 638.2,1502.9 643.5,1500C 652.537,1498.52 661.537,1496.85 670.5,1495C 672.497,1493.85 672.83,1492.35 671.5,1490.5C 661.613,1487.79 651.78,1488.12 642,1491.5C 639.005,1490.48 638.672,1488.82 641,1486.5C 645.579,1480.93 651.079,1476.43 657.5,1473C 691.5,1463.33 725.5,1453.67 759.5,1444C 795.87,1431.66 827.537,1411.99 854.5,1385C 868.029,1371.8 881.196,1358.3 894,1344.5C 906.641,1325.16 917.641,1304.82 927,1283.5C 928.727,1280.38 929.561,1277.05 929.5,1273.5C 928.448,1273.35 927.448,1273.52 926.5,1274C 916.203,1289.65 906.703,1305.81 898,1322.5C 895.552,1326.61 892.719,1330.45 889.5,1334C 873.694,1332.04 858.028,1329.04 842.5,1325C 826.5,1321 810.5,1317 794.5,1313C 788.834,1311.78 783.501,1309.78 778.5,1307C 821.259,1274.24 859.426,1236.74 893,1194.5C 915.619,1166.96 933.952,1136.63 948,1103.5C 954.506,1087.47 958.006,1070.8 958.5,1053.5C 973.714,1056.64 989.048,1059.14 1004.5,1061C 1083.1,1068.89 1161.43,1066.55 1239.5,1054C 1278.64,1046.07 1316.3,1033.73 1352.5,1017C 1365.83,1010.67 1379.17,1004.33 1392.5,998C 1420.05,980.72 1448.39,964.72 1477.5,950C 1506.74,937.564 1537.24,931.064 1569,930.5C 1575.56,930.421 1582.06,930.921 1588.5,932C 1579.91,934.966 1571.57,938.466 1563.5,942.5C 1583.91,942.397 1603.25,937.564 1621.5,928C 1635.33,916.833 1647.83,904.333 1659,890.5C 1664.45,881.158 1668.11,871.158 1670,860.5C 1675.64,827.352 1676.97,794.019 1674,760.5C 1669.89,732.159 1659.89,706.159 1644,682.5C 1640.26,678.253 1636.09,674.586 1631.5,671.5 Z M 1028.5,687.5 C 1039.53,687.335 1050.53,687.835 1061.5,689C 1079.76,696.793 1097.09,706.126 1113.5,717C 1131.47,729.772 1140.3,747.272 1140,769.5C 1135.26,765.878 1130.42,762.378 1125.5,759C 1089.74,752.364 1058.4,761.364 1031.5,786C 1009.17,808.333 986.833,830.667 964.5,853C 944.13,870.36 921.13,883.36 895.5,892C 876.146,894.836 856.812,897.836 837.5,901C 824.45,904.794 811.45,908.794 798.5,913C 785.93,919.234 774.764,927.401 765,937.5C 762.425,940.726 760.925,944.393 760.5,948.5C 758.143,948.663 755.81,948.497 753.5,948C 735.08,942.985 716.58,938.485 698,934.5C 693.316,917.399 697.816,903.233 711.5,892C 728,880.913 745,870.58 762.5,861C 787.423,851.47 812.423,842.137 837.5,833C 856.011,826.75 872.678,817.416 887.5,805C 906.068,786.435 923.901,767.269 941,747.5C 956.606,730.812 973.44,715.645 991.5,702C 1002.86,694.304 1015.2,689.471 1028.5,687.5 Z M 1099.5,764.5 C 1109.59,763.683 1118.92,765.849 1127.5,771C 1131.43,774.763 1135.1,778.596 1138.5,782.5C 1134.2,805.653 1122.53,823.82 1103.5,837C 1089.49,846.675 1074.83,855.341 1059.5,863C 1012.98,881.838 964.643,891.838 914.5,893C 929.055,887.726 942.388,880.393 954.5,871C 977.775,849.726 1000.44,827.726 1022.5,805C 1032.21,796.29 1042.21,787.957 1052.5,780C 1067.17,771.499 1082.84,766.332 1099.5,764.5 Z M 1269.5,826.5 C 1283.81,827.245 1298.15,827.745 1312.5,828C 1327.4,828.851 1340.4,834.184 1351.5,844C 1371.53,857.076 1378.36,875.242 1372,898.5C 1371.64,900.421 1370.81,902.088 1369.5,903.5C 1348.17,907.89 1326.83,912.39 1305.5,917C 1288.77,922.466 1272.1,928.132 1255.5,934C 1239.18,942.158 1223.18,950.825 1207.5,960C 1180.13,979.357 1151.46,996.69 1121.5,1012C 1107.33,1017.43 1092.67,1020.43 1077.5,1021C 1024.36,1024.94 971.197,1025.44 918,1022.5C 890.862,1022.74 865.029,1028.58 840.5,1040C 825.813,1047.18 816.48,1058.68 812.5,1074.5C 813.402,1081.1 816.236,1082.1 821,1077.5C 825.941,1064.56 834.441,1054.73 846.5,1048C 861.228,1040.09 876.895,1036.09 893.5,1036C 894.672,1036.42 895.672,1037.09 896.5,1038C 890.86,1061.45 882.027,1083.61 870,1104.5C 850.128,1140.37 825.295,1172.53 795.5,1201C 768.264,1225.27 739.931,1248.11 710.5,1269.5C 677.871,1255.35 646.537,1238.85 616.5,1220C 601.239,1209.07 586.906,1197.07 573.5,1184C 559.809,1174.32 547.309,1163.15 536,1150.5C 534.441,1148.78 533.608,1146.78 533.5,1144.5C 553.63,1139.51 572.63,1131.68 590.5,1121C 597.495,1115.83 604.828,1111.17 612.5,1107C 617.012,1103.53 619.178,1099.03 619,1093.5C 616.79,1092.25 614.624,1092.42 612.5,1094C 589.903,1113.13 563.903,1124.96 534.5,1129.5C 528.738,1128.81 523.071,1127.64 517.5,1126C 497.743,1103 480.576,1078.16 466,1051.5C 456.224,1027.39 450.057,1002.39 447.5,976.5C 453.509,976.666 459.509,976.499 465.5,976C 469.877,975.812 473.877,974.479 477.5,972C 492.853,958.126 502.02,940.959 505,920.5C 512.817,923.328 520.65,926.162 528.5,929C 539.337,935.586 550.337,941.919 561.5,948C 573.155,952.787 585.155,953.787 597.5,951C 619.421,947.677 641.421,945.01 663.5,943C 699.162,943.531 733.829,949.865 767.5,962C 784.663,971.414 801.663,981.08 818.5,991C 808.448,999.375 800.281,1009.21 794,1020.5C 791.076,1027.7 790.909,1034.86 793.5,1042C 795.679,1043.99 797.512,1043.82 799,1041.5C 798.584,1036.73 798.918,1032.06 800,1027.5C 812.645,1005.52 830.812,990.021 854.5,981C 863.492,978.226 872.492,975.56 881.5,973C 932.132,968.274 982.799,963.94 1033.5,960C 1056.06,956.034 1078.06,950.034 1099.5,942C 1107.49,938.675 1114.83,934.341 1121.5,929C 1137.83,914 1154.17,899 1170.5,884C 1191.92,865.591 1215.26,849.924 1240.5,837C 1250.3,833.568 1259.97,830.068 1269.5,826.5 Z M 437.5,893.5 C 454.272,895.481 469.605,901.314 483.5,911C 491.174,915.332 494.341,921.832 493,930.5C 489.523,946.289 481.023,958.456 467.5,967C 461.431,967.804 455.431,967.471 449.5,966C 444.699,961.875 439.365,958.542 433.5,956C 426.793,948.911 422.96,940.411 422,930.5C 419.532,920.781 420.532,911.448 425,902.5C 428.299,898.118 432.466,895.118 437.5,893.5 Z M 1871.5,894.5 C 1888.39,895.208 1898.89,903.874 1903,920.5C 1903.86,932.21 1903.53,943.877 1902,955.5C 1896.07,970.683 1889.07,985.35 1881,999.5C 1876.32,1008.2 1870.65,1016.2 1864,1023.5C 1832.96,1055.22 1797.96,1081.55 1759,1102.5C 1757.69,1083.65 1755.35,1064.98 1752,1046.5C 1781.81,1034.42 1804.15,1014.09 1819,985.5C 1824.4,971.306 1829.4,956.973 1834,942.5C 1841.07,925.53 1851.23,910.696 1864.5,898C 1866.93,896.787 1869.26,895.621 1871.5,894.5 Z M 1361.5,914.5 C 1363.6,914.201 1365.6,914.534 1367.5,915.5C 1364.14,925.897 1358.97,935.23 1352,943.5C 1344.5,951.667 1337,959.833 1329.5,968C 1305.82,981.668 1280.82,992.335 1254.5,1000C 1228.73,1004.49 1203.06,1009.49 1177.5,1015C 1161.89,1017.06 1146.22,1018.06 1130.5,1018C 1139.63,1013.27 1148.63,1008.27 1157.5,1003C 1189.5,980.658 1222.83,960.325 1257.5,942C 1291.23,928.737 1325.89,919.571 1361.5,914.5 Z M 1821.5,933.5 C 1823.2,933.34 1824.87,933.506 1826.5,934C 1821.21,949.548 1815.71,965.048 1810,980.5C 1798.06,1006.94 1778.56,1025.27 1751.5,1035.5C 1749.27,1034.78 1747.44,1033.45 1746,1031.5C 1743.07,1025.57 1739.73,1019.91 1736,1014.5C 1728.05,1002.89 1719.72,991.552 1711,980.5C 1702.75,972.25 1693.92,964.75 1684.5,958C 1710.12,954.368 1735.78,951.034 1761.5,948C 1782.02,944.702 1802.02,939.869 1821.5,933.5 Z M 1916.5,941.5 C 1939.72,946.945 1961.72,955.445 1982.5,967C 1990.2,974.373 1998.2,981.373 2006.5,988C 2017.73,998.563 2028.23,1009.73 2038,1021.5C 2043.67,1031.5 2049.33,1041.5 2055,1051.5C 2063.9,1069.98 2066.56,1089.32 2063,1109.5C 2060.54,1139.06 2049.87,1165.06 2031,1187.5C 1994.1,1226.43 1952.6,1259.26 1906.5,1286C 1857.69,1311.24 1809.36,1337.24 1761.5,1364C 1743.28,1371.28 1724.94,1378.28 1706.5,1385C 1662.5,1397 1618.5,1409 1574.5,1421C 1552.57,1425.98 1530.57,1430.65 1508.5,1435C 1418.82,1450.67 1329.16,1466.34 1239.5,1482C 1170.24,1491.31 1100.74,1498.14 1031,1502.5C 1004.18,1500.39 977.343,1498.23 950.5,1496C 927.312,1491.85 903.978,1488.85 880.5,1487C 898.161,1474.24 914.995,1460.41 931,1445.5C 953.267,1421.61 972.601,1395.61 989,1367.5C 1022.76,1373.39 1056.6,1378.89 1090.5,1384C 1149.35,1390.19 1208.35,1393.19 1267.5,1393C 1329.21,1391.78 1390.88,1389.45 1452.5,1386C 1556.92,1374.14 1642.59,1328.3 1709.5,1248.5C 1732.09,1252.73 1754.76,1253.23 1777.5,1250C 1845.27,1235.71 1903.11,1203.87 1951,1154.5C 1972.48,1130.76 1976.81,1104.09 1964,1074.5C 1957.65,1067.33 1949.65,1063.66 1940,1063.5C 1926.02,1064.62 1912.86,1068.45 1900.5,1075C 1870.55,1098.31 1839.22,1119.65 1806.5,1139C 1789.74,1148.92 1771.74,1154.59 1752.5,1156C 1755.71,1142.02 1758.05,1127.86 1759.5,1113.5C 1802.74,1089.78 1841.58,1060.11 1876,1024.5C 1894.82,999.518 1908.32,971.851 1916.5,941.5 Z M 1345.5,966.5 C 1370.81,968.073 1396.14,969.24 1421.5,970C 1325.36,1031.37 1220.03,1060.71 1105.5,1058C 1052.26,1058.43 999.593,1053.1 947.5,1042C 935.312,1039.29 923.312,1035.95 911.5,1032C 936.014,1032.15 960.514,1032.98 985,1034.5C 1039.85,1032.02 1094.69,1029.19 1149.5,1026C 1159.88,1025.46 1170.21,1024.46 1180.5,1023C 1204.14,1018.21 1227.81,1013.54 1251.5,1009C 1285.79,1001.02 1317.12,986.85 1345.5,966.5 Z M 450.5,1033.5 C 456.973,1048.37 464.14,1063.03 472,1077.5C 486.837,1100.67 502.837,1123 520,1144.5C 533,1158.83 546.667,1172.5 561,1185.5C 561.667,1186.5 561.667,1187.5 561,1188.5C 545.279,1198.74 528.113,1205.24 509.5,1208C 473.676,1213.74 437.676,1215.41 401.5,1213C 389.678,1212.4 378.011,1210.73 366.5,1208C 334.807,1198.82 304.807,1185.82 276.5,1169C 268.652,1166.94 260.985,1167.61 253.5,1171C 246.572,1173.59 242.072,1178.43 240,1185.5C 239.216,1189.05 238.383,1192.55 237.5,1196C 240.21,1205.6 243.376,1215.1 247,1224.5C 254.236,1234.46 262.07,1243.96 270.5,1253C 287.934,1263.26 306.268,1271.59 325.5,1278C 368.203,1289.81 411.703,1295.65 456,1295.5C 480.835,1294.83 505.669,1293.99 530.5,1293C 554.189,1290.66 577.189,1285.33 599.5,1277C 616.87,1268.56 634.037,1259.73 651,1250.5C 665.547,1257.86 680.047,1265.36 694.5,1273C 698.09,1274.53 701.757,1275.86 705.5,1277C 702.205,1283.76 699.038,1290.59 696,1297.5C 695.667,1301.5 695.333,1305.5 695,1309.5C 688.707,1307.19 683.041,1303.86 678,1299.5C 675.75,1278.8 664.25,1268.96 643.5,1270C 631.088,1273.8 623.755,1282.13 621.5,1295C 610.655,1296.83 601.155,1301.33 593,1308.5C 586.197,1319.17 586.53,1329.83 594,1340.5C 602.106,1352.3 613.273,1357.13 627.5,1355C 633.449,1353.03 638.783,1350.03 643.5,1346C 644.833,1345.33 646.167,1345.33 647.5,1346C 667.53,1354.51 687.197,1363.85 706.5,1374C 714.097,1377.12 721.764,1379.95 729.5,1382.5C 728.51,1387.81 727.51,1393.15 726.5,1398.5C 727.868,1408.37 733.201,1415.21 742.5,1419C 753.564,1421.18 764.564,1420.85 775.5,1418C 782.237,1414.6 787.737,1409.76 792,1403.5C 794.445,1397.06 793.612,1391.06 789.5,1385.5C 792.285,1382.6 795.618,1380.43 799.5,1379C 819,1359.77 816.666,1344.11 792.5,1332C 787.89,1330.71 783.223,1330.38 778.5,1331C 773.016,1333.75 767.349,1335.91 761.5,1337.5C 757.667,1336.92 754,1335.75 750.5,1334C 757.948,1330.22 763.782,1324.72 768,1317.5C 769.787,1315.04 772.121,1313.38 775,1312.5C 787.844,1317 800.678,1321.5 813.5,1326C 836.28,1331.59 858.946,1337.59 881.5,1344C 853.447,1380.04 818.78,1408.04 777.5,1428C 759.696,1435.55 741.363,1441.38 722.5,1445.5C 704.138,1444.75 685.805,1443.58 667.5,1442C 622.039,1433.64 576.706,1424.64 531.5,1415C 494.755,1411.32 458.088,1406.99 421.5,1402C 403.647,1397.96 385.98,1393.3 368.5,1388C 346.738,1377.45 324.738,1367.45 302.5,1358C 282.325,1354.1 262.325,1349.43 242.5,1344C 230.679,1338.34 220.179,1330.84 211,1321.5C 201.392,1306.23 191.392,1291.23 181,1276.5C 170.693,1259.58 164.36,1241.25 162,1221.5C 155.944,1190.44 153.611,1159.11 155,1127.5C 157.885,1113.18 162.551,1099.51 169,1086.5C 183.983,1072.26 201.817,1063.76 222.5,1061C 270.789,1052.56 319.456,1048.9 368.5,1050C 391.731,1049.24 414.731,1046.58 437.5,1042C 442.8,1040.51 447.133,1037.68 450.5,1033.5 Z M 902.5,1040.5 C 918.686,1043.05 934.686,1046.55 950.5,1051C 951.428,1051.39 952.095,1052.05 952.5,1053C 950.172,1067.15 946.672,1080.98 942,1094.5C 927.848,1129.91 908.848,1162.25 885,1191.5C 858.907,1224.93 829.407,1255.09 796.5,1282C 789.97,1286.7 783.303,1291.2 776.5,1295.5C 776.167,1294.67 775.833,1293.83 775.5,1293C 776.216,1290.21 776.549,1287.37 776.5,1284.5C 769.737,1282.93 764.07,1279.43 759.5,1274C 754.032,1269.92 747.865,1268.09 741,1268.5C 736.809,1268.89 732.642,1269.06 728.5,1269C 754.5,1246.67 780.5,1224.33 806.5,1202C 841.004,1168.17 868.504,1129.34 889,1085.5C 895.626,1071.12 900.126,1056.12 902.5,1040.5 Z M 2074.5,1071.5 C 2090.25,1083.08 2103.42,1097.08 2114,1113.5C 2119.76,1124.58 2121.09,1136.25 2118,1148.5C 2115.61,1159.69 2111.27,1170.03 2105,1179.5C 2076.58,1213.26 2047.41,1246.43 2017.5,1279C 1989.88,1304.94 1959.22,1326.61 1925.5,1344C 1908,1356.59 1889.67,1367.92 1870.5,1378C 1827.38,1394.06 1785.04,1412.06 1743.5,1432C 1704.34,1442.94 1665.01,1453.27 1625.5,1463C 1548.46,1480.84 1471.46,1498.84 1394.5,1517C 1304.96,1530.9 1215.3,1543.9 1125.5,1556C 1085.22,1559.52 1044.88,1560.18 1004.5,1558C 977.22,1555.51 949.887,1553.84 922.5,1553C 910.94,1550.6 899.273,1548.94 887.5,1548C 857.895,1544.67 828.228,1542.01 798.5,1540C 792.616,1539.69 786.949,1538.52 781.5,1536.5C 795.341,1530.05 809.341,1523.88 823.5,1518C 838.167,1510.67 852.833,1503.33 867.5,1496C 879.167,1495.33 890.833,1495.33 902.5,1496C 909.756,1496.65 916.756,1498.32 923.5,1501C 948.518,1503.14 973.518,1505.47 998.5,1508C 1028.53,1510.16 1058.53,1509.83 1088.5,1507C 1141.58,1501.4 1194.58,1495.07 1247.5,1488C 1325.43,1473.95 1403.43,1460.28 1481.5,1447C 1521.49,1440.2 1561.16,1431.87 1600.5,1422C 1650.83,1407.08 1701.49,1393.42 1752.5,1381C 1769.72,1376.72 1785.72,1369.72 1800.5,1360C 1838.45,1334.74 1877.45,1311.08 1917.5,1289C 1946.08,1272.21 1973.08,1253.21 1998.5,1232C 2012.64,1218.86 2026.47,1205.36 2040,1191.5C 2052.44,1178.02 2061.11,1162.36 2066,1144.5C 2072.76,1120.63 2075.59,1096.29 2074.5,1071.5 Z M 262.5,1178.5 C 266.605,1178.23 270.605,1178.73 274.5,1180C 289.167,1187 303.833,1194 318.5,1201C 362.134,1218.74 407.468,1225.41 454.5,1221C 495.32,1222.37 533.487,1213.21 569,1193.5C 586.101,1205.63 602.934,1218.13 619.5,1231C 625.665,1235.25 631.998,1239.25 638.5,1243C 635.384,1246.72 631.718,1249.72 627.5,1252C 606.119,1264.46 583.453,1273.79 559.5,1280C 509.637,1285.88 459.637,1287.55 409.5,1285C 366.634,1281.45 325.967,1270.12 287.5,1251C 281.236,1247.73 275.903,1243.4 271.5,1238C 271.82,1236.35 272.82,1235.35 274.5,1235C 279.03,1233.37 283.696,1232.37 288.5,1232C 299.203,1231.81 309.87,1231.15 320.5,1230C 322.781,1228.15 322.781,1226.48 320.5,1225C 314.167,1223.02 307.667,1222.19 301,1222.5C 296.833,1222.67 292.667,1222.83 288.5,1223C 279.765,1224.69 271.098,1226.35 262.5,1228C 254.209,1219.91 254.542,1212.25 263.5,1205C 266.737,1203.03 270.237,1201.87 274,1201.5C 280.784,1202.59 287.284,1204.59 293.5,1207.5C 298.832,1204.22 298.499,1201.05 292.5,1198C 282.186,1193.36 271.519,1192.36 260.5,1195C 256.722,1197.11 253.222,1199.61 250,1202.5C 247.66,1190.84 251.826,1182.84 262.5,1178.5 Z M 2094.5,1205.5 C 2095.88,1208.91 2096.55,1212.57 2096.5,1216.5C 2096.14,1249.64 2091.98,1282.31 2084,1314.5C 2081.22,1323.39 2077.89,1332.05 2074,1340.5C 2066.56,1355.04 2059.39,1369.71 2052.5,1384.5C 2032.07,1384.24 2025.41,1393.57 2032.5,1412.5C 2032.17,1413.17 2031.83,1413.83 2031.5,1414.5C 2012.6,1410.6 1994.27,1412.44 1976.5,1420C 1955.67,1439.82 1949.67,1463.48 1958.5,1491C 1931.55,1511.62 1904.88,1532.62 1878.5,1554C 1860.65,1565.51 1843.65,1578.18 1827.5,1592C 1814.61,1601.11 1800.61,1608.11 1785.5,1613C 1764.65,1623.56 1742.99,1632.06 1720.5,1638.5C 1710.87,1633.52 1700.87,1629.36 1690.5,1626C 1666.45,1621.77 1647.28,1629.61 1633,1649.5C 1631.21,1653.05 1629.71,1656.71 1628.5,1660.5C 1619.62,1662.6 1610.62,1664.1 1601.5,1665C 1556.18,1669.13 1510.84,1673.13 1465.5,1677C 1403.07,1675.56 1340.74,1677.4 1278.5,1682.5C 1235.18,1680.68 1191.85,1679.85 1148.5,1680C 1118.33,1681.32 1088.33,1684.32 1058.5,1689C 1048.51,1689.5 1038.51,1689.67 1028.5,1689.5C 1029.65,1662.26 1017.65,1643.76 992.5,1634C 986.539,1633 980.539,1632.34 974.5,1632C 981.549,1629.75 984.382,1624.91 983,1617.5C 979.39,1608.11 972.557,1603.94 962.5,1605C 948.481,1610.8 946.815,1619.13 957.5,1630C 962.277,1631.98 967.277,1632.98 972.5,1633C 963.186,1635.41 955.352,1640.24 949,1647.5C 942.187,1659.28 937.353,1671.78 934.5,1685C 934.58,1686.89 934.913,1688.73 935.5,1690.5C 933,1690.83 930.5,1691.17 928,1691.5C 883.174,1692.63 838.341,1692.79 793.5,1692C 748.077,1691.24 703.077,1686.58 658.5,1678C 626.706,1670.47 595.039,1662.47 563.5,1654C 537.5,1645.33 511.5,1636.67 485.5,1628C 453.5,1616.33 423.5,1601 395.5,1582C 381.14,1571.82 367.14,1561.15 353.5,1550C 349.286,1545.45 345.453,1540.62 342,1535.5C 337.256,1525.01 332.256,1514.68 327,1504.5C 317.618,1493.57 308.118,1482.74 298.5,1472C 304.567,1471.79 310.567,1472.45 316.5,1474C 338.867,1479.11 361.201,1484.27 383.5,1489.5C 375.609,1512.44 382.609,1528.6 404.5,1538C 421.355,1539.99 434.188,1533.82 443,1519.5C 445.198,1513.68 446.698,1507.68 447.5,1501.5C 456.545,1501.84 465.545,1502.67 474.5,1504C 506.297,1511.62 538.297,1518.28 570.5,1524C 592.167,1526.04 613.834,1528.04 635.5,1530C 641.4,1530.89 647.067,1532.56 652.5,1535C 660.902,1542.86 670.902,1546.86 682.5,1547C 700.143,1548.47 717.81,1548.8 735.5,1548C 746.625,1545.91 757.792,1544.07 769,1542.5C 812.901,1547.11 856.734,1552.27 900.5,1558C 952.581,1562.73 1004.75,1565.89 1057,1567.5C 1102.74,1566.54 1148.24,1562.71 1193.5,1556C 1253.86,1547.19 1314.2,1538.19 1374.5,1529C 1495.62,1503.97 1615.95,1475.64 1735.5,1444C 1739.5,1442.67 1743.5,1441.33 1747.5,1440C 1756.34,1435.08 1765.34,1430.41 1774.5,1426C 1796.52,1417.49 1818.18,1408.16 1839.5,1398C 1852.48,1394.59 1865.15,1390.25 1877.5,1385C 1898.83,1375 1920.17,1365 1941.5,1355C 1951.16,1348.17 1961.16,1341.83 1971.5,1336C 1992.97,1315.53 2014.14,1294.7 2035,1273.5C 2054.3,1250.37 2074.13,1227.7 2094.5,1205.5 Z M 1412.5,1252.5 C 1451.29,1253.11 1489.96,1255.61 1528.5,1260C 1555.23,1267.46 1581.89,1275.13 1608.5,1283C 1619.5,1286.89 1630.16,1291.56 1640.5,1297C 1641.45,1297.72 1641.62,1298.55 1641,1299.5C 1631.28,1307.94 1621.12,1315.77 1610.5,1323C 1589.69,1334.41 1568.35,1344.74 1546.5,1354C 1514.97,1363.88 1482.97,1371.88 1450.5,1378C 1367.94,1384.09 1285.28,1386.09 1202.5,1384C 1172.11,1382.38 1141.78,1380.05 1111.5,1377C 1095.64,1375.73 1079.97,1373.39 1064.5,1370C 1104.5,1338.82 1148.16,1313.49 1195.5,1294C 1266.18,1270.89 1338.52,1257.06 1412.5,1252.5 Z M 734.5,1276.5 C 739.179,1276.33 743.845,1276.5 748.5,1277C 755.988,1283.63 761.654,1291.47 765.5,1300.5C 762.545,1315.95 753.379,1325.29 738,1328.5C 726.723,1325.53 716.723,1320.2 708,1312.5C 702.908,1300.42 705.741,1290.25 716.5,1282C 722.34,1279.21 728.34,1277.38 734.5,1276.5 Z M 644.5,1279.5 C 654.837,1278.51 661.837,1282.85 665.5,1292.5C 664.778,1294.94 663.778,1297.28 662.5,1299.5C 663.034,1301.61 664.034,1303.45 665.5,1305C 683.287,1314.71 701.287,1324.04 719.5,1333C 733.242,1337.69 746.576,1343.36 759.5,1350C 762.167,1350.67 764.833,1350.67 767.5,1350C 780.198,1337.82 791.698,1338.99 802,1353.5C 803.219,1362.88 799.386,1369.38 790.5,1373C 784.292,1375.07 777.958,1376.57 771.5,1377.5C 770.348,1380.11 770.182,1382.77 771,1385.5C 779.79,1388.42 783.456,1394.42 782,1403.5C 771.966,1412.4 760.466,1414.9 747.5,1411C 739.303,1407.84 735.803,1402 737,1393.5C 739.514,1390.32 742.014,1387.16 744.5,1384C 744.241,1382.74 743.574,1381.74 742.5,1381C 710.495,1364.5 677.828,1349.33 644.5,1335.5C 639.5,1338.33 634.5,1341.17 629.5,1344C 624.276,1345.98 618.943,1346.98 613.5,1347C 608.633,1342.47 604.133,1337.63 600,1332.5C 594.981,1323.41 596.814,1315.91 605.5,1310C 611.704,1307.08 618.037,1306.42 624.5,1308C 627,1310.5 629.5,1313 632,1315.5C 634.167,1314 636.333,1312.5 638.5,1311C 639.517,1309.95 639.684,1308.78 639,1307.5C 629.129,1295.69 630.963,1286.35 644.5,1279.5 Z M 2002.5,1379.5 C 2011.11,1379.59 2013.94,1383.59 2011,1391.5C 2006.39,1397.72 2001.89,1397.89 1997.5,1392C 2000.14,1388.22 2001.81,1384.06 2002.5,1379.5 Z M 1962.5,1389.5 C 1967.49,1389.66 1970.49,1392.16 1971.5,1397C 1971.07,1403.39 1967.91,1407.55 1962,1409.5C 1958.41,1407.65 1956.91,1404.65 1957.5,1400.5C 1957.28,1395.94 1958.95,1392.27 1962.5,1389.5 Z M 2045.5,1392.5 C 2046.24,1392.37 2046.91,1392.54 2047.5,1393C 2044.46,1397.59 2041.29,1402.09 2038,1406.5C 2036.58,1399.68 2039.08,1395.01 2045.5,1392.5 Z M 2003.5,1421.5 C 2009.51,1421.33 2015.51,1421.5 2021.5,1422C 2022.62,1422.25 2023.62,1422.75 2024.5,1423.5C 2006.22,1444.62 1986.72,1464.62 1966,1483.5C 1962.74,1476.55 1961.74,1469.22 1963,1461.5C 1965.15,1447.02 1971.98,1435.52 1983.5,1427C 1990.07,1424.33 1996.73,1422.5 2003.5,1421.5 Z M 1932.5,1425.5 C 1938.43,1426.02 1940.26,1429.02 1938,1434.5C 1930.8,1441.99 1927.13,1440.66 1927,1430.5C 1928.73,1428.6 1930.56,1426.93 1932.5,1425.5 Z M 1802.5,1445.5 C 1807.35,1445.52 1809.68,1448.02 1809.5,1453C 1809.88,1461.65 1806.21,1464.31 1798.5,1461C 1796.44,1459.47 1795.1,1457.47 1794.5,1455C 1796.31,1451.03 1798.98,1447.86 1802.5,1445.5 Z M 1773.5,1474.5 C 1778.19,1473.83 1781.19,1475.67 1782.5,1480C 1781.73,1483.63 1780.57,1487.13 1779,1490.5C 1772.3,1494.34 1767.8,1492.51 1765.5,1485C 1765.44,1483.29 1766.11,1481.96 1767.5,1481C 1771.44,1480.56 1773.44,1478.4 1773.5,1474.5 Z M 1829.5,1476.5 C 1831.31,1476.49 1832.98,1476.99 1834.5,1478C 1837.7,1481.54 1841.2,1484.7 1845,1487.5C 1846.98,1501.91 1842.48,1513.74 1831.5,1523C 1822.29,1528.33 1813.79,1527.5 1806,1520.5C 1801.84,1510.44 1803.17,1501.11 1810,1492.5C 1815.53,1485.79 1822.03,1480.46 1829.5,1476.5 Z M 393.5,1492.5 C 401.421,1493.85 409.421,1494.69 417.5,1495C 424.22,1496.74 430.886,1498.57 437.5,1500.5C 437.051,1517.95 428.384,1528.95 411.5,1533.5C 401.333,1530.69 393.833,1524.69 389,1515.5C 385.927,1506.73 387.427,1499.06 393.5,1492.5 Z M 360.5,1503.5 C 366.637,1503.8 366.971,1505.3 361.5,1508C 359.833,1508.67 358.167,1508.67 356.5,1508C 358.041,1506.63 359.375,1505.13 360.5,1503.5 Z M 1770.5,1512.5 C 1773.69,1513.53 1775.69,1515.69 1776.5,1519C 1774.72,1523.39 1772.56,1527.55 1770,1531.5C 1765.05,1535.75 1760.71,1535.09 1757,1529.5C 1754.68,1524.12 1755.85,1519.62 1760.5,1516C 1763.85,1514.51 1767.18,1513.35 1770.5,1512.5 Z M 1542.5,1521.5 C 1549.58,1522.97 1552.08,1527.31 1550,1534.5C 1547.12,1540.72 1542.29,1543.55 1535.5,1543C 1528.42,1539.75 1527.26,1535.25 1532,1529.5C 1534.86,1525.79 1538.36,1523.12 1542.5,1521.5 Z M 461.5,1524.5 C 466.503,1524.09 470.67,1525.75 474,1529.5C 474.012,1538.47 469.512,1541.97 460.5,1540C 456.031,1537.91 455.198,1534.75 458,1530.5C 458.926,1528.31 460.093,1526.31 461.5,1524.5 Z M 1488.5,1524.5 C 1493.95,1524.27 1497.95,1526.61 1500.5,1531.5C 1498.55,1535.94 1495.71,1539.61 1492,1542.5C 1481.18,1537.96 1480.02,1531.96 1488.5,1524.5 Z M 540.5,1536.5 C 544.208,1539.54 543.708,1542.21 539,1544.5C 536.676,1541.15 537.176,1538.48 540.5,1536.5 Z M 1797.5,1537.5 C 1802.95,1537.95 1805.61,1540.95 1805.5,1546.5C 1805.17,1552.33 1802.84,1557.16 1798.5,1561C 1791.95,1563.85 1786.62,1562.35 1782.5,1556.5C 1785.14,1552.42 1787.31,1548.09 1789,1543.5C 1791.32,1540.6 1794.16,1538.6 1797.5,1537.5 Z M 376.5,1540.5 C 379.044,1540.1 381.211,1540.77 383,1542.5C 383.667,1545.5 383.667,1548.5 383,1551.5C 376.035,1554.51 373.035,1552.17 374,1544.5C 374.662,1543.02 375.496,1541.68 376.5,1540.5 Z M 426.5,1553.5 C 432.368,1553.86 434.535,1556.86 433,1562.5C 428.365,1566.95 425.198,1566.12 423.5,1560C 423.652,1557.35 424.652,1555.18 426.5,1553.5 Z M 558.5,1555.5 C 578.597,1552.77 587.763,1561.43 586,1581.5C 584.092,1590.18 579.592,1597.01 572.5,1602C 555.817,1603.33 546.15,1595.66 543.5,1579C 545.096,1568.97 550.096,1561.14 558.5,1555.5 Z M 1450.5,1557.5 C 1453.95,1557.8 1456.62,1559.3 1458.5,1562C 1457.41,1565.67 1455.91,1569.17 1454,1572.5C 1448.16,1575.66 1444.32,1574 1442.5,1567.5C 1444.08,1563.26 1446.75,1559.93 1450.5,1557.5 Z M 1565.5,1558.5 C 1581.09,1559.09 1584.09,1565.59 1574.5,1578C 1565.02,1580.76 1558.68,1577.42 1555.5,1568C 1558.07,1563.93 1561.41,1560.76 1565.5,1558.5 Z M 1504.5,1564.5 C 1513.55,1563.95 1522.22,1565.45 1530.5,1569C 1541.5,1577.14 1544.33,1587.64 1539,1600.5C 1530.11,1615.53 1517.28,1621.03 1500.5,1617C 1481.89,1607.59 1478.39,1594.43 1490,1577.5C 1494.43,1572.56 1499.27,1568.23 1504.5,1564.5 Z M 516.5,1574.5 C 523.225,1575.07 525.058,1578.4 522,1584.5C 516.869,1588.78 513.702,1587.45 512.5,1580.5C 513.347,1578.13 514.68,1576.13 516.5,1574.5 Z M 818.5,1577.5 C 821.939,1577.59 824.772,1578.92 827,1581.5C 831.789,1591.96 831.456,1602.3 826,1612.5C 823.488,1616.01 820.154,1618.35 816,1619.5C 810.412,1617.87 805.412,1615.21 801,1611.5C 796.059,1594.38 801.892,1583.04 818.5,1577.5 Z M 863.5,1591.5 C 865.52,1587.15 868.854,1584.15 873.5,1582.5C 880.184,1586.05 882.017,1591.38 879,1598.5C 877.654,1602.51 874.987,1605.18 871,1606.5C 868.709,1605.88 867.543,1604.38 867.5,1602C 869.243,1598.35 870.243,1594.52 870.5,1590.5C 868.194,1590.99 865.861,1591.33 863.5,1591.5 Z M 1310.5,1590.5 C 1314.22,1590.36 1315.06,1591.69 1313,1594.5C 1311.52,1593.53 1310.69,1592.2 1310.5,1590.5 Z M 1269.5,1598.5 C 1277.39,1598.57 1280.23,1602.57 1278,1610.5C 1277.03,1623.05 1270.53,1627.88 1258.5,1625C 1254.14,1622.77 1251.98,1619.27 1252,1614.5C 1253.32,1617.06 1255.16,1617.73 1257.5,1616.5C 1259.54,1609.05 1263.54,1603.05 1269.5,1598.5 Z M 1648.5,1598.5 C 1651.25,1600.05 1652.09,1602.39 1651,1605.5C 1649.89,1607.04 1648.39,1607.7 1646.5,1607.5C 1646.87,1604.43 1647.54,1601.43 1648.5,1598.5 Z M 1689.5,1599.5 C 1695.13,1602.63 1695.46,1605.97 1690.5,1609.5C 1688.89,1608.45 1687.89,1606.95 1687.5,1605C 1688.32,1603.2 1688.99,1601.37 1689.5,1599.5 Z M 534.5,1612.5 C 537.233,1612.2 538.899,1613.36 539.5,1616C 536.825,1625.86 533.825,1625.86 530.5,1616C 531.686,1614.59 533.019,1613.42 534.5,1612.5 Z M 962.5,1612.5 C 969.899,1611.43 974.399,1614.43 976,1621.5C 972.316,1626.34 968.816,1626.51 965.5,1622C 967.077,1619.26 968.411,1616.43 969.5,1613.5C 966.687,1613.55 964.021,1614.21 961.5,1615.5C 961.167,1615.33 960.833,1615.17 960.5,1615C 961.381,1614.29 962.047,1613.46 962.5,1612.5 Z M 1010.5,1615.5 C 1015.93,1615.05 1019.6,1617.38 1021.5,1622.5C 1018.77,1628.7 1014.1,1630.87 1007.5,1629C 1001.99,1623.15 1002.99,1618.65 1010.5,1615.5 Z M 1726.5,1617.5 C 1731.99,1618.31 1732.66,1620.47 1728.5,1624C 1725.7,1626.3 1723.37,1625.97 1721.5,1623C 1722.69,1620.65 1724.36,1618.81 1726.5,1617.5 Z M 1613.5,1621.5 C 1619.57,1620.53 1623.24,1623.03 1624.5,1629C 1623.23,1633.96 1620.23,1635.79 1615.5,1634.5C 1613.72,1630.37 1613.05,1626.04 1613.5,1621.5 Z M 573.5,1622.5 C 576.649,1622.21 579.649,1622.71 582.5,1624C 584.211,1625.13 584.711,1626.63 584,1628.5C 581.311,1632.09 577.811,1633.93 573.5,1634C 569.555,1630.17 569.555,1626.34 573.5,1622.5 Z M 857.5,1624.5 C 864.408,1624.64 866.574,1627.97 864,1634.5C 861.511,1637.83 858.344,1640.17 854.5,1641.5C 851.333,1641 848.999,1639.33 847.5,1636.5C 848.529,1630.37 851.862,1626.37 857.5,1624.5 Z M 1315.5,1624.5 C 1319.34,1624.01 1321.34,1625.67 1321.5,1629.5C 1321.54,1633.09 1319.88,1635.42 1316.5,1636.5C 1315.16,1632.46 1314.82,1628.46 1315.5,1624.5 Z M 1668.5,1632.5 C 1679.73,1631.98 1690.39,1634.15 1700.5,1639C 1702.35,1640.09 1704.02,1641.43 1705.5,1643C 1683.48,1652.59 1660.48,1657.59 1636.5,1658C 1639.83,1654 1643.17,1650 1646.5,1646C 1653.76,1641.21 1661.1,1636.71 1668.5,1632.5 Z M 926.5,1637.5 C 932.499,1637 934.666,1639.67 933,1645.5C 928.716,1649.36 925.216,1648.69 922.5,1643.5C 923.432,1641.23 924.765,1639.23 926.5,1637.5 Z M 779.5,1641.5 C 785.407,1643.16 786.74,1646.66 783.5,1652C 778.178,1652.34 776.011,1649.84 777,1644.5C 778.045,1643.63 778.878,1642.63 779.5,1641.5 Z M 819.5,1641.5 C 828.909,1643.98 829.909,1648.48 822.5,1655C 817.195,1657.75 813.529,1656.42 811.5,1651C 812.567,1646.44 815.233,1643.27 819.5,1641.5 Z M 974.5,1641.5 C 1001.79,1640.3 1016.29,1653.3 1018,1680.5C 1016.71,1683.41 1015.71,1686.41 1015,1689.5C 1014.25,1690.13 1013.42,1690.63 1012.5,1691C 997.526,1691.76 982.693,1693.59 968,1696.5C 960.196,1695.43 952.363,1694.76 944.5,1694.5C 945.034,1674.6 952.701,1658.1 967.5,1645C 969.713,1643.38 972.047,1642.22 974.5,1641.5 Z M 1246.5,1647.5 C 1250.72,1648.07 1252.72,1650.57 1252.5,1655C 1251.25,1661.51 1247.59,1663.18 1241.5,1660C 1240.17,1657.12 1240.34,1654.29 1242,1651.5C 1243.67,1650.27 1245.17,1648.93 1246.5,1647.5 Z M 1281.5,1648.5 C 1288.14,1652.19 1288.14,1656.03 1281.5,1660C 1277.79,1661.22 1275.12,1660.06 1273.5,1656.5C 1275.24,1652.76 1277.91,1650.09 1281.5,1648.5 Z M 1049.5,1649.5 C 1055.74,1648.25 1059.41,1650.75 1060.5,1657C 1059.23,1665.28 1054.57,1669.61 1046.5,1670C 1043.21,1667.67 1042.71,1664.83 1045,1661.5C 1047,1659.5 1049,1657.5 1051,1655.5C 1051.32,1653.31 1050.82,1651.31 1049.5,1649.5 Z"/></g>
<g><path style="opacity:0.856" fill="#000000" d="M 2001.5,664.5 C 2014.61,662.807 2024.78,667.474 2032,678.5C 2033.68,682.296 2035.18,686.129 2036.5,690C 2047.16,688.285 2057.82,686.452 2068.5,684.5C 2068.37,687.595 2066.71,689.428 2063.5,690C 2055.04,693.209 2046.37,695.709 2037.5,697.5C 2034.37,697.352 2031.87,696.018 2030,693.5C 2028,688.167 2026,682.833 2024,677.5C 2017.18,669.572 2009.51,668.572 2001,674.5C 1998.76,677.881 1998.09,681.548 1999,685.5C 2000.96,694.264 2005.13,701.764 2011.5,708C 2015.83,709 2020.17,710 2024.5,711C 2025.36,711.689 2026.02,712.522 2026.5,713.5C 2022.46,716.943 2018.3,720.276 2014,723.5C 2014.15,733.807 2019.15,740.474 2029,743.5C 2030.97,743.458 2032.8,742.958 2034.5,742C 2038.36,738.643 2042.36,735.476 2046.5,732.5C 2047.72,734.898 2047.56,737.231 2046,739.5C 2033.11,754.386 2021.11,753.72 2010,737.5C 2008.08,734.162 2006.58,730.662 2005.5,727C 2006.41,723.673 2007.75,720.506 2009.5,717.5C 2004.86,712.869 2000.69,707.869 1997,702.5C 1991.76,691.321 1991.26,679.987 1995.5,668.5C 1997.29,666.684 1999.29,665.351 2001.5,664.5 Z"/></g>
<g><path style="opacity:0.623" fill="#000000" d="M 2110.5,713.5 C 2112.98,713.051 2114.98,713.717 2116.5,715.5C 2115.31,717.384 2113.64,717.884 2111.5,717C 2110.66,715.989 2110.33,714.822 2110.5,713.5 Z"/></g>
<g><path style="opacity:0.666" fill="#000000" d="M 2102.5,716.5 C 2104.1,717.287 2104.77,718.62 2104.5,720.5C 2102.74,720.357 2101.07,720.691 2099.5,721.5C 2099.17,721 2098.83,720.5 2098.5,720C 2099.35,718.229 2100.68,717.063 2102.5,716.5 Z"/></g>
<g><path style="opacity:0.726" fill="#000000" d="M 560.5,724.5 C 563.807,724.063 566.807,724.73 569.5,726.5C 569.291,727.086 568.957,727.586 568.5,728C 565.518,728.498 562.518,728.665 559.5,728.5C 559.433,727.041 559.766,725.708 560.5,724.5 Z"/></g>
<g><path style="opacity:0.72" fill="#000000" d="M 592.5,732.5 C 597.887,732.405 603.22,732.905 608.5,734C 615.225,735.963 615.059,737.13 608,737.5C 603.058,737.26 598.225,736.426 593.5,735C 592.748,734.329 592.414,733.496 592.5,732.5 Z"/></g>
<g><path style="opacity:0.709" fill="#000000" d="M 619.5,736.5 C 623.678,735.429 628.011,735.429 632.5,736.5C 632.5,737.5 632.5,738.5 632.5,739.5C 627.814,739.881 623.481,738.881 619.5,736.5 Z"/></g>
<g><path style="opacity:0.854" fill="#000000" d="M 2109.5,894.5 C 2114.08,894.113 2118.41,894.947 2122.5,897C 2124.04,898.579 2125.21,900.413 2126,902.5C 2128.78,916.205 2134.94,928.039 2144.5,938C 2150.85,942.174 2157.51,945.841 2164.5,949C 2167.18,950.789 2167.01,951.955 2164,952.5C 2153.43,948.965 2143.6,943.965 2134.5,937.5C 2132.08,935.246 2130.25,932.579 2129,929.5C 2125.94,921.054 2122.61,912.721 2119,904.5C 2118.04,903.106 2116.71,902.439 2115,902.5C 2099.76,906.307 2095.1,915.64 2101,930.5C 2103.37,934.853 2105.7,939.187 2108,943.5C 2108.5,945.473 2108.66,947.473 2108.5,949.5C 2102.87,950.188 2097.2,950.688 2091.5,951C 2086.01,956.799 2084.18,963.632 2086,971.5C 2091.22,979.021 2098.38,981.855 2107.5,980C 2113.67,978.833 2119.34,976.499 2124.5,973C 2166.69,995.733 2211.69,1011.4 2259.5,1020C 2261.96,1021.46 2264.13,1023.29 2266,1025.5C 2268.61,1033.25 2273.44,1039.08 2280.5,1043C 2293.23,1044.88 2301.73,1039.71 2306,1027.5C 2306.7,1022.27 2305.37,1017.61 2302,1013.5C 2298.65,1011.15 2295.15,1008.99 2291.5,1007C 2290.98,1006.44 2290.64,1005.77 2290.5,1005C 2295.34,1000.82 2299.51,995.985 2303,990.5C 2303.81,980.291 2298.98,974.457 2288.5,973C 2285.5,972.333 2282.5,972.333 2279.5,973C 2275.26,974.902 2271.26,977.235 2267.5,980C 2263.68,981.944 2259.68,982.611 2255.5,982C 2241.47,979.128 2227.47,976.128 2213.5,973C 2197.69,967.401 2182.36,961.401 2167.5,955C 2168.97,952.814 2170.97,952.148 2173.5,953C 2187.54,958.792 2201.88,963.792 2216.5,968C 2230.1,970.681 2243.77,972.848 2257.5,974.5C 2262.94,971.564 2268.28,968.398 2273.5,965C 2284.83,963.082 2295.16,965.416 2304.5,972C 2310.25,978.02 2312.08,985.186 2310,993.5C 2308.56,997.547 2306.73,1001.38 2304.5,1005C 2317.18,1019.57 2316.18,1033.24 2301.5,1046C 2288.26,1055.7 2276.42,1054.2 2266,1041.5C 2263.46,1036.24 2260.29,1031.41 2256.5,1027C 2234.6,1021.48 2212.94,1015.15 2191.5,1008C 2170.61,1000.27 2150.28,991.604 2130.5,982C 2120.66,983.08 2110.83,984.58 2101,986.5C 2093.89,985.578 2087.56,982.911 2082,978.5C 2079.14,969.951 2078.81,961.284 2081,952.5C 2084.26,945.615 2089.76,942.449 2097.5,943C 2097.96,942.586 2098.29,942.086 2098.5,941.5C 2091.14,928.734 2090.64,915.734 2097,902.5C 2100.67,898.923 2104.84,896.256 2109.5,894.5 Z"/></g>
<g><path style="opacity:0.889" fill="#000000" d="M 56.5,906.5 C 61.2226,907.007 65.8893,907.84 70.5,909C 80.159,913.828 89.4923,919.161 98.5,925C 109.416,926.774 120.416,927.774 131.5,928C 153.512,929.591 175.512,929.591 197.5,928C 210.598,923.618 223.598,918.952 236.5,914C 250.863,912.698 257.696,919.198 257,933.5C 254.661,937.328 252.161,940.995 249.5,944.5C 256.527,954.536 257.361,965.202 252,976.5C 244.527,983.527 236.027,985.027 226.5,981C 213.614,975.39 200.614,970.057 187.5,965C 157.86,961.846 128.194,961.846 98.5,965C 92.4258,965.568 86.4258,966.568 80.5,968C 72.9297,970.952 65.263,973.619 57.5,976C 47.6678,976.516 40.5011,972.349 36,963.5C 34.4826,957.92 34.1492,952.253 35,946.5C 36.8344,941.338 39.5011,936.672 43,932.5C 43.3333,927.167 43.6667,921.833 44,916.5C 46.3284,910.653 50.4951,907.32 56.5,906.5 Z M 55.5,916.5 C 61.6997,916.016 67.6997,916.849 73.5,919C 80.5165,923.174 87.1831,927.841 93.5,933C 115.828,933.855 138.161,934.521 160.5,935C 167.554,935.093 174.388,936.26 181,938.5C 185.9,938.045 190.733,937.211 195.5,936C 207.723,931.888 219.723,927.221 231.5,922C 238.037,918.994 243.537,920.161 248,925.5C 249.301,927.365 249.635,929.365 249,931.5C 245.778,934.388 242.278,936.888 238.5,939C 234.74,941.17 233.74,944.17 235.5,948C 247.83,953.306 250.163,961.306 242.5,972C 238.239,973.363 233.905,973.696 229.5,973C 217.258,967.879 205.258,962.213 193.5,956C 153.816,956.155 114.149,957.155 74.5,959C 67.3697,963.415 59.703,965.749 51.5,966C 40.9729,959.983 39.6396,952.317 47.5,943C 52.7811,942.264 57.6144,940.431 62,937.5C 62.6667,936.5 62.6667,935.5 62,934.5C 58,931.833 54.6667,928.5 52,924.5C 51.3333,923.167 51.3333,921.833 52,920.5C 53.3756,919.295 54.5423,917.962 55.5,916.5 Z"/></g>
<g><path style="opacity:0.884" fill="#000000" d="M 657.5,1024.5 C 664.443,1028.98 671.443,1033.48 678.5,1038C 685.595,1041.88 692.929,1045.21 700.5,1048C 708.283,1050.24 715.95,1049.9 723.5,1047C 728.167,1044.33 732.833,1041.67 737.5,1039C 745.602,1038.79 746.602,1041.46 740.5,1047C 723.7,1058.78 705.7,1061.11 686.5,1054C 674.597,1048.75 664.431,1041.25 656,1031.5C 655.185,1028.8 655.685,1026.47 657.5,1024.5 Z"/></g>
<g><path style="opacity:0.813" fill="#000000" d="M 943.5,1050.5 C 945.017,1050.51 946.184,1051.18 947,1052.5C 948.076,1057.07 947.243,1061.24 944.5,1065C 943.207,1065.49 941.873,1065.66 940.5,1065.5C 940.119,1060.2 941.119,1055.2 943.5,1050.5 Z"/></g>
<g><path style="opacity:0.812" fill="#000000" d="M 907.5,1054.5 C 910.488,1054.15 911.821,1055.49 911.5,1058.5C 910.828,1063.51 908.828,1067.84 905.5,1071.5C 903.994,1065.55 904.661,1059.89 907.5,1054.5 Z"/></g>
<g><path style="opacity:0.812" fill="#000000" d="M 938.5,1076.5 C 940.453,1077.24 941.453,1078.74 941.5,1081C 941.336,1084.83 940.003,1088.16 937.5,1091C 935.975,1092.01 934.308,1092.51 932.5,1092.5C 931.962,1086.1 933.962,1080.77 938.5,1076.5 Z"/></g>
<g><path style="opacity:0.78" fill="#000000" d="M 899.5,1084.5 C 900.833,1084.5 902.167,1084.5 903.5,1084.5C 903.571,1092.93 899.571,1097.09 891.5,1097C 894.39,1092.95 897.057,1088.78 899.5,1084.5 Z"/></g>
<g><path style="opacity:0.82" fill="#000000" d="M 926.5,1107.5 C 928.167,1107.5 929.833,1107.5 931.5,1107.5C 930.608,1114.12 927.942,1119.95 923.5,1125C 922.207,1125.49 920.873,1125.66 919.5,1125.5C 920.164,1118.84 922.497,1112.84 926.5,1107.5 Z"/></g>
<g><path style="opacity:0.767" fill="#000000" d="M 883.5,1113.5 C 884.5,1113.5 885.5,1113.5 886.5,1113.5C 885.98,1120.9 882.313,1125.9 875.5,1128.5C 876.449,1122.56 879.116,1117.56 883.5,1113.5 Z"/></g>
<g><path style="opacity:0.781" fill="#000000" d="M 913.5,1135.5 C 917.225,1135.78 918.392,1137.78 917,1141.5C 915.941,1144.62 914.608,1147.62 913,1150.5C 911.736,1152.61 909.903,1153.61 907.5,1153.5C 907.81,1146.89 909.81,1140.89 913.5,1135.5 Z"/></g>
<g><path style="opacity:0.794" fill="#000000" d="M 865.5,1143.5 C 866.978,1143.24 868.311,1143.57 869.5,1144.5C 867.418,1148.75 864.751,1152.58 861.5,1156C 860.552,1156.48 859.552,1156.65 858.5,1156.5C 857.968,1150.56 860.302,1146.23 865.5,1143.5 Z"/></g>
<g><path style="opacity:0.794" fill="#000000" d="M 897.5,1161.5 C 899.978,1164.53 900.145,1167.86 898,1171.5C 895.537,1174.96 892.704,1178.13 889.5,1181C 887.393,1181.85 886.059,1181.19 885.5,1179C 888.64,1172.55 892.64,1166.71 897.5,1161.5 Z"/></g>
<g><path style="opacity:0.773" fill="#000000" d="M 842.5,1173.5 C 843.725,1174.15 844.392,1175.32 844.5,1177C 843.606,1182.4 840.606,1186.24 835.5,1188.5C 834.268,1181.96 836.601,1176.96 842.5,1173.5 Z"/></g>
<g><path style="opacity:0.778" fill="#000000" d="M 871.5,1193.5 C 873.665,1193.12 875.332,1193.78 876.5,1195.5C 873.91,1202.1 869.243,1206.1 862.5,1207.5C 862.372,1205.35 862.872,1203.35 864,1201.5C 866.028,1198.31 868.528,1195.64 871.5,1193.5 Z"/></g>
<g><path style="opacity:0.813" fill="#000000" d="M 817.5,1201.5 C 821.7,1201.91 822.533,1203.91 820,1207.5C 818.167,1209.33 816.333,1211.17 814.5,1213C 811.862,1215.11 809.528,1214.94 807.5,1212.5C 810.174,1208.16 813.507,1204.5 817.5,1201.5 Z"/></g>
<g><path style="opacity:0.793" fill="#000000" d="M 850.5,1219.5 C 851.833,1219.5 853.167,1219.5 854.5,1219.5C 852.832,1227.15 848.499,1232.82 841.5,1236.5C 839.046,1234.12 838.879,1231.46 841,1228.5C 843.406,1224.59 846.572,1221.59 850.5,1219.5 Z"/></g>
<g><path style="opacity:0.818" fill="#000000" d="M 784.5,1228.5 C 792.548,1228.1 793.548,1230.6 787.5,1236C 785.182,1237.99 782.516,1239.16 779.5,1239.5C 779.277,1234.95 780.944,1231.28 784.5,1228.5 Z"/></g>
<g><path style="opacity:0.808" fill="#000000" d="M 824.5,1244.5 C 826.167,1244.5 827.833,1244.5 829.5,1244.5C 829.472,1248.72 827.805,1252.22 824.5,1255C 821.833,1257 819.167,1259 816.5,1261C 814.655,1262.13 812.655,1262.63 810.5,1262.5C 813.255,1255.07 817.922,1249.07 824.5,1244.5 Z"/></g>
<g><path style="opacity:0.794" fill="#000000" d="M 760.5,1251.5 C 763.244,1252.07 764.077,1253.74 763,1256.5C 760.479,1260.92 756.812,1263.92 752,1265.5C 750.133,1263.24 750.133,1260.91 752,1258.5C 754.441,1255.55 757.275,1253.21 760.5,1251.5 Z"/></g>
<g><path style="opacity:0.78" fill="#000000" d="M 793.5,1270.5 C 798.156,1269.97 799.323,1271.64 797,1275.5C 793.51,1280.24 789.01,1282.24 783.5,1281.5C 782.339,1279.78 782.505,1278.11 784,1276.5C 786.843,1273.84 790.009,1271.84 793.5,1270.5 Z"/></g>
<g><path style="opacity:0.868" fill="#000000" d="M 2399.5,1384.5 C 2399.5,1390.17 2399.5,1395.83 2399.5,1401.5C 2396.49,1410.66 2390.83,1417.5 2382.5,1422C 2390.1,1446.71 2381.1,1459.38 2355.5,1460C 2342.41,1457.58 2333.57,1450.08 2329,1437.5C 2326.99,1431.46 2325.49,1425.29 2324.5,1419C 2323.73,1417.78 2322.73,1416.78 2321.5,1416C 2288.19,1405.12 2255.19,1393.45 2222.5,1381C 2214.66,1380.48 2206.83,1380.65 2199,1381.5C 2187.29,1382.93 2177.63,1379.27 2170,1370.5C 2164.53,1356.22 2167.36,1343.72 2178.5,1333C 2184.42,1331.92 2190.42,1331.08 2196.5,1330.5C 2187.16,1318.25 2185.99,1305.25 2193,1291.5C 2211.2,1282.76 2225.86,1286.76 2237,1303.5C 2241.57,1312.94 2243.57,1322.94 2243,1333.5C 2245.57,1337.7 2249.07,1340.87 2253.5,1343C 2282.39,1354.13 2311.39,1364.96 2340.5,1375.5C 2344.83,1373.67 2349.16,1371.84 2353.5,1370C 2364.21,1369.19 2374.87,1369.52 2385.5,1371C 2392.72,1373.05 2397.38,1377.55 2399.5,1384.5 Z M 2208.5,1293.5 C 2220.54,1294.69 2228.71,1301.03 2233,1312.5C 2234.07,1318.45 2234.74,1324.45 2235,1330.5C 2236.81,1340.66 2242.65,1347.49 2252.5,1351C 2281.86,1360.23 2310.53,1371.23 2338.5,1384C 2340.17,1384.67 2341.83,1384.67 2343.5,1384C 2347.93,1381.45 2352.6,1379.45 2357.5,1378C 2366.17,1377.33 2374.83,1377.33 2383.5,1378C 2390.05,1380.24 2393.05,1384.91 2392.5,1392C 2392.58,1399.51 2389.91,1405.85 2384.5,1411C 2380.3,1411.66 2376.14,1411.5 2372,1410.5C 2370.19,1410.49 2368.69,1411.16 2367.5,1412.5C 2376.6,1421.42 2379.44,1432.09 2376,1444.5C 2373.25,1448.57 2369.42,1451.07 2364.5,1452C 2349.35,1454.34 2339.52,1448.18 2335,1433.5C 2334.08,1430.9 2333.41,1428.23 2333,1425.5C 2333.15,1419.83 2333.65,1414.16 2334.5,1408.5C 2329.1,1408.69 2323.77,1408.19 2318.5,1407C 2290.91,1399.14 2263.58,1390.47 2236.5,1381C 2231.83,1378.33 2227.17,1375.67 2222.5,1373C 2215.34,1373.93 2208.18,1375.1 2201,1376.5C 2193.49,1376.48 2186.33,1374.98 2179.5,1372C 2175.45,1367.85 2173.78,1362.85 2174.5,1357C 2173.76,1348.81 2176.76,1342.48 2183.5,1338C 2191.88,1337.48 2200.05,1338.64 2208,1341.5C 2209.97,1341.53 2211.47,1340.7 2212.5,1339C 2208.75,1332.91 2204.58,1327.08 2200,1321.5C 2194.76,1312.31 2195.6,1303.81 2202.5,1296C 2204.61,1295.16 2206.61,1294.32 2208.5,1293.5 Z"/></g>
<g><path style="opacity:0.894" fill="#000000" d="M 1999.5,1371.5 C 2016.64,1370.46 2022.8,1378.13 2018,1394.5C 2011.9,1403.93 2003.74,1406.1 1993.5,1401C 1988.34,1393.69 1988.17,1386.19 1993,1378.5C 1995.37,1376.3 1997.54,1373.96 1999.5,1371.5 Z M 2002.5,1379.5 C 2001.81,1384.06 2000.14,1388.22 1997.5,1392C 2001.89,1397.89 2006.39,1397.72 2011,1391.5C 2013.94,1383.59 2011.11,1379.59 2002.5,1379.5 Z"/></g>
<g><path style="opacity:0.878" fill="#000000" d="M 1961.5,1381.5 C 1974.93,1382.11 1980.43,1389.11 1978,1402.5C 1974.89,1414.64 1967.39,1418.8 1955.5,1415C 1948.3,1409.34 1946.47,1402.17 1950,1393.5C 1951.35,1386.99 1955.18,1382.99 1961.5,1381.5 Z M 1962.5,1389.5 C 1958.95,1392.27 1957.28,1395.94 1957.5,1400.5C 1956.91,1404.65 1958.41,1407.65 1962,1409.5C 1967.91,1407.55 1971.07,1403.39 1971.5,1397C 1970.49,1392.16 1967.49,1389.66 1962.5,1389.5 Z"/></g>
<g><path style="opacity:0.896" fill="#000000" d="M 1928.5,1419.5 C 1944.64,1417.15 1949.81,1423.49 1944,1438.5C 1936.07,1448.57 1927.4,1449.57 1918,1441.5C 1913.62,1430.05 1917.12,1422.72 1928.5,1419.5 Z M 1932.5,1425.5 C 1930.56,1426.93 1928.73,1428.6 1927,1430.5C 1927.13,1440.66 1930.8,1441.99 1938,1434.5C 1940.26,1429.02 1938.43,1426.02 1932.5,1425.5 Z"/></g>
<g><path style="opacity:0.88" fill="#000000" d="M 1805.5,1436.5 C 1812.49,1437.32 1816.32,1441.32 1817,1448.5C 1818.03,1456.61 1815.53,1463.44 1809.5,1469C 1800.87,1471.95 1793.71,1469.78 1788,1462.5C 1785.33,1455 1786.83,1448.5 1792.5,1443C 1796.66,1440.25 1800.99,1438.09 1805.5,1436.5 Z M 1802.5,1445.5 C 1798.98,1447.86 1796.31,1451.03 1794.5,1455C 1795.1,1457.47 1796.44,1459.47 1798.5,1461C 1806.21,1464.31 1809.88,1461.65 1809.5,1453C 1809.68,1448.02 1807.35,1445.52 1802.5,1445.5 Z"/></g>
<g><path style="opacity:0.892" fill="#000000" d="M 1766.5,1466.5 C 1775.14,1465.32 1782.64,1467.66 1789,1473.5C 1790.13,1483.43 1787.3,1491.93 1780.5,1499C 1770.05,1501.3 1761.89,1498.14 1756,1489.5C 1754.43,1479.33 1757.93,1471.66 1766.5,1466.5 Z M 1773.5,1474.5 C 1773.44,1478.4 1771.44,1480.56 1767.5,1481C 1766.11,1481.96 1765.44,1483.29 1765.5,1485C 1767.8,1492.51 1772.3,1494.34 1779,1490.5C 1780.57,1487.13 1781.73,1483.63 1782.5,1480C 1781.19,1475.67 1778.19,1473.83 1773.5,1474.5 Z"/></g>
<g><path style="opacity:0.886" fill="#000000" d="M 1824.5,1469.5 C 1829.93,1469.16 1835.26,1469.66 1840.5,1471C 1844.97,1474.47 1849.13,1478.3 1853,1482.5C 1857.06,1505.04 1849.22,1521.87 1829.5,1533C 1822.83,1533.33 1816.17,1533.67 1809.5,1534C 1815.08,1546.19 1813.08,1557.19 1803.5,1567C 1795.35,1572.92 1787.35,1572.58 1779.5,1566C 1772.69,1560.56 1770.52,1553.73 1773,1545.5C 1780.69,1535.48 1790.86,1530.31 1803.5,1530C 1794.19,1521.05 1792.03,1510.55 1797,1498.5C 1803.33,1486.01 1812.5,1476.34 1824.5,1469.5 Z M 1829.5,1476.5 C 1822.03,1480.46 1815.53,1485.79 1810,1492.5C 1803.17,1501.11 1801.84,1510.44 1806,1520.5C 1813.79,1527.5 1822.29,1528.33 1831.5,1523C 1842.48,1513.74 1846.98,1501.91 1845,1487.5C 1841.2,1484.7 1837.7,1481.54 1834.5,1478C 1832.98,1476.99 1831.31,1476.49 1829.5,1476.5 Z M 1797.5,1537.5 C 1794.16,1538.6 1791.32,1540.6 1789,1543.5C 1787.31,1548.09 1785.14,1552.42 1782.5,1556.5C 1786.62,1562.35 1791.95,1563.85 1798.5,1561C 1802.84,1557.16 1805.17,1552.33 1805.5,1546.5C 1805.61,1540.95 1802.95,1537.95 1797.5,1537.5 Z"/></g>
<g><path style="opacity:0.866" fill="#000000" d="M 353.5,1495.5 C 357.182,1495.33 360.848,1495.5 364.5,1496C 368.277,1496.78 370.277,1499.11 370.5,1503C 369.076,1511.55 364.076,1514.89 355.5,1513C 346.914,1508 346.247,1502.16 353.5,1495.5 Z M 360.5,1503.5 C 359.375,1505.13 358.041,1506.63 356.5,1508C 358.167,1508.67 359.833,1508.67 361.5,1508C 366.971,1505.3 366.637,1503.8 360.5,1503.5 Z"/></g>
<g><path style="opacity:0.884" fill="#000000" d="M 1763.5,1504.5 C 1780.2,1504.03 1786.03,1511.69 1781,1527.5C 1776.1,1538.2 1767.93,1542.37 1756.5,1540C 1746.28,1533.2 1743.78,1524.36 1749,1513.5C 1753.05,1509.07 1757.89,1506.07 1763.5,1504.5 Z M 1770.5,1512.5 C 1767.18,1513.35 1763.85,1514.51 1760.5,1516C 1755.85,1519.62 1754.68,1524.12 1757,1529.5C 1760.71,1535.09 1765.05,1535.75 1770,1531.5C 1772.56,1527.55 1774.72,1523.39 1776.5,1519C 1775.69,1515.69 1773.69,1513.53 1770.5,1512.5 Z"/></g>
<g><path style="opacity:0.886" fill="#000000" d="M 1541.5,1512.5 C 1554.77,1512.97 1560.27,1519.97 1558,1533.5C 1551.93,1550.8 1541.1,1554.97 1525.5,1546C 1517.57,1537.93 1517.57,1529.93 1525.5,1522C 1530.76,1518.54 1536.1,1515.37 1541.5,1512.5 Z M 1542.5,1521.5 C 1538.36,1523.12 1534.86,1525.79 1532,1529.5C 1527.26,1535.25 1528.42,1539.75 1535.5,1543C 1542.29,1543.55 1547.12,1540.72 1550,1534.5C 1552.08,1527.31 1549.58,1522.97 1542.5,1521.5 Z"/></g>
<g><path style="opacity:0.895" fill="#000000" d="M -0.5,1642.5 C -0.5,1629.83 -0.5,1617.17 -0.5,1604.5C 2.92256,1593.26 10.5892,1586.92 22.5,1585.5C 33.0394,1587.55 43.3727,1590.05 53.5,1593C 87.3424,1578.75 120.676,1563.41 153.5,1547C 157.5,1545.67 161.5,1544.33 165.5,1543C 168.296,1533.08 173.63,1524.75 181.5,1518C 205.912,1507.12 221.412,1514.62 228,1540.5C 243.08,1552.37 247.08,1567.04 240,1584.5C 228.881,1594.91 215.714,1598.74 200.5,1596C 194.337,1593.09 188.337,1589.92 182.5,1586.5C 144.318,1601.09 106.985,1617.59 70.5,1636C 66.3728,1643.09 61.8728,1649.92 57,1656.5C 50.5331,1662.98 42.6998,1665.98 33.5,1665.5C 15.1033,1667.67 3.76996,1660 -0.5,1642.5 Z M 194.5,1521.5 C 205.82,1520.15 213.153,1524.81 216.5,1535.5C 215.4,1539.77 212.734,1542.6 208.5,1544C 203.492,1547.64 201.325,1552.48 202,1558.5C 203,1559.17 204,1559.83 205,1560.5C 208.158,1558.04 210.991,1555.21 213.5,1552C 222.901,1549.95 229.734,1553.45 234,1562.5C 235.391,1581.42 226.557,1589.92 207.5,1588C 201.449,1586.81 196.449,1583.81 192.5,1579C 186.365,1574.81 180.032,1574.48 173.5,1578C 138.372,1594.23 103.038,1609.9 67.5,1625C 66.4214,1625.96 65.2547,1626.79 64,1627.5C 59.669,1637.33 53.5023,1645.83 45.5,1653C 36.7088,1656.5 27.7088,1657.16 18.5,1655C 10.5489,1649.81 7.71562,1642.64 10,1633.5C 11.2598,1630.57 13.4265,1628.74 16.5,1628C 22.6826,1627.38 28.8493,1627.55 35,1628.5C 40.466,1629.04 41.6327,1627.21 38.5,1623C 28.8699,1619.27 18.8699,1617.6 8.5,1618C 7.19551,1617.2 6.52884,1616.03 6.5,1614.5C 8.48032,1599.01 17.147,1592.51 32.5,1595C 39.5283,1596 44.5283,1599.67 47.5,1606C 49.1667,1606.67 50.8333,1606.67 52.5,1606C 57.497,1602.17 62.8303,1598.83 68.5,1596C 100.5,1580.67 132.5,1565.33 164.5,1550C 168.418,1548.84 172.418,1548.34 176.5,1548.5C 175.306,1534.52 181.306,1525.52 194.5,1521.5 Z"/></g>
<g><path style="opacity:0.878" fill="#000000" d="M 1485.5,1515.5 C 1496.85,1514.23 1504.18,1518.9 1507.5,1529.5C 1505.44,1537.45 1501.44,1544.28 1495.5,1550C 1491.15,1551.89 1487.15,1551.23 1483.5,1548C 1469.6,1536.11 1470.26,1525.28 1485.5,1515.5 Z M 1488.5,1524.5 C 1480.02,1531.96 1481.18,1537.96 1492,1542.5C 1495.71,1539.61 1498.55,1535.94 1500.5,1531.5C 1497.95,1526.61 1493.95,1524.27 1488.5,1524.5 Z"/></g>
<g><path style="opacity:0.882" fill="#000000" d="M 462.5,1517.5 C 472.852,1516.82 479.519,1521.32 482.5,1531C 481.449,1537.37 478.116,1542.04 472.5,1545C 462.076,1550.75 452.909,1549.25 445,1540.5C 443.472,1533.52 444.972,1527.36 449.5,1522C 453.98,1520.56 458.313,1519.06 462.5,1517.5 Z M 461.5,1524.5 C 460.093,1526.31 458.926,1528.31 458,1530.5C 455.198,1534.75 456.031,1537.91 460.5,1540C 469.512,1541.97 474.012,1538.47 474,1529.5C 470.67,1525.75 466.503,1524.09 461.5,1524.5 Z"/></g>
<g><path style="opacity:0.886" fill="#000000" d="M 536.5,1529.5 C 546.821,1528.65 550.987,1533.32 549,1543.5C 546.185,1549.17 541.685,1551 535.5,1549C 527.63,1547.25 525.464,1542.75 529,1535.5C 531.114,1532.88 533.614,1530.88 536.5,1529.5 Z M 540.5,1536.5 C 537.176,1538.48 536.676,1541.15 539,1544.5C 543.708,1542.21 544.208,1539.54 540.5,1536.5 Z"/></g>
<g><path style="opacity:0.852" fill="#000000" d="M 372.5,1533.5 C 387.099,1531.93 392.599,1538.27 389,1552.5C 388.535,1553.93 387.701,1555.1 386.5,1556C 373.594,1560.32 367.428,1555.82 368,1542.5C 368.986,1539.19 370.486,1536.19 372.5,1533.5 Z M 376.5,1540.5 C 375.496,1541.68 374.662,1543.02 374,1544.5C 373.035,1552.17 376.035,1554.51 383,1551.5C 383.667,1548.5 383.667,1545.5 383,1542.5C 381.211,1540.77 379.044,1540.1 376.5,1540.5 Z"/></g>
<g><path style="opacity:0.895" fill="#000000" d="M 1547.5,1572.5 C 1547.02,1560.97 1551.68,1552.14 1561.5,1546C 1562.83,1545.33 1564.17,1545.33 1565.5,1546C 1571.5,1548.67 1577.5,1551.33 1583.5,1554C 1588.78,1562.81 1588.61,1571.64 1583,1580.5C 1574.65,1588.87 1565.49,1589.7 1555.5,1583C 1551.96,1580.06 1549.3,1576.56 1547.5,1572.5 Z M 1565.5,1558.5 C 1561.41,1560.76 1558.07,1563.93 1555.5,1568C 1558.68,1577.42 1565.02,1580.76 1574.5,1578C 1584.09,1565.59 1581.09,1559.09 1565.5,1558.5 Z"/></g>
<g><path style="opacity:0.859" fill="#000000" d="M 564.5,1546.5 C 571.551,1545.43 577.884,1546.93 583.5,1551C 596.195,1564.73 598.028,1579.9 589,1596.5C 581.86,1606.01 572.36,1609.51 560.5,1607C 542.718,1601.57 535.218,1589.74 538,1571.5C 543.826,1559.72 552.659,1551.39 564.5,1546.5 Z M 558.5,1555.5 C 550.096,1561.14 545.096,1568.97 543.5,1579C 546.15,1595.66 555.817,1603.33 572.5,1602C 579.592,1597.01 584.092,1590.18 586,1581.5C 587.763,1561.43 578.597,1552.77 558.5,1555.5 Z"/></g>
<g><path style="opacity:0.883" fill="#000000" d="M 419.5,1547.5 C 427.226,1545.99 433.726,1547.99 439,1553.5C 441.471,1559.25 440.637,1564.41 436.5,1569C 420.82,1574.31 413.654,1568.81 415,1552.5C 415.74,1550.03 417.24,1548.36 419.5,1547.5 Z M 426.5,1553.5 C 424.652,1555.18 423.652,1557.35 423.5,1560C 425.198,1566.12 428.365,1566.95 433,1562.5C 434.535,1556.86 432.368,1553.86 426.5,1553.5 Z"/></g>
<g><path style="opacity:0.867" fill="#000000" d="M 1447.5,1550.5 C 1460.51,1549.01 1465.68,1554.68 1463,1567.5C 1459.97,1581.41 1452.14,1584.91 1439.5,1578C 1431.48,1569.73 1431.81,1561.73 1440.5,1554C 1442.93,1552.79 1445.26,1551.62 1447.5,1550.5 Z M 1450.5,1557.5 C 1446.75,1559.93 1444.08,1563.26 1442.5,1567.5C 1444.32,1574 1448.16,1575.66 1454,1572.5C 1455.91,1569.17 1457.41,1565.67 1458.5,1562C 1456.62,1559.3 1453.95,1557.8 1450.5,1557.5 Z"/></g>
<g><path style="opacity:0.897" fill="#000000" d="M 1547.5,1572.5 C 1551.21,1581.75 1551.38,1591.09 1548,1600.5C 1535.86,1625.65 1516.69,1633.15 1490.5,1623C 1467.64,1604.76 1466.97,1585.76 1488.5,1566C 1495.82,1560.01 1504.15,1556.18 1513.5,1554.5C 1528.35,1554.31 1539.68,1560.31 1547.5,1572.5 Z M 1504.5,1564.5 C 1499.27,1568.23 1494.43,1572.56 1490,1577.5C 1478.39,1594.43 1481.89,1607.59 1500.5,1617C 1517.28,1621.03 1530.11,1615.53 1539,1600.5C 1544.33,1587.64 1541.5,1577.14 1530.5,1569C 1522.22,1565.45 1513.55,1563.95 1504.5,1564.5 Z"/></g>
<g><path style="opacity:0.863" fill="#000000" d="M 514.5,1565.5 C 516.527,1565.34 518.527,1565.5 520.5,1566C 527.643,1570.76 530.476,1577.26 529,1585.5C 524.977,1593.38 518.81,1595.54 510.5,1592C 504.679,1586.87 503.179,1580.71 506,1573.5C 508.729,1570.6 511.562,1567.93 514.5,1565.5 Z M 516.5,1574.5 C 514.68,1576.13 513.347,1578.13 512.5,1580.5C 513.702,1587.45 516.869,1588.78 522,1584.5C 525.058,1578.4 523.225,1575.07 516.5,1574.5 Z"/></g>
<g><path style="opacity:0.879" fill="#000000" d="M 818.5,1568.5 C 821.649,1568.21 824.649,1568.71 827.5,1570C 837.837,1578 841.671,1588.5 839,1601.5C 838.097,1608.89 835.264,1615.39 830.5,1621C 819.991,1625.94 809.657,1625.61 799.5,1620C 790.357,1608.7 789.19,1596.53 796,1583.5C 802.653,1577.1 810.153,1572.1 818.5,1568.5 Z M 818.5,1577.5 C 801.892,1583.04 796.059,1594.38 801,1611.5C 805.412,1615.21 810.412,1617.87 816,1619.5C 820.154,1618.35 823.488,1616.01 826,1612.5C 831.456,1602.3 831.789,1591.96 827,1581.5C 824.772,1578.92 821.939,1577.59 818.5,1577.5 Z"/></g>
<g><path style="opacity:0.889" fill="#000000" d="M 865.5,1575.5 C 883.704,1575.2 890.537,1583.87 886,1601.5C 879.582,1616.18 870.582,1618.18 859,1607.5C 850.123,1594.4 852.289,1583.74 865.5,1575.5 Z M 863.5,1591.5 C 865.861,1591.33 868.194,1590.99 870.5,1590.5C 870.243,1594.52 869.243,1598.35 867.5,1602C 867.543,1604.38 868.709,1605.88 871,1606.5C 874.987,1605.18 877.654,1602.51 879,1598.5C 882.017,1591.38 880.184,1586.05 873.5,1582.5C 868.854,1584.15 865.52,1587.15 863.5,1591.5 Z"/></g>
<g><path style="opacity:0.886" fill="#000000" d="M 1310.5,1580.5 C 1320.1,1582.26 1323.93,1587.93 1322,1597.5C 1319.1,1602.15 1314.94,1603.65 1309.5,1602C 1301.27,1599.06 1299.1,1593.9 1303,1586.5C 1305.11,1583.88 1307.61,1581.88 1310.5,1580.5 Z M 1310.5,1590.5 C 1310.69,1592.2 1311.52,1593.53 1313,1594.5C 1315.06,1591.69 1314.22,1590.36 1310.5,1590.5 Z"/></g>
<g><path style="opacity:0.896" fill="#000000" d="M 1268.5,1588.5 C 1274.7,1587.28 1279.87,1588.95 1284,1593.5C 1289.45,1608.29 1286.28,1620.79 1274.5,1631C 1257.98,1638.72 1247.15,1633.89 1242,1616.5C 1240.83,1609.69 1242.99,1604.19 1248.5,1600C 1256.01,1597.42 1262.68,1593.58 1268.5,1588.5 Z M 1269.5,1598.5 C 1263.54,1603.05 1259.54,1609.05 1257.5,1616.5C 1255.16,1617.73 1253.32,1617.06 1252,1614.5C 1251.98,1619.27 1254.14,1622.77 1258.5,1625C 1270.53,1627.88 1277.03,1623.05 1278,1610.5C 1280.23,1602.57 1277.39,1598.57 1269.5,1598.5 Z"/></g>
<g><path style="opacity:0.889" fill="#000000" d="M 1638.5,1589.5 C 1653.68,1587.18 1660.51,1593.52 1659,1608.5C 1652.26,1615.97 1645.26,1616.3 1638,1609.5C 1633.31,1602.49 1633.48,1595.83 1638.5,1589.5 Z M 1648.5,1598.5 C 1647.54,1601.43 1646.87,1604.43 1646.5,1607.5C 1648.39,1607.7 1649.89,1607.04 1651,1605.5C 1652.09,1602.39 1651.25,1600.05 1648.5,1598.5 Z"/></g>
<g><path style="opacity:0.881" fill="#000000" d="M 1684.5,1591.5 C 1696.41,1591.64 1701.58,1597.64 1700,1609.5C 1696.45,1616.68 1691.29,1618.18 1684.5,1614C 1673.95,1606.23 1673.95,1598.73 1684.5,1591.5 Z M 1689.5,1599.5 C 1688.99,1601.37 1688.32,1603.2 1687.5,1605C 1687.89,1606.95 1688.89,1608.45 1690.5,1609.5C 1695.46,1605.97 1695.13,1602.63 1689.5,1599.5 Z"/></g>
<g><path style="opacity:0.863" fill="#000000" d="M 2190.5,1596.5 C 2199.38,1595.98 2207.71,1597.81 2215.5,1602C 2217.38,1603.54 2218.88,1605.38 2220,1607.5C 2223.12,1619.35 2221.62,1630.51 2215.5,1641C 2224.73,1644.57 2230.9,1651.07 2234,1660.5C 2236.66,1668.76 2236.99,1677.09 2235,1685.5C 2231.82,1692.67 2226.32,1696.84 2218.5,1698C 2204.82,1701.06 2191.48,1699.73 2178.5,1694C 2176.5,1693.33 2174.5,1693.33 2172.5,1694C 2139.41,1709.14 2105.08,1720.47 2069.5,1728C 2057.84,1736.5 2045.84,1744.5 2033.5,1752C 2021.55,1755.61 2013.72,1751.44 2010,1739.5C 2006.63,1729.91 2008.47,1721.58 2015.5,1714.5C 2004.25,1709.06 1997.75,1700.06 1996,1687.5C 1994.71,1681.73 1995.88,1676.56 1999.5,1672C 2010.26,1668.15 2021.26,1667.49 2032.5,1670C 2040.77,1673.39 2048.93,1676.89 2057,1680.5C 2063.16,1679.28 2069.32,1678.11 2075.5,1677C 2077.78,1674.81 2080.45,1674.14 2083.5,1675C 2072.95,1682.3 2061.28,1685.96 2048.5,1686C 2041.63,1681.56 2034.3,1678.23 2026.5,1676C 2006.53,1671.24 2000.36,1678.41 2008,1697.5C 2014.71,1704.23 2022.87,1707.73 2032.5,1708C 2034.29,1708.42 2035.62,1709.42 2036.5,1711C 2032.17,1714.5 2027.51,1717.5 2022.5,1720C 2014.55,1728.11 2014.88,1736.11 2023.5,1744C 2024.87,1744.87 2026.37,1745.37 2028,1745.5C 2041.45,1740.06 2052.61,1731.56 2061.5,1720C 2064.26,1720.6 2067.09,1721.43 2070,1722.5C 2106.02,1713.94 2140.68,1701.61 2174,1685.5C 2185.99,1692.04 2198.82,1694.87 2212.5,1694C 2229.79,1686.61 2234.62,1674.45 2227,1657.5C 2224.45,1653.28 2220.95,1650.11 2216.5,1648C 2211.86,1647.2 2207.36,1646.03 2203,1644.5C 2202.33,1643.17 2202.33,1641.83 2203,1640.5C 2212.45,1632.03 2215.11,1621.7 2211,1609.5C 2202.95,1603.01 2194.12,1601.85 2184.5,1606C 2181.1,1607.4 2178.26,1609.57 2176,1612.5C 2168.51,1625.31 2161.68,1638.47 2155.5,1652C 2143.26,1656.41 2131.26,1661.41 2119.5,1667C 2113.58,1668.61 2107.58,1669.28 2101.5,1669C 2116.89,1661.8 2132.23,1654.3 2147.5,1646.5C 2153.83,1633.84 2160.66,1621.51 2168,1609.5C 2173.89,1602.15 2181.39,1597.81 2190.5,1596.5 Z"/></g>
<g><path style="opacity:0.876" fill="#000000" d="M 529.5,1604.5 C 543.035,1604.54 548.202,1611.21 545,1624.5C 538.543,1632.17 531.543,1632.51 524,1625.5C 521.657,1620.4 520.99,1615.06 522,1609.5C 524.17,1607.18 526.67,1605.51 529.5,1604.5 Z M 534.5,1612.5 C 533.019,1613.42 531.686,1614.59 530.5,1616C 533.825,1625.86 536.825,1625.86 539.5,1616C 538.899,1613.36 537.233,1612.2 534.5,1612.5 Z"/></g>
<g><path style="opacity:0.896" fill="#000000" d="M 1011.5,1606.5 C 1023.66,1607.82 1029.5,1614.49 1029,1626.5C 1026.68,1630.82 1023.18,1633.65 1018.5,1635C 1011.75,1635.88 1005.08,1635.54 998.5,1634C 996.741,1632.99 995.574,1631.49 995,1629.5C 992.935,1616.4 998.435,1608.73 1011.5,1606.5 Z M 1010.5,1615.5 C 1002.99,1618.65 1001.99,1623.15 1007.5,1629C 1014.1,1630.87 1018.77,1628.7 1021.5,1622.5C 1019.6,1617.38 1015.93,1615.05 1010.5,1615.5 Z"/></g>
<g><path style="opacity:0.885" fill="#000000" d="M 1721.5,1608.5 C 1729.66,1607.16 1735.5,1610.16 1739,1617.5C 1739.75,1620.3 1739.42,1622.97 1738,1625.5C 1732.2,1632.22 1725.37,1633.72 1717.5,1630C 1713.7,1625.91 1712.53,1621.08 1714,1615.5C 1715.74,1612.25 1718.24,1609.92 1721.5,1608.5 Z M 1726.5,1617.5 C 1724.36,1618.81 1722.69,1620.65 1721.5,1623C 1723.37,1625.97 1725.7,1626.3 1728.5,1624C 1732.66,1620.47 1731.99,1618.31 1726.5,1617.5 Z"/></g>
<g><path style="opacity:0.898" fill="#000000" d="M 1315.5,1613.5 C 1319.8,1612.8 1323.3,1614.13 1326,1617.5C 1333.85,1631.77 1330.01,1641.44 1314.5,1646.5C 1311.23,1645.95 1308.73,1644.28 1307,1641.5C 1303.61,1633.34 1303.94,1625.34 1308,1617.5C 1310.51,1616 1313.01,1614.66 1315.5,1613.5 Z M 1315.5,1624.5 C 1314.82,1628.46 1315.16,1632.46 1316.5,1636.5C 1319.88,1635.42 1321.54,1633.09 1321.5,1629.5C 1321.34,1625.67 1319.34,1624.01 1315.5,1624.5 Z"/></g>
<g><path style="opacity:0.884" fill="#000000" d="M 1610.5,1614.5 C 1620.19,1611.93 1626.69,1615.26 1630,1624.5C 1632.17,1632.67 1629.67,1638.84 1622.5,1643C 1614.06,1643.24 1608.22,1639.4 1605,1631.5C 1601.63,1624 1603.46,1618.33 1610.5,1614.5 Z M 1613.5,1621.5 C 1613.05,1626.04 1613.72,1630.37 1615.5,1634.5C 1620.23,1635.79 1623.23,1633.96 1624.5,1629C 1623.24,1623.03 1619.57,1620.53 1613.5,1621.5 Z"/></g>
<g><path style="opacity:0.88" fill="#000000" d="M 570.5,1615.5 C 578.857,1615.12 586.024,1617.78 592,1623.5C 592.069,1635.19 586.069,1640.86 574,1640.5C 567.456,1641.4 563.123,1638.73 561,1632.5C 558.529,1623.42 561.696,1617.76 570.5,1615.5 Z M 573.5,1622.5 C 569.555,1626.34 569.555,1630.17 573.5,1634C 577.811,1633.93 581.311,1632.09 584,1628.5C 584.711,1626.63 584.211,1625.13 582.5,1624C 579.649,1622.71 576.649,1622.21 573.5,1622.5 Z"/></g>
<g><path style="opacity:0.887" fill="#000000" d="M 856.5,1616.5 C 867.465,1616.3 872.965,1621.63 873,1632.5C 867.724,1647.13 857.891,1651.63 843.5,1646C 834.667,1638 834.667,1630 843.5,1622C 847.717,1619.55 852.05,1617.72 856.5,1616.5 Z M 857.5,1624.5 C 851.862,1626.37 848.529,1630.37 847.5,1636.5C 848.999,1639.33 851.333,1641 854.5,1641.5C 858.344,1640.17 861.511,1637.83 864,1634.5C 866.574,1627.97 864.408,1624.64 857.5,1624.5 Z"/></g>
<g><path style="opacity:0.895" fill="#000000" d="M 781.5,1628.5 C 783.017,1628.51 784.184,1629.18 785,1630.5C 786.902,1634.74 789.235,1638.74 792,1642.5C 794.747,1655.75 789.247,1661.25 775.5,1659C 768.001,1655.5 765.167,1649.67 767,1641.5C 770.162,1635.16 774.996,1630.83 781.5,1628.5 Z M 779.5,1641.5 C 778.878,1642.63 778.045,1643.63 777,1644.5C 776.011,1649.84 778.178,1652.34 783.5,1652C 786.74,1646.66 785.407,1643.16 779.5,1641.5 Z"/></g>
<g><path style="opacity:0.886" fill="#000000" d="M 923.5,1629.5 C 937.444,1628.61 942.944,1634.94 940,1648.5C 934.919,1654.86 928.419,1656.69 920.5,1654C 912.843,1651.37 910.343,1646.21 913,1638.5C 915.505,1634.19 919.005,1631.19 923.5,1629.5 Z M 926.5,1637.5 C 924.765,1639.23 923.432,1641.23 922.5,1643.5C 925.216,1648.69 928.716,1649.36 933,1645.5C 934.666,1639.67 932.499,1637 926.5,1637.5 Z"/></g>
<g><path style="opacity:0.882" fill="#000000" d="M 815.5,1634.5 C 826.753,1632.95 833.753,1637.62 836.5,1648.5C 833.945,1657.46 827.945,1662.13 818.5,1662.5C 808.656,1662.65 802.656,1657.98 800.5,1648.5C 800.577,1646.7 801.077,1645.03 802,1643.5C 805.882,1639.43 810.382,1636.43 815.5,1634.5 Z M 819.5,1641.5 C 815.233,1643.27 812.567,1646.44 811.5,1651C 813.529,1656.42 817.195,1657.75 822.5,1655C 829.909,1648.48 828.909,1643.98 819.5,1641.5 Z"/></g>
<g><path style="opacity:0.887" fill="#000000" d="M 1282.5,1638.5 C 1292.24,1641.63 1296.07,1648.29 1294,1658.5C 1292.41,1663.05 1289.25,1665.89 1284.5,1667C 1271.29,1671.64 1264.79,1667.14 1265,1653.5C 1268.89,1646.1 1274.72,1641.1 1282.5,1638.5 Z M 1281.5,1648.5 C 1277.91,1650.09 1275.24,1652.76 1273.5,1656.5C 1275.12,1660.06 1277.79,1661.22 1281.5,1660C 1288.14,1656.03 1288.14,1652.19 1281.5,1648.5 Z"/></g>
<g><path style="opacity:0.888" fill="#000000" d="M 1245.5,1639.5 C 1255.43,1639.43 1260.43,1644.43 1260.5,1654.5C 1259.5,1664.99 1253.67,1669.99 1243,1669.5C 1228.95,1667.1 1225.61,1659.77 1233,1647.5C 1236.58,1643.72 1240.75,1641.06 1245.5,1639.5 Z M 1246.5,1647.5 C 1245.17,1648.93 1243.67,1650.27 1242,1651.5C 1240.34,1654.29 1240.17,1657.12 1241.5,1660C 1247.59,1663.18 1251.25,1661.51 1252.5,1655C 1252.72,1650.57 1250.72,1648.07 1246.5,1647.5 Z"/></g>
<g><path style="opacity:0.897" fill="#000000" d="M 1046.5,1640.5 C 1058.9,1639.88 1066.23,1645.71 1068.5,1658C 1065.91,1674.62 1056.57,1680.62 1040.5,1676C 1035.45,1671.52 1033.11,1665.85 1033.5,1659C 1033.01,1649.34 1037.34,1643.17 1046.5,1640.5 Z M 1049.5,1649.5 C 1050.82,1651.31 1051.32,1653.31 1051,1655.5C 1049,1657.5 1047,1659.5 1045,1661.5C 1042.71,1664.83 1043.21,1667.67 1046.5,1670C 1054.57,1669.61 1059.23,1665.28 1060.5,1657C 1059.41,1650.75 1055.74,1648.25 1049.5,1649.5 Z"/></g>
<g><path style="opacity:0.677" fill="#000000" d="M 2095.5,1669.5 C 2100.39,1669.64 2100.72,1671.14 2096.5,1674C 2093.88,1674.82 2091.22,1675.32 2088.5,1675.5C 2088.33,1674.18 2088.66,1673.01 2089.5,1672C 2091.72,1671.43 2093.72,1670.6 2095.5,1669.5 Z"/></g>
<g><path style="opacity:0.879" fill="#000000" d="M 1661.5,1745.5 C 1670.35,1745.84 1677.52,1749.51 1683,1756.5C 1687.93,1764.05 1693.1,1771.38 1698.5,1778.5C 1698.39,1779.44 1698.06,1780.28 1697.5,1781C 1694.7,1781.75 1692.03,1781.42 1689.5,1780C 1682.83,1771.67 1676.17,1763.33 1669.5,1755C 1657.91,1751.92 1653.41,1756.42 1656,1768.5C 1658.41,1775.82 1661.25,1782.99 1664.5,1790C 1664.36,1790.77 1664.02,1791.44 1663.5,1792C 1660.62,1793.13 1657.62,1793.79 1654.5,1794C 1652.71,1794.78 1651.21,1795.95 1650,1797.5C 1648.49,1802.75 1648.16,1808.08 1649,1813.5C 1652.05,1817.36 1656.05,1819.36 1661,1819.5C 1668.58,1817.42 1676.25,1815.75 1684,1814.5C 1717.07,1818.45 1750.23,1821.61 1783.5,1824C 1786.38,1824.44 1789.04,1825.44 1791.5,1827C 1794.23,1830.85 1796.4,1835.01 1798,1839.5C 1804.35,1845.6 1811.85,1848.1 1820.5,1847C 1826.58,1843.88 1830.24,1838.88 1831.5,1832C 1829.89,1826.05 1826.39,1821.55 1821,1818.5C 1820.18,1816.3 1820.68,1814.47 1822.5,1813C 1836.34,1808.51 1840.84,1799.34 1836,1785.5C 1831.46,1780.85 1825.96,1779.35 1819.5,1781C 1812.7,1783.8 1807.03,1788.13 1802.5,1794C 1799.6,1796.57 1796.43,1798.74 1793,1800.5C 1779.92,1795.52 1766.42,1792.36 1752.5,1791C 1749.68,1790.43 1747.35,1789.09 1745.5,1787C 1746.04,1785.62 1747.04,1785.62 1748.5,1787C 1762.87,1787.92 1777.2,1788.92 1791.5,1790C 1792.5,1789.67 1793.5,1789.33 1794.5,1789C 1805.77,1774.35 1820.1,1770.02 1837.5,1776C 1846.63,1787 1847.79,1798.83 1841,1811.5C 1838.77,1813.73 1836.6,1815.9 1834.5,1818C 1841.9,1830.14 1840.23,1841.14 1829.5,1851C 1818.46,1858.56 1807.79,1858.23 1797.5,1850C 1791.17,1845 1785.5,1839.33 1780.5,1833C 1763.05,1831.11 1745.71,1828.44 1728.5,1825C 1714.09,1823.98 1699.76,1822.48 1685.5,1820.5C 1676.6,1823.68 1667.43,1825.68 1658,1826.5C 1648.74,1827.34 1643.07,1823.34 1641,1814.5C 1639.78,1806.51 1640.78,1798.84 1644,1791.5C 1646.56,1788.81 1649.39,1786.48 1652.5,1784.5C 1647.19,1776.58 1645.02,1767.92 1646,1758.5C 1648.62,1751.05 1653.78,1746.71 1661.5,1745.5 Z"/></g>
<g><path style="opacity:0.888" fill="#000000" d="M 581.5,1752.5 C 589.643,1751.65 597.31,1753.15 604.5,1757C 611.779,1764.28 619.113,1771.61 626.5,1779C 657.978,1781.88 689.478,1784.38 721,1786.5C 726.167,1786.33 731.333,1786.17 736.5,1786C 743.757,1781.2 751.424,1777.2 759.5,1774C 769.91,1772.8 779.076,1775.64 787,1782.5C 790.22,1790.24 789.886,1797.9 786,1805.5C 783.02,1809.31 779.854,1812.98 776.5,1816.5C 785.603,1835.38 779.937,1846.88 759.5,1851C 750.623,1852.45 742.623,1850.45 735.5,1845C 728.864,1839.37 722.531,1833.37 716.5,1827C 686.324,1822.46 655.991,1820.12 625.5,1820C 616.236,1827.38 605.736,1831.88 594,1833.5C 579.794,1832.95 571.627,1825.78 569.5,1812C 569.267,1808.54 570.101,1805.37 572,1802.5C 575.201,1798.96 578.701,1795.8 582.5,1793C 577.623,1790.07 572.957,1786.9 568.5,1783.5C 569.007,1775.74 570.174,1768.07 572,1760.5C 574.325,1756.77 577.491,1754.1 581.5,1752.5 Z M 584.5,1760.5 C 590.974,1760.12 596.974,1761.62 602.5,1765C 608.167,1771.33 613.833,1777.67 619.5,1784C 621.715,1785.04 624.048,1785.71 626.5,1786C 639.179,1786.44 651.846,1787.1 664.5,1788C 686.744,1791.08 709.077,1793.25 731.5,1794.5C 736.296,1794.37 740.962,1793.54 745.5,1792C 750.167,1789.33 754.833,1786.67 759.5,1784C 765.405,1782.18 771.072,1782.84 776.5,1786C 782.11,1793.56 780.776,1799.89 772.5,1805C 768.251,1807.19 763.918,1809.19 759.5,1811C 758.018,1813.59 758.352,1815.93 760.5,1818C 769.054,1819.86 772.888,1825.03 772,1833.5C 766.412,1841.55 758.912,1844.38 749.5,1842C 739.755,1837.91 732.255,1831.41 727,1822.5C 726.097,1821.3 724.931,1820.47 723.5,1820C 710.615,1817.65 697.615,1816.31 684.5,1816C 663.512,1814.64 642.512,1813.97 621.5,1814C 616.812,1814.68 613.145,1817.01 610.5,1821C 602.561,1825.48 594.228,1826.48 585.5,1824C 576.231,1816.84 576.231,1809.51 585.5,1802C 588.417,1800.47 591.417,1799.14 594.5,1798C 595.602,1795.6 595.769,1793.1 595,1790.5C 591.095,1787.6 586.929,1785.1 582.5,1783C 577.456,1778.39 576.29,1772.89 579,1766.5C 580.36,1763.98 582.193,1761.98 584.5,1760.5 Z"/></g>
<g><path style="opacity:0.865" fill="#000000" d="M 1099.5,1755.5 C 1107.23,1755.18 1114.56,1756.68 1121.5,1760C 1124.98,1762.61 1126.65,1766.11 1126.5,1770.5C 1125.5,1777.15 1125.33,1783.82 1126,1790.5C 1147.74,1794.3 1154.74,1806.64 1147,1827.5C 1142.39,1834.63 1136.05,1839.29 1128,1841.5C 1118.84,1840.28 1109.67,1838.78 1100.5,1837C 1097.83,1836.33 1095.17,1836.33 1092.5,1837C 1077.77,1842.47 1063.1,1848.13 1048.5,1854C 1043.97,1855.63 1039.3,1856.63 1034.5,1857C 1027.94,1862.13 1020.61,1864.63 1012.5,1864.5C 1013.98,1863.52 1015.31,1862.35 1016.5,1861C 1022.99,1858.26 1029.32,1855.26 1035.5,1852C 1037.57,1851.31 1039.57,1851.48 1041.5,1852.5C 1045.1,1849.41 1049.1,1846.91 1053.5,1845C 1067.73,1839.55 1081.73,1833.55 1095.5,1827C 1096.83,1826.33 1098.17,1826.33 1099.5,1827C 1109.96,1833.35 1120.96,1835.01 1132.5,1832C 1142.61,1827.62 1146.11,1820.12 1143,1809.5C 1139.26,1802.7 1133.43,1799.04 1125.5,1798.5C 1120.74,1799.46 1116.24,1801.13 1112,1803.5C 1111.23,1803.36 1110.56,1803.02 1110,1802.5C 1109.33,1800.83 1109.33,1799.17 1110,1797.5C 1114.11,1790.79 1116.94,1783.62 1118.5,1776C 1118.76,1769.47 1115.76,1765.81 1109.5,1765C 1097.08,1760.96 1089.25,1765.12 1086,1777.5C 1084.34,1787.63 1082.17,1797.63 1079.5,1807.5C 1078.28,1808.61 1076.94,1808.78 1075.5,1808C 1074.79,1806.75 1073.96,1805.58 1073,1804.5C 1054.22,1816.46 1033.72,1823.8 1011.5,1826.5C 1011.64,1828.12 1010.97,1829.29 1009.5,1830C 1004.26,1832.15 998.928,1832.99 993.5,1832.5C 1010.24,1824.3 1027.58,1817.47 1045.5,1812C 1055.37,1808.49 1064.2,1803.32 1072,1796.5C 1073.92,1789.56 1075.59,1782.56 1077,1775.5C 1080.25,1763.83 1087.75,1757.16 1099.5,1755.5 Z"/></g>
<g><path style="opacity:0.718" fill="#000000" d="M 1703.5,1778.5 C 1712.18,1779.75 1720.51,1782.09 1728.5,1785.5C 1720.25,1786.4 1712.25,1785.24 1704.5,1782C 1702.63,1781.05 1702.29,1779.88 1703.5,1778.5 Z"/></g>
<g><path style="opacity:0.698" fill="#000000" d="M 1733.5,1785.5 C 1736.65,1785.21 1739.65,1785.71 1742.5,1787C 1743.38,1788.36 1743.71,1789.86 1743.5,1791.5C 1738.99,1790.58 1734.65,1789.08 1730.5,1787C 1731.74,1786.77 1732.74,1786.27 1733.5,1785.5 Z"/></g>
<g><path style="opacity:0.886" fill="#000000" d="M 355.5,1793.5 C 370.273,1791.79 380.44,1797.79 386,1811.5C 386.5,1818.49 386.666,1825.49 386.5,1832.5C 393.954,1833.15 400.954,1835.32 407.5,1839C 412.524,1845.23 415.358,1852.4 416,1860.5C 417.364,1872.5 412.197,1880.33 400.5,1884C 393.174,1885.94 385.84,1885.94 378.5,1884C 368.782,1881.32 359.449,1877.65 350.5,1873C 346.903,1872.03 343.236,1871.53 339.5,1871.5C 304.147,1876.47 269.147,1883.3 234.5,1892C 228.363,1893.6 222.363,1895.6 216.5,1898C 207.897,1903.13 198.897,1907.47 189.5,1911C 177.837,1911.92 168.337,1907.75 161,1898.5C 156.979,1889.95 156.646,1881.28 160,1872.5C 162.46,1871.04 164.627,1869.21 166.5,1867C 157.629,1865.43 151.962,1860.43 149.5,1852C 152.934,1831.1 165.267,1821.44 186.5,1823C 193.614,1824.2 200.614,1825.86 207.5,1828C 217.475,1833.9 227.641,1839.4 238,1844.5C 251.306,1841.55 264.473,1838.05 277.5,1834C 292.393,1830.36 307.393,1827.19 322.5,1824.5C 332.615,1813.05 343.615,1802.71 355.5,1793.5 Z M 356.5,1800.5 C 377.993,1803.82 383.827,1815.15 374,1834.5C 373.333,1835.83 373.333,1837.17 374,1838.5C 380.805,1839.96 387.639,1841.46 394.5,1843C 403.474,1847.94 407.807,1855.61 407.5,1866C 408.034,1870.81 406.034,1874.14 401.5,1876C 395.251,1877.54 388.917,1877.87 382.5,1877C 372.715,1872.94 363.048,1868.61 353.5,1864C 349.162,1862.29 344.662,1861.46 340,1861.5C 299.953,1870.18 259.786,1878.34 219.5,1886C 209.452,1889.73 200.119,1894.73 191.5,1901C 180.703,1905.49 172.869,1902.33 168,1891.5C 166.566,1887.59 166.233,1883.59 167,1879.5C 169.592,1876.24 172.759,1873.74 176.5,1872C 178.741,1870.26 180.408,1868.09 181.5,1865.5C 180.968,1863.26 179.635,1861.76 177.5,1861C 154.871,1859.9 151.204,1850.9 166.5,1834C 177.268,1828.48 188.268,1828.15 199.5,1833C 209.887,1837.39 219.22,1843.39 227.5,1851C 230.881,1853.24 234.548,1853.91 238.5,1853C 254.226,1848.54 269.893,1843.87 285.5,1839C 299.301,1835.05 313.301,1832.05 327.5,1830C 329.624,1828.88 331.457,1827.38 333,1825.5C 339.319,1815.68 347.152,1807.35 356.5,1800.5 Z"/></g>
<g><path style="opacity:0.88" fill="#000000" d="M 916.5,1821.5 C 934.159,1819 947.826,1825.17 957.5,1840C 960.005,1841.75 962.671,1843.25 965.5,1844.5C 969.476,1841.95 973.81,1840.62 978.5,1840.5C 978.719,1841.68 978.386,1842.68 977.5,1843.5C 973.251,1845.09 969.918,1847.75 967.5,1851.5C 957.962,1853.98 951.129,1850.65 947,1841.5C 939.649,1831.27 929.815,1827.77 917.5,1831C 914.966,1831.52 912.8,1832.68 911,1834.5C 905.647,1846.1 908.48,1854.94 919.5,1861C 925.009,1862.34 930.343,1864.17 935.5,1866.5C 936.91,1868.95 936.576,1871.12 934.5,1873C 930.5,1875.33 926.5,1877.67 922.5,1880C 920.951,1881.21 919.785,1882.71 919,1884.5C 917.833,1896.84 922.833,1905.51 934,1910.5C 947.358,1902.15 957.525,1890.98 964.5,1877C 968.446,1875.94 972.446,1875.1 976.5,1874.5C 978,1874.45 979,1875.12 979.5,1876.5C 975.742,1878.46 972.242,1880.79 969,1883.5C 961.582,1893.59 953.415,1903.09 944.5,1912C 934.908,1918.64 926.075,1917.8 918,1909.5C 911.904,1901.12 909.571,1891.78 911,1881.5C 912.738,1877.76 915.238,1874.59 918.5,1872C 901.561,1863.79 896.394,1850.62 903,1832.5C 905.616,1826.37 910.116,1822.71 916.5,1821.5 Z"/></g>
<g><path style="opacity:0.601" fill="#000000" d="M 984.5,1834.5 C 985.5,1834.5 986.5,1834.5 987.5,1834.5C 987.5,1835.83 987.5,1837.17 987.5,1838.5C 985.023,1838.95 983.023,1838.28 981.5,1836.5C 982.602,1835.82 983.602,1835.16 984.5,1834.5 Z"/></g>
<g><path style="opacity:0.759" fill="#000000" d="M 1000.5,1866.5 C 1009.14,1866.62 1009.48,1868.12 1001.5,1871C 996.228,1872.87 990.894,1874.54 985.5,1876C 983.741,1876.8 982.074,1876.63 980.5,1875.5C 982.457,1873.52 984.79,1872.02 987.5,1871C 991.98,1869.56 996.313,1868.06 1000.5,1866.5 Z"/></g>
<g><path style="opacity:0.462" fill="#000000" d="M 1513.5,1975.5 C 1529.33,1974.34 1545.33,1974.17 1561.5,1975C 1545.5,1975.5 1529.5,1975.67 1513.5,1975.5 Z"/></g>
</svg>
