<?xml version="1.0" encoding="utf-8"?>
<!-- Generator: Adobe Illustrator 24.1.2, SVG Export Plug-In . SVG Version: 6.00 Build 0)  -->
<svg version="1.1" id="Layer_1" xmlns="http://www.w3.org/2000/svg" xmlns:xlink="http://www.w3.org/1999/xlink" x="0px" y="0px"
	 viewBox="0 0 810 810" style="enable-background:new 0 0 810 810;" xml:space="preserve">
<g>
	<path d="M734.04,590.31c-1.23-0.65-2.52-1.19-3.86-1.62c1.66-1.37,2.95-3.21,3.78-5.55c2.13-6.31-2.88-11.53,1.01-17.59
		c2.67-4.22,6.09-5.41,6.67-10.99c0.9-8.87-6.2-15.21-14.56-15.42c2.31-13.51-9.51-25.26-22.31-22.81c5.62-11.46,3.86-29.84,9.44-40
		c1.08-1.98-0.72-3.78-2.7-3.5c-19.79,2.74-35.07,20.76-31.71,38.96c-7.82-6.27-17.37-9.59-27.71-11.17
		c6.05-2.81,10.88-7.82,14.38-13.51c11.32-18.27,6.63-39.5,1.37-58.92c-0.65-2.34-3.89-2.2-4.61,0
		c-5.51,16.94-15.64,29.8-28.97,41.3c-9.84,8.51-19.14,17.44-21.26,30.6c-9.59,0.61-18.92,1.37-27.1,1.33
		c-42.78-0.11-74.2-28.36-93.88-63.93c9.84,9.77,17.26,19.24,28.43,28.25c5.8,4.79,12,9.05,18.74,12.36
		c19.28,9.48,43.68,11.03,61.27-2.96c14.78-11.78,25.91-38.38,11.42-54.67c-2.31-2.59-5.26-4.69-8.47-5.98l17.91-7.6
		c0.04,0.18,0.07,0.32,0.18,0.5c3.32,6.7,9.01,11.46,15.82,13.8c0.29,8.36,12.9,9.69,14.34,0.79c1.15-7.39-7.35-11.32-12.22-6.49
		c-0.36,0.36-0.65,0.76-0.9,1.15c-5.55-1.98-10.09-6.09-12.79-11.46c11.35-4.07,21.55-6.67,33.37-4.04
		c3.5,9.26,9.55,17.05,17.55,22.6c-2.02,4.94,2.38,10.34,7.17,10.34c5.87,0,10.2-7.28,4.54-12.76c-2.34-2.27-5.59-2.74-8.47-1.19
		c-6.45-4.32-11.6-10.2-14.92-17.3c18.02,6.23,27.32,17.41,50.53,22.6c3.82,7.71,8.11,14.09,15.5,18.7
		c4.07,2.56,11.71,7.17,16.43,3.57c5.69-4.32,0-11.89-3.89-14.99c-2.88-2.27-6.02-3.96-9.33-5.37c11.1-0.18,22.24-2.78,33.05-8.11
		c7.6,3.78,13.84,9.62,22.99,5.66c6.88-2.99,10.92-10.23,8.65-17.62c-3.46-11.06-17.51-14.92-27.71-1.77
		c-1.59,2.02-2.56,4.5-4.14,6.49c-0.83,1.05-2.7,2.27-2.96,3.5c-7.5,3.57-15.46,5.91-23.57,6.88c17.05-11.57,5.98-24.97-4.11-21.15
		c-4.07,1.55-6.78,5.19-9.48,8.4c-3.32,3.93-6.6,7.86-9.87,11.78c-11.42-2.41-21.12-8.14-30.99-13.8
		c7.17-3.14,14.49-4.11,22.16-2.92c1.3,5.91,8.76,7.17,12.51,3.42c4.14-4.14,2.02-12.22-5.59-12.22c-2.77,0-5.23,1.59-6.41,4.04
		c-9.62-1.41-18.81,0.22-27.75,4.83c-20.87-11.5-34.42-12.04-56.33-4.18c1.26-5.69,5.23-10.42,10.6-12.69
		c0.97,1.41,3.6,2.16,5.66,2.16c9.15,0,9.95-14.31-0.54-14.31c-4.07,0-7.53,3.5-7.1,7.75c-7.6,3.24-13.05,10.67-13.77,18.99
		c-6.05,2.41-12.04,5.08-17.98,7.64c2.02-2.88,2.59-6.52,1.01-10.13c-2.63-5.91-8.68-7.75-14.63-8.47
		c4.54-8.58-3.24-18.99-13.55-18.99c-17.51,0.04-19.35,19.06-28.43,29.34c-10.02-7.68-21.12-13.95-31.61-20.9
		c-3.17-2.05-6.34-4.04-9.62-5.87c29.15,5.44,60.33,3.32,85.05-14.09c0.14-0.11,0.25-0.22,0.43-0.32
		c25.01-6.92,51.46-2.38,72.83,12.22c-0.07,0.36-0.04,0.68,0.07,1.08c2.85,9.55,9.33,16.43,18.92,19.46
		c4.04,1.3,18.52,5.23,21.8,1.23c4.04-4.87-8.69-12.65-11.64-14.99c-7.28-5.66-15.5-9.48-24.72-9.48h-0.04
		c-5.55-4.07-11.5-7.42-17.69-10.09c6.2,0.4,12.4,0.07,18.74-0.83c17.23-2.45,23.03-1.84,37.59,8.69
		c14.02,10.13,29.8,23.75,47.93,16.47c14.99,7.03,28.47-0.36,40.87-9.48c1.84-1.37,1.33-4.4-1.19-4.47
		c-15.32-0.4-31.03-4.94-41.16,9.44c-10.2,4.47-19.57,1.01-28.43-4.61c6.34-0.54,12.69-4.4,15.89-9.98c0.68-1.19,0.14-3.24-1.44-3.5
		c-9.33-1.41-18.31-0.04-26.78,4.18l-0.36,0.14c-12.58-9.48-20.97-14.42-37.55-12.47c-9.62,1.15-18.31,2.27-27.53,1.33
		c3.78-1.95,7.14-4.61,9.8-8.07c9.01-11.6,3.89-17.91,0.65-16.11c-10.34,5.8-19.5,12.97-27.53,21.73c-0.4,0.43-0.58,0.9-0.65,1.41
		c-9.84-1.66-20-1.69-29.95-0.04c11.46-10.2,20.87-22.56,31.32-33.77c2.02-2.05,4.07-4.11,6.02-6.2
		c13.95-13.66,31.82-26.38,51.72-22.34c-2.38,1.62-5.59,1.51-8.07,3.5c-8.72,6.81-7.03,18.52-1.3,22.56
		c-6.92,7.32-5.95,21.05,8.07,24.72c6.45,1.66,13.05-1.84,19.17-0.25c5.8,1.51,9.08,7.6,15.24,8.61c5.59,0.9,11.35-2.2,14.7-6.56
		c9.87,13.26,27.28,9.98,41.73,14.16l3.82,1.3c1.87,0.79,4.72-1.05,3.24-3.24c-6.2-9.12-9.15-21.08-17.12-28.97
		c12.07-3.1,21.91-11.06,27.61-22.34c0.76-1.55-0.22-3.64-2.09-3.57c-9.12,0.36-19.75-0.9-28.11,3.5c0.22-2.16-0.14-4.4-1.26-6.63
		c-2.96-5.98-10.2-6.16-11.71-13.15c-1.12-4.87,0.5-8.14-3.06-12.51c-5.62-6.88-15.14-6.38-21.23-0.61
		c-7.96-11.24-24.61-11.06-31.89-0.36c-4.11-12.07-18.34-23.82-21.59-34.96c-0.65-2.16-3.17-2.16-4.4-0.58
		c-12.04,15.97-10.09,39.5,5.12,49.99c-9.95,1.08-19.06,5.51-27.5,11.71c2.31-6.31,2.16-13.23,0.65-19.75
		c-4.94-20.9-23.28-32.61-40.72-42.6c-2.09-1.23-4.29,1.19-3.24,3.24c8.07,15.89,10.02,32.11,8.72,49.7
		c-0.97,12.97-1.19,25.88,6.59,36.65c-6.38,7.24-12.4,14.34-18.24,20.15c-30.31,30.16-72.55,32.36-111.57,21.15
		c13.98-0.07,25.59,1.41,40.07-0.11c7.5-0.72,14.88-2.13,21.98-4.54c20.36-6.88,38.71-23.06,41.23-45.41
		c2.16-18.78-8.79-45.48-30.6-46.74c-3.42-0.18-6.99,0.4-10.24,1.77l7.32-18.02c0.14,0.07,0.29,0.14,0.47,0.22
		c7.1,2.38,14.49,1.73,20.97-1.44c6.41,6.02,16.58-3.06,10.16-10.23c-5.23-5.8-13.95-0.79-12.51,6.13
		c-5.33,2.52-11.46,2.85-17.15,1.01c5.15-10.96,10.52-20,20.76-26.45c9.05,4.04,18.81,5.33,28.43,3.57
		c1.84,4.76,8.87,5.69,12.33,2.2c4-4,2.31-12.22-5.8-12.22c-3.24,0-5.95,2.13-6.88,5.23c-7.6,1.48-15.42,0.94-22.74-1.73
		c17.23-8.36,31.43-6.92,51.68-19.79c8.18,2.78,15.71,4.25,24.22,2.27c4.69-1.08,13.37-3.17,14.13-9.08
		c0.97-7.06-8.4-8.43-13.37-7.86c-3.64,0.43-7.06,1.48-10.42,2.85c7.75-8,13.8-17.69,17.66-29.16c8.07-2.67,16.61-2.96,20.25-12.25
		c2.77-6.99,0.5-14.96-6.34-18.56c-10.34-5.44-22.92,1.91-20.83,18.34c0.36,2.56,1.37,5.01,1.66,7.53c0.18,1.48-0.32,3.17,0.36,4.54
		c-2.74,7.82-6.74,15.1-11.78,21.55c0.04-0.22,0.11-0.4,0.14-0.61c3.5-19.32-13.48-21.44-17.98-11.42
		c-1.8,3.93-1.15,8.43-0.79,12.61c0.47,5.12,0.9,10.2,1.37,15.28c-9.8,6.41-20.69,9.19-31.68,12.18
		c2.85-7.28,7.35-13.12,13.62-17.69c5.15,3.21,11.28-1.23,11.28-6.45c0-5.48-6.67-10.23-12.61-4.68c-1.91,1.77-2.59,4.76-1.66,7.42
		c-7.82,5.77-13.15,13.41-16.22,22.99c-22.99,6.56-32.83,15.82-42.81,36.87c-3.14-4.9-3.64-11.06-1.48-16.43
		c6.67,0,10.13-8.43,5.55-12.61c-7.6-6.96-17.37,4.76-10.05,10.88c-3.06,7.68-1.66,16.76,3.71,23.17
		c-2.63,5.98-4.97,12.14-7.35,18.16c-0.58-3.5-2.7-6.49-6.41-7.93c-6.05-2.31-11.64,0.65-16.33,4.36
		c-2.88-9.26-15.75-11.14-23.03-3.86c-12.36,12.4-0.18,27.17,0.65,40.83c-12.51,1.66-24.79,5.08-37.12,7.6
		c-3.71,0.72-7.39,1.59-10.99,2.63c24.51-16.79,45.01-40.29,50.17-70.09c0.04-0.18,0.07-0.36,0.07-0.54
		c12.83-22.6,34.74-38.09,60.18-42.85c0.18,0.29,0.43,0.5,0.79,0.72c8.79,4.72,18.24,5.01,27.17,0.36
		c3.75-1.95,16.76-9.41,16.25-14.56c-0.61-6.27-15.1-2.81-18.81-2.34c-9.19,1.12-17.66,4.22-24.22,10.78
		c-7.42,1.15-14.56,3.28-21.37,6.13c5.87-4.87,10.81-10.45,15.53-16.72c8.65-11.57,17.62-17.26,31.97-19.6
		c16.9-2.81,38.06-4.43,45.44-22.45c15.53-5.66,19.78-20.54,22.02-35.64c0.32-2.23-2.13-4.11-3.96-2.31
		c-10.99,10.56-25.52,18.45-22.31,35.82c-3.96,10.38-13.01,14.63-23.32,16.97c4.11-4.94,5.84-12.14,4.11-18.34
		c-0.36-1.37-2.23-2.34-3.5-1.44c-7.68,5.66-13.19,13.23-16.04,22.34c-15.78,2.23-25.15,4.79-35.5,18.13
		c-5.87,7.53-11.28,14.45-18.42,20.29c1.08-3.71,1.41-7.64,0.9-11.6c-1.8-14.49-9.91-15.46-10.96-11.86
		c-3.21,11.42-4.58,22.99-4.11,34.85c0.04,0.58,0.25,1.08,0.58,1.44c-8.14,5.8-15.35,12.94-21.23,21.15
		c0.87-15.32-1.23-30.7-1.73-46.02c-0.47-21.77,0.94-47.93,20.61-60.98c-0.5,2.81-2.85,4.97-3.24,8.14
		c-1.33,10.88,8.07,18.09,15.1,16.9c0.22,10.02,10.6,19.1,23.17,11.71c5.69-3.32,7.93-10.49,13.37-13.69
		c5.15-2.99,11.82-1.05,16.87-4.69c4.65-3.39,6.41-9.55,5.77-15.03c16.36,2.38,26.34-12.22,39.53-19.5l3.6-1.77
		c1.91-0.79,2.59-4.11,0-4.61c-10.85-2.05-21.37-8.43-32.58-8.4c6.31-10.7,7.68-23.28,3.68-35.28c-0.54-1.66-2.7-2.45-3.96-1.05
		c-6.2,6.63-14.6,13.41-17.44,22.27c-1.41-1.62-3.21-2.96-5.55-3.75c-6.31-2.16-11.57,2.85-17.62-1.01
		c-4.18-2.7-5.37-6.09-10.96-6.67c-8.9-0.9-15.21,6.16-15.46,14.56c-13.59-2.31-25.23,9.59-22.81,22.31
		c-11.42-5.66-29.8-3.89-39.97-9.44c-2.02-1.08-3.82,0.68-3.53,2.7c2.77,19.79,20.79,35.03,38.99,31.71
		c-6.31,7.78-9.59,17.37-11.21,27.71c-2.77-6.05-7.78-10.88-13.48-14.42c-18.27-11.32-39.5-6.6-58.96-1.33
		c-2.34,0.65-2.16,3.89,0,4.61c16.97,5.51,29.8,15.6,41.34,28.97c8.5,9.84,17.44,19.14,30.6,21.23c0.61,9.62,1.37,18.92,1.33,27.17
		c-0.11,42.71-28.36,74.17-63.93,93.81c10.74-10.81,17.8-15.89,28.29-28.4c4.76-5.8,9.01-12,12.32-18.74
		c9.48-19.28,11.03-43.68-2.99-61.27c-11.75-14.81-38.34-25.95-54.63-11.46c-2.59,2.31-4.69,5.26-6.02,8.5
		c-2.56-5.87-5.23-11.82-7.6-17.88c0.04,0,0.04-0.04,0.04-0.04c0.18-0.04,0.32-0.11,0.47-0.18c6.7-3.32,11.5-9.01,13.8-15.82
		c5.73-0.25,8.58-6.56,6.02-10.92c-4.11-6.96-15.86-2.92-13.51,5.62c0.43,1.62,1.55,3.14,2.99,4.07
		c-1.98,5.55-6.09,10.09-11.46,12.79c-4.11-11.42-6.7-21.55-4.04-33.37c9.26-3.5,17.05-9.59,22.6-17.59
		c4.76,2.05,10.34-2.27,10.34-7.17c0-6.09-7.64-10.05-12.76-4.54c-2.27,2.45-2.74,5.55-1.19,8.51c-4.32,6.45-10.23,11.57-17.3,14.92
		c6.31-18.09,17.44-27.35,22.6-50.53c7.71-3.82,14.09-8.11,18.67-15.5c2.59-4.11,7.21-11.71,3.6-16.43
		c-4.36-5.69-11.89-0.04-14.99,3.89c-2.27,2.85-3.96,6.02-5.37,9.33c-0.18-11.1-2.78-22.24-8.11-33.05
		c3.78-7.6,9.62-13.84,5.66-22.99c-3.03-6.88-10.27-10.92-17.62-8.65c-11.06,3.46-15.03,17.41-1.77,27.71
		c2.02,1.59,4.47,2.56,6.49,4.14c1.08,0.86,2.09,2.56,3.5,2.96c3.57,7.46,5.91,15.46,6.88,23.57c-3.21-5.01-9.37-10.7-15.86-8.32
		c-5.08,1.91-7.14,7.53-5.3,12.43c1.51,4.07,5.19,6.78,8.4,9.48c3.93,3.32,7.82,6.6,11.75,9.87c-2.41,11.42-8.11,21.12-13.77,30.99
		c-3.14-7.17-4.11-14.49-2.92-22.16c5.95-1.33,7.14-8.87,3.42-12.51c-4.25-4.22-12.22-1.91-12.22,5.59c0,2.74,1.55,5.19,4.04,6.41
		c-1.41,9.62,0.18,18.78,4.87,27.75c-11.64,20.58-12,34.67-4.25,56.33c-5.69-1.26-10.38-5.26-12.69-10.6
		c1.05-0.65,2.2-3.28,2.2-5.12c0-10.23-14.31-10.2-14.31,0c0,3.96,3.28,7.39,7.71,7.1c3.24,7.57,10.7,13.01,19.03,13.77
		c2.38,6.05,5.08,12.04,7.64,17.98c-2.88-2.02-6.52-2.59-10.13-1.01c-5.91,2.63-7.78,8.65-8.47,14.63
		c-8.58-4.54-18.99,3.24-18.99,13.55c0.04,17.51,19.06,19.32,29.34,28.4c-7.68,10.02-13.95,21.12-20.9,31.64
		c-2.09,3.14-4.07,6.34-5.91,9.59c5.48-29.16,3.35-60.29-14.06-85.01c-0.11-0.14-0.22-0.29-0.32-0.43
		c-6.96-25.01-2.41-51.5,12.22-72.83c0.32,0.07,0.68,0.04,1.08-0.07c9.55-2.88,16.43-9.33,19.46-18.92
		c1.3-4.04,5.19-18.52,1.23-21.8c-4.9-4.04-12.69,8.69-14.99,11.64c-5.69,7.28-9.51,15.46-9.48,24.72l-0.04,0.04
		c-4.43,6.09-8.04,12.69-10.78,19.53c0.47-7.32-0.07-14.52-1.41-21.95c-3.06-17.19-2.88-22.81,7.17-37.91
		c9.55-14.38,22.67-30.78,14.63-48.62c6.49-15.5-1.66-28.69-11.39-40.87c-1.33-1.66-4.07-0.25-4.07,1.69
		c0.18,15.28-3.82,31.28,10.99,40.83c4.83,10.05,1.73,19.53-3.5,28.58c-0.76-6.31-4.76-12.43-10.49-15.42
		c-1.73-0.94-3.39,0.25-3.57,2.05c-1.05,9.3,0.86,18.27,5.41,26.42c-8.25,11.93-13.26,20.79-11.35,35.61
		c1.37,10.49,3.35,19.97,2.7,30.2c-1.87-3.39-4.43-6.38-7.57-8.87c-11.5-8.9-17.95-3.96-16.11-0.61
		c5.77,10.34,12.97,19.5,21.7,27.53c0.43,0.4,0.94,0.58,1.44,0.61c-1.66,9.87-1.69,20-0.07,29.98
		c-10.16-11.46-22.56-20.87-33.77-31.32c-15.75-15.06-33.19-34.67-28.51-57.73c1.59,2.34,1.51,5.55,3.46,8.07
		c6.78,8.65,18.45,7.06,22.6,1.3c7.24,6.88,21.01,6.02,24.69-8.07c1.69-6.45-1.84-13.08-0.22-19.17c1.51-5.8,7.6-9.12,8.58-15.24
		c0.9-5.66-2.16-11.32-6.52-14.7c13.26-9.91,9.98-27.28,14.16-41.73l1.33-3.82c0.76-1.91-1.08-4.76-3.28-3.24
		c-9.12,6.2-21.08,9.15-28.97,17.08c-3.14-12.04-11.06-21.91-22.34-27.57c-1.55-0.76-3.64,0.22-3.57,2.09
		c0.32,9.08-0.9,19.79,3.46,28.07c-2.13-0.18-4.36,0.18-6.6,1.3c-5.98,2.92-6.16,10.2-13.19,11.71c-4.87,1.08-8.11-0.5-12.47,3.06
		c-6.92,5.62-6.38,15.1-0.61,21.19c-11.24,8.04-11.03,24.65-0.36,31.93c-12.07,4.11-23.82,18.34-34.96,21.59
		c-2.16,0.65-2.16,3.17-0.58,4.4c15.96,12.04,39.5,10.09,49.99-5.12c1.08,9.95,5.51,19.03,11.71,27.5
		c-6.31-2.31-13.23-2.16-19.75-0.65c-20.9,4.94-32.61,23.28-42.63,40.72c-1.19,2.13,1.23,4.29,3.28,3.24
		c15.86-8.07,32.11-10.02,49.7-8.72c12.97,0.97,25.88,1.19,36.65-6.6c7.24,6.38,14.34,12.4,20.15,18.24
		c30.13,30.31,32.36,72.55,21.15,111.58c-0.07-13.91,1.41-25.77-0.14-40.07c-0.72-7.5-2.09-14.88-4.5-21.98
		c-6.92-20.36-23.1-38.71-45.41-41.23c-18.78-2.16-45.44,8.79-46.74,30.56c-0.22,3.46,0.4,7.03,1.77,10.23
		c-5.98-2.34-12.07-4.65-18.02-7.24c0-0.04,0-0.04-0.04-0.07c0.11-0.14,0.18-0.29,0.25-0.47c2.38-7.06,1.73-14.49-1.48-20.94
		c6.13-6.52-3.21-16.65-10.2-10.16c-5.77,5.3-0.83,13.87,6.13,12.51c2.52,5.33,2.85,11.42,0.97,17.15
		c-10.96-5.19-19.93-10.52-26.42-20.76c4.04-9.05,5.33-18.85,3.57-28.43c4.83-2.02,5.62-8.9,2.16-12.33
		c-4-4.07-12.18-2.27-12.18,5.8c0,3.21,2.13,5.95,5.23,6.88c1.48,7.6,0.9,15.39-1.77,22.74c-8.32-17.15-6.92-31.46-19.75-51.68
		c2.74-8.18,4.25-15.71,2.27-24.22c-1.08-4.72-3.21-13.37-9.08-14.16c-7.1-0.94-8.43,8.43-7.86,13.37c0.43,3.64,1.48,7.1,2.81,10.42
		c-7.96-7.71-17.7-13.77-29.12-17.66c-2.67-8.04-2.99-16.58-12.25-20.25c-6.99-2.74-14.96-0.47-18.56,6.38
		c-5.37,10.2,1.66,22.88,18.34,20.79c2.56-0.29,4.97-1.33,7.5-1.62c1.41-0.18,3.42,0.29,4.58-0.4c7.82,2.77,15.1,6.74,21.55,11.82
		c-5.59-1.37-14.27-0.9-17.08,5.3c-2.27,4.94,0.22,10.38,5.05,12.54c3.93,1.8,8.43,1.15,12.58,0.76c5.12-0.43,10.2-0.9,15.32-1.33
		c6.41,9.8,9.19,20.69,12.18,31.64c-7.28-2.85-13.15-7.32-17.73-13.59c3.24-5.19-1.23-11.28-6.42-11.28
		c-6.05,0-9.98,7.42-4.68,12.61c1.98,1.95,4.72,2.59,7.39,1.66c5.8,7.78,13.44,13.15,23.03,16.18
		c6.74,23.03,15.53,32.76,36.87,42.85c-4.94,3.14-11.06,3.64-16.47,1.48c0-6.74-8.4-10.09-12.58-5.55
		c-6.88,7.5,4.54,17.37,10.88,10.05c7.68,3.06,16.72,1.66,23.14-3.71c6.02,2.59,12.14,4.94,18.2,7.35c-3.5,0.58-6.52,2.7-7.93,6.38
		c-2.34,6.05,0.61,11.68,4.36,16.36c-9.26,2.85-11.14,15.75-3.86,23.03c12.4,12.36,27.14,0.18,40.83-0.65
		c1.66,12.51,5.08,24.76,7.6,37.12c0.76,3.68,1.59,7.35,2.59,10.96c-16.76-24.47-40.26-44.98-70.06-50.17
		c-0.18-0.04-0.36-0.04-0.54-0.07c-22.6-12.79-38.09-34.71-42.85-60.15c0.29-0.18,0.5-0.43,0.68-0.83c4.72-8.76,5.05-18.2,0.4-27.14
		c-1.95-3.75-9.41-16.76-14.56-16.25c-6.31,0.58-2.81,15.1-2.34,18.81c1.12,9.15,4.22,17.66,10.78,24.18v0.04
		c0.97,6.16,2.59,12.14,4.76,17.88c-4.5-4.79-9.55-8.97-15.1-12.9c-11.86-8.36-17.66-17.12-20.4-31.5
		c-3.17-16.79-5.26-38.06-23.53-44.98c-6.2-15.57-21.26-19.32-36.69-21.23c-2.13-0.29-3.03,2.74-1.69,4.07
		c10.81,10.7,19.1,25.12,36.4,21.51c10.45,3.68,14.92,12.65,17.48,22.88c-4.97-4-12.22-5.59-18.34-3.71
		c-1.33,0.4-2.41,2.23-1.44,3.5c5.84,7.57,13.51,12.94,22.74,15.57c2.56,15.21,5.15,24.69,18.16,34.49
		c8.61,6.49,16.58,12.18,23.17,20.47c-4.4-1.62-9.15-2.23-13.98-1.62c-14.42,1.8-15.46,9.87-11.82,10.92
		c11.42,3.24,22.96,4.61,34.81,4.11c0.61,0,1.12-0.22,1.44-0.54c5.84,8.14,12.97,15.32,21.19,21.23c-15.32-0.9-30.7,1.19-46.06,1.73
		c-21.77,0.47-47.93-0.97-60.98-20.65c2.81,0.54,5.01,2.88,8.18,3.24c10.99,1.33,18.06-8.11,16.9-15.06
		c10.02-0.25,19.06-10.63,11.75-23.17c-3.39-5.73-10.52-7.93-13.73-13.37c-3.03-5.15-1.05-11.82-4.69-16.87
		c-3.35-4.61-9.55-6.49-15.06-5.77c2.41-16.36-12.18-26.34-19.46-39.53l-1.77-3.6c-0.83-1.91-4.14-2.63-4.61,0
		c-2.05,10.85-8.43,21.37-8.4,32.58c-10.7-6.34-23.32-7.68-35.28-3.71c-1.62,0.54-2.45,2.74-1.08,4
		c6.49,6.02,13.66,14.78,22.31,17.44c-1.62,1.37-2.96,3.17-3.75,5.55c-2.16,6.31,2.88,11.53-1.01,17.59
		c-2.7,4.22-6.13,5.41-6.67,10.99c-0.9,8.87,6.16,15.21,14.56,15.42c-2.31,13.87,9.73,25.23,22.31,22.81
		c-5.66,11.46-3.89,29.84-9.44,40c-1.12,1.98,0.68,3.78,2.7,3.5c19.79-2.74,35.03-20.76,31.71-38.96
		c7.78,6.31,17.37,9.59,27.71,11.17c-6.09,2.81-10.88,7.82-14.42,13.51c-11.32,18.27-6.6,39.5-1.33,58.92c0.61,2.34,3.89,2.2,4.61,0
		c5.51-16.94,15.6-29.8,28.94-41.3c9.87-8.51,19.17-17.44,21.26-30.6c9.62-0.61,18.92-1.37,27.17-1.33
		c42.71,0.11,74.13,28.36,93.81,63.93c-9.48-9.41-17.84-19.86-28.43-28.25c-5.77-4.79-11.96-9.05-18.7-12.36
		c-19.28-9.48-43.68-11.06-61.3,2.96c-14.78,11.78-25.91,38.38-11.42,54.67c2.31,2.59,5.26,4.69,8.5,5.98l-17.91,7.6
		c-0.04-0.18-0.11-0.32-0.18-0.5c-3.32-6.7-9.01-11.46-15.86-13.8c-0.25-8.36-12.9-9.69-14.31-0.79
		c-1.19,7.46,7.42,11.28,12.18,6.49c0.36-0.36,0.65-0.76,0.94-1.15c5.51,1.98,10.05,6.09,12.79,11.46
		c-11.39,4.11-21.55,6.67-33.37,4.04c-3.53-9.26-9.59-17.05-17.59-22.6c2.05-4.79-2.27-10.34-7.17-10.34
		c-6.31,0-9.59,7.64-5.05,12.22c2.56,2.63,5.69,3.5,9.01,1.73c6.45,4.32,11.57,10.2,14.88,17.3c-17.98-6.27-27.32-17.44-50.53-22.6
		c-3.78-7.71-8.07-14.09-15.46-18.7c-4.11-2.56-11.71-7.17-16.47-3.57c-5.66,4.32,0,11.89,3.93,14.99c2.85,2.27,6.02,3.93,9.3,5.37
		c-11.06,0.18-22.2,2.78-33.01,8.11c-7.6-3.78-13.84-9.62-22.99-5.66c-6.88,2.99-10.92,10.23-8.65,17.62
		c3.39,10.99,17.33,15.03,27.68,1.77c1.59-2.02,2.59-4.5,4.18-6.49c1.01-1.3,2.41-1.91,2.96-3.5c7.46-3.57,15.42-5.91,23.57-6.88
		c-4.9,2.99-10.7,9.44-8.32,15.86c1.91,5.08,7.53,7.14,12.43,5.3c4.07-1.55,6.78-5.19,9.44-8.4c3.32-3.93,6.6-7.86,9.91-11.78
		c11.42,2.41,21.12,8.14,30.99,13.8c-7.21,3.14-14.49,4.11-22.16,2.92c-1.41-5.98-8.87-7.1-12.51-3.42
		c-4.22,4.18-1.95,12.22,5.59,12.22c2.7,0,5.19-1.55,6.41-4.04c9.62,1.41,18.78-0.22,27.75-4.83c20.69,11.57,34.56,11.96,56.33,4.18
		c-1.26,5.69-5.26,10.42-10.6,12.69c-0.97-1.41-3.64-2.16-5.66-2.16c-9.15,0-9.95,14.31,0.5,14.31c4.54,0,7.78-4.29,7.1-7.75
		c7.6-3.24,13.05-10.67,13.77-18.99c6.09-2.41,12.07-5.08,17.98-7.64c-2.02,2.88-2.59,6.52-1.01,10.09
		c2.67,5.95,8.69,7.78,14.67,8.51c-4.54,8.58,3.24,18.99,13.55,18.99c17.48-0.04,19.32-19.06,28.4-29.34
		c10.02,7.68,21.12,13.95,31.64,20.9c3.14,2.05,6.31,4.04,9.59,5.87c-29.16-5.44-60.29-3.35-85.05,14.09
		c-0.11,0.11-0.25,0.22-0.4,0.32c-25.05,6.92-51.5,2.38-72.83-12.25c0.04-0.32,0.04-0.65-0.07-1.05
		c-2.88-9.55-9.37-16.43-18.96-19.46c-4.04-1.3-18.49-5.23-21.8-1.23c-4,4.87,8.69,12.65,11.68,14.99
		c13.98,10.88,24.15,9.08,24.76,9.48c4.32,3.21,8.94,5.95,13.73,8.25c-6.13-0.25-12.22,0.18-18.49,1.12
		c-17.26,2.59-22.74,2.41-37.73-8.07c-14.16-9.91-30.2-23.32-48.22-15.75c-15.1-6.78-28.43,0.79-40.69,10.09
		c-1.77,1.37-1.37,4.43,1.23,4.47c15.28,0.18,31.14,4.5,41.01-10.05c10.16-4.58,19.57-1.3,28.54,4.18
		c-6.34,0.61-12.61,4.54-15.75,10.16c-0.68,1.19-0.14,3.28,1.44,3.5c9.51,1.3,18.6-0.22,27.1-4.72
		c12.72,9.3,21.23,14.05,37.73,11.86c11.6-1.55,21.95-3.03,33.52-0.94c-4.72,1.95-8.9,5.01-12.14,9.15
		c-8.97,11.53-3.93,17.95-0.61,16.11c10.34-5.8,19.46-12.97,27.5-21.73c0.4-0.43,0.61-0.9,0.65-1.41c9.87,1.62,20,1.69,29.98,0.04
		c-11.46,10.2-20.87,22.56-31.35,33.77c-15.17,15.78-34.6,33.23-57.73,28.54c2.38-1.62,5.59-1.51,8.11-3.5
		c8.65-6.78,7.03-18.42,1.3-22.56c6.92-7.35,5.95-21.05-8.11-24.72c-6.41-1.66-13.05,1.84-19.17,0.25
		c-5.77-1.51-9.08-7.6-15.21-8.61c-5.62-0.9-11.35,2.2-14.7,6.56c-9.91-13.26-27.28-9.98-41.73-14.16l-3.82-1.3
		c-1.91-0.79-4.76,1.05-3.28,3.24c6.23,9.12,9.19,21.08,17.12,28.97c-12.07,3.1-21.88,11.06-27.57,22.34
		c-0.76,1.55,0.22,3.64,2.09,3.57c9.23-0.36,19.6,0.9,28.07-3.5c-0.18,2.16,0.18,4.4,1.3,6.63c2.92,5.98,10.16,6.16,11.75,13.15
		c1.05,4.87-0.54,8.14,2.99,12.51c5.66,6.92,15.14,6.38,21.23,0.61c8.07,11.28,24.65,11.03,31.93,0.36
		c4.07,12.07,18.34,23.82,21.59,34.96c0.61,2.16,3.17,2.16,4.4,0.58c12.04-15.97,10.09-39.5-5.12-49.99
		c9.95-1.08,19.03-5.51,27.46-11.71c-2.27,6.31-2.16,13.23-0.61,19.75c4.94,20.9,23.24,32.61,40.72,42.6
		c2.09,1.23,4.29-1.19,3.24-3.24c-8.07-15.89-10.02-32.11-8.72-49.7c0.94-12.97,1.19-25.88-6.6-36.65
		c6.34-7.24,12.4-14.34,18.24-20.15c30.27-30.16,72.51-32.36,111.58-21.15c-13.95,0.07-25.7-1.41-40.11,0.11
		c-7.46,0.72-14.85,2.09-21.98,4.54c-20.33,6.88-38.67,23.06-41.23,45.41c-2.09,18.78,8.79,45.48,30.6,46.74
		c3.46,0.18,7.03-0.4,10.23-1.77l-7.32,18.02c-0.14-0.07-0.29-0.14-0.47-0.22c-7.06-2.38-14.49-1.73-20.94,1.44
		c-6.52-5.98-16.58,3.03-10.16,10.2c5.15,5.8,13.95,0.9,12.51-6.09c5.3-2.52,11.42-2.85,17.12-1.01
		c-5.15,10.96-10.52,20-20.72,26.45c-9.05-4.07-18.85-5.33-28.4-3.57c-2.16-4.97-9.01-5.55-12.4-2.2
		c-4.04,4.04-2.27,12.22,5.8,12.22c3.21,0,5.98-2.09,6.92-5.23c7.6-1.48,15.39-0.94,22.74,1.73c-17.19,8.36-31.53,6.96-51.68,19.79
		c-8.18-2.78-15.71-4.25-24.25-2.27c-4.68,1.08-13.33,3.17-14.13,9.08c-0.97,7.06,8.4,8.43,13.37,7.86
		c3.64-0.43,7.1-1.48,10.42-2.85c-7.71,8-13.77,17.69-17.66,29.12c-8.07,2.7-16.61,2.99-20.25,12.29
		c-2.74,6.99-0.47,14.96,6.34,18.56c10.34,5.44,22.88-1.84,20.83-18.34c-0.29-2.56-1.33-5.01-1.66-7.53
		c-0.18-1.51,0.32-3.17-0.36-4.54c2.74-7.82,6.74-15.1,11.78-21.55c-1.01,5.91-1.19,14.09,5.33,17.08
		c4.94,2.27,10.38-0.25,12.54-5.05c1.77-3.93,1.12-8.43,0.76-12.61c-0.43-5.12-0.9-10.2-1.33-15.28c9.8-6.41,20.65-9.19,31.64-12.18
		c-2.85,7.28-7.35,13.12-13.59,17.69c-5.15-3.21-11.28,1.23-11.28,6.45c0,5.48,6.67,10.23,12.61,4.69c1.87-1.73,2.59-4.72,1.62-7.42
		c7.82-5.77,13.19-13.41,16.22-22.99c22.88-6.52,32.94-15.82,42.85-36.87c3.1,4.9,3.64,11.06,1.48,16.43
		c-6.7,0-10.13,8.43-5.55,12.61c7.6,6.96,17.37-4.76,10.05-10.88c3.06-7.68,1.66-16.76-3.71-23.17c2.59-5.98,4.94-12.15,7.32-18.16
		c0.61,3.5,2.74,6.49,6.41,7.93c6.05,2.31,11.64-0.65,16.36-4.36c2.85,9.26,15.71,11.14,23.03,3.86
		c12.36-12.4,0.18-27.17-0.65-40.83c12.51-1.66,24.76-5.08,37.16-7.6c3.64-0.72,7.32-1.59,10.92-2.63
		c-24.47,16.79-44.98,40.29-50.17,70.09c-0.04,0.18-0.04,0.36-0.07,0.54c-12.79,22.6-34.71,38.09-60.15,42.81
		c-0.18-0.25-0.47-0.47-0.83-0.68c-8.76-4.72-18.24-5.01-27.14-0.4c-3.78,1.98-16.79,9.44-16.29,14.6
		c0.61,6.27,15.1,2.81,18.85,2.34c9.15-1.12,17.66-4.22,24.18-10.78h0.04c6.38-1.01,12.51-2.7,18.45-4.97
		c-3.68,3.64-7.03,7.64-10.23,11.93c-8.61,11.57-17.62,17.26-31.97,19.6c-16.9,2.77-38.06,4.4-45.44,22.45
		c-15.5,5.62-19.79,20.51-22.02,35.61c-0.36,2.23,2.13,4.14,4,2.34c10.96-10.6,25.48-18.49,22.31-35.86
		c3.89-10.34,13.01-14.6,23.28-16.94c-4.11,4.9-5.84,12.14-4.11,18.34c0.36,1.33,2.23,2.34,3.5,1.41
		c7.71-5.66,13.19-13.19,16.04-22.31c15.82-2.27,25.12-4.79,35.5-18.13c5.44-6.96,10.42-13.41,16.76-18.92
		c-1.66,4.36-2.23,9.08-1.66,13.87c1.84,14.45,9.91,15.46,10.96,11.86c3.24-11.42,4.61-22.99,4.11-34.85
		c-0.04-0.58-0.22-1.08-0.54-1.44c8.11-5.8,15.32-12.94,21.23-21.15c-0.9,15.32,1.19,30.7,1.73,46.02
		c0.43,21.77-0.97,47.93-20.65,60.98c0.5-2.81,2.85-4.97,3.24-8.14c1.33-11.03-8.14-18.06-15.06-16.9
		c-0.29-10.05-10.67-19.06-23.17-11.75c-5.73,3.35-7.93,10.52-13.41,13.73c-5.12,2.99-11.78,1.05-16.83,4.69
		c-4.65,3.35-6.45,9.55-5.8,15.03c-16.36-2.38-26.31,12.22-39.5,19.5l-3.6,1.77c-1.95,0.79-2.63,4.11,0,4.61
		c10.81,2.05,21.37,8.43,32.58,8.4c-6.34,10.7-7.68,23.28-3.71,35.28c0.54,1.62,2.7,2.45,4,1.05c6.16-6.6,14.6-13.44,17.41-22.27
		c1.41,1.62,3.21,2.95,5.59,3.75c6.31,2.16,11.57-2.88,17.59,1.01c4.22,2.7,5.41,6.09,10.99,6.67c8.87,0.9,15.21-6.16,15.42-14.56
		c13.66,2.31,25.19-9.62,22.81-22.31c11.46,5.66,29.84,3.89,40,9.44c1.98,1.08,3.78-0.68,3.5-2.7
		c-2.74-19.79-20.79-35.03-38.96-31.71c6.27-7.82,9.59-17.37,11.17-27.71c2.81,6.05,7.82,10.88,13.51,14.42
		c18.27,11.32,39.5,6.6,58.92,1.33c2.34-0.65,2.2-3.89,0-4.61c-16.94-5.51-29.8-15.64-41.3-28.97c-8.51-9.84-17.44-19.14-30.6-21.23
		c-0.61-9.62-1.37-18.92-1.37-27.17c0.11-42.71,28.43-74.17,63.93-93.81c-9.73,9.8-19.21,17.19-28.25,28.4
		c-4.76,5.8-9.01,12-12.33,18.74c-9.51,19.28-11.06,43.68,2.96,61.27c11.75,14.81,38.34,25.95,54.67,11.46
		c2.59-2.31,4.69-5.3,5.98-8.51l7.57,17.91c-0.14,0.04-0.29,0.11-0.47,0.18c-6.7,3.32-11.46,9.01-13.8,15.82
		c-8.32,0.36-9.8,12.79-0.79,14.34c7.24,1.23,11.32-7.17,6.45-12.22c-0.32-0.36-0.72-0.65-1.15-0.9c2.02-5.55,6.13-10.09,11.5-12.79
		c4.07,11.39,6.67,21.55,4,33.37c-9.23,3.5-17.05,9.59-22.56,17.59c-4.76-2.05-10.34,2.2-10.34,7.17c0,6.49,7.93,9.48,12.25,5.05
		c2.56-2.63,3.5-5.59,1.69-9.01c4.32-6.45,10.2-11.57,17.3-14.92c-6.31,18.06-17.41,27.28-22.63,50.53
		c-7.71,3.82-14.05,8.11-18.67,15.5c-2.56,4.11-7.21,11.71-3.6,16.43c4.36,5.69,11.93,0.04,15.03-3.89
		c2.27-2.85,3.93-6.02,5.33-9.33c0.22,11.1,2.81,22.24,8.11,33.05c-3.78,7.6-9.59,13.84-5.62,22.99
		c2.99,6.88,10.27,10.92,17.62,8.65c11.1-3.46,14.92-17.48,1.77-27.71c-2.05-1.59-4.51-2.56-6.49-4.14
		c-1.23-0.94-2.02-2.49-3.5-2.96c-3.57-7.46-5.91-15.46-6.92-23.57c3.21,5.01,9.44,10.7,15.86,8.32c5.12-1.91,7.17-7.53,5.3-12.43
		c-1.51-4.07-5.15-6.78-8.36-9.48c-3.93-3.32-7.86-6.6-11.78-9.87c2.41-11.42,8.14-21.12,13.77-30.99
		c3.17,7.17,4.14,14.49,2.96,22.16c-5.91,1.33-7.14,8.79-3.42,12.51c4.14,4.18,12.22,1.98,12.22-5.59c0-2.74-1.55-5.19-4.07-6.41
		c1.44-9.62-0.18-18.78-4.79-27.75c0.83-1.59,1.69-3.17,2.52-4.79c9.51-18.6,8.36-32.76,1.66-51.53c5.69,1.26,10.38,5.26,12.69,10.6
		c-1.41,0.97-2.2,3.6-2.2,5.66c0,6.7,8.29,9.37,12.25,5.05c4.47-4.87,1.48-13.08-5.66-12.69c-3.24-7.57-10.67-13.01-18.99-13.77
		c-2.41-6.05-5.08-12.04-7.68-17.98c2.92,2.02,6.56,2.59,10.13,1.01c5.95-2.63,7.78-8.69,8.51-14.63
		c8.54,4.54,18.99-3.24,18.99-13.55c0-17.51-19.1-19.32-29.34-28.4c7.68-10.02,13.91-21.12,20.87-31.64
		c2.09-3.14,4.07-6.34,5.91-9.59c-5.44,29.16-3.35,60.26,14.09,85.01c0.11,0.14,0.22,0.29,0.32,0.43
		c6.92,25.01,2.38,51.5-12.25,72.83c-0.32-0.07-0.68-0.04-1.05,0.07c-9.55,2.88-16.43,9.33-19.46,18.92
		c-1.3,4.04-5.23,18.52-1.23,21.8c4.87,4.04,12.65-8.69,14.99-11.64c5.66-7.28,9.48-15.46,9.48-24.72v-0.04
		c3.68-5.05,6.78-10.45,9.3-16.04c-0.29,5.69,0,11.39,0.83,17.26c2.34,17.23,1.51,23.14-9.05,37.52
		c-10.23,13.95-23.93,29.59-16.83,47.75c-7.17,14.99,0.18,28.51,9.19,40.98c1.37,1.87,4.36,1.3,4.43-1.19
		c0.58-15.28,5.19-30.99-9.08-41.19c-4.4-10.27-0.86-19.61,4.87-28.43c0.43,6.38,4.25,12.72,9.84,16c1.19,0.72,3.24,0.11,3.5-1.44
		c1.51-9.44,0.14-18.56-4.14-27.14c9.69-12.58,14.6-21.12,12.76-37.52c-1.12-9.95-2.16-18.99-0.94-28.61
		c1.95,4.14,4.83,7.86,8.58,10.78c11.42,8.9,17.95,3.96,16.11,0.61c-5.8-10.34-13.01-19.5-21.73-27.53c-0.43-0.4-0.9-0.58-1.41-0.61
		c1.62-9.87,1.69-20,0.04-29.98c10.2,11.46,22.56,20.87,33.77,31.32c15.71,15.06,33.23,34.6,28.54,57.73
		c-1.62-2.38-1.51-5.55-3.5-8.07c-6.78-8.69-18.52-7.03-22.6-1.3c-7.32-6.92-21.01-5.91-24.69,8.07
		c-1.66,6.45,1.84,13.08,0.25,19.17c-1.51,5.8-7.6,9.12-8.61,15.24c-0.94,5.66,2.2,11.32,6.52,14.7
		c-13.23,9.91-9.98,27.28-14.16,41.73l-1.3,3.82c-0.79,1.91,1.05,4.72,3.24,3.24c9.15-6.2,21.12-9.15,29.01-17.08
		c3.1,12.04,11.06,21.88,22.34,27.57c1.51,0.76,3.6-0.22,3.57-2.09c-0.32-9.62,0.83-19.57-3.5-28.11c2.13,0.22,4.36-0.14,6.63-1.26
		c5.98-2.92,6.13-10.2,13.15-11.75c4.87-1.05,8.11,0.54,12.51-3.03c6.88-5.62,6.38-15.1,0.61-21.19
		c11.32-8.11,10.96-24.69,0.36-31.93c12.07-4.11,23.79-18.34,34.92-21.59c2.2-0.65,2.2-3.17,0.58-4.4
		c-15.97-12.04-39.46-10.09-49.95,5.12c-1.08-9.95-5.51-19.03-11.71-27.5c6.27,2.31,13.23,2.16,19.75,0.65
		c20.9-4.94,32.58-23.28,42.6-40.72c1.23-2.13-1.19-4.29-3.24-3.24c-15.89,8.07-32.11,10.02-49.7,8.72
		c-12.97-0.97-25.88-1.19-36.65,6.6c-7.28-6.38-14.34-12.4-20.18-18.24c-30.13-30.31-32.36-72.55-21.12-111.58
		c0.04,13.62-1.37,26.2,0.11,40.07c0.72,7.5,2.13,14.88,4.5,21.98c6.92,20.36,23.1,38.71,45.44,41.23
		c18.78,2.16,45.44-8.79,46.74-30.56c0.22-3.46-0.43-7.03-1.8-10.23l18.06,7.32c-0.07,0.14-0.14,0.29-0.22,0.47
		c-2.38,7.06-1.73,14.49,1.44,20.94c-5.98,6.38,2.92,16.61,10.2,10.16c5.73-5.08,1.01-13.84-6.13-12.51
		c-2.52-5.33-2.85-11.42-0.97-17.15c10.88,5.15,20,10.56,26.45,20.76c-4.07,9.05-5.33,18.81-3.57,28.4
		c-4.94,2.09-5.59,8.97-2.2,12.36c3.96,4,12.22,2.34,12.22-5.8c0-3.24-2.13-5.95-5.23-6.88c-1.48-7.6-0.94-15.39,1.73-22.74
		c8.36,17.26,6.96,31.57,19.79,51.68c-2.78,8.18-4.25,15.71-2.31,24.22c1.12,4.72,3.21,13.37,9.08,14.16
		c7.1,0.94,8.43-8.43,7.89-13.37c-0.43-3.64-1.48-7.1-2.85-10.42c8,7.71,17.69,13.77,29.12,17.66c2.7,8.04,2.99,16.58,12.29,20.25
		c6.99,2.74,14.96,0.47,18.56-6.38c5.37-10.2-1.73-22.88-18.34-20.79c-2.56,0.29-5.01,1.33-7.53,1.66
		c-1.26,0.14-3.57-0.32-4.54,0.36c-7.82-2.78-15.14-6.74-21.55-11.82c0.18,0.07,0.43,0.11,0.61,0.14
		c5.73,1.08,13.69,0.65,16.47-5.44c2.23-4.94-0.25-10.38-5.05-12.54c-3.93-1.8-8.43-1.15-12.61-0.76c-5.12,0.43-10.2,0.9-15.28,1.33
		c-6.41-9.8-9.23-20.69-12.22-31.64c7.32,2.85,13.15,7.32,17.73,13.59c-3.21,5.01,1.12,11.28,6.45,11.28
		c6.05,0,9.95-7.46,4.68-12.61c-1.98-1.95-4.76-2.56-7.42-1.66c-5.77-7.78-13.41-13.15-22.99-16.18
		c-6.78-23.14-15.53-32.72-36.87-42.85c4.9-3.14,11.06-3.64,16.43-1.48c0,6.74,8.43,10.13,12.61,5.55
		c5.01-5.55,0.11-12.61-5.44-12.61c-1.98,0-4.25,0.94-5.44,2.56c-7.68-3.06-16.76-1.66-23.17,3.71c-5.98-2.59-12.14-4.94-18.2-7.35
		c3.5-0.58,6.52-2.7,7.93-6.38c2.34-6.05-0.61-11.64-4.32-16.36c9.26-2.85,11.14-15.75,3.82-23.03
		c-12.36-12.36-27.14-0.18-40.8,0.65c-1.69-12.51-5.08-24.79-7.6-37.12c-0.76-3.68-1.62-7.35-2.63-10.96
		c16.76,24.47,40.26,44.98,70.1,50.17c0.18,0.04,0.36,0.04,0.5,0.07c22.63,12.79,38.13,34.7,42.85,60.15
		c-0.25,0.18-0.5,0.43-0.68,0.83c-4.72,8.76-5.01,18.2-0.4,27.14c1.95,3.75,9.41,16.76,14.56,16.25c6.31-0.58,2.85-15.1,2.38-18.81
		c-1.12-9.15-4.22-17.66-10.78-24.18c0-2.63-3.03-13.05-4.04-16c3.93,4.22,8.32,8,13.08,11.64c11.5,8.72,17.08,17.8,19.35,32.15
		c2.67,16.94,4.11,38.06,22.09,45.59c5.48,15.57,20.36,19.97,35.46,22.31c2.27,0.36,4.07-2.13,2.34-4
		c-10.52-11.03-18.31-25.59-35.68-22.56c-10.34-4-14.52-13.12-16.76-23.42c4.87,4.14,12.11,5.95,18.31,4.25
		c1.37-0.36,2.34-2.23,1.44-3.5c-5.51-7.64-12.9-13.08-21.8-16.07l-0.4-0.11c-2.16-15.89-4.54-25.12-17.84-35.64
		c-8.43-6.67-16-12.65-22.16-21.19c4.69,1.98,9.8,2.74,15.03,2.09c14.38-1.77,15.5-9.87,11.82-10.92
		c-11.39-3.24-22.96-4.61-34.81-4.14c-0.58,0.04-1.08,0.25-1.44,0.58c-5.84-8.14-12.94-15.32-21.19-21.23
		c15.32,0.9,30.7-1.19,46.06-1.73c21.77-0.47,47.97,0.97,60.98,20.65c-2.81-0.54-4.97-2.88-8.18-3.24
		c-10.96-1.33-18.02,8.07-16.87,15.06c-10.02,0.25-19.1,10.6-11.75,23.17c3.35,5.73,10.52,7.93,13.73,13.37
		c2.99,5.15,1.05,11.82,4.68,16.87c3.32,4.61,9.51,6.45,15.03,5.77c-2.38,16.36,12.22,26.34,19.5,39.53l1.77,3.6
		c0.79,1.91,4.11,2.59,4.58,0c2.09-10.85,8.43-21.37,8.4-32.58c10.74,6.34,23.32,7.68,35.32,3.71c1.62-0.54,2.41-2.74,1.05-4
		C746.73,600.76,741.07,594.02,734.04,590.31z M730.3,412.96c1.51-1.77,2.96-3.75,4.76-5.3c3.03-2.59,9.48-3.86,9.55,2.13
		c0.11,5.55-7.86,9.98-12.43,10.78c-2.85,0.5-5.73,0.54-8.61,0.5C725.79,418.37,728.06,415.67,730.3,412.96z M739.45,435.6
		c1.55,1.08,3.71,2.56,4.4,4.4c0.87,2.27,0.25,4.07-2.49,3.86c-3.53-0.32-8.07-3.71-10.85-5.77c-3.6-2.7-6.09-6.2-8.25-9.98
		C728.06,429.97,734.41,432.1,739.45,435.6z M693.32,386.84c0.72,0.65,2.31,2.56,3.78,4.07c-3.93-0.25-7.5-0.4-11.42-1.41
		c-8.14-2.09-14.13-6.85-17.15-14.52C678.58,375.3,686.01,380.42,693.32,386.84z M786.81,374.8c-8.87,5.91-18.52,10.23-29.08,6.09
		C765.15,372.2,776.21,373.75,786.81,374.8z M733.36,366.08c-4.4,4.25-11.32,6.13-16.54,2.85
		C722.08,366.73,727.67,365.75,733.36,366.08z M656.6,336.45c-0.43,3.64-6.09,9.73-7.39,10.88c-6.74,6.02-13.19,5.59-14.6,6.45
		C641.21,347.05,648.49,341.25,656.6,336.45z M634.07,354.36c-0.11,0.22-0.18,0.4-0.25,0.61c-0.07,0-0.18-0.04-0.29-0.04
		C633.71,354.73,633.89,354.55,634.07,354.36z M727.56,344.85c-7.96,4.25-12.36-3.89-18.74-6.56c-5.51-2.27-10.31-0.04-15.96,0.07
		c-5.3,0.11-11.86-1.8-13.62-7.53c-1.23-4.11,0.72-9.05,4.32-11.24c6.05,0.76,13.66-1.77,19.46-2.59c1.98,2.56,4.76,4.43,7.82,5.48
		c1.19,5.95-4.07,7.46-1.51,10.02c0.83,0.83,2.59,1.05,3.39,0c2.13-2.7,3.14-5.8,2.99-9.12c4.51,0.18,9.12-1.37,12.51-5.01
		c1.8,2.02,3.89,3.5,6.13,4.47c-0.04,0.36,0,0.76,0.18,1.15C736.28,331.37,734.98,340.89,727.56,344.85z M738.48,340.2
		c-0.11-0.18-0.22-0.32-0.4-0.47c1.41-3.24,1.98-6.81,1.91-10.42c8.32,7.93,16.61,16.25,26.09,22.7
		C755.31,350.76,744.39,349.43,738.48,340.2z M767.88,335.99c3.46,5.3,5.8,11.17,8.72,16.79c-12.97-6.74-23.53-17.62-34.16-27.71
		C752.71,324.27,761.58,326.36,767.88,335.99z M762.7,323.55c-0.11,0.04-0.18,0.07-0.32,0.11c-1.15-0.72-2.31-1.26-3.53-1.73
		c8.61-1.91,16.76-5.59,24.79-9.37C778.12,318.29,770.98,322.07,762.7,323.55z M772.17,307.41c4.29-0.94,8.94-1.01,13.51-1.01
		c-9.19,4.25-18.52,8.97-28.4,11.03c1.44-1.26,2.77-2.7,3.93-4.22C764.35,310.47,767.88,308.27,772.17,307.41z M729.61,276.34
		c0.25-0.14,0.5-0.29,0.76-0.54c4.36-4.36,11.57-4.94,15.21,0.94c2.09,3.35,1.23,5.19,1.23,8.51c0,9.3,4.29,8.97,7.28,10.92
		c5.59,3.68,7.1,8.58,3.6,13.77c-1.87,1.69-3.64,3.53-5.3,5.37c-6.45,4.72-15.5,6.81-21.01-0.5c-0.11-0.14-0.25-0.29-0.4-0.4
		c1.59-2.96,2.52-6.45,2.27-9.69c3.39-0.72,6.7-1.66,9.91-2.92c2.85-1.08,1.66-5.73-1.23-4.61c-3.24,1.26-6.56,2.23-9.98,2.92
		c-0.79-1.51-2.16-2.85-3.57-3.75C731.56,289.96,732.1,282.58,729.61,276.34z M728.24,303.44c2.74,7.64-5.55,15.53-12.69,15.21
		c-6.81-0.29-11.42-5.91-10.81-12.54c0.47-5.3,5.59-10.81,10.67-10.2c-4.4,2.59-6.74,8.22-4.72,13.15
		c2.31,5.59,9.37,7.21,14.16,3.86c2.52-1.73,0.18-5.91-2.34-4.14c-5.3,3.71-10.24-3.64-5.66-7.86
		C720.13,297.89,726.62,298.83,728.24,303.44z M696.31,290.11c1.01-2.45,0.68-4.94,0.83-7.5c0.4-7.64,5.62-14.42,13.91-14.31
		c14.02,0.18,18.31,15.71,12.87,26.31c-0.4-0.07-0.79-0.18-1.19-0.22c-5.69-5.51-12.61-3.78-17.33,0.86
		c-1.19-0.4-2.09-1.23-2.85-2.16c-2.09-2.63-7.82,1.98-0.14,5.98c-2.52,4.29-3.24,8.94-1.69,13.62c-8.29,1.95-22.16,6.85-22.49-5.62
		C677.9,295.37,692.71,298.87,696.31,290.11z M680.89,257.42c6.38,7.64,14.63,18.02,8.54,27.39c-6.59-11.57-11.53-23.71-15.35-36.4
		C676.09,251.55,678.44,254.5,680.89,257.42z M668.78,247.33c3.93,13.44,8.9,26.27,15.71,38.45
		C667.52,281.24,663.05,262.54,668.78,247.33z M642.47,277.13c2.38,8.14,2.31,16.76-2.45,24.04c-3.71,5.73-7.82,9.69-12.36,14.45
		c4.5-12.25,9.8-26.06,7.24-38.38c-1.55-7.42-6.34-11.6-11.17-17.01c-3.68-4.14-5.41-9.44-8.18-13.98
		C627.44,253.82,638.36,263.08,642.47,277.13z M617.82,274.97c-0.14-6.74-1.08-13.33-2.81-19.79c1.3,2.7,2.56,5.33,4.43,7.46
		c5.37,6.09,10.85,10.67,11.21,19.39c0.54,12.47-5.44,25.84-9.55,37.73C613.32,306.47,618.11,289.71,617.82,274.97z M662.87,190.17
		c1.84-0.32,4.4-0.79,6.2,0c2.23,1.01,3.06,2.7,0.97,4.47c-2.74,2.27-8.32,3.1-11.75,3.6c-4.43,0.65-8.69-0.07-12.87-1.23
		C650.83,194.25,656.78,191.33,662.87,190.17z M639.98,173.52c0.29-3.96,4-9.41,8.29-5.26c4,3.89,1.48,12.65-1.19,16.47
		c-1.66,2.31-3.68,4.4-5.73,6.41C641.07,187.94,639.8,176.19,639.98,173.52z M595.76,188.34c0.94-0.07,3.42,0.14,5.55,0.18
		c-2.59,2.41-6.09,5.33-9.05,7.1c-7.28,4.29-14.88,5.19-22.45,1.87C577.17,190.61,586.03,188.98,595.76,188.34z M653.5,112.15
		c-2.05,10.45-5.8,20.4-16.15,24.9C636.34,125.7,645.32,118.96,653.5,112.15z M609.68,143.9c-0.04,6.13-3.64,12.4-9.66,13.8
		C602.18,152.41,605.46,147.72,609.68,143.9z M530.93,208.01c0-0.25,0-0.5,0-0.76c0.04,0.22,0.11,0.43,0.25,0.61
		C531.11,207.9,531,207.98,530.93,208.01z M534.18,178.64c2.27,2.92,2.59,11.21,2.49,12.94c-0.58,9.19-5.48,13.33-5.77,14.92
		C530.75,197.02,531.83,187.8,534.18,178.64z M590.29,134.42c-2.63,8.65-11.5,5.98-17.88,8.61c-5.48,2.27-7.32,7.28-11.24,11.35
		c-3.68,3.82-9.66,7.1-14.96,4.29c-3.78-2.02-5.91-6.88-4.94-10.99c4.87-3.75,8.43-10.92,11.93-15.6c3.24,0.4,6.56-0.25,9.44-1.66
		c5.05,3.39,2.38,8.14,6.02,8.14c1.15,0,2.56-1.08,2.38-2.38c-0.43-3.42-1.87-6.34-4.32-8.58c3.32-3.06,5.44-7.39,5.3-12.4
		c2.7,0.18,5.23-0.25,7.5-1.15c0.22,0.29,0.54,0.54,0.94,0.68C586.9,118.71,592.74,126.39,590.29,134.42z M553.06,121.05
		c5.59,2.31,11.71-1.51,12.76-7.32c0.54-2.99-4.07-4.29-4.58-1.26c-1.15,6.38-9.84,4.69-9.59-1.55c0.18-4.47,5.44-8.36,9.84-6.27
		c7.35,3.46,7.06,14.92,1.77,19.75c-4.97,4.58-12.25,3.89-16.51-1.23c-3.39-4.07-3.68-11.6,0.32-14.78
		C545.82,113.34,548.16,119,553.06,121.05z M594.76,123.43c-0.25-0.07-0.43-0.07-0.65-0.07c-1.3-3.28-3.42-6.2-6.02-8.72
		c11.5-0.25,23.24-0.25,34.49-2.38C614.07,119,605.42,125.77,594.76,123.43z M607.15,71.93c0.11,7.96-2.27,15.68-7.06,22.6
		c-0.07,0.07-0.11,0.18-0.14,0.29c-1.33,0.32-2.56,0.76-3.75,1.26C600.92,88.65,604.09,80.26,607.15,71.93z M595.33,76.4
		c2.41-3.71,5.66-7.03,8.87-10.27c-3.46,9.51-6.74,19.46-12.29,27.89c0.11-1.91,0.07-3.89-0.22-5.77
		C591.98,84.08,592.92,80.08,595.33,76.4z M612.52,99.61c6.2,1.3,12.04,3.86,18.02,5.73c-13.95,4.43-29.08,4.22-43.71,4.58
		C593.53,102.1,601.28,97.27,612.52,99.61z M543.47,83.61c0-6.2,4.68-11.64,11.39-10.09c3.86,0.9,4.54,2.81,6.88,5.15
		c2.45,2.45,4.58,4.18,8.29,3.93c1.66-0.11,2.99-1.01,4.58-1.37c6.52-1.33,11.03,1.05,12.25,7.1c-0.11,2.56-0.04,5.12,0.07,7.68
		c-1.23,7.86-6.13,15.75-15.21,14.45c-0.18,0-0.36-0.04-0.54,0c-1.01-3.21-2.81-6.34-5.26-8.47c1.87-2.88,3.53-5.87,4.94-9.05
		c1.23-2.77-2.88-5.23-4.11-2.41c-1.44,3.21-3.1,6.23-5.01,9.12c-1.69-0.47-3.42-0.47-5.19-0.11c-2.23-6.78-7.1-12.36-13.3-15.03
		C543.37,84.26,543.47,83.97,543.47,83.61z M524.48,91.97c10.02-9.77,24.04-1.84,27.71,9.48c-0.36,0.22-0.68,0.47-1.01,0.72
		c-7.93,0.11-11.6,6.23-11.64,12.87c-1.12,0.54-2.34,0.61-3.57,0.47c-3.17-0.36-4.22,6.88,4.18,4.36c1.19,4.79,4,8.65,8.4,10.81
		c-4.47,7.24-10.81,20.54-19.86,11.93c-8.51-8.07,4.43-16.07,0.76-24.79c-1.01-2.41-2.99-4-4.72-5.87
		C519.65,106.24,518.57,97.73,524.48,91.97z M520.84,118.93c-12.83-3.5-24.9-8.61-36.54-14.85
		C496.84,106.78,517.74,104.51,520.84,118.93z M479.79,107.03c12.22,6.7,24.83,12.25,38.27,16.07
		C502.82,131.9,486.46,121.81,479.79,107.03z M463.25,162.6c-4.83-4.65-10.2-8.65-15.93-12c2.77,1.01,5.59,1.95,8.36,2.13
		c8.18,0.5,15.21-0.11,21.66,5.8c9.19,8.43,14.42,22.09,19.93,33.41C482.35,188.01,473.88,172.84,463.25,162.6z M498.97,184.41
		c-5.48-11.86-11.5-25.37-22.02-32.25c-6.34-4.14-12.65-3.75-19.89-4.14c-5.55-0.32-10.52-2.85-15.68-4.11
		c13.77-3.06,28-4.25,40.83,2.78c16.07,8.83,16.51,20.43,16.76,36.4C498.97,183.51,498.97,183.97,498.97,184.41z M435.18,70.81
		c1.08-1.55,2.56-3.71,4.36-4.4c2.31-0.86,4.11-0.29,3.89,2.49c-0.32,3.5-3.71,8.04-5.8,10.85c-2.67,3.57-6.2,6.09-9.98,8.22
		C429.52,82.17,431.72,75.9,435.18,70.81z M420.65,86.71c-2.49-2.09-11.68-9.48-13.41-11.5c-2.63-3.03-3.86-9.48,2.13-9.59
		c5.55-0.07,9.98,7.89,10.78,12.47C420.65,80.94,420.69,83.82,420.65,86.71z M386.42,116.94c0.65-0.72,2.56-2.31,4.07-3.78
		c-0.43,12.15-3.39,23.61-15.93,28.58C374.89,131.65,380,124.26,386.42,116.94z M375.68,50.31c-8.9-7.06-7.82-18.16-7.21-28.83
		C374.7,30.09,379.39,39.64,375.68,50.31z M361.88,75.32c4.36,4.22,6.52,11.03,3.46,16.36C362.96,86.45,361.8,81.01,361.88,75.32z
		 M336,153.63c3.68,0.47,9.77,6.09,10.92,7.39c6.09,6.92,5.62,13.37,6.45,14.63C346.6,169.06,340.83,161.74,336,153.63z
		 M305.69,105.52c-5.3-0.5-10.81-5.59-10.23-10.7c2.59,4.43,8.25,6.78,13.15,4.72c5.62-2.31,7.24-9.33,3.89-14.16
		c-1.73-2.49-5.91-0.14-4.14,2.38c3.68,5.3-3.64,10.23-7.86,5.66c-3.06-3.28-2.09-9.77,2.52-11.42c7.64-2.74,15.53,5.59,15.21,12.72
		C317.94,101.48,312.32,106.13,305.69,105.52z M339.78,71.75c-0.18,0.14-0.36,0.25-0.47,0.4c-3.24-1.37-6.85-1.95-10.42-1.87
		c7.93-8.32,16.22-16.65,22.67-26.09C350.34,54.96,349.05,65.88,339.78,71.75z M335.53,42.38c5.3-3.46,11.21-5.8,16.79-8.72
		c-6.7,12.97-17.59,23.53-27.68,34.16C323.85,57.55,325.95,48.65,335.53,42.38z M344.4,82.71c4.29,7.96-3.89,12.36-6.52,18.7
		c-2.27,5.51-0.04,10.34,0.07,16c0.11,5.3-1.8,11.86-7.53,13.59c-4.11,1.26-9.05-0.68-11.24-4.29c0.76-6.05-1.77-13.66-2.63-19.46
		c2.59-2.02,4.47-4.79,5.48-7.86c6.05-1.15,7.46,4.07,10.05,1.51c0.83-0.79,1.05-2.56,0-3.35c-2.7-2.13-5.8-3.14-9.12-2.99
		c0.18-4.54-1.37-9.12-5.05-12.54c2.05-1.8,3.53-3.86,4.5-6.13c0.36,0.07,0.76,0,1.12-0.18C330.92,73.99,340.47,75.25,344.4,82.71z
		 M323.13,47.57c0.04,0.11,0.04,0.18,0.11,0.29c-0.72,1.15-1.3,2.34-1.77,3.57c-1.91-8.61-5.59-16.79-9.33-24.83
		C317.87,32.14,321.66,39.28,323.13,47.57z M317.01,52.98c-1.26-1.44-2.7-2.81-4.22-3.93c-2.74-3.14-4.94-6.67-5.84-10.96
		c-0.9-4.32-0.97-8.97-0.97-13.51C310.23,33.73,314.95,43.06,317.01,52.98z M276.28,64.69c3.39-2.09,5.23-1.23,8.5-1.23
		c9.3,0,9.01-4.32,10.96-7.28c3.68-5.62,8.58-7.1,13.73-3.6c1.73,1.87,3.57,3.6,5.41,5.3c4.72,6.41,6.81,15.5-0.5,21.01
		c-0.18,0.11-0.32,0.22-0.43,0.36c-2.96-1.55-6.41-2.49-9.66-2.27c-0.72-3.35-1.69-6.67-2.92-9.87c-1.12-2.85-5.73-1.66-4.61,1.23
		c1.23,3.24,2.2,6.56,2.92,9.98c-1.55,0.83-2.81,2.05-3.75,3.57c-6.38-3.21-13.8-3.71-20.04-1.23c-0.11-0.25-0.29-0.5-0.5-0.76
		C271.02,75.5,270.45,68.33,276.28,64.69z M257,129.34c7.64-6.34,18.02-14.6,27.39-8.51c-11.57,6.6-23.71,11.5-36.4,15.35
		C251.09,134.17,254.05,131.83,257,129.34z M246.91,141.45c13.41-3.89,26.27-8.9,38.45-15.68
		C280.82,142.75,262.12,147.22,246.91,141.45z M282.16,113.12c-7.6-0.4-14.42-5.66-14.27-13.91c0.14-14.02,15.71-18.31,26.31-12.87
		c-0.07,0.4-0.18,0.79-0.22,1.19c-5.51,5.69-3.82,12.61,0.86,17.33c-0.43,1.19-1.19,2.09-2.16,2.85c-2.52,1.98,1.84,7.89,5.98,0.14
		c4.22,2.49,9.01,3.28,13.59,1.69c1.98,8.29,6.88,22.16-5.59,22.49c-11.71,0.29-8.22-14.52-16.97-18.09
		C287.24,112.94,284.72,113.27,282.16,113.12z M276.68,167.79c8.18-2.38,16.79-2.31,24.07,2.41c6.05,3.93,9.55,7.82,14.45,12.4
		c-12.25-4.5-26.06-9.8-38.38-7.24c-7.42,1.55-11.6,6.31-17.05,11.14c-4.11,3.71-9.41,5.44-13.95,8.18
		C253.4,182.82,262.63,171.9,276.68,167.79z M274.52,192.44c-6.7,0.14-13.33,1.08-19.75,2.77c2.67-1.26,5.33-2.56,7.46-4.4
		c6.09-5.41,10.63-10.85,19.39-11.21c12.51-0.54,25.84,5.41,37.73,9.55C306.02,196.95,289.29,192.16,274.52,192.44z M354.49,176.7
		c-0.18-0.14-0.36-0.32-0.54-0.5c0.18,0.11,0.4,0.18,0.61,0.22C354.52,176.52,354.52,176.62,354.49,176.7z M173.14,170.24
		c-4-0.29-9.44-3.96-5.3-8.25c3.89-4,12.65-1.48,16.43,1.19c2.34,1.62,4.43,3.68,6.41,5.73
		C187.45,169.2,175.84,170.46,173.14,170.24z M196.57,164.84c-2.7-5.3-5.73-11.53-6.81-17.44c-0.32-1.84-0.83-4.43,0-6.2
		c1.01-2.23,2.7-3.1,4.47-0.97c2.27,2.7,3.1,8.32,3.6,11.75C198.48,156.41,197.76,160.66,196.57,164.84z M197.07,240.45
		c-3.68-3.93-5.98-8.43-7.42-13.77c-1.05-4-1.48-8.07-1.73-12.18c-0.07-0.97,0.14-3.46,0.18-5.55c2.56,2.85,5.12,5.73,7.1,9.05
		C199.49,225.24,200.35,232.88,197.07,240.45z M109.75,157.52c10.52,1.8,20.51,5.3,25.3,15.6
		C123.7,174.39,116.78,165.56,109.75,157.52z M142.55,200.66c6.13-0.11,12.51,3.35,14.02,9.33
		C151.23,207.94,146.44,204.77,142.55,200.66z M178.22,276.09c2.92-2.27,11.21-2.59,12.94-2.49c9.08,0.54,13.26,5.41,14.88,5.77
		C196.64,279.51,187.34,278.43,178.22,276.09z M206.84,279.33c0.22-0.04,0.43-0.14,0.58-0.25c0.07,0.07,0.14,0.14,0.18,0.25
		C207.34,279.33,207.09,279.33,206.84,279.33z M134,219.98c8.61,2.63,5.98,11.5,8.61,17.84c2.27,5.55,7.24,7.35,11.35,11.28
		c3.82,3.68,7.1,9.66,4.25,14.96c-1.98,3.78-6.88,5.87-10.96,4.9c-3.75-4.83-10.92-8.4-15.6-11.89c0.4-3.24-0.25-6.56-1.69-9.44
		c3.5-5.08,8.18-2.41,8.18-6.02c0-1.19-1.12-2.56-2.38-2.38c-3.42,0.43-6.34,1.87-8.58,4.32c-3.06-3.32-7.42-5.48-12.4-5.3
		c0.14-2.7-0.25-5.26-1.15-7.53c0.29-0.22,0.54-0.54,0.65-0.9C118.29,223.37,125.97,217.53,134,219.98z M113.32,244.45
		c-2.99-0.54-4.29,4.07-1.26,4.61c6.38,1.12,4.69,9.8-1.55,9.55c-4.47-0.18-8.36-5.44-6.27-9.84c3.46-7.35,14.88-7.06,19.75-1.8
		c4.58,5.01,3.89,12.29-1.23,16.54c-4.11,3.39-11.6,3.68-14.78-0.36c4.94,1.3,10.56-1.05,12.61-5.95
		C122.94,251.62,119.08,245.46,113.32,244.45z M122.98,215.51c-0.04,0.22-0.04,0.43-0.04,0.65c-3.24,1.3-6.23,3.42-8.72,5.98
		c-0.29-11.46-0.29-23.21-2.38-34.49C118.58,196.19,125.35,204.84,122.98,215.51z M99.23,197.74c1.26-6.2,3.78-12.04,5.69-18.06
		c4.4,13.95,4.22,29.08,4.58,43.75C101.68,216.73,96.85,208.99,99.23,197.74z M94.11,210.18c0.07,0.07,0.18,0.11,0.25,0.14
		c0.36,1.3,0.79,2.56,1.3,3.75c-7.42-4.72-15.82-7.89-24.15-10.96C79.44,203,87.19,205.38,94.11,210.18z M75.95,214.9
		c-3.68-2.41-6.99-5.62-10.24-8.83c9.51,3.46,19.42,6.74,27.89,12.29c-1.95-0.14-3.89-0.07-5.8,0.22
		C83.66,218.28,79.62,217.31,75.95,214.9z M83.19,266.79c-6.2,0-11.68-4.69-10.09-11.39c0.9-3.86,2.81-4.54,5.12-6.88
		c2.49-2.45,4.22-4.61,3.96-8.29c-0.11-1.66-1.05-3.03-1.37-4.58c-1.37-6.56,1.05-11.03,7.14-12.29c2.52,0.14,5.08,0.07,7.6-0.04
		c7.89,1.19,15.75,6.13,14.49,15.21c-0.04,0.18-0.04,0.36,0,0.54c-3.21,0.97-6.34,2.77-8.47,5.26c-2.88-1.87-5.91-3.53-9.05-4.94
		c-2.77-1.23-5.23,2.88-2.41,4.11c3.17,1.41,6.23,3.1,9.15,5.01c-0.5,1.73-0.54,3.42-0.14,5.19c-6.78,2.23-12.4,7.1-15.03,13.26
		C83.84,266.86,83.51,266.79,83.19,266.79z M91.51,285.78c-9.73-10.02-1.8-24.07,9.51-27.71c0.22,0.36,0.47,0.68,0.68,0.97
		c0.18,7.93,6.27,11.6,12.9,11.68c0.54,1.12,0.61,2.31,0.47,3.53c-0.36,3.21,6.85,4.25,4.36-4.14c4.76-1.23,8.65-4.04,10.78-8.4
		c7.28,4.47,20.58,10.81,11.96,19.86c-8.04,8.51-16.07-4.43-24.79-0.76c-2.45,1.01-4,2.99-5.91,4.69
		C105.82,290.61,97.28,291.69,91.51,285.78z M118.51,289.42c-3.53,12.79-8.61,24.87-14.88,36.54
		C106.33,313.35,104.13,292.49,118.51,289.42z M106.61,330.47c6.7-12.25,12.25-24.87,16.07-38.27
		C131.48,307.41,121.39,323.8,106.61,330.47z M143.48,368.89c-3.06-13.77-4.25-28.04,2.78-40.87c8.83-16.04,20.4-16.47,36.4-16.72
		c0.43,0,0.9-0.04,1.33-0.04c-11.86,5.51-25.37,11.53-32.25,22.06c-4.18,6.34-3.75,12.61-4.14,19.89
		C147.27,358.76,144.74,363.7,143.48,368.89z M162.19,346.98c-4.69,4.87-8.69,10.23-12.04,15.97c1.05-2.78,1.98-5.59,2.16-8.4
		c0.5-8.14-0.11-15.21,5.8-21.62c8.43-9.23,22.06-14.42,33.37-19.93C187.56,327.91,172.38,336.35,162.19,346.98z M79.51,397.72
		c-1.51,1.77-2.95,3.75-4.72,5.3c-3.06,2.59-9.48,3.86-9.59-2.13c-0.07-5.55,7.89-9.98,12.47-10.78c2.81-0.5,5.73-0.54,8.61-0.5
		C84.02,392.31,81.78,395.02,79.51,397.72z M70.36,375.09c-1.51-1.08-3.68-2.56-4.36-4.4c-0.86-2.27-0.29-4.07,2.45-3.86
		c3.57,0.32,8.07,3.71,10.88,5.77c3.57,2.7,6.09,6.2,8.22,9.98C81.78,380.71,75.44,378.58,70.36,375.09z M116.53,423.85
		c-0.72-0.65-2.31-2.56-3.78-4.07c4,0.29,7.35,0.36,11.39,1.41c8.18,2.09,14.16,6.85,17.19,14.52
		C131.34,435.38,123.81,430.26,116.53,423.85z M19.04,436.21c8.79-6.05,18.38-10.52,29.01-6.56
		C40.77,438.41,29.67,437.04,19.04,436.21z M72.63,444.1c4.32-4.36,11.24-6.31,16.54-3.1C83.91,443.24,78.36,444.32,72.63,444.1z
		 M153.21,474.23c0.47-3.64,6.09-9.73,7.39-10.88c6.7-5.98,13.23-5.62,14.63-6.49C168.64,463.67,161.32,469.44,153.21,474.23z
		 M175.74,456.32c0.14-0.22,0.22-0.4,0.25-0.61c0.11,0,0.22,0.04,0.29,0.04C176.1,455.96,175.92,456.14,175.74,456.32z
		 M82.29,465.83c7.96-4.25,12.32,3.89,18.7,6.56c5.51,2.27,10.31,0.04,16-0.07c5.26-0.11,11.82,1.8,13.59,7.53
		c1.26,4.11-0.72,9.05-4.29,11.24c-6.09-0.76-13.66,1.77-19.46,2.59c-2.02-2.56-4.79-4.43-7.86-5.48
		c-1.15-6.05,4.11-7.46,1.51-10.02c-0.83-0.83-2.56-1.05-3.39,0c-2.09,2.7-3.14,5.8-2.99,9.12c-4.5-0.18-9.08,1.37-12.51,5.01
		c-1.8-2.02-3.86-3.5-6.13-4.47c0.04-0.36,0-0.76-0.18-1.15C73.57,479.31,74.83,469.8,82.29,465.83z M71.33,470.48
		c0.11,0.18,0.25,0.32,0.4,0.47c-1.37,3.24-1.95,6.85-1.87,10.42c-8.32-7.93-16.65-16.25-26.13-22.7
		C54.54,459.92,65.42,461.22,71.33,470.48z M41.93,474.7c-3.46-5.3-5.8-11.17-8.69-16.79c12.97,6.74,23.53,17.62,34.16,27.71
		C57.13,486.41,48.23,484.32,41.93,474.7z M47.12,487.13c0.11-0.04,0.22-0.07,0.32-0.11c1.15,0.72,2.34,1.26,3.53,1.73
		c-8.58,1.91-16.76,5.59-24.79,9.37C31.69,492.39,38.86,488.61,47.12,487.13z M37.64,503.28c-4.29,0.9-8.94,1.01-13.51,1.01
		c9.19-4.29,18.52-8.97,28.43-11.03c-1.44,1.26-2.81,2.7-3.93,4.22C45.49,500.21,41.96,502.41,37.64,503.28z M80.2,534.38
		c-0.22,0.07-0.5,0.25-0.76,0.5c-4.36,4.36-11.57,4.94-15.21-0.94c-2.09-3.35-1.19-5.19-1.19-8.51c0-9.26-4.32-8.97-7.28-10.92
		c-5.62-3.68-7.1-8.58-3.64-13.77c1.87-1.69,3.64-3.53,5.33-5.37c6.41-4.72,15.46-6.81,21.01,0.5c0.11,0.14,0.22,0.29,0.36,0.4
		c-1.55,2.96-2.52,6.45-2.27,9.69c-3.35,0.72-6.67,1.66-9.87,2.92c-2.85,1.08-1.66,5.73,1.19,4.61c3.24-1.26,6.59-2.23,9.98-2.92
		c0.97,1.62,2.02,2.7,3.6,3.75C78.25,520.72,77.71,528.11,80.2,534.38z M81.57,507.24c-2.74-7.64,5.55-15.53,12.72-15.21
		c6.78,0.29,11.42,5.91,10.81,12.54c-0.5,5.3-5.62,10.81-10.7,10.2c4.4-2.59,6.74-8.22,4.72-13.15c-2.31-5.59-9.37-7.21-14.16-3.86
		c-2.49,1.73-0.18,5.91,2.34,4.14c5.33-3.71,10.24,3.64,5.66,7.86C89.68,512.79,83.23,511.85,81.57,507.24z M113.53,520.57
		c-0.97,2.45-0.72,4.94-0.83,7.5c-0.4,7.64-5.66,14.42-13.95,14.31c-13.98-0.18-18.31-15.71-12.87-26.31
		c0.4,0.07,0.79,0.18,1.23,0.22c5.69,5.51,12.61,3.78,17.3-0.86c1.19,0.4,2.09,1.23,2.88,2.16c2.05,2.63,7.78-2.02,0.11-5.98
		c2.56-4.29,3.28-8.97,1.73-13.62c8.29-1.95,22.16-6.85,22.49,5.62C131.91,515.28,117.1,511.82,113.53,520.57z M128.92,553.26
		c-6.38-7.64-14.63-18.02-8.5-27.39c6.56,11.57,11.5,23.71,15.35,36.4C133.75,559.14,131.37,556.18,128.92,553.26z M141.03,563.35
		c-3.89-13.44-8.9-26.27-15.68-38.45C142.29,529.44,146.76,548.14,141.03,563.35z M167.34,533.55c-2.34-8.14-2.27-16.76,2.45-24.04
		c3.71-5.69,7.89-9.73,12.4-14.45c-4.5,12.25-9.8,26.06-7.24,38.38c1.55,7.42,6.31,11.6,11.14,17.01c3.71,4.14,5.41,9.44,8.18,13.98
		C182.37,556.87,171.45,547.6,167.34,533.55z M191.99,535.71c0.18,6.74,1.12,13.33,2.81,19.79c-1.26-2.7-2.56-5.33-4.43-7.46
		c-5.37-6.09-10.81-10.67-11.17-19.39c-0.54-12.51,5.41-25.84,9.55-37.73C196.49,504.21,191.74,520.97,191.99,535.71z
		 M146.98,620.51c-1.84,0.32-4.43,0.79-6.23,0c-2.2-1.01-3.06-2.7-0.94-4.47c2.7-2.27,8.29-3.1,11.75-3.6
		c4.4-0.65,8.69,0.07,12.87,1.23C158.98,616.44,153.03,619.36,146.98,620.51z M169.83,637.16c-0.29,3.96-3.96,9.41-8.25,5.26
		c-4-3.89-1.51-12.65,1.19-16.47c1.66-2.34,3.68-4.4,5.73-6.41C168.78,622.67,170.01,634.6,169.83,637.16z M214.08,622.35
		c-0.97,0.07-3.46-0.14-5.55-0.18c2.74-2.56,5.84-5.19,9.05-7.1c7.24-4.29,14.85-5.19,22.45-1.87
		C232.68,620.08,223.78,621.7,214.08,622.35z M158.73,694.86c2.05-10.45,5.8-20.36,16.15-24.9
		C175.92,681.31,166.91,688.08,158.73,694.86z M202.55,663.14c0.04-6.13,3.68-12.43,9.66-13.8
		C210.05,654.6,206.77,659.29,202.55,663.14z M278.91,602.67c0,0.22,0,0.5,0,0.76c-0.04-0.22-0.14-0.43-0.25-0.61
		C278.73,602.78,278.81,602.71,278.91,602.67z M275.64,632.04c-2.27-2.92-2.56-11.21-2.45-12.94c0.5-8.9,5.3-13.19,5.77-14.92
		C279.06,613.66,277.98,622.89,275.64,632.04z M219.56,676.26c2.63-8.65,11.46-5.98,17.84-8.61c5.51-2.27,7.32-7.28,11.28-11.35
		c3.68-3.82,9.66-7.1,14.92-4.29c3.82,2.02,5.91,6.88,4.94,10.99c-4.83,3.75-8.43,10.92-11.93,15.6c-3.24-0.4-6.52,0.25-9.41,1.66
		c-5.08-3.42-2.38-8.14-6.05-8.14c-1.15,0-2.52,1.08-2.38,2.38c0.43,3.42,1.91,6.34,4.36,8.58c-3.35,3.06-5.48,7.39-5.3,12.4
		c-2.74-0.18-5.26,0.25-7.53,1.15c-0.22-0.29-0.54-0.54-0.94-0.68C222.95,691.97,217.11,684.3,219.56,676.26z M256.79,689.63
		c-5.59-2.31-11.75,1.51-12.76,7.32c-0.54,2.99,4.04,4.29,4.58,1.26c1.15-6.38,9.8-4.68,9.59,1.55c-0.18,4.47-5.44,8.36-9.87,6.27
		c-7.35-3.46-7.06-14.92-1.77-19.75c5.01-4.58,12.29-3.89,16.54,1.23c3.39,4.07,3.68,11.6-0.36,14.78
		C264.03,697.34,261.69,691.69,256.79,689.63z M215.09,687.29c0.22,0.04,0.43,0.04,0.61,0.04c1.33,3.28,3.46,6.2,6.02,8.72
		c-11.5,0.25-23.24,0.25-34.49,2.38C195.74,691.69,204.39,684.91,215.09,687.29z M202.69,738.75c-0.14-7.96,2.27-15.68,7.06-22.6
		c0.04-0.07,0.07-0.18,0.14-0.29c1.3-0.32,2.52-0.76,3.71-1.26C208.89,722.03,205.76,730.39,202.69,738.75z M214.48,734.28
		c-2.41,3.68-5.62,7.03-8.87,10.27c3.5-9.51,6.74-19.46,12.33-27.89c-0.14,1.91-0.07,3.89,0.18,5.77
		C217.87,726.61,216.89,730.61,214.48,734.28z M197.32,711.07c-6.2-1.3-12.04-3.86-18.06-5.73c13.95-4.43,29.12-4.22,43.75-4.58
		C216.32,708.59,208.57,713.42,197.32,711.07z M266.41,727.07c-0.04,6.16-4.72,11.64-11.42,10.09c-3.89-0.9-4.54-2.81-6.88-5.15
		c-2.45-2.45-4.61-4.18-8.32-3.93c-1.66,0.11-2.99,1.05-4.58,1.37c-6.52,1.33-11.03-1.05-12.25-7.14c0.14-2.52,0.07-5.08-0.04-7.64
		c1.19-7.89,6.13-15.75,15.17-14.45c0.18,0,0.4,0.04,0.58,0c0.97,3.21,2.77,6.34,5.23,8.47c-1.87,2.88-3.53,5.87-4.94,9.05
		c-1.23,2.77,2.92,5.23,4.14,2.41c1.41-3.21,3.06-6.23,4.97-9.15c1.77,0.5,3.42,0.5,5.19,0.14c2.27,6.78,7.14,12.36,13.3,15.03
		C266.45,726.43,266.41,726.71,266.41,727.07z M285.37,718.71c-10.02,9.77-24.07,1.84-27.68-9.48c0.29-0.22,0.61-0.47,0.94-0.72
		c7.93-0.14,11.6-6.23,11.64-12.87c1.15-0.54,2.34-0.61,3.57-0.47c3.24,0.36,4.22-6.88-4.14-4.36c-1.23-4.76-4.04-8.65-8.43-10.81
		c4.51-7.24,10.85-20.54,19.89-11.96c8.47,8.07-4.47,16.11-0.79,24.83c1.05,2.41,2.99,4,4.72,5.87
		C290.19,704.44,291.28,712.95,285.37,718.71z M289.01,691.76c12.79,3.5,24.87,8.61,36.54,14.85
		C313.01,703.9,292.07,706.17,289.01,691.76z M330.05,703.65c-12.25-6.7-24.87-12.29-38.27-16.07
		C306.99,678.78,323.35,688.87,330.05,703.65z M346.56,648.08c4.87,4.65,10.23,8.65,15.96,12c-2.81-1.01-5.59-1.95-8.4-2.13
		c-8.14-0.5-15.21,0.11-21.66-5.8c-9.19-8.43-14.42-22.09-19.89-33.41C327.46,622.67,335.93,637.84,346.56,648.08z M332.86,658.53
		c6.34,4.14,12.65,3.75,19.93,4.14c5.55,0.32,10.49,2.85,15.64,4.11c-13.73,3.03-28,4.25-40.83-2.78
		c-16.07-8.83-16.51-20.43-16.72-36.4c0-0.47-0.04-0.9-0.04-1.33C316.32,638.13,322.34,651.65,332.86,658.53z M374.63,739.87
		c-1.05,1.55-2.52,3.71-4.36,4.4c-2.27,0.87-4.11,0.25-3.86-2.49c0.32-3.53,3.68-8.04,5.77-10.85c2.7-3.57,6.2-6.09,9.98-8.22
		C380.33,728.48,378.13,734.86,374.63,739.87z M389.19,723.98c2.45,2.02,11.68,9.51,13.41,11.5c2.59,3.03,3.86,9.48-2.13,9.59
		c-5.59,0.07-9.98-7.89-10.78-12.47C389.19,729.74,389.16,726.86,389.19,723.98z M423.39,693.74c-0.61,0.72-2.52,2.31-4.04,3.78
		c0.4-12.14,3.32-23.61,15.93-28.58C434.93,679,429.84,686.42,423.39,693.74z M427.86,758.14c8.61,7.42,6.99,18.52,5.87,29.12
		C427.9,778.32,423.65,768.66,427.86,758.14z M442.85,733.85c-4.25-4.4-6.02-11.35-2.7-16.54
		C442.28,722.61,443.18,728.19,442.85,733.85z M473.81,657.05c-3.68-0.47-9.77-6.09-10.88-7.39c-6.09-6.92-5.55-13.23-6.49-14.63
		C463.22,641.63,468.98,648.94,473.81,657.05z M504.16,705.16c5.26,0.5,10.81,5.59,10.2,10.7c-2.59-4.43-8.22-6.78-13.15-4.72
		c-5.62,2.31-7.24,9.33-3.86,14.16c1.73,2.49,5.91,0.14,4.14-2.38c-3.71-5.3,3.6-10.24,7.86-5.66c3.03,3.28,2.05,9.77-2.52,11.42
		c-7.68,2.74-15.53-5.59-15.21-12.72C491.9,709.2,497.49,704.55,504.16,705.16z M470.06,738.93c0.18-0.14,0.32-0.25,0.47-0.4
		c3.24,1.37,6.81,1.95,10.42,1.87c-7.93,8.32-16.25,16.65-22.7,26.09C459.5,755.69,460.8,744.81,470.06,738.93z M474.28,768.3
		c-5.3,3.46-11.17,5.8-16.79,8.72c6.74-12.97,17.59-23.53,27.68-34.16C485.99,753.13,483.9,762.03,474.28,768.3z M465.41,727.98
		c-4.25-7.96,3.89-12.36,6.52-18.7c2.31-5.51,0.04-10.34-0.07-16c-0.07-5.3,1.84-11.86,7.57-13.59c4.11-1.26,9.05,0.68,11.24,4.29
		c-0.79,6.05,1.73,13.66,2.59,19.46c-2.59,2.02-4.47,4.79-5.48,7.86c-6.05,1.15-7.46-4.11-10.05-1.51c-0.83,0.79-1.01,2.56,0,3.35
		c2.74,2.13,5.84,3.14,9.15,2.99c-0.18,4.54,1.37,9.12,5.01,12.54c-2.02,1.8-3.53,3.86-4.51,6.13c-0.36-0.07-0.72-0.04-1.12,0.18
		C478.89,736.7,469.34,735.4,465.41,727.98z M486.68,763.11c0-0.11-0.04-0.18-0.07-0.29c0.68-1.15,1.26-2.34,1.73-3.57
		c1.91,8.61,5.59,16.79,9.33,24.83C491.97,778.54,488.19,771.4,486.68,763.11z M492.84,757.71c1.26,1.44,2.67,2.81,4.22,3.93
		c2.74,3.14,4.94,6.67,5.84,10.96c0.87,4.32,0.94,8.97,0.97,13.51C499.58,776.95,494.86,767.62,492.84,757.71z M533.53,745.99
		c-3.35,2.09-5.19,1.23-8.51,1.23c-9.26,0-8.97,4.32-10.92,7.28c-3.71,5.62-8.58,7.1-13.77,3.6c-1.69-1.87-3.53-3.6-5.37-5.3
		c-4.76-6.41-6.81-15.5,0.5-21.01c0.14-0.11,0.29-0.22,0.4-0.36c2.96,1.55,6.45,2.49,9.69,2.27c0.72,3.35,1.66,6.67,2.88,9.87
		c1.12,2.85,5.73,1.66,4.65-1.23c-1.26-3.24-2.23-6.56-2.92-9.98c1.55-0.87,2.77-2.09,3.75-3.57c6.38,3.21,13.77,3.71,20,1.23
		c0.11,0.25,0.29,0.5,0.54,0.76C538.82,735.18,539.36,742.36,533.53,745.99z M552.81,681.34c-7.6,6.34-17.98,14.6-27.35,8.51
		c11.53-6.6,23.71-11.5,36.36-15.35C558.72,676.51,555.76,678.86,552.81,681.34z M562.9,669.23c-13.37,3.89-26.24,8.9-38.42,15.68
		C529.02,667.94,547.73,663.47,562.9,669.23z M527.65,697.56c7.64,0.4,14.42,5.66,14.31,13.91c-0.18,14.02-15.75,18.31-26.31,12.87
		c0.07-0.4,0.18-0.79,0.22-1.19c5.48-5.69,3.78-12.61-0.87-17.33c0.4-1.19,1.19-2.09,2.16-2.85c2.52-1.95-1.84-7.93-6.02-0.14
		c-4.22-2.49-9.01-3.28-13.59-1.69c-1.95-8.29-6.88-22.16,5.59-22.49c11.71-0.29,8.25,14.52,17.01,18.09
		C522.61,697.74,525.09,697.42,527.65,697.56z M533.13,642.89c-8.14,2.38-16.79,2.31-24.04-2.41c-4.14-2.7-10.78-8.54-14.45-12.4
		c12.25,4.5,26.06,9.8,38.38,7.24c7.42-1.55,11.57-6.31,17.01-11.14c4.14-3.71,9.44-5.44,13.98-8.22
		C556.41,627.86,547.19,638.78,533.13,642.89z M535.29,618.24c6.74-0.14,13.33-1.08,19.78-2.77c-2.7,1.26-5.33,2.56-7.46,4.4
		c-6.13,5.41-10.67,10.85-19.42,11.21c-12.47,0.54-25.8-5.41-37.7-9.55C503.79,613.73,520.55,618.53,535.29,618.24z M455.32,633.99
		c0.18,0.14,0.36,0.32,0.58,0.5c-0.22-0.11-0.4-0.18-0.61-0.22C455.29,634.17,455.32,634.06,455.32,633.99z M636.74,640.44
		c3.96,0.29,9.41,3.96,5.23,8.25c-3.86,4-12.61,1.48-16.43-1.19c-2.34-1.62-4.4-3.68-6.41-5.73
		C622.4,641.48,634,640.22,636.74,640.44z M613.24,645.84c2.78,5.41,5.73,11.39,6.81,17.44c0.36,1.84,0.83,4.43,0.04,6.2
		c-1.01,2.23-2.7,3.1-4.51,0.97c-2.27-2.7-3.1-8.32-3.57-11.75C611.37,654.28,612.09,650.02,613.24,645.84z M524.01,462.48
		l-5.87-5.41c8.94,2.31,19.6,1.01,28.11,3.14c2.67,0.68,7.42,1.91,8.29,5.08c2.23,7.89-11.42,5.37-14.52,4.69
		C534.07,468.64,528.7,466.05,524.01,462.48z M570.47,377.93c8.25-2.52,19.46,6.34,11.14,13.91c-1.59,1.48-0.25,3.96,1.69,4.07
		c2.88,0.14,6.09,0.18,8.83,1.15c5.62,2.02,7.17,9.26,2.63,12.83c-3.5,2.67-10.34,2.34-14.34,2.27
		c-10.63-0.22-20.76-3.17-30.02-8.14C556.63,396.31,558.65,381.57,570.47,377.93z M547.51,407.92c10.13,5.51,24.83,10.7,37.52,9.62
		c-3.6,3.42-5.48,8.32-4.9,13.37c-11.06,8.83-15.97,22.88-12.29,36.69c0.47,1.69,2.74,2.45,4,1.08c8.51-9.23,22.99-23.24,13.33-36
		c0-0.29,0-0.58-0.07-0.86c-3.42-13.87,14.63-17.08,22.67-8.83c8,8.22,6.78,21.95,2.56,31.68c-7.5,17.23-24.72,26.7-43.17,26.02
		c-7.75-0.29-15.14-2.2-22.09-5.19c6.81,0.4,15.14-0.94,14.78-8.83c-0.4-7.6-6.85-10.67-14.99-12.11
		c17.3-9.33,13.59-32.33-1.33-33.88c-11.14-1.12-17.73,11.68-9.51,19.57c2.23,2.13,5.59-1.26,3.39-3.39
		c-4.97-4.76-0.07-10.63,4.83-11.21c7.75-0.9,14.34,11.96,4.76,21.41c-7.28,7.14-17.91,7.28-26.81,3.6
		c-13.73-5.69-23.14-17.95-34.02-27.82C507.25,426.84,530.57,421.47,547.51,407.92z M514.14,386.62
		c9.55,6.34,19.68,11.93,28.76,18.88c-10.23,7.64-24.43,12.79-36.87,14.05c-26.92,2.74-54.99-17.8-82.96-18.16
		c20.65-7.78,42.71-11.5,64-3.24c2.13,17.73,22.2,18.2,25.84,12.36c2.56-4.11-4.14-10.67-7.03-12.83
		c-4.97-3.68-10.85-4.97-16.9-4.07c-4.29,0.5-24.47-14.78-74.1,5.95c15.86-17.37,36.83-31.07,61.27-29.16
		C490.39,371.52,502.57,378.91,514.14,386.62z M546.14,355.52c-7.46,4.72-15.93,6.74-24.58,6.34c7.96-4.72,14.52-13.15,22.09-17.66
		c2.34-1.41,6.6-3.89,9.44-2.31C560.23,345.93,548.84,353.79,546.14,355.52z M546.9,299.51c-1.55,14.06,4.9,27.5,17.26,34.63
		c1.51,0.9,3.68-0.22,3.6-2.05c-0.54-12.51-0.22-32.69-16.11-34.89c-0.14-0.22-0.36-0.4-0.61-0.58
		c-12.25-7.39-1.77-22.42,9.77-22.27c22.56,0.32,41.48,42.27,12.11,69.52c-5.69,5.3-12.25,9.15-19.32,11.96
		c5.12-4.54,10.05-11.35,4.18-16.69c-5.62-5.12-12.32-2.7-19.14,2.05c5.69-18.74-13.19-32.54-24.87-23.03
		c-8.69,7.06-4.29,20.79,7.1,20.58c3.06-0.07,3.06-4.83,0-4.79c-6.88,0.14-7.57-7.5-4.51-11.35c4.79-6.09,18.56-1.77,18.49,11.78
		c-0.07,10.16-7.53,17.8-16.43,21.48c-13.73,5.69-29.05,3.68-43.71,4.4c17.77-12.11,30.45-32.36,32.87-53.95
		c11.06-3.24,25.12-9.98,33.34-19.71C540.77,291.59,542.9,296.34,546.9,299.51z M502.61,268.88c4.04-7.6,18.24-9.26,17.73,1.98
		c-0.11,2.16,2.63,2.99,4.04,1.69c2.16-1.95,4.43-4.18,7.06-5.44c5.41-2.56,11.64,1.48,10.92,7.21c-0.58,4.36-5.62,8.97-8.54,11.75
		c-7.64,7.39-16.87,12.43-26.99,15.46C505.78,291.51,496.84,279.77,502.61,268.88z M468.91,314.87c11.24-2.27,22.34-5.48,33.7-6.99
		c-1.84,12.65-8.25,26.34-16.15,36.04c-17.12,21.01-51.43,26.24-71.46,45.8c9.08-20.11,22.02-38.31,42.96-47.5
		c4.76,3.71,10.78,5.23,16.58,3.14c4.25-1.51,11.64-7.39,10.38-12.72c-1.08-4.72-10.45-4.61-14.02-4.11
		c-6.09,0.9-11.21,4.14-14.85,9.05c-0.07,0.14-0.11,0.25-0.18,0.36c-24.22,10.49-38.31,32.72-47.97,56.29
		c-1.12-23.46,4.04-48,22.7-63.97C441.41,320.99,455.25,317.61,468.91,314.87z M469.56,270.25c-1.91,8.4-6.52,16.15-12.9,21.88
		c2.27-8.97,0.97-19.6,3.14-28.11c0.68-2.67,1.91-7.42,5.05-8.32C472.73,253.49,470.24,267.15,469.56,270.25z M417.12,225.24
		c3.42,3.6,8.29,5.48,13.37,4.9c8.83,11.03,22.88,15.97,36.69,12.25c1.69-0.43,2.45-2.74,1.08-3.96
		c-9.23-8.51-23.24-22.99-36.04-13.33c-0.25-0.04-0.54,0-0.86,0.07c-13.87,3.42-17.08-14.63-8.79-22.67
		c16.18-15.75,59.17,0.58,57.7,40.58c-0.29,7.78-2.2,15.17-5.23,22.13c0.43-6.81-0.9-15.14-8.79-14.78
		c-7.64,0.4-10.67,6.85-12.14,14.99c-9.15-17.23-32.29-13.69-33.84,1.33c-1.12,11.1,11.68,17.69,19.53,9.51
		c2.16-2.2-1.23-5.59-3.35-3.39c-4.76,4.94-10.63,0.04-11.21-4.83c-0.94-7.71,11.89-14.38,21.37-4.76
		c7.17,7.24,7.32,17.88,3.64,26.81c-5.69,13.73-17.98,23.14-27.82,34.02c4-21.15-1.37-44.44-14.92-61.37
		C413.01,252.63,418.17,237.92,417.12,225.24z M377.52,239.76c-2.56-8.22,6.34-19.42,13.91-11.14c1.48,1.62,3.96,0.29,4.07-1.69
		c0.14-2.85,0.18-6.05,1.15-8.79c2.02-5.62,9.26-7.21,12.79-2.63c2.7,3.5,2.38,10.34,2.31,14.34c-0.22,10.63-3.17,20.72-8.14,30.02
		C395.86,253.6,381.12,251.58,377.52,239.76z M369.98,334.11c1.12-14.24,8.47-26.42,16.18-37.98c6.34-9.55,11.93-19.68,18.92-28.79
		c7.64,10.23,12.76,24.47,14.05,36.9c2.74,27.03-17.84,54.96-18.16,82.96c-7.78-20.65-11.53-42.71-3.24-64
		c17.73-2.13,18.2-22.24,12.36-25.84c-4.11-2.56-10.67,4.11-12.83,7.03c-3.71,4.94-5.01,10.85-4.07,16.87
		c0.32,4.54-14.7,24.76,5.95,74.1C381.77,379.52,368.07,358.55,369.98,334.11z M361.44,288.7c-4.72-7.96-13.15-14.56-17.66-22.09
		c-1.44-2.38-3.89-6.6-2.31-9.44c4.04-7.17,11.89,4.25,13.62,6.96c4.11,6.49,5.59,12.25,6.31,19.53
		C361.51,285.35,361.51,287.01,361.44,288.7z M268.46,307.66c-7.6-4.04-9.26-18.24,1.95-17.73c2.2,0.11,3.03-2.63,1.73-4.07
		c-1.95-2.13-4.18-4.43-5.44-7.06c-2.56-5.37,1.44-11.6,7.21-10.88c4.36,0.54,8.94,5.62,11.75,8.51
		c7.35,7.68,12.43,16.9,15.46,26.99C291.17,304.45,279.38,313.43,268.46,307.66z M286.19,269.35c4.97,0.14,9.73-2.02,12.9-5.98
		c14.06,1.59,27.5-4.9,34.63-17.26c0.9-1.51-0.22-3.68-2.05-3.6c-12.51,0.54-32.69,0.22-34.89,16.07c-0.22,0.18-0.4,0.36-0.58,0.65
		c-7.39,12.25-22.42,1.73-22.27-9.8c0.14-11.46,10.74-20.33,20.61-24.18c17.44-6.88,36.36-1.41,48.9,12.11
		c5.3,5.69,9.15,12.25,11.93,19.28c-4.5-5.08-11.32-10.02-16.61-4.18c-5.15,5.66-2.74,12.36,2.02,19.14
		c-18.88-5.62-32.47,13.3-23.03,24.9c7.06,8.65,20.76,4.29,20.54-7.1c-0.04-3.06-4.83-3.06-4.76,0c0.14,6.85-7.5,7.57-11.35,4.5
		c-6.13-4.83-1.73-18.6,11.75-18.49c10.2,0.07,17.84,7.5,21.51,16.4c5.69,13.73,3.64,29.05,4.4,43.75
		c-12.11-17.8-32.36-30.49-53.95-32.87C302.66,291.62,295.92,277.57,286.19,269.35z M314.41,341.36
		c-2.27-11.24-5.44-22.34-6.96-33.7c12.61,1.84,26.31,8.25,36.04,16.15c20.9,17.01,26.24,51.43,45.8,71.46
		c-20.11-9.08-38.34-22.06-47.5-42.96c3.68-4.76,5.19-10.78,3.14-16.58c-1.51-4.25-7.39-11.68-12.72-10.42
		c-4.72,1.12-4.65,10.45-4.11,14.06c0.9,6.09,4.14,11.21,9.05,14.81c0.14,0.11,0.25,0.14,0.36,0.22
		c10.49,24.18,32.72,38.31,56.29,47.97c-23.5,1.08-48.04-4.07-63.97-22.7C320.58,368.85,317.19,355.01,314.41,341.36z M285.83,348.2
		c2.38,1.98,3.68,2.96,5.87,5.41c-8.97-2.31-19.6-1.01-28.11-3.14c-2.7-0.68-7.42-1.91-8.32-5.08c-2.23-7.89,11.42-5.37,14.56-4.69
		C275.74,342.04,281.15,344.63,285.83,348.2z M239.34,432.75c-8.22,2.52-19.46-6.34-11.14-13.91c1.62-1.48,0.29-3.96-1.69-4.07
		c-2.85-0.18-6.05-0.18-8.83-1.15c-5.62-2.02-7.17-9.26-2.59-12.83c3.46-2.67,10.34-2.34,14.31-2.27
		c10.67,0.22,20.76,3.17,30.06,8.14C253.15,414.48,251.17,429.11,239.34,432.75z M262.3,402.76c-10.09-5.51-24.83-10.7-37.52-9.62
		c3.6-3.42,5.48-8.32,4.94-13.37c11.03-8.83,15.93-22.88,12.25-36.69c-0.43-1.69-2.74-2.45-4-1.08c-8.47,9.23-22.99,23.24-13.3,36
		c-0.04,0.29,0,0.58,0.07,0.87c3.42,13.87-14.63,17.08-22.7,8.83c-7.96-8.22-6.74-21.95-2.52-31.68
		c7.5-17.23,24.72-26.74,43.14-26.02c7.78,0.29,15.17,2.2,22.09,5.19c-6.78-0.4-15.14,0.94-14.74,8.83
		c0.36,7.6,6.81,10.63,14.99,12.11c-17.33,9.26-13.62,32.33,1.33,33.88c11.1,1.12,17.7-11.68,9.51-19.57
		c-2.2-2.13-5.59,1.26-3.39,3.39c4.94,4.76,0.04,10.63-4.87,11.21c-7.82,0.94-14.24-12.04-4.76-21.41
		c7.28-7.14,17.95-7.28,26.85-3.6c13.69,5.69,23.1,17.95,34.02,27.82C302.56,383.84,279.28,389.21,262.3,402.76z M295.67,424.06
		c-9.55-6.34-19.64-11.93-28.76-18.88c10.24-7.64,24.43-12.79,36.9-14.06c26.92-2.74,54.96,17.8,82.92,18.16
		c-20.61,7.78-42.67,11.5-63.97,3.24c-2.16-17.73-22.24-18.2-25.84-12.36c-2.56,4.11,4.11,10.67,7.03,12.83
		c4.94,3.68,10.85,4.97,16.87,4.07c4-0.65,24.29,14.88,74.1-5.95c-15.82,17.37-36.8,31.07-61.23,29.16
		C319.46,439.16,307.28,431.78,295.67,424.06z M263.67,455.16c7.28-4.61,16.11-6.81,24.61-6.34c-8,4.72-14.56,13.15-22.09,17.66
		c-2.38,1.41-6.6,3.89-9.48,2.31C249.58,464.75,261,456.86,263.67,455.16z M262.91,511.17c1.62-14.06-4.87-27.5-17.23-34.63
		c-1.51-0.9-3.68,0.22-3.6,2.05c0.54,12.51,0.18,32.69,16.07,34.89c0.14,0.22,0.36,0.4,0.65,0.58c12.25,7.39,1.73,22.42-9.8,22.27
		c-22.6-0.32-41.44-42.31-12.07-69.52c5.69-5.3,12.25-9.15,19.28-11.96c-5.12,4.54-10.05,11.35-4.18,16.65
		c5.66,5.12,12.33,2.74,19.14-2.02c-5.69,18.85,13.26,32.51,24.9,23.03c8.65-7.06,4.29-20.79-7.1-20.58c-3.1,0.07-3.1,4.83,0,4.79
		c6.85-0.14,7.53,7.5,4.5,11.35c-4.83,6.13-18.6,1.69-18.49-11.78c0.11-10.16,7.5-17.8,16.4-21.48c13.73-5.69,29.05-3.68,43.75-4.4
		c-17.8,12.11-30.49,32.36-32.9,53.95c-11.03,3.24-25.08,9.98-33.34,19.71C269.08,519.1,266.91,514.34,262.91,511.17z M307.21,541.8
		c-4,7.6-18.24,9.26-17.7-1.98c0.11-2.16-2.63-2.99-4.07-1.69c-2.16,1.95-4.43,4.18-7.06,5.44c-5.41,2.56-11.6-1.48-10.92-7.21
		c0.58-4.36,5.66-8.97,8.54-11.75c7.68-7.39,16.9-12.43,26.99-15.46C304.03,519.02,313.01,530.88,307.21,541.8z M340.94,495.82
		c-11.24,2.27-22.34,5.48-33.73,6.99c1.84-12.65,8.25-26.34,16.18-36.04c17.08-21.01,51.43-26.24,71.46-45.8
		c-9.08,20.11-22.06,38.31-42.96,47.5c-4.76-3.71-10.78-5.23-16.61-3.14c-4.22,1.51-11.64,7.39-10.38,12.72
		c1.12,4.72,10.45,4.61,14.02,4.11c6.13-0.9,11.21-4.14,14.85-9.05c0.07-0.14,0.14-0.25,0.22-0.36
		c24.22-10.49,38.31-32.72,47.97-56.29c1.08,23.46-4.07,48-22.7,63.97C368.4,489.69,354.56,493.08,340.94,495.82z M340.29,540.43
		c1.91-8.54,6.49-16.07,12.9-21.88c-2.31,8.97-1.01,19.6-3.17,28.11c-0.65,2.67-1.87,7.42-5.05,8.32
		C337.08,557.19,339.6,543.53,340.29,540.43z M392.72,585.44c-3.42-3.6-8.32-5.48-13.37-4.9c-8.83-11.03-22.92-15.97-36.72-12.25
		c-1.66,0.43-2.41,2.74-1.08,3.96c9.23,8.51,23.28,22.99,36.04,13.33c0.29,0.04,0.54,0,0.87-0.07c13.87-3.42,17.08,14.63,8.83,22.67
		c-16.25,15.82-59.25-0.72-57.73-40.62c0.32-7.75,2.23-15.14,5.23-22.09c-0.4,6.81,0.9,15.14,8.79,14.78
		c7.64-0.4,10.67-6.85,12.14-14.99c9.19,17.23,32.33,13.69,33.88-1.33c1.12-11.1-11.68-17.7-19.57-9.51
		c-2.16,2.2,1.23,5.59,3.35,3.39c4.76-4.94,10.67-0.04,11.24,4.83c0.94,7.75-11.93,14.38-21.41,4.76
		c-7.14-7.24-7.28-17.88-3.6-26.81c5.69-13.73,17.95-23.14,27.82-34.02c-4.04,21.15,1.37,44.44,14.92,61.37
		C396.83,558.05,391.64,572.76,392.72,585.44z M432.33,570.92c2.52,8.22-6.34,19.42-13.91,11.14c-1.48-1.62-4-0.29-4.07,1.66
		c-0.14,2.88-0.22,6.09-1.19,8.83c-1.98,5.62-9.26,7.21-12.79,2.63c-2.7-3.5-2.34-10.34-2.27-14.34
		c0.22-10.63,3.14-20.72,8.14-30.02C413.99,557.08,428.69,559.06,432.33,570.92z M439.86,476.57c-1.12,14.24-8.51,26.42-16.22,37.98
		c-6.34,9.55-11.93,19.68-18.88,28.79c-7.64-10.23-12.79-24.47-14.06-36.9c-2.77-26.88,17.8-54.92,18.16-82.96
		c7.75,20.65,11.5,42.71,3.21,64c-17.62,2.13-18.2,22.2-12.33,25.84c4.11,2.56,10.67-4.14,12.83-7.03
		c3.68-4.94,4.97-10.85,4.07-16.87c-0.76-3.68,14.92-24.18-5.95-74.1C428.08,431.16,441.74,452.14,439.86,476.57z M448.4,521.98
		c4.69,7.96,13.15,14.56,17.66,22.09c1.41,2.38,3.89,6.6,2.27,9.44c-4,7.17-11.89-4.25-13.59-6.96c-4.11-6.45-5.62-12.29-6.31-19.53
		C448.33,525.33,448.3,523.67,448.4,521.98z M541.35,503.02c7.64,4.04,9.3,18.24-1.95,17.73c-2.2-0.11-2.99,2.59-1.69,4.07
		c1.95,2.13,4.14,4.43,5.41,7.06c2.56,5.37-1.44,11.6-7.17,10.88c-4.4-0.54-8.97-5.62-11.75-8.54
		c-7.39-7.64-12.43-16.87-15.46-26.96C518.68,506.23,530.46,497.26,541.35,503.02z M523.65,541.33c-4.97-0.14-9.77,2.02-12.94,5.98
		c-14.06-1.59-27.46,4.9-34.63,17.26c-0.87,1.51,0.25,3.68,2.05,3.6c12.54-0.54,32.72-0.22,34.89-16.07
		c0.25-0.18,0.43-0.36,0.58-0.65c7.42-12.25,22.45-1.73,22.27,9.8c-0.14,11.46-10.74,20.33-20.58,24.18
		c-17.48,6.88-36.4,1.41-48.94-12.11c-5.26-5.69-9.15-12.25-11.93-19.28c4.54,5.12,11.35,10.02,16.65,4.18
		c5.12-5.66,2.74-12.36-2.02-19.14c18.74,5.62,32.51-13.23,22.99-24.9c-7.06-8.65-20.76-4.29-20.54,7.1c0.04,3.06,4.83,3.06,4.76,0
		c-0.11-6.88,7.5-7.57,11.39-4.5c6.09,4.76,1.77,18.6-11.78,18.49c-10.16-0.07-17.8-7.5-21.48-16.4
		c-5.69-13.73-3.68-29.05-4.43-43.75c12.14,17.8,32.4,30.49,53.99,32.87C507.18,519.06,513.92,533.12,523.65,541.33z M502.35,503.02
		c-12.61-1.84-26.31-8.25-36-16.15c-21.05-17.15-26.24-51.43-45.84-71.46c20.11,9.08,38.34,22.06,47.53,42.96
		c-3.71,4.76-5.23,10.78-3.17,16.58c1.51,4.25,7.42,11.68,12.76,10.41c4.69-1.12,4.61-10.45,4.11-14.05
		c-0.9-6.09-4.14-11.21-9.08-14.81c-0.11-0.11-0.22-0.14-0.32-0.22c-10.52-24.18-32.72-38.31-56.33-47.97
		c23.5-1.08,48.04,4.07,64,22.7c9.26,10.81,12.65,24.65,15.39,38.31C497.67,480.57,500.84,491.67,502.35,503.02z M695.81,656.01
		c-10.45-2.13-20.33-5.95-24.79-16.36C682.37,638.71,689.07,647.75,695.81,656.01z M664.42,611.93c-6.13-0.07-12.4-3.78-13.73-9.77
		C655.95,604.36,660.6,607.68,664.42,611.93z M612.74,570.24c3.68,3.93,6.02,8.43,7.42,13.77c1.05,4,1.48,8.07,1.77,12.18
		c0.04,0.97-0.18,3.46-0.22,5.55c-2.56-2.85-5.12-5.73-7.06-9.05C610.36,585.44,609.46,577.8,612.74,570.24z M631.62,534.59
		c-2.92,2.27-11.21,2.59-12.94,2.49c-9.08-0.54-13.41-5.48-14.92-5.77C613.21,531.17,622.47,532.25,631.62,534.59z M603.01,531.35
		c-0.25,0.04-0.43,0.14-0.61,0.25c-0.07-0.07-0.11-0.14-0.18-0.25C602.47,531.35,602.72,531.35,603.01,531.35z M618.33,497.69
		c3.93-14.92,19.1-23.39,29.34-33.98c4.65-4.87,8.65-10.23,12-15.97c-1.01,2.77-1.98,5.59-2.13,8.4
		c-0.54,8.14,0.11,15.21-5.84,21.62C643.26,486.99,629.64,492.18,618.33,497.69z M627.19,499.38c-0.47,0-0.9,0.04-1.37,0.04
		c11.86-5.51,25.37-11.53,32.29-22.06c4.14-6.34,3.71-12.65,4.14-19.89c0.32-5.55,2.85-10.49,4.11-15.68
		c3.03,13.77,4.22,28.04-2.81,40.87C654.76,498.7,643.12,499.13,627.19,499.38z M691.34,521.26c3.5-12.79,8.61-24.87,14.85-36.54
		C703.45,497.29,705.72,518.2,691.34,521.26z M703.23,480.21c-6.74,12.25-12.29,24.87-16.11,38.27
		C678.37,503.28,688.42,486.88,703.23,480.21z M667.63,529.12c8.07-8.51,16.11,4.43,24.83,0.76c2.41-1.01,3.96-2.99,5.87-4.68
		c5.66-5.12,14.2-6.2,19.97-0.29c9.77,10.02,1.84,24.07-9.48,27.71c-0.25-0.36-0.47-0.68-0.72-0.97
		c-0.14-7.93-6.23-11.6-12.87-11.68c-0.54-1.12-0.65-2.31-0.47-3.53c0.4-3.28-6.96-4.14-4.36,4.14c-4.69,1.19-8.76,4.07-10.81,8.4
		C672.35,544.5,659.05,538.16,667.63,529.12z M696.49,566.24c3.03,0.54,4.32-4.07,1.3-4.61c-6.38-1.12-4.72-9.8,1.55-9.55
		c4.47,0.18,8.36,5.44,6.27,9.84c-3.46,7.35-14.92,7.06-19.75,1.77c-4.61-4.97-3.89-12.25,1.23-16.51
		c4.07-3.39,11.6-3.68,14.78,0.36c-4.94-1.3-10.6,1.05-12.65,5.95C686.87,559.06,690.73,565.23,696.49,566.24z M675.84,590.71
		c-8.65-2.63-5.98-11.5-8.61-17.84c-2.31-5.55-7.28-7.35-11.35-11.28c-3.82-3.68-7.1-9.66-4.29-14.96c2.02-3.78,6.88-5.87,10.99-4.9
		c3.75,4.83,10.88,8.4,15.6,11.89c-0.43,3.24,0.22,6.56,1.69,9.44c-3.53,5.08-8.22,2.41-8.22,6.02c0,1.19,1.12,2.56,2.38,2.38
		c3.42-0.43,6.38-1.87,8.61-4.32c3.03,3.32,7.39,5.48,12.4,5.3c-0.18,2.7,0.25,5.26,1.15,7.53c-0.29,0.22-0.54,0.54-0.69,0.9
		C691.52,587.32,683.88,593.16,675.84,590.71z M686.83,595.17c0.07-0.22,0.07-0.43,0.07-0.65c3.24-1.3,6.23-3.42,8.69-6.02
		c0.29,11.5,0.29,23.24,2.41,34.52C691.27,614.49,684.49,605.84,686.83,595.17z M699.77,572.15c0.04-0.18,0.04-0.36,0.04-0.54
		c3.21-0.97,6.34-2.78,8.47-5.26c2.88,1.87,5.87,3.53,9.01,4.94c2.81,1.23,5.23-2.88,2.45-4.11c-3.21-1.41-6.23-3.1-9.15-5.01
		c0.5-1.73,0.5-3.42,0.14-5.19c6.74-2.23,12.36-7.1,15.03-13.26c0.22,0.11,0.54,0.18,0.9,0.18c6.16,0,11.64,4.69,10.09,11.39
		c-0.9,3.86-2.81,4.54-5.15,6.88c-2.45,2.45-4.22,4.61-3.93,8.29c0.11,1.66,1.01,3.03,1.33,4.58c1.37,6.56-1.01,11.03-7.06,12.29
		c-2.56-0.14-5.15-0.07-7.68,0.04C706.4,586.16,698.51,581.23,699.77,572.15z M710.66,612.94c-1.33,6.2-3.86,12.04-5.73,18.06
		c-4.43-13.95-4.22-29.08-4.58-43.75C708.13,593.95,712.96,601.7,710.66,612.94z M715.7,600.51c-0.07-0.07-0.14-0.11-0.25-0.14
		c-0.29-1.3-0.76-2.56-1.3-3.75c7.46,4.72,15.82,7.89,24.18,10.96C730.37,607.68,722.62,605.3,715.7,600.51z M716.21,592.33
		c1.95,0.14,3.93,0.07,5.8-0.22c4.14,0.29,8.18,1.26,11.86,3.68c3.68,2.41,7.03,5.62,10.27,8.83
		C734.62,601.16,724.67,597.88,716.21,592.33z"/>
	<path d="M457.81,77.81c4.54,3.03,11.57,1.8,16.61-5.05c8.79,5.33,18.27,2.88,21.15-8.04c0.61-2.41-3.17-3.03-3.89-0.5
		c-2.2,8.18-8.83,11.64-16.25,6.99c0.32-0.58,0.72-1.19,1.05-1.84c4.07-10.52,0.54-28.65-1.48-39.86
		c16.9-22.49-14.96-30.92-12.36-18.13c1.59,8.07,2.92,15.82,4.4,23.89c-6.56,6.38-13.55,12.43-12.51,18.56
		c0.22,1.05,2.02,0.61,1.84-0.4c-0.72-4.72,5.12-10.16,11.14-16.04c1.73,9.87,4.22,20.04,2.56,30.09
		C453.52,55.93,449.7,72.36,457.81,77.81z M469.09,70.63c-2.52,4.76-6.41,6.13-9.33,5.08c-5.77-2.38-5.91-17.41,9.8-6.23
		C469.49,69.81,469.27,70.27,469.09,70.63z M474.5,27.17c-0.65-3.78-3.17-16-3.75-18.92C480.66,10.95,479.47,20.43,474.5,27.17z"/>
	<path d="M511.98,70.85c6.96-3.17,9.41-13.91,9.48-20.87c1.3-0.32,2.56-0.97,3.75-1.66c0.94,10.27,3.06,21.62,11.14,18.49
		c7.5-2.99,10.63-17.84,12.11-25.26c1.44,0.54,3.28,0.65,5.26,0.43c-0.65,9.55,4.04,19.82,14.27,19.6
		c6.81-0.11,11.03-5.69,13.33-12.51l-1.62-0.76c-6.45,18.31-15.6,9.26-16.65-7.57c11.03-1.26,10.49-16.22,1.73-14.52
		c-6.31,1.26-9.95,7.28-10.88,14.02c-1.95,0.18-3.71-0.07-5.05-0.65c0.54-3.46,1.98-11.28-4.14-10.02
		c-4.87,1.05-3.86,8.65,1.95,11.24c-1.12,5.77-6.09,22.92-8.87,20.76c-3.14-2.31-3.82-20.51-4.9-26.81
		c-0.61-4.11-9.3-2.63-8.76,1.26c0.4,2.34,0.58,6.2,0.9,10.42c-1.15,0.76-2.45,1.37-3.57,1.62c-0.29-7.32-4.18-12.87-11.93-12.51
		C486.03,36.76,492.3,80,511.98,70.85z M565.06,28.61c4.94-4.54,7.24,9.62-2.02,10.23C562.86,34.16,563.44,30.27,565.06,28.61z
		 M545.24,31.39c3.57-0.72,1.98,5.44,1.77,7.24C544.37,36.79,542.5,31.96,545.24,31.39z M519.62,48.4
		c-10.31,1.33-10.52-6.85-5.87-8.47C517.09,38.7,519.47,45.77,519.62,48.4z M513.31,38.02c-6.85,2.31-6.09,13.66,6.31,12.14
		c-0.18,5.84-1.87,13.62-6.34,17.62C503.76,76.36,498.17,33.23,513.31,38.02z"/>
	<path d="M688.96,193.71c-0.65,0.86,0.94,1.84,1.55,1.01c2.88-3.82,10.81-3.46,19.24-3.28c-5.87,8.18-11.28,17.01-19.71,22.92
		c-3.28-19.93-17.69-11.1-15.93-1.51c1.05,5.33,6.85,9.55,15.28,8.29c2.38,10.05,10.78,15.06,20.54,9.44
		c2.2-1.23-0.04-4.36-2.34-3.1c-7.35,4.18-14.52,1.84-16.43-6.7c0.68-0.18,1.37-0.29,2.09-0.54c10.34-4.43,20.79-19.68,27.39-29.01
		c27.89-3.71,11.53-32.33,4.22-21.48c-4.61,6.78-9.23,13.15-13.91,19.86C701.75,189.38,692.56,188.66,688.96,193.71z M687.19,215.87
		c-5.19,1.48-8.9-0.29-10.16-3.14c-2.34-5.77,8.25-16.4,11.28,2.63C688.02,215.58,687.56,215.72,687.19,215.87z M732.82,173.27
		c5.05,8.97-2.59,14.78-10.85,15.97C724.21,186.1,731.13,175.76,732.82,173.27z"/>
	<path d="M717.11,246.61c7.14,2.7,16.51-3.06,21.51-7.93c1.15,0.72,2.49,1.15,3.82,1.51c-6.67,7.89-13.26,17.37-5.37,20.9
		c7.39,3.28,20.18-4.9,26.49-9.05c0.65,1.41,1.84,2.74,3.39,4.04c-7.28,6.23-11.28,16.76-3.96,23.93
		c4.87,4.76,11.78,3.86,18.24,0.72l-0.54-1.66c-17.91,8.32-17.33-4.9-6.31-17.19c8.65,6.99,18.92-3.93,11.53-8.97
		c-5.3-3.6-12.14-1.98-17.59,2.09c-1.51-1.26-2.56-2.7-3.1-4.04c2.85-2.05,9.44-6.52,4.25-10.02c-4.18-2.74-8.9,3.32-6.67,9.26
		c-4.9,3.24-20.61,11.75-21.05,8.25c-0.54-3.82,11.93-17.08,15.71-22.31c2.52-3.32-4.65-8.47-7.03-5.33
		c-1.44,1.91-4.07,4.76-6.81,7.96c-1.37-0.29-2.67-0.83-3.68-1.44c5.01-5.33,6.23-12,0.58-17.23
		C723.2,204.19,696.74,238.97,717.11,246.61z M784.43,254.79c6.67,0.32-1.77,11.89-8.72,5.77
		C778.95,257.1,782.12,254.79,784.43,254.79z M768.57,242.61c2.99,2.02-2.52,5.23-3.96,6.34
		C764.1,245.78,766.23,241.06,768.57,242.61z M738.44,236.27c-8.14-6.38-2.49-12.29,1.91-10.13
		C743.59,227.69,740.21,234.36,738.44,236.27z M741.43,224.48c-6.45-3.24-14.02,5.26-4.25,13.05c-4.25,3.96-10.99,8.18-17.01,7.82
		C707.41,244.59,734.22,210.36,741.43,224.48z"/>
	<path d="M799.09,464.5c-8.07,1.48-15.86,2.67-23.97,4.04c-6.27-6.7-12.18-13.77-18.34-12.83c-1.01,0.18-0.65,1.98,0.4,1.84
		c4.72-0.61,10.05,5.26,15.82,11.42c-9.87,1.51-20.07,3.86-30.13,2.02c11.86-16.33-4.5-20.4-10.09-12.4
		c-3.1,4.47-2.02,11.53,4.76,16.69c-5.48,8.72-3.17,18.24,7.71,21.3c2.41,0.65,3.06-3.14,0.54-3.89c-8.11-2.31-11.46-9.05-6.7-16.36
		c0.54,0.32,1.15,0.76,1.84,1.05c10.42,4.29,28.61,1.05,39.86-0.79C802.99,493.83,811.96,462.08,799.09,464.5z M740.89,470.44
		c-2.74-0.5-7.86-5.41-6.02-9.87C737.32,454.84,752.35,454.95,740.89,470.44z M783.13,476.1c3.78-0.58,16.04-2.88,18.99-3.46
		C799.27,482.55,789.8,481.18,783.13,476.1z"/>
	<path d="M768.75,555.28c-0.11-1.95,0.14-3.71,0.72-5.05c3.46,0.61,11.28,2.16,10.13-3.96c-0.97-4.9-8.61-4.04-11.28,1.73
		c-5.77-1.23-22.85-6.45-20.65-9.19c2.38-3.1,20.58-3.5,26.96-4.47c4.07-0.54,2.74-9.26-1.19-8.76c-2.34,0.32-6.2,0.47-10.42,0.72
		c-0.76-1.15-1.3-2.49-1.55-3.6c7.32-0.18,12.94-4,12.65-11.71c-0.76-23.5-44.11-17.95-35.28,1.87c3.06,6.99,13.8,9.62,20.72,9.8
		c0.29,1.33,0.94,2.56,1.59,3.78c-10.27,0.76-21.66,2.7-18.63,10.85c2.85,7.53,17.62,10.92,25.05,12.51
		c-0.58,1.44-0.68,3.24-0.5,5.26c-9.55-0.83-19.89,3.71-19.86,13.95c0,6.81,5.51,11.1,12.29,13.51l0.79-1.59
		c-18.31-6.81-8.94-15.78,7.82-16.54c1.08,11.1,16.07,10.78,14.49,1.98C781.47,560.04,775.49,556.32,768.75,555.28z M777.8,546.74
		c0.65,3.57-5.51,1.91-7.32,1.66C772.39,545.8,777.22,544,777.8,546.74z M759.38,520.83c-5.8-0.25-13.55-2.13-17.51-6.63
		c-8.4-9.62,34.81-14.52,29.8,0.54C769.43,507.82,758.12,508.43,759.38,520.83z M769.76,515.13c1.15,3.39-5.98,5.66-8.58,5.73
		C759.99,510.56,768.17,510.45,769.76,515.13z M770.01,564.43c4.72-0.11,8.58,0.54,10.2,2.2
		C784.64,571.6,770.48,573.7,770.01,564.43z"/>
	<path d="M642.43,723.4c-6.85-4.58-13.26-9.15-20-13.8c0.14-9.19,0.83-18.38-4.25-21.98c-0.83-0.61-1.84,0.97-0.97,1.59
		c3.82,2.85,3.53,10.78,3.39,19.21c-8.18-5.84-17.05-11.17-23.03-19.53c19.89-3.46,10.99-17.8,1.41-15.97
		c-5.33,1.05-9.48,6.88-8.22,15.32c-9.98,2.45-14.96,10.88-9.3,20.61c1.26,2.16,4.36-0.07,3.1-2.38c-4.22-7.32-1.95-14.49,6.6-16.43
		c0.18,0.61,0.29,1.33,0.58,2.05c4.51,10.31,19.79,20.69,29.16,27.21C624.78,747.15,653.32,730.61,642.43,723.4z M596.05,685.99
		c-1.55-5.15,0.22-8.9,3.03-10.2c5.8-2.38,16.51,8.14-2.56,11.32C596.34,686.86,596.2,686.35,596.05,685.99z M622.87,720.59
		c3.14,2.23,13.55,9.08,16.07,10.78C629.97,736.44,624.13,728.84,622.87,720.59z"/>
	<path d="M565.49,716.08c-2.63,7.17,3.17,16.51,8.04,21.48c-0.72,1.15-1.12,2.49-1.48,3.82c-7.93-6.63-17.48-13.15-20.94-5.23
		c-3.24,7.39,5.05,20.11,9.23,26.42c-1.41,0.65-2.74,1.87-4,3.42c-6.31-7.24-16.87-11.21-23.97-3.82
		c-4.76,4.9-3.82,11.78-0.61,18.24l1.66-0.58c-8.51-17.98,4.97-17.19,17.15-6.38c-6.96,8.69,4,18.88,9.01,11.5
		c3.6-5.33,1.91-12.18-2.16-17.62c1.23-1.48,2.67-2.56,4.04-3.06c2.05,2.85,6.56,9.37,9.98,4.18c2.74-4.18-3.35-8.9-9.3-6.63
		c-3.28-4.87-11.86-20.54-8.36-20.97c3.82-0.58,17.15,11.82,22.42,15.57c3.32,2.49,8.43-4.72,5.26-7.1c-1.91-1.37-4.79-4-8-6.74
		c0.29-1.33,0.83-2.67,1.41-3.68c5.41,4.97,12.04,6.16,17.26,0.43C607.95,721.92,572.99,695.69,565.49,716.08z M557.71,783.48
		c-0.29,6.67-11.89-1.69-5.8-8.69C555.37,778,557.67,781.17,557.71,783.48z M569.82,767.51c-2.02,3.03-5.26-2.45-6.41-3.89
		C566.61,763.08,571.33,765.17,569.82,767.51z M586.07,739.26c-1.51,3.21-8.18-0.11-10.13-1.87
		C582.29,729.17,588.23,734.79,586.07,739.26z M587.76,740.3c3.21-6.49-5.37-13.98-13.08-4.18c-3.96-4.25-8.25-10.96-7.93-16.97
		C567.44,706.39,601.86,732.99,587.76,740.3z"/>
	<path d="M353.59,733.09c-4.47-3.06-11.57-1.95-16.65,4.87c-8.76-5.41-18.24-3.06-21.23,7.86c-0.68,2.41,3.1,3.06,3.86,0.54
		c2.27-8.18,8.97-11.57,16.36-6.85c-0.36,0.58-0.79,1.19-1.08,1.84c-4.22,10.45-0.87,28.61,1.05,39.89
		c-17.12,22.27,14.67,31.03,12.18,18.2c-1.51-8.07-2.77-15.82-4.18-23.93c6.7-6.31,13.69-12.29,12.72-18.42
		c-0.18-1.05-2.02-0.65-1.84,0.4c0.65,4.72-5.19,10.09-11.32,15.89c-1.59-9.95-4-19.97-2.23-30.13
		C357.62,755.04,361.62,738.61,353.59,733.09z M342.23,740.16c2.59-4.72,6.49-6.09,9.41-4.97c5.73,2.45,5.73,17.48-9.84,6.09
		C341.84,740.99,342.05,740.52,342.23,740.16z M336.36,783.55c0.61,3.82,3.03,16.04,3.6,18.99
		C330.05,799.69,331.35,790.25,336.36,783.55z"/>
	<path d="M299.35,739.51c-6.96,3.1-9.55,13.84-9.69,20.79c-1.3,0.29-2.56,0.9-3.75,1.59c-0.83-10.27-2.85-21.66-10.96-18.56
		c-7.53,2.88-10.81,17.7-12.36,25.08c-1.44-0.54-3.24-0.65-5.26-0.47c0.76-9.55-3.82-19.86-14.06-19.75
		c-6.85,0.04-11.1,5.59-13.48,12.36l1.59,0.79c6.67-18.27,15.71-9.12,16.61,7.75c-11.06,1.12-10.67,16.11-1.87,14.49
		c6.31-1.19,10.02-7.17,10.99-13.91c1.95-0.14,3.71,0.11,5.05,0.72c-0.58,3.46-2.05,11.24,4.04,10.05c4.9-0.97,4-8.61-1.8-11.28
		c1.19-5.73,6.31-22.88,9.08-20.69c3.1,2.34,3.6,20.54,4.65,26.88c0.54,4.14,9.23,2.74,8.72-1.19c-0.32-2.34-0.5-6.2-0.79-10.45
		c1.15-0.72,2.49-1.3,3.6-1.55c0.22,7.32,4.07,12.9,11.78,12.61C324.94,773.85,319.13,730.53,299.35,739.51z M245.83,781.2
		c-4.94,4.47-7.1-9.69,2.16-10.24C248.1,775.69,247.49,779.58,245.83,781.2z M265.69,778.65c-3.57,0.68-1.91-5.48-1.69-7.32
		C266.63,773.24,268.43,778.07,265.69,778.65z M291.49,761.89c10.31-1.26,10.45,6.92,5.77,8.51
		C293.87,771.58,291.6,764.48,291.49,761.89z M297.69,772.34c6.88-2.27,6.23-13.62-6.16-12.25c0.22-5.8,2.02-13.59,6.52-17.55
		C307.6,734.07,312.75,777.28,297.69,772.34z"/>
	<path d="M119.55,618.67c0.61-0.83-0.97-1.84-1.59-1.01c-2.92,3.78-10.85,3.35-19.28,3.06c6.02-8.11,11.42-16.83,19.93-22.67
		c3.1,19.93,17.59,11.24,15.93,1.66c-0.97-5.37-6.74-9.59-15.17-8.47c-2.27-10.05-10.63-15.17-20.47-9.62c-2.2,1.19,0,4.36,2.31,3.1
		c7.42-4.07,14.52-1.69,16.36,6.88c-0.65,0.14-1.37,0.29-2.09,0.54c-10.38,4.32-21.01,19.42-27.68,28.69
		c-27.89,3.46-11.86,32.25-4.43,21.48c4.69-6.74,9.33-13.08,14.13-19.75C106.65,622.89,115.84,623.72,119.55,618.67z M121.5,596.54
		c5.19-1.44,8.9,0.36,10.16,3.21c2.27,5.84-8.43,16.36-11.28-2.7C120.67,596.83,121.14,596.69,121.5,596.54z M75.44,638.67
		c-4.9-9.05,2.74-14.74,11.03-15.86C84.2,625.91,77.14,636.19,75.44,638.67z"/>
	<path d="M91.91,565.51c-7.1-2.78-16.54,2.88-21.62,7.68c-1.12-0.72-2.45-1.15-3.75-1.55c6.74-7.78,13.44-17.23,5.55-20.83
		c-7.35-3.35-20.22,4.72-26.56,8.79c-0.65-1.41-1.84-2.78-3.35-4.07c7.32-6.16,11.46-16.65,4.22-23.89
		c-4.83-4.83-11.75-4-18.27-0.94l0.58,1.69c17.88-8.11,17.33,5.01,6.13,17.26c-8.61-7.06-18.96,3.71-11.68,8.83
		c5.3,3.68,12.14,2.13,17.62-1.87c1.48,1.26,2.52,2.7,3.06,4.07c-2.88,1.98-9.48,6.41-4.36,9.95c4.14,2.78,8.97-3.21,6.78-9.23
		c4.94-3.17,20.72-11.53,21.08-8.04c0.54,3.86-12.07,17.01-15.89,22.2c-2.56,3.28,4.58,8.51,6.99,5.37
		c1.44-1.91,4.07-4.72,6.88-7.89c1.33,0.32,2.67,0.86,3.64,1.48c-5.08,5.3-6.34,11.93-0.72,17.23
		C85.39,607.86,112.2,573.33,91.91,565.51z M24.66,556.61c-6.67-0.4,1.91-11.86,8.79-5.62C30.18,554.38,26.97,556.65,24.66,556.61z
		 M40.41,569.01c-2.96-2.09,2.56-5.23,4.04-6.34C44.92,565.84,42.75,570.56,40.41,569.01z M70.47,575.61
		c8.11,6.49,2.38,12.36-2.05,10.13C65.21,584.15,68.67,577.52,70.47,575.61z M67.33,587.39c6.45,3.32,14.09-5.12,4.43-13.01
		c4.29-3.89,11.06-8.07,17.08-7.64C101.61,567.6,74.4,601.59,67.33,587.39z"/>
	<path d="M11.69,346.72c8.04-1.55,15.82-2.85,23.89-4.32c6.34,6.63,12.36,13.62,18.49,12.58c1.05-0.14,0.65-1.98-0.4-1.8
		c-4.72,0.68-10.09-5.15-15.97-11.24c9.95-1.62,19.93-4.11,30.09-2.38c-11.64,16.47,4.76,20.33,10.27,12.25
		c3.03-4.47,1.87-11.53-4.97-16.61c5.37-8.79,2.92-18.27-7.96-21.19c-2.45-0.65-3.06,3.14-0.5,3.89c8.14,2.2,11.57,8.9,6.92,16.29
		c-0.58-0.32-1.19-0.76-1.84-1.05c-10.49-4.14-28.65-0.68-39.89,1.3C7.4,317.46-1.14,349.28,11.69,346.72z M69.78,340.06
		c2.49,0.4,8,5.15,6.16,9.8C73.57,355.63,58.54,355.73,69.78,340.06z M27.47,334.94c-3.78,0.61-16,3.06-18.92,3.68
		C11.29,328.67,20.77,329.93,27.47,334.94z"/>
	<path d="M40.88,255.58c0.18,1.95-0.11,3.71-0.65,5.05c-3.46-0.58-11.28-1.98-10.05,4.11c1.01,4.87,8.65,3.93,11.24-1.87
		c5.77,1.12,22.92,6.16,20.76,8.94c-2.31,3.14-20.51,3.75-26.85,4.79c-4.14,0.58-2.67,9.3,1.23,8.72c2.34-0.32,6.23-0.5,10.45-0.83
		c0.76,1.15,1.3,2.45,1.59,3.57c-7.32,0.29-12.87,4.14-12.54,11.89c1.08,23.46,44.36,17.41,35.28-2.31
		c-3.17-6.96-13.91-9.48-20.87-9.59c-0.29-1.3-0.94-2.56-1.62-3.71c10.27-0.9,21.66-3.03,18.52-11.1
		c-2.92-7.5-17.77-10.7-25.19-12.18c0.5-1.48,0.65-3.28,0.43-5.26c9.55,0.68,19.86-3.96,19.68-14.2
		c-0.11-6.85-5.66-11.06-12.43-13.41l-0.79,1.62c18.34,6.56,9.15,15.64-7.64,16.61c-1.23-11.03-16.18-10.56-14.49-1.77
		C28.16,250.97,34.18,254.65,40.88,255.58z M31.98,264.23c-0.68-3.57,5.48-1.98,7.28-1.77C37.38,265.1,32.56,266.97,31.98,264.23z
		 M50.68,289.93c5.84,0.18,13.59,1.91,17.59,6.41c8.54,9.51-34.63,14.92-29.8-0.18C40.77,303.05,52.12,302.29,50.68,289.93z
		 M48.88,289.89c1.33,10.31-6.85,10.52-8.47,5.84C39.19,292.38,46.29,290.04,48.88,289.89z M39.51,246.43
		c-4.68,0.18-8.58-0.43-10.23-2.05C24.77,239.44,38.93,237.17,39.51,246.43z"/>
	<path d="M169.47,83.54c6.78,4.65,13.15,9.3,19.82,14.02c-0.22,9.19-1.01,18.38,4.04,22.02c0.83,0.61,1.84-0.97,1.01-1.55
		c-3.82-2.92-3.42-10.85-3.21-19.28c8.11,5.87,16.97,11.42,22.81,19.79c-19.89,3.24-11.17,17.66-1.55,15.93
		c5.33-1.01,9.55-6.78,8.36-15.21c10.02-2.34,15.1-10.74,9.51-20.54c-1.23-2.2-4.36,0.04-3.14,2.34c4.14,7.39,1.8,14.52-6.74,16.4
		c-0.18-0.65-0.29-1.37-0.54-2.09c-4.4-10.34-19.6-20.87-28.87-27.5C187.34,59.97,158.65,76.18,169.47,83.54z M215.45,121.41
		c1.48,5.19-0.32,8.9-3.14,10.16c-5.8,2.34-16.4-8.32,2.67-11.28C215.16,120.55,215.31,121.05,215.45,121.41z M188.96,86.53
		c-3.1-2.23-13.44-9.23-15.93-10.92C182.04,70.63,187.77,78.27,188.96,86.53z"/>
	<path d="M246.3,91.64c2.74-7.14-2.99-16.54-7.82-21.59c0.72-1.12,1.15-2.45,1.55-3.78c7.82,6.7,17.3,13.33,20.87,5.44
		c3.28-7.35-4.87-20.18-8.97-26.52c1.41-0.61,2.77-1.84,4.07-3.39c6.2,7.32,16.72,11.39,23.89,4.11c4.79-4.87,3.96-11.78,0.83-18.27
		l-1.69,0.58c8.25,18.02-5.05,17.19-17.19,6.2c6.99-8.61-3.86-18.92-8.94-11.57c-3.64,5.3-2.02,12.14,2.02,17.62
		c-1.26,1.48-2.7,2.52-4.07,3.06c-2.02-2.88-6.45-9.48-9.95-4.29c-2.77,4.14,3.24,8.9,9.23,6.7c3.21,4.9,11.64,20.65,8.18,21.05
		c-3.86,0.54-17.08-12-22.27-15.78c-3.32-2.52-8.47,4.61-5.37,7.03c1.91,1.41,4.76,4.04,7.93,6.85c-0.25,1.33-0.83,2.67-1.41,3.64
		c-5.33-5.05-12-6.27-17.26-0.61C203.92,85.37,238.59,111.93,246.3,91.64z M254.77,24.32c0.36-6.67,11.89,1.84,5.69,8.76
		C257.08,29.84,254.77,26.63,254.77,24.32z M242.52,40.15c2.05-2.99,5.23,2.52,6.34,4C245.69,44.65,240.93,42.49,242.52,40.15z
		 M225.97,68.26c1.55-3.21,8.18,0.18,10.09,1.98C229.65,78.38,223.74,72.69,225.97,68.26z M224.32,67.17
		c-3.32,6.49,5.15,14.06,13.01,4.32c3.93,4.29,8.11,11.06,7.75,17.08C244.25,101.3,210.12,74.35,224.32,67.17z"/>
</g>
</svg>
