<?xml version="1.0" encoding="utf-8"?>
<!-- Generator: Adobe Illustrator 16.0.0, SVG Export Plug-In . SVG Version: 6.00 Build 0)  -->
<!DOCTYPE svg PUBLIC "-//W3C//DTD SVG 1.1//EN" "http://www.w3.org/Graphics/SVG/1.1/DTD/svg11.dtd">
<svg version="1.1" id="ELEMENT" xmlns="http://www.w3.org/2000/svg" xmlns:xlink="http://www.w3.org/1999/xlink" x="0px" y="0px"
	 width="1000px" height="1000px" viewBox="0 0 1000 1000" enable-background="new 0 0 1000 1000" xml:space="preserve">
<path fill="#39343C" d="M825.455,665.389c-1.151-0.773-2.678-0.691-3.74,0.203c-0.092,0.076-9.438,7.799-23.656,7.803
	c-5.625,0-11.334-1.204-16.967-3.576c-8.535-3.593-16.252-7.535-23.059-11.014c-10.093-5.158-18.43-9.416-25.699-10.734
	c2.324-1.793,4.944-3.307,7.09-3.307c0.002,0,0.002,0,0.004,0c1.713,0,3.102-1.391,3.102-3.104c0-1.622-1.248-2.956-2.837-3.093
	c-0.008-0.004-0.012,0.006-0.02-0.004c-0.006,0-0.013,0-0.021,0c-0.042-0.002-0.084-0.006-0.129-0.006
	c-0.049,0-0.067-0.003-0.1-0.003c-5.818,0-51.955,0.352-71.264,11.214l0.18-2.492c0.074-1.047-0.384-2.059-1.219-2.693
	c-0.834-0.633-1.938-0.807-2.921-0.451c-2.609,0.928-63.851,23.098-71.928,55.931c-1.069,2.757-9.294,25.913,6.08,48.332
	c-3.744,3.612-11.393,12.603-20.386,32.026c8.297-55.164,4.601-113.061-6.228-151.161c17.954,22.229,32.913,35.851,33.108,36.032
	c0.436,0.403,0.994,0.606,1.568,0.606c0.482,0,0.962-0.154,1.366-0.452c0.9-0.666,1.212-1.846,0.746-2.855
	c-11.614-25.043-14.58-45.477-14.859-63.471c4.13,5.543,7.654,9.516,10.634,12.87c6.445,7.267,10.715,12.063,15.108,25.294
	c0.312,0.945,1.195,1.598,2.19,1.598h0.014c0.994,0,1.88-0.637,2.206-1.582c0.372-1.104,8.322-25.137-3.073-52.96
	c1.116,0.807,2.219,1.613,3.336,2.42c16.24,11.724,33.009,23.833,45.368,45.229c0.42,0.728,1.196,1.164,2.021,1.164
	c0.124,0,0.248-0.015,0.37-0.029c0.964-0.158,1.726-0.9,1.911-1.85c0.389-1.926,8.508-45.307-26.581-91.715
	c0.573,0.297,1.135,0.591,1.739,0.885c6.303,3.154,12.344,5.295,18.182,7.375c13.042,4.643,23.352,8.291,28.521,20.481
	c0.355,0.868,1.211,1.41,2.143,1.41h0.202c0.992-0.091,1.831-0.807,2.064-1.783c0.109-0.482,7.624-34.127-7.81-70.226
	c26.115,12.824,48.147,27.092,48.396,27.249c0.373,0.246,0.823,0.37,1.258,0.37c0.419,0,0.823-0.091,1.18-0.309
	c0.761-0.449,1.211-1.289,1.149-2.16c-1.786-27.401-12.529-37.588-30.323-54.48c-1.382-1.305-2.826-2.688-4.3-4.098
	c13.787-1.398,29.25-5,46.608-11.554c10.17-3.833,21.411-1.956,32.296-0.155c5.635,0.932,10.947,1.816,15.789,1.816
	c1.072,0,3.93,0,4.504-2.389c0.745-3.139-2.625-4.955-18.679-13.074c-9.284-4.706-20.961-10.619-29.841-16.459
	c2.826,0.496,5.572,0.699,8.181,0.699c10.124,0,17.888-3.011,18.416-3.229c0.775-0.294,1.335-0.994,1.442-1.815
	c0.125-0.826-0.201-1.647-0.854-2.16c-4.16-3.305-7.701-6.848-11.117-10.276c-7.515-7.548-14.671-14.72-27.34-18.665
	c4.547-1.583,9.269-2.42,12.56-3.012c4.331-0.761,6.303-1.115,6.335-3.445c0.016-2.532-2.438-3.015-9.006-4.27
	c-6.164-1.198-10.961-2.486-14.795-3.806c0.853,0.016,1.705,0.045,2.562,0.045c36.688,0,70.271-21.597,71.87-22.637
	c0.963-0.638,1.32-1.862,0.854-2.902c-0.467-1.04-1.614-1.598-2.717-1.304c-10.263,2.701-19.935-1.647-31.146-6.678
	c-10.341-4.643-21.939-9.813-36.348-10.604c2.717-2.996,5.232-5.898,7.546-8.585c4.689-5.45,8.741-10.171,11.986-12.53
	c22.344-16.288,28.182-21.272,26.613-25.23c-1.135-2.826-5.094-2.329-6.584-2.143c-3.339,0.42-5.387,0.963-7.033,1.411
	c-3.82,1.025-4.969,1.338-19.951-3.927c-7.282-2.548-14.518-4.255-21.722-5.123c17.684-10.946,33.956-37.761,32.513-43.723
	c-0.42-1.709-1.863-2.717-3.617-2.501c-0.265,0.032-0.545,0.109-0.794,0.249c-2.7,1.398-4.657,2.732-6.364,3.912
	c-4.969,3.4-7.701,5.28-23.507,2.609c-8.308-1.709-16.24-2.609-23.817-2.873c7.607-12.67,19.856-25.246,29.004-34.622
	c11.645-11.926,15.572-16.242,13.693-19.813c-1.367-2.593-4.891-2.361-8.151-1.8c-9.301,1.598-16.411,2.902-22.095,4.129
	c2.67-3.944,6.32-7.764,9.409-11.009c5.264-5.511,8.446-8.835,6.848-11.971c-1.382-2.702-5.45-2.764-11.134-2.003
	c-16.954,2.268-20.571,4.642-25.152,7.656c-1.103,0.712-2.22,1.458-3.601,2.234c0.744-4.488,0.9-8.042,1.024-11.287
	c0.279-7.531,0.496-12.95,8.182-25.479c0.45-0.731,0.465-1.632,0.032-2.376c-0.405-0.729-1.181-1.165-2.021-1.165
	c-0.015,0-0.015,0-0.03,0c-26.457,0.436-47.091,6.599-63.284,15.992c7.481-18.074,4.006-41.827,3.834-42.991
	c-0.171-1.089-1.088-1.926-2.205-1.974c-1.086-0.031-2.096,0.685-2.36,1.77c-5.589,22.546-34.327,34.641-34.608,34.75
	c-0.107,0.045-0.202,0.093-0.293,0.14c-1.586,0.931-3.105,1.847-4.598,2.763c3.044-7.873,1.662-15.945,0.108-24.903
	c-0.682-3.93-1.381-7.996-1.8-12.406c-0.713-7.594,0.776-15.077,1.986-21.085c1.321-6.646,2.113-10.651-0.449-12.67
	c-2.004-1.567-4.688-0.621-6.521,0.233c-12.422,5.729-22.574,11.148-30.914,16.598c1.197-11.924-8.027-24.812-14.004-30.742
	c-4.439-4.411-6.256-4.411-7.561-3.759c-0.84,0.42-1.661,1.445-1.412,3.015c2.842,19.159-2.842,27.122-8.355,34.81
	c-3.074,4.315-6.225,8.725-7.529,14.826c-2.794-3.26-5.697-6.286-8.524-9.207c-6.427-6.69-12.514-13.011-14.967-20.339
	c-7.887-23.678-13.585-25.805-16.271-24.981c-0.592,0.185-1.09,0.59-1.368,1.149c-0.294,0.542-0.341,1.194-0.154,1.784
	c6.489,20.217-1.941,32.745-11.675,47.248c-3.401,5.046-6.972,10.386-10.093,16.348c-5.403-28.925-36.768-55.009-38.228-56.204
	c-0.744-0.605-1.77-0.7-2.607-0.248c-0.822,0.464-1.305,1.381-1.18,2.329c2.142,17.497-1.662,36.95-5.497,54.605
	c-8.602-19.626-31.473-45.586-38.46-47.636c-1.971-0.574-3.15,0.217-3.678,0.729c-1.491,1.492-1.055,3.821-0.606,5.449
	c2.064,7.375,2.747,15.714,3.479,24.548c0.931,11.18,1.895,22.668,5.652,33.631c-5.466-2.747-11.041-5.108-16.397-7.375
	c-13.321-5.636-24.841-10.511-28.708-19.035c-0.513-1.119-1.801-1.646-2.951-1.212c-1.147,0.436-1.753,1.678-1.396,2.842
	c1.132,3.757,1.645,8.741,2.235,14.519c1.554,15.089,3.619,35.197,18.941,52.013c-6.923-1.228-14.423-1.91-22.48-2.065
	c-6.786,0.232-18.027-5.155-31.053-11.365c-11.149-5.31-23.771-11.336-36.161-14.968c-1.071-0.311-2.189,0.155-2.718,1.118
	c-0.513,0.978-0.294,2.174,0.542,2.887c0.343,0.279,27.358,23.444,42.28,52.805c-18.587-10.774-48.102-16.285-49.53-16.551
	c-1.01-0.17-2.019,0.313-2.482,1.213c-0.482,0.9-0.312,2.017,0.417,2.732l3.728,3.742c10.821,10.884,22.668,22.762,32.993,29.918
	c-2.469-0.264-5-0.527-7.593-0.807c-23.521-2.484-52.79-5.59-71.094-13.632c-1.15-0.498-2.469-0.032-3.029,1.087
	c-0.559,1.101-0.14,2.453,0.933,3.073c0.45,0.249,43.861,25.029,52.696,50.12c1.21,3.446,3.012,6.893,5.295,10.276
	c-19.875-9.299-33.677-6.333-48.163-3.228c-5.512,1.196-11.21,2.421-17.436,3.013c-1.104,0.107-1.987,0.961-2.097,2.064
	c-0.125,1.101,0.56,2.142,1.614,2.469c0.497,0.155,49.45,15.696,60.678,32.526c1.055,1.583,2.374,3.185,3.881,4.753
	c-27.156-8.013-44.327-6.584-61.003-5.187c-9.719,0.807-18.912,1.584-29.95,0.543c-0.821-0.094-1.63,0.279-2.111,0.963
	c-0.481,0.667-0.576,1.536-0.233,2.297c0.73,1.646,16.955,36.597,77.57,37.979c-13.603,5.435-26.736,7.529-38.335,9.361
	c-16.505,2.623-30.757,4.891-41.315,15.48c-0.652,0.652-0.855,1.629-0.513,2.483c0.326,0.855,1.135,1.444,2.051,1.492
	c14.718,0.698,54.714,4.082,63.082,11.148c0.964,0.807,1.972,1.628,2.98,2.438c-8.974,1.678-26.751,6.584-40.568,20.354
	c-0.545,0.543-0.792,1.32-0.652,2.081c0.154,0.761,0.652,1.397,1.364,1.708c0.776,0.326,14.331,6.101,31.565,6.101
	c0.855,0,1.725-0.016,2.609-0.046c-16.69,8.555-33.382,20.463-44.716,36.333c-0.56,0.776-0.591,1.801-0.078,2.607
	c0.513,0.792,1.46,1.21,2.393,1.04c0.527-0.094,44.201-7.996,68.998-4.627c-3.044,2.313-7.111,4.566-11.645,7.065
	c-10.729,5.917-24.081,13.273-30.371,26.116c-0.309,0.604-0.324,1.318-0.045,1.955c0.279,0.622,0.807,1.102,1.474,1.289
	c0.528,0.154,6.227,1.787,14.658,1.787c6.723,0,15.17-1.059,24.097-4.707c-19.393,23.756-26.83,53.969-27.25,55.756
	c-0.199,0.791,0.047,1.631,0.638,2.204c0.435,0.419,1.024,0.651,1.614,0.651c0.201,0,0.404-0.015,0.605-0.075
	c8.819-2.345,20.341-3.897,32.545-5.544c9.547-1.273,19.764-2.656,29.794-4.582c-3.044,6.43-5.853,11.166-8.368,15.387
	c-5.715,9.58-10.217,17.158-13.555,36.86c-0.141,0.807,0.155,1.616,0.777,2.159c0.418,0.357,0.961,0.559,1.521,0.559
	c0.231,0,0.48-0.031,0.714-0.109c32.063-10.496,54.467-20.837,72.292-40.803c-5.125,10.699-10.093,16.521-15.481,22.808
	c-2.826,3.294-5.745,6.708-8.865,10.993c-0.605,0.84-0.59,1.971,0.032,2.78c0.449,0.589,1.133,0.916,1.847,0.916
	c0.279,0,0.559-0.048,0.822-0.14c1.073-0.403,16.211-6.226,32.59-16.336c-9.983,16.366-28.117,50.246-22.932,72.773
	c0.17,0.683,0.637,1.273,1.288,1.584c0.31,0.139,0.652,0.218,0.979,0.218c0.373,0,0.729-0.079,1.058-0.249
	c1.008-0.512,20.836-10.65,33.938-31.828c-1.258,12.59-0.931,27,1.568,43.922c0.109,0.762,0.605,1.428,1.304,1.756
	c0.311,0.154,0.652,0.233,0.995,0.233c0.418,0,0.821-0.108,1.194-0.327c0.652-0.389,51.58-31.053,77.198-85.098
	c-0.436,9.485-3.138,18.055-5.946,26.998c-5.25,16.691-11.212,35.602-2.376,63.797c0.247,0.762,0.854,1.338,1.614,1.553
	c0.202,0.049,0.404,0.079,0.605,0.079c0.574,0,1.133-0.218,1.568-0.606c1.382-1.24,30.711-28.287,36.348-62.306
	c8.911,25.073,3.089,70.894,1.816,79.946c-0.141,0.931,0.311,1.847,1.116,2.328c0.373,0.216,0.776,0.325,1.182,0.325
	c0.496,0,0.993-0.171,1.411-0.482c0.357-0.267,24.872-19.156,37.623-50.958c3.284,8.15,12.22,34.067,12.588,75.604
	c0.299,33.725-5.207,82.816-28.298,144.537c1.784-20.107-0.6-45.402-16.463-67.857c6.655-1.262,17.268-4.71,21.458-14.038
	c4.792-10.665-0.446-25.442-15.569-43.929c-28.104-34.352-62.667-37.53-90.437-40.083c-17.308-1.589-30.979-2.848-37.704-11.245
	c-0.81-1.013-2.16-1.418-3.396-1.01c-1.231,0.406-2.081,1.535-2.133,2.83c-0.012,0.352-0.216,6.534,1.783,14.04
	c-11.086-5.925-33.21-15.408-61.177-15.408c-14.56,0-28.933,2.626-42.725,7.812c-0.146,0.055-0.352,0.158-0.489,0.233
	c-0.009,0.007-0.897,0.495-2.243,0.495c-3.364,0-6.902-3.042-9.969-8.561c-0.543-0.978-1.57-1.587-2.687-1.596
	c-1.083-0.058-2.155,0.582-2.716,1.547c-0.143,0.251-2.931,5.173-1.532,10.801c-3.33,0.768-8.879,1.766-15.12,1.766
	c-19.63,0.003-31.322-9.334-34.75-27.744c-0.254-1.355-1.371-2.383-2.741-2.523c-1.364-0.137-2.671,0.643-3.19,1.92
	c-0.448,1.107-10.476,27.553,37.327,66.232c26.99,21.834,26.426,31.05,25.611,33.354c-0.986,2.79-5.098,4.454-10.994,4.454
	c-3.061,0-6.437-0.457-9.766-1.322c-1.364-0.36-2.791,0.252-3.483,1.475c-0.693,1.223-0.479,2.76,0.524,3.745
	c0.952,0.937,22.462,21.821,46.236,24.03c-3.527,4.738-6.967,8.578-8.351,9.182c-1.208,0.105-2.256,0.91-2.66,2.071
	c-0.435,1.247-0.033,2.632,0.999,3.454c0.411,0.324,8.761,6.916,19.005,11.508l-1.873,1.262c-0.897,0.601-1.416,1.629-1.37,2.708
	c0.046,1.08,0.648,2.056,1.595,2.581c3.66,2.034,7.803,2.865,12.188,3.745c10.714,2.146,22.858,4.582,35.807,24.851
	c10.463,16.376,38.251,26.55,72.516,26.55c0.001,0,0.001,0,0.005,0c31.835,0,72.037-9.688,89.386-36.882
	c6.658-10.438,9.186-22.27,7.636-35.357c13.055,36.197-0.778,74.354-2.494,78.813c-6.48,14.432-13.897,29.439-22.373,45.003
	c-0.486,0.891-0.507,1.965-0.052,2.875c0.131,0.26,11.188,21.794,32.06,21.794c4.212,0,8.824-0.876,13.828-2.981
	c0.881-0.373,1.542-1.127,1.793-2.053c0.146-0.543,15.013-55.304,36.205-120.996c1.234-3.827,2.376-7.721,3.463-11.651
	c0.006-0.021,0.021-0.039,0.027-0.06c9.979-32.166,19.844-49.971,26.477-59.341c-3.86,17.474-2.986,30.847,2.646,40.632
	c5.16,8.962,14.361,15,27.348,17.943c8.752,1.984,16.492,2.951,23.666,2.951c0.001,0,0.001,0,0.002,0
	c7.764,0,13.527-1.158,18.158-2.09c4.908-0.985,8.93-1.676,12.844-0.852c0.875,0.188,1.787-0.016,2.503-0.552
	s1.166-1.356,1.234-2.247c0.044-0.564,0.313-5.095-1.821-8.471c6.479-3.326,16.793-10.51,22.5-24.302
	c7.881-19.041,16.256-29.284,21.033-32.271c1.173-0.733,1.721-2.156,1.339-3.491c-0.383-1.33-1.6-2.246-2.985-2.246h-3.442
	c10.948-9.629,34.704-28.895,49.493-28.895c0.324,0,0.642,0.01,0.955,0.031c0.069,0.002,0.136,0.006,0.204,0.006
	c0.009,0,0.03,0.002,0.026,0c1.717,0,3.106-1.393,3.106-3.105c0-1.589-1.192-2.898-2.731-3.084l-8.805-1.623
	c21.131-4.814,55.44-16.184,63.279-40.189C827.104,667.605,826.604,666.164,825.455,665.389z M494.313,841.392
	c-13.182,20.663-46.215,34.013-84.152,34.013c-31.681,0-58.091-9.299-67.282-23.684c-14.371-22.496-29.081-25.443-39.819-27.596
	c-1.852-0.371-3.589-0.72-5.196-1.138l1.801-1.214c0.981-0.657,1.503-1.816,1.345-2.99c-0.156-1.17-0.966-2.149-2.087-2.528
	c-7.586-2.554-14.942-7.169-19.153-10.077c3.044-2.705,6.726-7.287,11.011-13.716c0.652-0.976,0.696-2.238,0.115-3.257
	c-0.58-1.021-1.702-1.641-2.857-1.568c-15.138,0.752-30.55-8.781-39.598-15.652c8.976,0.143,15.245-3.058,17.202-8.592
	c3.278-9.264-5.993-22.808-27.559-40.254c-20.859-16.878-29.916-31.034-33.67-41.251c7.149,9.404,18.44,14.407,33.118,14.405
	c11.014,0,19.909-2.797,20.282-2.914c0.912-0.291,1.637-0.983,1.969-1.881c0.332-0.895,0.235-1.893-0.268-2.705
	c-0.358-0.586-0.607-1.177-0.774-1.762c3.982,4.242,7.895,5.304,10.814,5.304c2.546,0,4.375-0.804,5.135-1.207
	c13.023-4.866,26.589-7.333,40.322-7.333c37.765,0,65.107,18.717,65.378,18.908c1.167,0.813,2.734,0.728,3.808-0.199
	c1.073-0.929,1.38-2.467,0.746-3.736c-2.139-4.279-3.227-8.752-3.777-12.34c8.844,5.646,21.6,6.82,35.901,8.137
	c26.619,2.443,59.745,5.491,86.203,37.83c13.307,16.27,18.397,29.212,14.716,37.436c-3.994,8.926-17.389,10.723-20.894,11.045
	c-3.448-5.295-7.355-9.929-11.692-13.955c-4.312-8.898-8.825-16.488-13.399-22.969c-3.152-17.982-14.979-33.569-15.502-34.249
	c-0.523-0.683-1.498-0.81-2.178-0.284c-0.679,0.521-0.807,1.494-0.286,2.174c0.108,0.139,8.937,11.775,13.272,26.106
	c-25.51-31.88-51.289-31.456-52.626-31.398c-1.286,0.046-2.29,1.122-2.245,2.407c0.043,1.286,1.144,2.287,2.408,2.248
	c0.341-0.013,33.922-0.54,61.587,48.844c-17.376-11.826-39.582-16.93-63.927-19.729c-17.095-25.304-66.677-33.419-68.793-33.752
	c-1.277-0.207-2.466,0.664-2.666,1.935c-0.199,1.271,0.667,2.465,1.938,2.665c0.474,0.073,45.087,7.363,63.146,28.467
	c-10.927-1.074-22.225-1.775-33.661-2.484c-9.27-0.576-18.607-1.155-27.863-1.953c-16.55-22.974-50.253-28.402-51.7-28.623
	c-1.276-0.197-2.459,0.676-2.653,1.949c-0.197,1.271,0.677,2.459,1.946,2.654c0.319,0.051,29.771,4.775,46.011,23.429
	c-31.724-3.126-62.081-9.407-84.99-27.556c-1.008-0.799-2.473-0.632-3.272,0.379c-0.797,1.01-0.627,2.475,0.379,3.271
	c23.548,18.652,54.2,25.186,86.182,28.421c-11.836,3.214-20.33,8.343-27.946,13.255c-11.925,2.98-21.51-1.944-21.612-1.998
	c-0.758-0.4-1.697-0.113-2.097,0.645c-0.402,0.756-0.115,1.693,0.64,2.096c0.355,0.188,6.451,3.361,15.159,3.361
	c0.524,0,1.062-0.016,1.604-0.04c-7.329,4.618-14.327,8.275-23.796,8.857c-1.282,0.079-2.259,1.187-2.18,2.469
	c0.076,1.234,1.101,2.187,2.322,2.187c0.048,0,0.096-0.004,0.145-0.006c12.496-0.768,21.139-6.383,30.292-12.327
	c11.161-7.251,23.813-15.46,46.722-16.885c5.478,0.385,10.96,0.724,16.421,1.063c4.62,0.285,9.216,0.574,13.771,0.883
	c-13.749,4.191-25.742,12.412-36.336,20.791c-13.96,6.514-31.2,3.697-31.403,3.663c-0.849-0.146-1.647,0.422-1.793,1.269
	c-0.143,0.842,0.424,1.646,1.269,1.791c0.402,0.07,4.394,0.729,10.027,0.729c4.269,0,9.481-0.386,14.792-1.684
	c-0.835,0.688-1.66,1.377-2.476,2.053c-11.437,9.492-21.313,17.689-30.694,19.533c-1.264,0.248-2.085,1.473-1.836,2.734
	c0.219,1.11,1.191,1.881,2.283,1.881c0.149,0,0.301-0.016,0.452-0.046c10.544-2.074,20.843-10.62,32.769-20.519
	c18.253-15.149,38.946-32.319,66.078-30.242c0.01,0,0.019-0.004,0.028,0c5.224,0.561,10.343,1.225,15.343,2.025
	c-8.885,3.215-16.338,9.238-24.579,15.914c-10.679,8.656-22.784,18.466-41.01,23.833c-1.234,0.364-1.939,1.659-1.577,2.894
	c0.301,1.012,1.229,1.67,2.235,1.67c0.217,0,0.438-0.029,0.658-0.096c19.119-5.629,31.607-15.752,42.626-24.683
	c10.961-8.882,20.44-16.554,33.609-17.264c9.85,2.192,19.055,5.149,27.379,9.239c-21.908-0.709-32.903,12.137-44.434,25.641
	c-11.68,13.677-23.759,27.817-48.886,30.695c-1.279,0.145-2.196,1.301-2.05,2.577c0.137,1.188,1.144,2.065,2.311,2.065
	c0.088,0,0.18-0.006,0.267-0.016c17.268-1.977,28.899-9.063,38.113-17.497c-7.155,36.535-35.169,44.896-35.466,44.978
	c-0.824,0.233-1.306,1.092-1.073,1.916c0.192,0.687,0.815,1.133,1.492,1.133c0.139,0,0.278-0.02,0.418-0.059
	c0.327-0.092,32.313-9.531,38.394-51.607c3.607-3.669,6.878-7.478,10.022-11.162c12.956-15.168,24.161-28.275,51.105-22.723
	c3.813,2.611,7.382,5.537,10.649,8.87c-7.892,0.907-12.388,6.435-17.844,13.191c-6.468,8.015-15.328,18.993-34.555,28.56
	c-1.152,0.574-1.621,1.972-1.048,3.123c0.408,0.819,1.229,1.293,2.086,1.293c0.349,0,0.702-0.079,1.036-0.246
	c15.511-7.717,24.539-16.27,30.952-23.607c3.992,16.66-5.403,34.994-5.507,35.189c-0.395,0.76-0.102,1.697,0.658,2.095
	c0.23,0.121,0.477,0.176,0.719,0.176c0.559,0,1.1-0.303,1.377-0.834c0.458-0.879,10.862-21.134,5.193-39.489
	c0.956-1.155,1.855-2.268,2.714-3.332c6.182-7.657,9.927-12.288,18.297-11.523c1.614,1.974,3.142,4.068,4.577,6.289
	c-0.082,0.586-0.018,1.186,0.237,1.737C503.764,807.324,504.021,826.178,494.313,841.392z M539.683,616.99
	c0.094-0.279,0.14-0.543,0.124-0.822c1.414-6.771,2.176-13.974,2.064-21.552c3.541,9.455,8.432,24.081,8.944,34.157
	c0.048,0.838,0.731,1.475,1.552,1.475h0.079c0.854-0.046,1.505-0.777,1.474-1.629c-0.588-11.506-6.396-28.087-10.027-37.467
	c3.041,4.161,6.131,8.445,9.097,12.825c2.593,3.836,5.218,7.532,7.811,11.071c-0.232,0.418-0.356,0.9-0.296,1.414
	c2.02,19.517-1.877,31.426-4.037,36.283C535.134,631.85,539.607,617.223,539.683,616.99z M598.544,650.635
	c-15.107-22.792-24.066-51.282-24.175-51.625c-0.265-0.822-1.134-1.273-1.941-1.024c-0.822,0.249-1.272,1.134-1.023,1.94
	c0.092,0.31,7.39,23.508,19.967,45.027c-9.658-10.542-22.296-25.525-34.531-43.584c-3.322-4.922-6.801-9.703-10.17-14.313
	c-17.279-23.727-32.667-44.888-20.883-75.677c0.777,12.482,4.24,28.849,14.332,47.058c0.279,0.514,0.822,0.793,1.365,0.793
	c0.249,0,0.512-0.062,0.746-0.186c0.745-0.418,1.024-1.367,0.605-2.111c-11.692-21.084-14.161-39.84-14.005-52.494
	c2.576-5.231,5.93-10.744,10.154-16.582c0.077-0.016,0.155-0.049,0.233-0.064c2.7,21.691,10.852,69.699,32.387,101.14
	c0.295,0.435,0.792,0.668,1.274,0.668c0.309,0,0.622-0.095,0.886-0.265c0.697-0.497,0.883-1.459,0.402-2.174
	c-21.132-30.834-29.176-78.126-31.861-99.6c7.563,0.543,13.928,9.034,16.753,13.492c0.279,0.418,0.622,0.606,0.979,0.651
	c9.284,16.846,18.928,39.856,17.157,60.507c-0.062,0.854,0.56,1.6,1.412,1.675h0.14c0.792,0,1.476-0.604,1.554-1.41
	c1.973-23.074-9.347-48.319-19.345-65.678c-0.373-2.096-0.606-3.991-0.731-5.698c25.261,23.987,30.214,43.381,30.354,64.355v0.125
	c0.033,6.195-0.34,12.545-0.744,19.174C588.561,595.983,587.162,619.707,598.544,650.635z M366.208,355.167
	c0-71.033,57.587-128.605,128.604-128.605c71.034,0,128.62,57.572,128.62,128.605c0,71.034-57.586,128.62-128.62,128.62
	C423.794,483.787,366.208,426.201,366.208,355.167z M373.644,430.858c-12.483,11.335-25.246,15.014-41.781,19.393
	c8.817-5.464,16.939-12.591,23.896-21.021C363.101,427.583,368.971,428.514,373.644,430.858z M613.465,425.549
	c3.479,4.021,8.073,9.146,14.036,14.346c-8.492-2.204-14.875-2.265-19.237-1.723C609.118,433.421,611.043,429.215,613.465,425.549z
	 M621.074,628.495c-3.853-8.977-7.982-13.616-13.292-19.61c-3.959-4.455-8.445-9.518-14.066-17.732
	c0.14-5.573,0.466-10.914,0.776-16.114c0.14-2.501,0.293-4.985,0.418-7.438c5.123,10.404,14.563,30.431,17.111,41.984
	c0.154,0.729,0.807,1.21,1.521,1.21c0.108,0,0.218-0.015,0.324-0.03c0.84-0.188,1.367-1.01,1.182-1.85
	c-2.903-13.164-14.021-36.1-18.693-45.414c4.875,5.498,10.449,10.295,16.41,14.893C623.773,598.668,622.766,618.264,621.074,628.495
	z M670.027,615.811c-3.788-10.356-9.767-21.504-10.774-23.369c-0.403-0.746-1.352-1.025-2.113-0.621
	c-0.743,0.421-1.024,1.352-0.619,2.113c3.12,5.729,9.734,19.064,12.403,28.521c-12.342-17.949-28.055-29.331-42.107-39.468
	c-12.095-8.74-23.506-17-31.596-28.305c-0.295-22.141-6.023-43.565-34.747-69.697c1.816-10.2,10.992-8.508,16.831-6.662
	c4.58,16.598,18.025,59.887,38.83,82.041c0.312,0.328,0.714,0.482,1.134,0.482c0.389,0,0.762-0.139,1.071-0.418
	c0.622-0.592,0.651-1.568,0.062-2.189c-19.484-20.745-32.728-61.921-37.667-79.264c0.901-0.248,1.631-0.916,1.927-1.941
	c1.195-3.99,2.593-7.22,4.129-9.857c0.496,1.895,0.979,3.727,1.444,5.479c7.25,27.747,10.652,40.681,48.489,61.438
	C664.391,565.893,669.639,597.876,670.027,615.811z M697.292,545.584c-5.016-17.607-15.263-36.611-15.852-37.697
	c-0.403-0.746-1.337-1.025-2.098-0.621c-0.759,0.402-1.04,1.349-0.62,2.11c0.17,0.327,16.116,29.873,18.01,48.878
	c-0.063,0.73-0.14,1.428-0.217,2.064c-6.475-9.285-16.521-12.854-27.854-16.895c-5.714-2.016-11.63-4.111-17.669-7.141
	c-4.238-2.127-8.119-4.146-11.676-6.087c-0.031-0.015-0.062-0.03-0.094-0.045c-36.315-19.796-39.391-31.489-46.485-58.676
	c-0.761-2.872-1.552-5.913-2.438-9.144c1.367-1.461,2.765-2.576,4.178-3.432c1.676,2.563,3.415,5.729,5.373,9.27
	c9.378,17.045,23.553,42.789,59.123,57.587c0.187,0.076,0.387,0.109,0.591,0.109c0.604,0,1.18-0.358,1.429-0.949
	c0.341-0.792-0.048-1.707-0.84-2.032c-34.545-14.361-48.41-39.546-57.586-56.207c-1.896-3.444-3.603-6.535-5.266-9.128
	c1.228-0.437,2.438-0.716,3.588-0.854c0.093,0.125,0.155,0.248,0.279,0.343c1.832,1.504,4.285,3.444,7.204,5.743
	c19.828,15.696,61.08,48.365,74.076,75.801c0.264,0.558,0.823,0.885,1.397,0.885c0.234,0,0.45-0.049,0.668-0.154
	c0.776-0.358,1.103-1.289,0.746-2.065c-13.307-28.09-54.949-61.05-74.963-76.889c-1.661-1.319-3.152-2.499-4.471-3.554
	c0.9,0.139,1.724,0.34,2.438,0.543c1.646,0.481,2.313-0.155,1.739-1.771c-0.388-1.07-0.699-2.126-0.995-3.166
	c12.252,3.306,34.889,13.01,58.146,41.424c0.312,0.373,0.762,0.573,1.196,0.573c0.357,0,0.698-0.121,0.993-0.354
	c0.668-0.543,0.762-1.522,0.217-2.189c-25.011-30.557-49-40.012-61.313-42.947c-0.342-2.08-0.481-4.084-0.435-6.01
	c5.418-0.9,15.854-0.852,32.031,6.289c4.952,3.185,10.542,6.15,16.83,8.634C690.74,486.414,697.137,522.916,697.292,545.584z
	 M710.676,471.755c16.441,15.604,25.959,24.626,28.461,46.767c-8.23-5.141-28.135-17.143-50.028-27.498
	c-4.315-8.492-9.981-17.031-17.403-25.197c10.604,5.201,27.17,14.392,35.167,24.469c0.293,0.389,0.761,0.588,1.211,0.588
	c0.341,0,0.683-0.108,0.962-0.339c0.669-0.528,0.793-1.507,0.248-2.175c-8.727-11.008-26.534-20.711-37.293-25.882
	c7.234,1.583,15.2,2.514,23.941,2.514c2.421,0,4.907-0.075,7.437-0.233C705.924,467.254,708.362,469.564,710.676,471.755z
	 M787.997,443.079c4.099,2.065,8.477,4.285,11.707,6.071c-25.712-7.733-56.796-23.602-57.122-23.771
	c-0.761-0.404-1.691-0.094-2.096,0.666c-0.389,0.762-0.094,1.693,0.683,2.096c0.265,0.141,21.24,10.838,43.101,19.02
	c-9.642-1.473-20.074-2.438-29.731,1.214c-85.302,32.184-123.28-9.255-138.216-26.659c1.179-1.428,2.438-2.75,3.711-3.96
	c7.234,8.042,24.251,22.966,51.377,24.005h0.063c0.821,0,1.521-0.652,1.552-1.492c0.03-0.854-0.637-1.582-1.49-1.613
	c-26.068-0.994-42.372-15.371-49.219-22.979c2.188-1.88,4.331-3.415,6.178-4.643c8.06,2.532,15.9,6.538,24.099,10.744
	c16.318,8.369,34.795,17.87,61.981,19.983h0.124c0.807,0,1.475-0.621,1.537-1.428c0.078-0.855-0.56-1.602-1.428-1.678
	c-26.552-2.064-44.748-11.398-60.787-19.641c-7.499-3.852-14.719-7.529-22.141-10.123c1.148-0.918,1.396-2.423,0.559-3.727
	c-0.869-1.305-1.553-2.547-2.11-3.727c12.374-0.746,49.638-0.311,91.218,25.912c0.264,0.174,0.542,0.249,0.821,0.249
	c0.528,0,1.025-0.265,1.321-0.731c0.45-0.728,0.248-1.692-0.482-2.141c-40.927-25.807-77.85-27.077-91.793-26.459
	c21.598-8.041,47.698-4.922,62.435-2.031c25.959,5.107,46.516,14.904,53.424,21.937C755.623,426.697,773.573,435.78,787.997,443.079
	z M773.029,408.951c2.577,2.593,5.217,5.265,8.183,7.857c-6.536,1.678-20.107,3.758-32.093-3.26
	c-4.689-4.1-12.655-8.51-22.575-12.484c8.29-0.234,21.488,0.791,33.118,7.947c0.264,0.158,0.541,0.234,0.807,0.234
	c0.528,0,1.039-0.264,1.335-0.744c0.45-0.73,0.218-1.694-0.513-2.143c-11.66-7.173-24.531-8.555-33.257-8.479
	c3.446-1.489,7.872-3.648,13.896-7.56c0.125-0.079,0.265-0.141,0.373-0.219C757.317,393.207,764.614,400.506,773.029,408.951z
	 M748.591,378.72c-13.072-0.293-25.837-1.892-26.021-1.925c-0.824-0.091-1.632,0.497-1.74,1.353
	c-0.109,0.854,0.496,1.631,1.352,1.737c0.76,0.094,14.113,1.771,27.59,1.975c-3.028,0.9-6.118,2.08-8.912,3.678
	c-0.125,0.064-0.249,0.125-0.357,0.219c-0.373,0.215-0.762,0.418-1.119,0.652c-7.358,4.797-12.266,6.848-15.852,8.336
	c-2.345,0.965-4.27,1.802-6.009,3.012c-26.628-8.864-62.616-13.707-89.06-3.32c-0.107-4.564,2.36-7.779,5.481-10.018
	c14.905-4.519,32.606-8.77,65.49-2.42c0.839,0.155,1.646-0.387,1.816-1.242c0.155-0.838-0.389-1.647-1.227-1.817
	c-26.083-5.031-42.838-3.523-56.144-0.434c-0.14-0.173-0.326-0.343-0.558-0.527c-5.266-3.96-7.469-7.813-7.966-11.29
	c8.601-0.358,22.219,0.03,32.108,4.891c0.217,0.109,0.466,0.155,0.683,0.155c0.575,0,1.135-0.31,1.397-0.853
	c0.373-0.776,0.063-1.71-0.714-2.08c-10.543-5.188-24.578-5.622-33.491-5.249c0.528-3.976,3.076-7.235,5.017-9.191
	c0.186-0.185,0.34-0.403,0.48-0.622c14.377,6.568,28.135,9.874,41.191,9.874c9.114,0,17.855-1.613,26.238-4.813
	c9.627,1.865,13.028,4.752,16.939,8.091C729.696,370.742,734.71,375.012,748.591,378.72z M783.588,343.259
	c7.965,3.571,15.618,7.017,23.506,7.763c-14.717,7.688-45.492,20.9-74.806,15.59c-1.537-1.104-2.826-2.189-4.052-3.263
	c-2.578-2.187-5.063-4.315-9.053-6.102c11.537-3.196,37.823-9.161,54.576-2.966c0.807,0.297,1.691-0.105,1.987-0.916
	c0.31-0.807-0.109-1.691-0.917-1.986c-18.025-6.678-45.445-0.278-56.998,2.997c10.715-5.838,19.61-13.68,27.064-21.41
	C760.314,332.842,772.673,338.352,783.588,343.259z M760.174,281.789c4.643,1.631,8.074,2.763,10.744,3.524
	c-18.134,3.309-49.778,2.329-50.166,2.313h-0.046c-0.839,0-1.522,0.667-1.553,1.507c-0.031,0.853,0.652,1.568,1.506,1.599
	c0.59,0.015,5.139,0.154,11.582,0.154c13.538,0,35.415-0.62,46.347-4.3c1.475-0.045,2.748-0.357,4.301-0.776
	c1.444-0.388,3.23-0.854,5.994-1.227c-18.601,10.341-51.983,16.412-52.339,16.474c-0.855,0.14-1.414,0.946-1.259,1.802
	c0.139,0.744,0.791,1.273,1.521,1.273c0.093,0,0.186,0,0.279-0.017c1.289-0.231,26.332-4.782,45.337-12.949
	c-5.045,4.021-11.442,8.68-16.489,12.359c-3.664,2.671-7.685,7.345-12.779,13.243c-19.902,23.135-53.067,61.611-114.878,30.589
	c-0.403-0.576-0.776-1.149-1.118-1.708c8.369,1.972,23.227,4.828,38.863,4.828c11.971,0,24.391-1.677,34.685-6.723
	c0.776-0.373,1.088-1.304,0.715-2.081c-0.373-0.761-1.304-1.085-2.08-0.697c-23.942,11.721-61.269,4.128-73.876,1.041
	c-0.186-0.547-0.355-1.074-0.479-1.602c0.513,0.015,1.04,0.03,1.63,0.03c12.685,0,43.847-3.136,84.913-29.019
	c0.729-0.449,0.946-1.413,0.497-2.142c-0.465-0.715-1.429-0.933-2.143-0.48c-42.62,26.843-74.9,28.692-85.365,28.459
	c-0.077-1.413,0.048-2.765,0.328-4.036c6.613-6.195,42.511-38.181,69.977-31.24c0.822,0.218,1.677-0.294,1.894-1.118
	c0.203-0.838-0.294-1.676-1.132-1.894c-24.563-6.226-54.156,15.744-67.262,26.953c0.776-0.961,1.585-1.769,2.345-2.404
	c0.466-0.373,0.917-1.089,1.227-1.835C679.686,280.92,719.447,267.505,760.174,281.789z M737.38,237.385
	c16.956,2.872,20.916,0.837,26.986-3.339c0.915-0.622,1.894-1.289,3.011-1.988c-3.274,8.433-19.096,32.932-35.289,39.003
	c-0.326,0.124-0.607,0.312-0.839,0.558c-31.876-0.898-62.898,14.72-92.616,46.722c-1.365-0.233-2.482-0.591-3.368-1.04
	c0.56-0.716,1.133-1.432,1.677-2.129c17.42-22.095,31.177-39.53,63.238-43.286c0.854-0.11,1.459-0.87,1.367-1.725
	c-0.109-0.854-0.855-1.459-1.724-1.366c-33.335,3.898-47.449,21.799-65.32,44.467c-0.513,0.637-1.056,1.321-1.567,1.973
	c-2.329-3.773,1.102-9.828,2.995-13.974c0.124-0.28,0.187-0.529,0.22-0.793c4.006-5.076,6.412-10.075,8.584-14.626
	c5.342-11.208,9.967-20.866,36.084-26.331c0.838-0.171,1.383-1.01,1.195-1.849c-0.171-0.838-0.993-1.366-1.832-1.196
	c-27.622,5.777-32.792,16.583-38.257,28.026c-2.095,4.395-4.254,8.882-7.733,13.432c-6.148-1.353-10.045-3.728-12.436-6.599
	c2.842-6.414,9.596-18.184,23.274-26.35c0.744-0.434,0.978-1.398,0.542-2.127c-0.433-0.745-1.396-0.979-2.127-0.545
	c-13.242,7.904-20.261,18.788-23.661,25.807c-2.873-6.568-0.187-14.44,1.784-18.726C639.115,253.345,679.234,225.507,737.38,237.385
	z M749.756,178.29c1.396-0.233,2.282-0.294,2.842-0.278c-1.351,2.638-7.251,8.664-12.516,14.066
	c-9.858,10.108-23.242,23.833-30.99,37.792c-8.881,0.03-17.234,0.946-25.045,2.499c5.574-9.082,22.25-32.263,53.318-44.313
	c0.809-0.311,1.212-1.211,0.9-2.003c-0.326-0.807-1.227-1.21-2.018-0.886c-35.184,13.633-52.494,41.285-56.315,48.071
	c-30.321,7.063-51.795,23.554-62.989,34.095c-7.623,0.218-10.355-4.858-11.334-8.54c35.586-10.556,64.885-30.633,82.273-56.515
	c3.99-2.625,7.188-4.829,9.984-6.755C711.701,185.96,713.827,184.485,749.756,178.29z M709.402,164.411
	c4.239-2.796,7.313-4.814,23.212-6.927c3.354-0.448,5.077-0.418,5.931-0.324c-0.932,1.521-3.586,4.315-5.636,6.459
	c-4.223,4.425-9.409,9.889-12.266,15.682c-7.158,1.831-11.582,3.647-15.976,6.195c5.836-5.078,12.297-11.025,17.187-16.428
	c0.573-0.637,0.528-1.631-0.108-2.204c-0.637-0.576-1.614-0.527-2.189,0.124c-7.344,8.12-18.336,17.497-25.262,23.181
	c3.961-9.007,6.305-15.93,7.702-21.535C705.365,167.049,707.509,165.651,709.402,164.411z M703.564,127.364
	c-6.986,4.922-18.213,14.222-24.454,26.706c-0.388,0.776-0.077,1.707,0.699,2.096c0.217,0.108,0.45,0.154,0.683,0.154
	c0.575,0,1.117-0.31,1.397-0.853c5.667-11.335,15.96-20.108,22.73-24.998c-4.548,9.114-4.782,14.626-5.015,20.805
	c-0.326,8.415-0.746,18.896-12.888,44.189c-16.753,27.729-47.542,49.156-85.348,59.697c-0.419-0.016-0.839-0.045-1.228-0.093
	c13.338-6.009,36.008-18.29,50.678-37.464c0.513-0.685,0.389-1.662-0.294-2.19c-0.685-0.512-1.661-0.388-2.175,0.295
	c-15.727,20.572-41.035,33.04-53.146,38.133c-1.476-0.651-2.654-1.49-3.603-2.453c10-7.623,28.553-23.041,49.033-46.439
	c0.559-0.637,0.496-1.63-0.154-2.189c-0.638-0.558-1.616-0.497-2.189,0.154c-19.58,22.374-37.358,37.358-47.434,45.151
	c2.266-9.347,11.846-44.482,29.111-54.45c0.73-0.435,0.994-1.381,0.559-2.127c-0.434-0.729-1.382-0.995-2.11-0.559
	c-17.126,9.889-26.722,41.314-29.937,53.736c-0.108-0.714-0.171-1.413-0.201-2.111c0.792-2.593,1.615-5.513,2.516-8.742
	c6.846-24.499,17.638-63.036,50.771-86.495c0.42-0.142,0.808-0.406,1.102-0.762C657.825,136.12,677.559,128.84,703.564,127.364z
	 M613.729,134.227c1.801-0.744,15.558-6.8,26.083-18.181c-6.211,11.814-16.52,27.325-32.295,39.592
	c-0.666,0.528-0.791,1.506-0.264,2.175c0.311,0.403,0.762,0.604,1.228,0.604c0.326,0,0.667-0.109,0.946-0.326
	c21.039-16.364,32.637-38.412,37.792-50.383c0.202,10.527-0.948,25.93-8.245,36.006c-34.749,24.778-46.082,65.304-52.664,88.842
	c-0.249,0.884-0.482,1.755-0.716,2.593c-5.062,1.32-8.431,1.18-10.65,0.28c-0.9-13.354-0.373-48.241,27.217-64.776
	c0.73-0.451,0.963-1.398,0.527-2.128c-0.434-0.745-1.396-0.979-2.126-0.544c-27.001,16.194-29.407,48.832-28.863,64.497
	c-0.73-1.46-0.899-3.104-0.855-4.503c0.063-1.707-0.79-2.453-2.373-1.786c-0.28,0.109-0.545,0.219-0.824,0.327
	c0.016-13.445,2.484-33.63,15.355-48.101c0.574-0.652,0.512-1.63-0.125-2.189c-0.636-0.573-1.613-0.513-2.189,0.124
	c-14.034,15.775-16.395,37.388-16.208,51.284c-1.382,0.42-2.672,0.729-3.882,0.931c0.046-2.282,0.078-4.533,0.094-6.753
	C561.08,188.771,561.359,164.875,613.729,134.227z M591.371,71.502c-11.599,10.635-28.149,29.809-32.172,55.303
	c-0.124,0.855,0.451,1.646,1.305,1.786c0.079,0.016,0.156,0.016,0.234,0.016c0.76,0,1.412-0.543,1.536-1.304
	c5.28-33.552,33.119-55.85,40.663-61.345c0.357-0.14,0.652-0.219,0.839-0.265c0.156,1.429-0.559,4.983-1.148,7.889
	c-1.181,5.977-2.812,14.158-2.034,22.435c0.42,4.597,1.149,8.758,1.849,12.778c2.096,12.127,3.601,20.898-4.737,30.059
	c-41.019,28.211-41.314,52.682-41.671,82.911c-0.017,2.329-0.063,4.704-0.109,7.111c-7.702-0.419-10.62-5.917-11.709-9.485
	c-0.433-1.429-1.504-2.16-2.792-1.834c-0.156-14.113,2.607-36.658,18.024-58.116c0.497-0.697,0.343-1.66-0.358-2.173
	c-0.682-0.495-1.66-0.341-2.157,0.356c-16.364,22.777-18.91,46.752-18.584,61.254c-2.516,1.055-4.813,1.737-6.894,2.141
	c-0.404-5.729,0.604-14.687,6.411-27.389c0.358-0.775,0.015-1.691-0.762-2.048c-0.79-0.357-1.707-0.015-2.063,0.761
	c-6.07,13.289-7.128,22.838-6.676,29.096c-6.18,0.405-10.187-1.879-12.655-4.285c32.561-51.796,34.641-81.358,26.646-101.419
	C549.326,98.345,563.112,85.722,591.371,71.502z M541.78,84.699c5.371-7.5,11.396-15.946,9.672-34.034
	c3.292,3.136,8.432,9.299,11.32,16.535c2.421,6.023,2.623,11.239,0.683,15.51c-3.648,2.687-6.893,5.403-9.781,8.199
	c1.475-5.358,2.686-12.64,2.344-21.629c-0.047-0.854-0.776-1.521-1.615-1.491c-0.854,0.03-1.521,0.762-1.49,1.615
	c0.513,13.073-2.516,22.481-4.456,27.109c-3.571,4.27-6.427,8.758-8.725,13.585c-1.554-2.918-3.323-5.636-5.202-8.197
	C534.809,94.511,538.037,89.945,541.78,84.699z M467.982,118.685c0-0.016,0.015-0.031,0.015-0.046
	c3.479-8.851,8.464-16.303,13.37-23.584c7.607-11.32,14.891-22.157,14.75-36.565c0.42,3.309,0.201,6.971-0.047,11.179
	c-0.498,8.244-1.118,18.507,2.92,31.364c0.199,0.667,0.806,1.085,1.474,1.085c0.155,0,0.311-0.015,0.467-0.076
	c0.822-0.248,1.273-1.118,1.008-1.94c-3.85-12.313-3.245-22.265-2.78-30.246c0.22-3.509,0.403-6.738,0.233-9.766
	c0.979,2.421,2.034,5.263,3.167,8.646c2.78,8.34,9.208,15.015,16.022,22.095c9.736,10.107,20.776,21.582,22.686,40.323
	c2.127,20.991-7.359,48.053-28.91,82.569c-0.249-0.14-0.513-0.233-0.777-0.312c2.329-11.94,2.065-20.246,1.848-27.124
	c-0.371-11.799-0.635-19.579,11.629-36.177c0.497-0.698,0.359-1.661-0.324-2.173c-0.7-0.514-1.661-0.357-2.174,0.325
	c-12.903,17.468-12.624,26.131-12.236,38.134c0.234,7.266,0.497,15.37-1.986,27.48c-0.559,0.187-1.087,0.343-1.599,0.497
	c-0.032-7.653-2.05-15.744-4.302-24.718c-4.829-19.206-10.294-40.99,1.477-68.052c0.34-0.792-0.016-1.708-0.792-2.051
	c-0.793-0.341-1.71,0.016-2.05,0.807c-12.205,28.042-6.351,51.332-1.663,70.058c2.285,9.035,4.315,17.14,4.225,24.624
	c-0.653,0.094-1.259,0.171-1.834,0.187c-0.76-5.171-3.136-10.093-6.008-15.978c-5.265-10.79-11.814-24.235-12.576-47.853
	c-0.032-0.854-0.699-1.521-1.6-1.489c-0.854,0.016-1.538,0.744-1.506,1.599c0.776,24.268,7.778,38.629,12.902,49.109
	c2.609,5.356,4.798,9.876,5.605,14.394c-0.436-0.094-0.839-0.218-1.228-0.357c-2.982-8.709-8.477-16.084-14.314-23.817
	c-10.604-14.083-21.567-28.646-19.362-53.954C464.303,130.082,465.856,124.118,467.982,118.685z M423.499,114.68
	c2.672-12.205,5.56-25.432,6.677-38.552c3.385,9.439,7.873,27.481,5.45,52.509c-0.077,0.854,0.542,1.602,1.397,1.692h0.154
	c0.793,0,1.459-0.589,1.539-1.397c3.197-33.008-5.187-53.906-8.106-60.023c0.079-2.89,0.079-5.762-0.076-8.604
	c1.101,1.896,2.204,3.758,3.29,5.544c6.118,10.138,11.895,19.719,13.432,36.238c0.077,0.807,0.746,1.413,1.536,1.413
	c0.046,0,0.093,0,0.155-0.015c0.839-0.079,1.476-0.824,1.398-1.678c-1.368-14.72-5.901-24.065-11.132-32.979
	c10.821,11.815,24.453,30.324,24.314,48.505c-2.206,5.714-3.837,12.018-4.458,19.145c-2.359,27.092,9.674,43.071,20.278,57.151
	c4.3,5.7,8.399,11.195,11.334,17.064c-0.202,0.062-0.403,0.14-0.605,0.264c-9.285,5.357-16.458,3.851-21.411,0.809
	c1.754-11.909-1.117-24.781-1.273-25.511c-0.201-0.824-1.023-1.352-1.863-1.165c-0.837,0.201-1.366,1.025-1.164,1.863
	c0.031,0.17,2.624,11.754,1.428,22.7c-1.521-1.32-2.732-2.686-3.617-3.835c-0.17-0.233-0.342-0.403-0.496-0.544
	c-8.711-16.893-6.552-35.539-6.521-35.758c0.109-0.852-0.497-1.629-1.352-1.738c-0.853-0.094-1.63,0.498-1.738,1.351
	c-0.125,0.994-2.5,21.412,7.888,39.516c-0.186,0.899-0.403,1.723-0.652,2.469c-18.538-21.598-18.677-31.224-18.818-42.264
	c-0.077-5.263-0.14-10.714-2.095-17.809c-0.234-0.823-1.088-1.306-1.909-1.087c-0.825,0.233-1.321,1.087-1.089,1.91
	c1.848,6.708,1.91,11.954,1.987,17.032c0.141,11.334,0.28,22.048,20.45,45.259c-0.809,1.18-1.741,2.004-2.781,2.547
	c-10.123-7.298-18.865-31.331-18.973-31.596c-0.28-0.809-1.165-1.229-1.973-0.933c-0.807,0.281-1.226,1.182-0.946,1.988
	c0.389,1.056,8.042,22.11,18.074,31.361c-1.522-0.045-3.091-0.464-4.583-1.069c-2.126-2.779-4.533-5.217-7.032-7.748
	c-9.967-10.093-21.271-21.534-21.271-62.044C418.344,138.201,420.845,126.774,423.499,114.68z M385.274,92.01
	c-0.731-8.896-1.429-17.295-3.508-24.966c6.317,6.646,8.476,14.797,10.929,24.098c1.94,7.406,4.145,15.79,8.803,24.75
	c0.28,0.527,0.825,0.836,1.382,0.836c0.235,0,0.483-0.061,0.715-0.169c0.761-0.404,1.058-1.336,0.652-2.096
	c-4.502-8.664-6.646-16.862-8.554-24.098c-1.383-5.295-2.686-10.232-4.691-14.782c10.248,11.103,23.957,29.609,27.002,42.389
	c-1.707,7.872-3.229,15.354-3.913,21.906c-1.784-6.427-3.79-9.921-5.372-12.685l-0.528-0.901c-0.418-0.744-1.366-1.01-2.11-0.59
	c-0.745,0.421-1.01,1.366-0.592,2.113l0.543,0.93c1.941,3.37,4.302,7.484,6.182,16.614c-5.62-6.691-12.406-11.784-19.594-15.946
	C387.4,117.629,386.313,104.603,385.274,92.01z M344.983,126.2c3.073,5.915,7.687,13.538,16.458,23.988
	c0.295,0.356,0.745,0.543,1.18,0.543c0.356,0,0.713-0.109,0.994-0.358c0.668-0.542,0.743-1.521,0.201-2.189
	c-11.769-14.019-15.9-22.822-18.926-29.251c-0.357-0.76-0.7-1.505-1.041-2.22c-0.048-0.48-0.108-0.961-0.155-1.443
	c-0.14-1.398-0.28-2.748-0.436-4.052c0.746,1.133,1.461,2.28,2.204,3.462c4.179,6.753,8.929,14.409,21.986,22.76
	c0.264,0.174,0.56,0.249,0.839,0.249c0.513,0,1.025-0.249,1.321-0.713c0.447-0.716,0.248-1.677-0.483-2.144
	c-12.234-7.841-16.645-14.734-20.789-21.409c5.526,3.493,12.374,6.38,19.733,9.5c16.612,7.034,35.432,14.999,45.818,32.87
	c1.677,35.043,12.996,46.658,22.295,56.065c0.018,0.217,0.018,0.403,0.049,0.652c1.257,8.074-0.064,13.866-2.78,18.012
	c-6.118-32.605-34.608-73.486-46.75-86.096c-0.591-0.62-1.583-0.636-2.189-0.045c-0.622,0.606-0.637,1.582-0.046,2.204
	c14.548,15.107,41.642,56.905,46.361,87.087c-3.339,3.185-7.686,4.969-11.955,5.962c0.59-9.549-0.14-30.121-14.3-47.354
	c-3.183-3.867-6.862-7.297-10.979-10.326c-5.774-6.675-9.346-13.104-12.513-18.864c-2.825-5.123-5.263-9.548-8.603-12.746
	c-0.606-0.607-1.598-0.591-2.188,0.029c-0.591,0.622-0.574,1.602,0.047,2.205c2.996,2.873,5.325,7.111,8.01,12.003
	c2.065,3.742,4.443,8.012,7.549,12.5c-5.73-3.138-12.189-5.622-19.315-7.454C351.643,156.601,347.063,140.33,344.983,126.2z
	 M294.614,166.521c6.118,5.589,12.919,12.98,19.239,19.858c4.284,4.643,8.32,9.037,11.953,12.67c0.313,0.295,0.701,0.45,1.104,0.45
	c0.389,0,0.792-0.155,1.087-0.45c0.62-0.605,0.62-1.6,0-2.205c-3.571-3.57-7.593-7.95-11.846-12.577
	c-10.933-11.861-22.173-24.081-30.573-28.304c-1.629-1.784-3.213-3.462-4.688-4.984c15.869,8.431,39.08,22.344,52.869,35.773
	c0.309,0.279,0.697,0.435,1.085,0.435c0.402,0,0.807-0.155,1.118-0.467c0.589-0.62,0.574-1.598-0.031-2.204
	c-10.852-10.558-27.481-21.598-42.915-30.431c3.23,1.489,6.414,2.995,9.456,4.456c13.571,6.457,25.293,12.048,33.088,11.799
	c30.291,0.605,52.292,8.96,65.38,24.859c13.617,16.534,13.773,37.015,13.183,45.259c-1.536,0.186-2.996,0.28-4.334,0.325
	c-0.743-2.159-1.334-4.611-2.001-7.36c-2.841-11.953-6.754-28.335-29.345-44.668c-0.698-0.513-1.662-0.343-2.174,0.341
	c-0.496,0.699-0.341,1.677,0.356,2.173c21.66,15.668,25.418,31.396,28.15,42.886c0.573,2.422,1.117,4.626,1.77,6.659
	c-0.528,0-1.026-0.015-1.459-0.03c-1.708-0.063-2.826,1.119-2.673,2.826c0.157,1.598,0.174,3.012,0.08,4.315
	c-32.575-11.506-57.866-47.712-58.146-48.116c-0.497-0.713-1.461-0.885-2.158-0.404c-0.716,0.498-0.886,1.46-0.403,2.16
	c1.179,1.722,26.534,38.023,60.211,49.498c-0.559,2.142-1.539,3.725-2.795,4.874c-35.183-8.741-47.744-24.981-57.013-36.967
	c-2.111-2.734-4.114-5.327-6.196-7.607c-0.573-0.637-1.567-0.686-2.188-0.109c-0.636,0.573-0.682,1.568-0.109,2.189
	c1.988,2.189,3.961,4.733,6.041,7.421c9.005,11.659,21.054,27.232,52.82,36.502c-3.431,0.155-7.096,0.079-10.899-0.279
	c-0.512-0.154-0.9-0.187-1.194-0.124c-10.063-1.086-21.055-4.037-31.286-9.426c-8.679-4.549-19.348-12.281-25.465-24.546
	c0-0.016-0.014-0.032-0.014-0.047c-1.367-2.732-2.499-5.668-3.324-8.849c-0.947-3.603-2.126-7.176-3.524-10.669
	c0.063-0.713-0.2-1.429-0.775-1.94c-0.016,0-0.016,0-0.016,0C310.592,188.445,302.533,176.429,294.614,166.521z M268.22,188.398
	c1.071,0.481,2.189,0.962,3.354,1.46c9.719,4.16,21.815,9.347,30.338,19.299c0.312,0.356,0.745,0.544,1.182,0.544
	c0.356,0,0.713-0.125,1.009-0.373c0.651-0.56,0.729-1.537,0.171-2.189c-7.888-9.191-18.415-14.439-27.639-18.478
	c12.003,3.385,26.908,8.664,35.556,15.684c1.459,3.585,2.702,7.233,3.664,10.931c0.498,1.861,1.104,3.647,1.771,5.371
	c-3.245-0.698-7.002-1.305-11.178-1.862C296.587,216.097,281.432,201.596,268.22,188.398z M269.851,255.534
	c-1.91-5.435-5.249-10.79-9.348-15.884c7.019,3.851,15.713,7.438,25.82,8.603h0.187c0.776,0,1.444-0.576,1.536-1.383
	c0.094-0.838-0.511-1.614-1.365-1.707c-14.316-1.631-25.789-8.479-33.49-13.616c-5.513-5.527-11.598-10.543-17.266-14.798
	c4.114,1.196,8.88,2.345,13.989,3.571c15.697,3.773,33.489,8.058,40.833,16.132c0.313,0.326,0.731,0.498,1.15,0.498
	c0.371,0,0.744-0.125,1.039-0.405c0.637-0.573,0.684-1.553,0.109-2.189c-7.979-8.771-26.271-13.165-42.403-17.047
	c-2.529-0.605-5.015-1.212-7.405-1.817c13.988,2.562,29.003,4.162,42.218,5.56c14.438,1.537,26.983,2.873,34.577,4.969
	c6.706,12.778,17.871,20.866,26.968,25.648c10.418,5.466,22.652,8.882,34.268,10c3.819,11.552-3.369,17.994-10.899,21.488
	c-13.027-19.315-39.407-34.439-52.495-41.953c-1.583-0.916-2.966-1.708-4.067-2.359c-0.73-0.434-1.693-0.187-2.129,0.542
	c-0.433,0.747-0.184,1.692,0.544,2.129c1.119,0.667,2.5,1.459,4.101,2.375c12.777,7.329,38.379,22.031,51.111,40.493
	c-2.811,1.04-5.464,1.691-7.391,2.095c-0.233,0.047-0.449,0.125-0.636,0.219c-21.209-20.931-54.28-33.258-55.771-33.8
	c-0.808-0.298-1.707,0.122-2.003,0.931c-0.296,0.791,0.124,1.692,0.933,1.985c0.355,0.14,35.568,13.245,56.219,34.687
	c1.616,3.323,2.797,6.335,3.573,9.052c-24.999-2.732-67.185-36.393-67.649-36.766c-0.667-0.543-1.647-0.434-2.175,0.233
	c-0.542,0.667-0.433,1.645,0.233,2.189c1.971,1.568,44.391,35.415,70.351,37.512c0.092,0.513,0.186,1.025,0.265,1.504
	C320.249,305.298,278.435,279.911,269.851,255.534z M215.276,270.379c0.542-0.095,1.055-0.219,1.598-0.313
	c10.698-0.2,32.854,0.809,47.155,11.336c0.263,0.201,0.588,0.31,0.915,0.31c0.466,0,0.946-0.232,1.241-0.636
	c0.514-0.699,0.372-1.661-0.324-2.173c-10.45-7.702-24.502-10.589-35.865-11.554c13.941-2.7,27.371-3.353,47.883,9.131
	c0.216,0.125,0.433,0.202,0.651,0.249c17.685,17.933,48.954,32.218,81.962,32.218c1.026,0,2.05-0.033,3.091-0.064
	c-0.155,2.642-0.792,4.861-1.77,6.74c-18.632,3.555-34.002-4.441-34.173-4.519c-0.762-0.403-1.71-0.124-2.097,0.637
	c-0.404,0.76-0.125,1.692,0.636,2.097c0.606,0.324,11.196,5.854,25.697,5.854c2.329,0,4.751-0.155,7.267-0.482
	c-3.168,3.139-7.469,4.782-11.195,5.606c-1.195,0.23-2.392,0.434-3.57,0.618c-0.436,0.049-0.84,0.095-1.229,0.14
	c-0.339,0.034-0.603,0.095-0.821,0.158c-23.568,3.042-45.989-3.309-60.335-12.423c-0.108-0.107-0.249-0.187-0.388-0.264
	c-5.467-3.54-9.736-7.467-12.376-11.443C260.162,288.016,230.538,275.905,215.276,270.379z M185.821,313.867
	c10.899,5.107,25.867,7.934,44.67,8.37c0.016,0,0.031,0,0.031,0c0.854,0,1.538-0.667,1.554-1.507
	c0.03-0.871-0.652-1.568-1.508-1.599c-20.463-0.482-36.16-3.774-46.796-9.798c8.99,0.388,17.032-0.279,24.842-0.932
	c18.524-1.552,37.684-3.153,71.126,8.88c0.032,0.018,0.079,0.033,0.109,0.033c12.699,7.918,30.959,13.801,50.754,13.801
	c5.002,0,10.093-0.389,15.218-1.21c4.859,3.96,6.925,7.111,7.405,9.579c-17.358-5.683-44.125-7.235-45.507-7.313
	c-0.868-0.046-1.6,0.606-1.646,1.477c-0.047,0.853,0.62,1.583,1.474,1.628c0.327,0.019,28.444,1.647,45.385,7.394
	c-0.714,1.707-2.283,2.887-3.712,3.648c-0.464,0.264-0.853,0.588-1.149,0.961c-14.517-4.36-44.933-10.665-72.272-7.281
	c-0.064,0-0.14-0.015-0.22,0C221.299,345.463,195.912,325.652,185.821,313.867z M356.705,390.629
	c-7.841-1.582-15.82-1.847-24.051-0.791c4.255-2.639,8.648-5.649,13.167-9.098C351.085,383.348,354.547,386.781,356.705,390.629z
	 M234.093,378.147c5.108-0.419,12.529-0.746,22.776-0.637h0.016c0.854,0,1.538-0.683,1.554-1.522
	c0.016-0.867-0.668-1.568-1.536-1.583c-17.251-0.203-26.584,0.87-30.541,1.492c-13.353-3.215-31.302-4.892-42.03-5.668
	c1.194-0.219,2.406-0.452,3.663-0.686c11.008-2.156,24.703-4.828,40.976-1.413c0.854,0.173,1.661-0.354,1.847-1.21
	c0.171-0.837-0.374-1.662-1.21-1.832c-16.723-3.508-30.649-0.854-41.876,1.334c8.027-3.708,17.607-5.23,28.166-6.907
	c11.953-1.896,25.51-4.055,39.731-9.798c6.163-2.483,12.824-4.082,19.672-5.017c0.249-0.029,0.498-0.045,0.745-0.075
	c0.141-0.016,0.279-0.049,0.419-0.079c23.832-3.011,49.779,1.847,64.729,5.747c-39.652-6.848-86.232,7.296-86.744,7.466
	c-0.823,0.249-1.273,1.119-1.024,1.94c0.201,0.667,0.821,1.089,1.474,1.089c0.156,0,0.312-0.015,0.467-0.063
	c0.559-0.17,53.83-16.363,94.151-5.435c0.405,1.305,0.714,2.532,0.915,3.696c-40.647-5.513-78.672,9.113-79.092,9.268
	c-0.792,0.313-1.179,1.213-0.868,2.021c0.233,0.605,0.823,0.979,1.444,0.979c0.186,0,0.373-0.033,0.559-0.108
	c0.403-0.158,38.211-14.689,78.346-8.977c0.156,2.469-0.122,4.598-0.666,6.414c-27.934,14.192-80.801,14.61-81.375,14.61
	c-0.854,0.016-1.536,0.713-1.536,1.568c0,0.854,0.698,1.537,1.554,1.537c1.115,0,13.6-0.094,29.436-1.786
	c15.837-1.708,35.043-5.001,49.575-11.381c-0.075,0.108-0.169,0.233-0.265,0.342c-53.053,42.808-85.828,25.54-106.059,8.462
	C239.792,380.521,237.246,379.267,234.093,378.147z M210.602,410.226c2.065-0.438,4.472-1.025,7.173-1.692
	c8.182-2.005,18.352-4.504,25.742-4.24c0.84,0.062,1.568-0.651,1.602-1.507c0.029-0.852-0.637-1.567-1.492-1.598
	c-7.825-0.279-18.229,2.283-26.597,4.331c-3.106,0.76-5.93,1.445-8.152,1.879c15.231-12.218,33.738-15.059,37.809-15.557
	c6.116,4.285,13.103,8.121,21.068,10.557c-6.442-0.016-12.7-0.201-12.81-0.201c-0.884-0.015-1.567,0.638-1.6,1.49
	c-0.015,0.87,0.651,1.586,1.507,1.616c0.388,0,5.993,0.169,12.033,0.2c-4.658,1.446-9.674,3.199-14.889,5.279
	C235.893,415.799,219.623,412.772,210.602,410.226z M200.246,452.256c9.177-5.155,29.019-15.326,44.84-16.352
	c0.854-0.045,1.507-0.791,1.444-1.644c-0.048-0.855-0.792-1.478-1.646-1.446c-14.223,0.918-31.053,8.633-41.487,14.162
	c14.006-14.486,32.481-24.733,49.142-31.505c0.311-0.092,0.606-0.171,0.916-0.265c0.278-0.09,0.526-0.23,0.745-0.402
	c14.641-5.793,27.638-8.865,34.687-9.75c7.996-0.373,16.721-2.234,26.27-6.164c15.433-5.48,29.827-6.476,43.692-2.997
	c0.076,0.279,0.171,0.543,0.232,0.821c-19.47,0.514-40.152,7.205-57.169,12.719c-11.271,3.648-20.992,6.799-28.646,7.794
	c-0.854,0.108-1.459,0.886-1.35,1.737c0.108,0.776,0.777,1.353,1.538,1.353c0.075,0,0.14,0,0.2-0.016
	c7.951-1.04,17.81-4.224,29.205-7.917c17.841-5.777,37.777-12.221,56.749-12.564c0.172,1.413,0.248,2.859,0.231,4.288
	c-12.45,1.195-26.783,9.95-27.51,10.401c-0.731,0.449-0.965,1.414-0.513,2.145c0.294,0.479,0.807,0.728,1.319,0.728
	c0.278,0,0.558-0.061,0.821-0.218c0.172-0.107,14.099-8.615,25.698-9.92c-0.389,4.16-1.414,8.182-2.578,11.676
	c-31.521,22.87-78.673,22.125-79.184,22.109c-0.808-0.03-1.569,0.652-1.584,1.522c-0.017,0.852,0.667,1.552,1.521,1.583h0.775
	c5.963,0,44.592-0.731,74.23-18.678c-24.81,30.819-60.149,37.572-75.457,27.898c-2.391-1.521-5.528-2.637-9.16-3.462
	c-0.249-0.091-0.481-0.14-0.73-0.155C248.144,445.688,215.213,449.927,200.246,452.256z M227.835,486.38
	c7.405-2.358,22.887-7.963,31.799-16.005c0.637-0.576,0.683-1.553,0.109-2.189c-0.576-0.637-1.553-0.683-2.189-0.109
	c-7.92,7.142-21.847,12.421-29.425,14.92c6.336-8.137,16.057-13.522,24.843-18.354c6.227-3.43,11.661-6.44,15.202-10.043
	c2.652,0.683,4.952,1.568,6.723,2.688c2.948,1.861,6.411,3.18,10.232,3.973c-9.038,2.095-16.582,3.881-16.691,3.896
	c-0.839,0.202-1.352,1.039-1.149,1.879c0.17,0.713,0.807,1.195,1.508,1.195c0.106,0,0.23-0.016,0.355-0.045
	c0.14-0.03,11.846-2.797,23.568-5.498c-0.683,0.279-1.335,0.527-2.003,0.809c-6.847,2.873-12.948,6.814-18.397,11.428
	C254.867,488.136,236.313,487.578,227.835,486.38z M268.065,535.383c-6.6,0.885-13.011,1.756-18.926,2.731
	c4.519-3.354,13.71-8.539,32.046-14.595c0.823-0.279,1.257-1.146,0.993-1.972c-0.279-0.807-1.149-1.255-1.971-0.976
	c-25.854,8.539-34.253,15.462-36.923,18.582c-1.521,0.313-3.013,0.606-4.44,0.935c0.327-1.089,0.73-2.408,1.21-3.866
	c3.727-6.927,11.927-17.92,29.594-29.41c0.716-0.463,0.916-1.428,0.451-2.155c-0.467-0.716-1.428-0.916-2.158-0.452
	c-11.009,7.175-18.478,14.162-23.538,20.199c6.086-14.811,16.705-34.81,33.32-47.834c0.03-0.033,0.062-0.049,0.091-0.079
	c4.458-3.478,9.349-6.46,14.69-8.694c14.919-6.259,27.559-9.595,38.706-12.545c17.452-4.628,31.689-8.4,45.538-20.916
	c-10.649,21.459-32.294,25.386-32.527,25.42c-0.839,0.139-1.411,0.945-1.271,1.782c0.124,0.761,0.791,1.307,1.521,1.307
	c0.093,0,0.187-0.019,0.264-0.033c0.265-0.03,23.755-4.255,35.026-27.589c1.197,1.164,2.283,2.422,3.262,3.741
	c-5.31,9.874-19.269,31.689-45.243,45.803c-0.746,0.403-1.025,1.351-0.621,2.11c0.279,0.514,0.82,0.811,1.365,0.811
	c0.249,0,0.513-0.064,0.745-0.188c25.403-13.804,39.67-34.855,45.694-45.647c0.389,0.651,0.76,1.303,1.119,1.955
	c-0.793,1.025-1.584,2.05-2.345,3.045c-10.279,13.397-17.716,23.071-30.541,52.836C342.11,525.43,301.043,530.958,268.065,535.383z
	 M303.962,576.373c9.672-8.137,23.6-21.893,33.941-40.633c0.417-0.746,0.14-1.692-0.607-2.111c-0.761-0.422-1.691-0.139-2.11,0.604
	c-13.819,25.016-34.143,40.976-41.457,46.176c-3.803,1.429-7.764,2.812-11.892,4.195c0.155-0.762,0.311-1.493,0.465-2.225
	c4.208-9.143,15.324-29.311,35.385-39.512c0.762-0.404,1.072-1.336,0.684-2.096c-0.388-0.762-1.336-1.07-2.096-0.683
	c-14.082,7.171-23.817,18.737-30.029,28.49c2.282-6.011,4.907-10.42,7.872-15.388c2.965-5,6.319-10.652,10.016-18.943
	c23.631-5.137,45.243-13.926,53.347-32.711c12.593-29.236,19.875-38.726,29.951-51.844c0.28-0.373,0.575-0.746,0.854-1.119
	c1.196,2.966,1.957,5.668,2.424,7.608c0.326,1.367,1.334,2.005,2.577,1.896c-2.577,3.957-6.941,9.688-13.245,14.75
	c-0.668,0.543-0.776,1.52-0.248,2.189c0.311,0.389,0.762,0.588,1.212,0.588c0.341,0,0.697-0.124,0.978-0.34
	c7.949-6.383,12.902-13.648,15.263-17.639c3.152,0.807,2.948,5.837,2.437,9.19c-0.17,1.134,0.219,1.896,0.965,2.189
	c-4.752,6.413-9.146,8.618-13.447,10.759c-8.197,4.086-15.945,7.951-23.398,35.463c-1.909,7.051-3.742,13.091-5.543,18.337
	C344.253,554.541,327.329,566.529,303.962,576.373z M345.014,575.005c9.191-8.521,21.83-22.62,31.75-42.558
	c0.389-0.758,0.079-1.693-0.697-2.08c-0.761-0.389-1.691-0.076-2.08,0.699c-11.041,22.172-25.479,36.937-34.47,44.699
	c0.124-0.154,0.264-0.309,0.388-0.464c9.783-11.414,18.228-21.272,28.399-58.86c6.893-25.494,13.429-28.739,20.975-32.496
	c5.28-2.642,11.148-5.559,17.421-15.56c1.567-0.092,3.044-0.03,4.394,0.157c-8.228,6.908-20.789,19.951-27.822,39.559
	c-0.296,0.811,0.122,1.692,0.931,1.99c0.187,0.061,0.356,0.091,0.529,0.091c0.636,0,1.239-0.403,1.458-1.025
	c7.251-20.215,20.914-33.397,28.694-39.638c3.181,1.209,5.604,3.229,7.468,5.543c-1.879,6.769-6.507,18.289-17.731,29.346
	c-0.605,0.588-0.622,1.584-0.017,2.189c0.296,0.31,0.701,0.464,1.104,0.464c0.402,0,0.79-0.154,1.085-0.448
	c10.479-10.296,15.448-20.9,17.809-28.166c1.539,2.811,2.439,5.668,2.935,7.717c0.202,0.902,0.715,1.523,1.381,1.803
	c-2.965,12.809-10.464,20.896-19.935,31.112c-5.264,5.668-11.209,12.097-17.109,20.2
	C380.305,555.193,359.593,567.648,345.014,575.005z M379.809,596.76c-8.432,23.66-28.15,37.558-35.695,42.167
	c1.209-5.573,5.667-17.807,22.016-38.488c0.528-0.683,0.419-1.662-0.264-2.189c-0.668-0.528-1.647-0.419-2.174,0.264
	c-11.038,13.958-16.815,24.284-19.843,31.44c2.578-26.736,25.884-61.871,28.6-65.877c8.726-6.241,17.079-13.65,23.197-22.047
	c5.728-7.887,11.582-14.207,16.751-19.781c10.17-10.962,18.618-20.123,21.489-35.386c3.121-0.946,5.822-1.226,8.168-0.977
	c-5.016,20.245-16.521,34.762-28.632,49.994C399.869,552.943,386.036,570.38,379.809,596.76z M391.421,646.584
	c1.817-10.031,8.788-35.152,34.811-61.891c0.59-0.621,0.59-1.598-0.031-2.204c-0.621-0.589-1.6-0.573-2.19,0.03
	c-30.089,30.898-35.272,59.233-36.144,66.672c-2.021,1.429-3.742,2.593-5.046,3.463c-0.016-0.048-0.016-0.094-0.016-0.143
	c0.776-10.804,3.942-40.335,15.883-54.994c0.544-0.666,0.45-1.643-0.218-2.188c-0.666-0.544-1.646-0.435-2.189,0.233
	c-8.647,10.619-12.87,28.057-14.919,41.582c-2.717-49.982,16.781-74.543,35.711-98.378c12.437-15.651,24.25-30.556,29.482-51.671
	c1.601,0.746,2.95,1.737,4.1,2.887c-2.159,22.686-10.93,36.721-20.897,52.605c-7.98,12.7-16.227,25.852-22.079,45.011
	c-0.249,0.822,0.2,1.677,1.024,1.94c0.154,0.046,0.31,0.062,0.45,0.062c0.668,0,1.288-0.435,1.49-1.101
	c5.729-18.771,13.864-31.738,21.737-44.266c9.315-14.845,18.197-29.036,20.976-50.695c1.305,2.19,2.128,4.455,2.608,6.196
	c0.388,1.35,1.196,1.802,2.145,1.239c-0.871,14.924-4.674,40.912-19.937,57.264c-0.591,0.637-0.544,1.613,0.076,2.189
	c0.296,0.279,0.683,0.418,1.056,0.418c0.421,0,0.84-0.154,1.134-0.482c17.313-18.553,20.511-47.913,20.96-62.444
	c1.072-0.949,2.112-1.771,3.121-2.487c6.553,15.063,4.178,26.941,4.162,27.08c-0.032,0.092-0.047,0.186-0.047,0.295
	C463.155,586.201,414.214,629.611,391.421,646.584z M469.721,640.652c4.969-17.079,12.995-50.385,7.934-73.596
	c-0.171-0.84-1.009-1.367-1.848-1.18c-0.839,0.17-1.365,1.01-1.179,1.847c5.868,27.017-7.034,69.774-10.48,80.413
	c-3.805,4.797-7.251,8.521-9.533,10.869c-0.264-9.351,0.356-31.705,10.729-48.679c0.433-0.728,0.216-1.692-0.528-2.141
	c-0.73-0.437-1.676-0.204-2.128,0.527c-7.361,12.033-10.029,26.331-10.885,37.343c-2.204-17.811,1.987-31.162,6.086-44.189
	c3.852-12.236,7.499-23.787,5.823-38.164c0-0.046-0.016-0.095-0.031-0.125c4.86-12.357,8.307-25.788,9.58-40.244
	c0.326-1.662,2.469-14.347-4.658-30.213c2.748-1.182,5.201-1.446,7.375-1.119c2.375,6.227,4.24,13.632,2.78,19.221
	c-0.218,0.824,0.279,1.676,1.102,1.896c0.14,0.03,0.264,0.045,0.403,0.045c0.683,0,1.32-0.464,1.491-1.165
	c1.475-5.619,0.076-12.59-2.019-18.755c4.255,2.237,7.064,6.662,8.539,9.583c0.265,0.493,0.544,0.821,0.854,1.006
	c-1.365,6.723-3.352,12.111-5.309,17.357c-5.9,15.964-11.041,29.889,3.649,71.595C487.188,610.965,478.478,628.028,469.721,640.652z
	 M523.769,587.973c-0.046-0.855-0.777-1.523-1.629-1.479c-0.855,0.049-1.522,0.777-1.478,1.632
	c2.175,40.618-7.684,69.218-11.131,77.833c-3.354,3.945-6.49,7.189-9.068,9.658c4.457-12.297,10.216-38.21,2.344-79.369
	c-0.17-0.841-0.978-1.383-1.818-1.244c-0.852,0.17-1.396,0.979-1.24,1.832c6.583,34.328,3.338,58.039-0.388,71.654
	c1.739-18.91,2.997-49.514-4.224-68.331c-18.09-47.2-12.935-61.159-6.941-77.353c1.693-4.549,3.511-9.471,4.906-15.402
	c-0.356,10.371,0.156,23.414,2.874,37.916c0.155,0.746,0.808,1.258,1.535,1.258c0.095,0,0.188,0,0.28-0.016
	c0.854-0.157,1.396-0.979,1.242-1.816c-3.772-20.029-3.229-37.188-2.08-48.195c3.556-2.578,7.157-3.09,10.528-2.453
	c2.313,19.175,5.869,60.135-1.431,89.137c-0.199,0.822,0.298,1.662,1.135,1.881c0.124,0.03,0.249,0.045,0.373,0.045
	c0.699,0,1.334-0.467,1.508-1.18c7.233-28.787,3.989-69.031,1.66-88.937c4.829,1.926,8.896,5.762,11.194,8.261
	c0.621,0.667,1.303,0.916,1.91,0.776c-14.765,31.534-3.34,53.938,12.048,75.939c5.62,33.536-7.405,60.677-20.388,78.394
	C519.779,644.844,525.492,620.064,523.769,587.973z M560.245,829.922c-19.281,59.771-33.345,110.529-35.882,119.781
	c-7.333,2.738-13.592,2.262-18.754,0.291c3.119-3.984,9.114-12.682,18.034-29.988c0.394-0.762,0.095-1.698-0.67-2.09
	c-0.76-0.396-1.698-0.094-2.089,0.668c-9.331,18.1-15.427,26.634-18.2,30.088c-2.976-1.574-5.515-3.6-7.608-5.674
	c5.662-8.294,24.798-38.152,38.49-81.435c0.259-0.818-0.193-1.692-1.012-1.95c-0.82-0.26-1.69,0.194-1.949,1.014
	c-13.288,42.009-31.713,71.193-37.697,80.039c-2.062-2.396-3.509-4.628-4.321-6.001c8.112-14.981,15.237-29.446,21.514-43.393
	c0.045-0.085,0.109-0.154,0.148-0.245c0.042-0.104,0.139-0.346,0.257-0.646c35.246-78.641,43.007-140.422,42.649-180.688
	c-0.248-27.963-4.224-48.926-7.941-62.533c2.169,2.793,4.757,5.719,7.854,8.761c0.916,4.694,4.687,25.061,4.022,38.786
	c-0.041,0.854,0.621,1.582,1.478,1.625c0.023,0,0.05,0,0.075,0c0.822,0,1.512-0.646,1.55-1.477
	c0.575-11.927-2.001-28.199-3.414-36.023c0.114,0.016,0.224,0.063,0.339,0.063c0.094,0,0.187,0,0.279-0.015
	c0.668-0.079,1.274-0.452,1.661-1.025c0.159-0.236,1.828-2.838,3.454-7.908c2.224,12.29,6.107,36.253,6.107,53.617
	c0,0.858,0.693,1.553,1.552,1.553s1.553-0.694,1.553-1.553c0-21.831-6.03-53.806-7.403-60.811c0.659-3.448,1.16-7.502,1.324-12.193
	C579.805,679.766,581.713,763.371,560.245,829.922z M745.794,706.015c-1.522,0.185-2.683,1.456-2.729,2.987
	c-0.047,1.534,1.033,2.871,2.541,3.15l10.802,1.99c-20.672,8.784-44.215,31.328-45.44,32.51c-0.91,0.877-1.197,2.224-0.723,3.397
	c0.473,1.173,1.613,1.943,2.879,1.943h3.427c-5.17,5.85-11.313,15.476-17.086,29.425c-7.396,17.871-24.155,23.113-24.314,23.162
	c-1.48,0.439-2.412,1.898-2.191,3.424c0.222,1.528,1.532,2.659,3.073,2.659c0.682,0,0.972,0.209,1.184,0.437
	c0.37,0.396,0.628,1.01,0.805,1.68c-3.709-0.137-7.425,0.568-11.301,1.347c-4.588,0.923-9.789,1.968-16.936,1.968
	c-0.001,0-0.001,0-0.002,0c-6.705,0-13.997-0.916-22.292-2.795c-11.386-2.584-19.019-7.484-23.34-14.987
	c-6.026-10.468-7.281-34.034,3.176-54.458c27.633-6.85,53.827,57.813,54.093,58.477c0.363,0.909,1.238,1.465,2.162,1.465
	c0.288,0,0.58-0.055,0.864-0.167c1.194-0.477,1.775-1.831,1.298-3.026c-1.094-2.738-25.74-63.504-55.486-61.879
	c21.509-11.172,35.817,0.043,49.657,10.908c9.174,7.203,17.935,14.08,28.149,14.08c2.46,0,5.002-0.396,7.656-1.285
	c1.218-0.41,1.877-1.729,1.467-2.948c-0.407-1.22-1.729-1.88-2.947-1.468c-11.291,3.778-20.634-3.551-31.448-12.042
	c-0.826-0.649-1.66-1.302-2.5-1.956c7.299,1.486,15.089,1.883,21.235,1.883c6.332,0,10.913-0.412,11.396-0.457
	c0.854-0.079,1.481-0.837,1.401-1.689c-0.079-0.855-0.848-1.48-1.689-1.404c-0.269,0.03-23.913,2.145-39.225-3.438
	c-10.762-7.466-23.075-12.88-39.018-7.097c12.213-17.66,29.895-29.982,50.246-38.006c10.503-1.789,15.658,3.105,21.861,9.446
	c4.269,5.72,7.184,11.054,9.613,15.526c4.16,7.657,7.283,13.406,13.863,13.406c0.743,0,1.53-0.072,2.368-0.224
	c0.843-0.155,1.403-0.964,1.251-1.808c-0.154-0.843-0.965-1.401-1.806-1.25c-5.804,1.063-8.161-2.799-12.948-11.607
	c-0.927-1.711-1.938-3.552-3.048-5.483c5.089,3.761,11.429,6.577,20.586,6.577c4.395,0,9.439-0.648,15.299-2.149
	c1.246-0.321,1.997-1.589,1.678-2.835c-0.32-1.244-1.589-2.006-2.835-1.678c-23.387,5.998-31.91-2.734-40.152-11.178
	c-4.189-4.293-8.472-8.673-14.5-10.668c7.853-2.414,15.999-4.258,24.288-5.61c0.103-0.012,0.204-0.024,0.306-0.048
	c20.928-3.388,42.77-3.598,63.199-1.492c1.25,0.115,2.423-0.798,2.555-2.08c0.132-1.28-0.8-2.424-2.078-2.554
	c-18.664-1.923-38.483-1.932-57.783,0.576c9.699-9.24,18.759-13.61,18.865-13.661c1.161-0.549,1.657-1.938,1.108-3.1
	c-0.551-1.162-1.937-1.656-3.101-1.109c-0.521,0.245-12.736,6.113-24.482,18.995c-12.184,2.034-24.061,5.134-35.207,9.468
	c-0.135,0.023-0.259,0.035-0.395,0.061c-0.39,0.076-0.731,0.252-1.021,0.484c-1.604,0.644-3.191,1.313-4.764,2.011
	c14.43-18.031,43.247-32.204,43.57-32.362c1.157-0.564,1.639-1.956,1.075-3.115c-0.563-1.154-1.951-1.643-3.112-1.072
	c-1.534,0.742-37.487,18.419-49.954,40.65c-13.25,6.996-24.978,16.117-34.29,27.729c1.461-32.797,31.522-48.963,31.845-49.133
	c1.14-0.598,1.579-2.004,0.983-3.141c-0.596-1.138-2-1.58-3.14-0.986c-0.371,0.191-36.681,19.645-34.276,59.492
	c-1.262,1.865-2.473,3.778-3.616,5.758c-0.194,0.216-0.339,0.465-0.438,0.731c-0.767,1.353-1.487,2.747-2.198,4.154
	c-0.142,0.197-0.256,0.409-0.331,0.64c-0.352,0.713-0.703,1.426-1.041,2.15c-12.62-20.039-4.685-40.232-4.323-41.13
	c0.063-0.148,0.113-0.304,0.149-0.458c5.932-24.896,49.322-44.274,63.535-50.008l-0.326,4.557c-0.095,1.35,0.693,2.605,1.95,3.105
	c1.261,0.504,2.696,0.127,3.552-0.919c7.344-8.974,38.34-12.352,59.19-13.346c-2.115,1.886-3.574,3.548-3.931,3.964
	c-0.871,1.016-0.993,2.474-0.306,3.62c0.688,1.144,2.031,1.723,3.336,1.431c0.834-0.184,1.701-0.271,2.652-0.271
	c6.79,0,15.839,4.621,27.294,10.477c6.903,3.527,14.729,7.523,23.475,11.208c6.4,2.693,12.921,4.061,19.377,4.061
	c7.175-0.003,13.237-1.667,17.844-3.587C797.84,699.413,746.373,705.945,745.794,706.015z"/>
</svg>
